<svg xmlns="http://www.w3.org/2000/svg" xmlns:xlink="http://www.w3.org/1999/xlink" width="1920" zoomAndPan="magnify" viewBox="0 0 1440 809.999993" height="1080" preserveAspectRatio="xMidYMid meet" version="1.0"><defs><g/><clipPath id="27ad260ea9"><path d="M 985 547 L 1044.863281 547 L 1044.863281 696 L 985 696 Z M 985 547 " clip-rule="nonzero"/></clipPath></defs><path fill="#f7f1fd" d="M 429.816406 256.675781 C 416.019531 287.488281 395.59375 346.46875 403.804688 419.828125 C 414.335938 513.949219 466.480469 588.148438 517.203125 629.847656 C 685.519531 768.210938 993.636719 678.824219 1034.441406 548.488281 C 1041.839844 524.839844 1039.757812 502.035156 1037.199219 473.976562 C 1029.050781 384.722656 986.152344 358.191406 957.296875 263.425781 C 931.039062 177.179688 956.925781 167.472656 932.371094 129.132812 C 879.105469 45.960938 725.351562 41.769531 619.554688 81.644531 C 578.917969 96.960938 480.3125 143.945312 429.816406 256.675781 " fill-opacity="1" fill-rule="nonzero"/><path fill="#d9bff4" d="M 458.183594 610.195312 C 453.015625 606.90625 467.53125 589.164062 461.503906 562.957031 C 458.332031 549.164062 452.800781 547.527344 452.351562 534.6875 C 451.71875 516.433594 462.320312 502.984375 463.863281 501.082031 C 471.609375 491.542969 475.152344 494.625 487.953125 483.609375 C 494.878906 477.648438 510.652344 464.070312 512.972656 444.875 C 514.132812 435.253906 510.589844 433.929688 512.972656 425.984375 C 517.316406 411.488281 533.109375 398.617188 542.257812 402.367188 C 548.332031 404.859375 551.070312 414.550781 550.757812 422.203125 C 550.078125 438.910156 533.464844 441.746094 529.976562 459.046875 C 526.675781 475.40625 540.074219 480.070312 536.589844 494 C 531.867188 512.867188 505.828125 510.148438 496.914062 531.785156 C 491.015625 546.101562 500.617188 551.652344 495.96875 570.515625 C 489.625 596.261719 463.972656 613.875 458.183594 610.195312 " fill-opacity="1" fill-rule="nonzero"/><path fill="#ffffff" d="M 528.492188 425.207031 C 528.148438 433.085938 527.238281 440.960938 525.480469 448.667969 C 523.730469 456.367188 521.160156 463.910156 517.664062 471.019531 C 514.15625 478.121094 509.714844 484.773438 504.484375 490.738281 C 501.871094 493.722656 499.0625 496.53125 496.128906 499.195312 C 493.195312 501.859375 490.128906 504.363281 487.058594 506.835938 C 483.992188 509.308594 480.902344 511.738281 478.054688 514.378906 C 475.21875 517.019531 472.605469 519.910156 470.90625 523.285156 C 470.050781 524.964844 469.410156 526.746094 469.03125 528.589844 C 468.664062 530.433594 468.535156 532.328125 468.605469 534.222656 C 468.71875 538.007812 469.714844 541.730469 471.097656 545.351562 C 472.460938 548.984375 474.113281 552.589844 475.375 556.414062 C 476.644531 560.222656 477.464844 564.304688 477.355469 568.417969 C 477.390625 569.449219 477.242188 570.464844 477.132812 571.484375 C 477.066406 571.992188 477.03125 572.507812 476.945312 573.011719 L 476.617188 574.511719 C 476.234375 576.523438 475.621094 578.476562 474.863281 580.375 C 473.363281 584.167969 471.238281 587.703125 468.703125 590.875 C 468.214844 591.488281 467.324219 591.585938 466.710938 591.097656 C 466.101562 590.609375 466 589.71875 466.488281 589.105469 C 466.492188 589.105469 466.496094 589.09375 466.5 589.09375 C 468.914062 586.144531 470.933594 582.878906 472.375 579.363281 C 473.097656 577.613281 473.691406 575.800781 474.066406 573.945312 L 474.386719 572.5625 C 474.476562 572.101562 474.511719 571.628906 474.578125 571.160156 C 474.6875 570.226562 474.84375 569.292969 474.816406 568.347656 C 474.964844 564.578125 474.269531 560.8125 473.097656 557.148438 C 471.9375 553.472656 470.347656 549.878906 468.992188 546.125 C 467.617188 542.386719 466.582031 538.375 466.511719 534.277344 C 466.460938 532.234375 466.625 530.183594 467.050781 528.167969 C 467.492188 526.15625 468.222656 524.207031 469.175781 522.390625 C 471.078125 518.730469 473.894531 515.730469 476.835938 513.054688 C 479.800781 510.375 482.9375 507.972656 486.03125 505.539062 C 489.125 503.109375 492.195312 500.667969 495.125 498.074219 C 498.054688 495.480469 500.855469 492.746094 503.46875 489.835938 C 508.691406 484.023438 513.160156 477.519531 516.714844 470.542969 C 520.257812 463.558594 522.902344 456.121094 524.730469 448.492188 C 526.574219 440.859375 527.578125 433.03125 528.023438 425.183594 C 528.03125 425.054688 528.140625 424.957031 528.269531 424.960938 C 528.398438 424.964844 528.5 425.078125 528.492188 425.207031 " fill-opacity="1" fill-rule="nonzero"/><path fill="#d9bff4" d="M 474.242188 307.898438 C 482.464844 306.261719 493.414062 328.851562 499.746094 341.910156 C 510.890625 364.890625 518.609375 380.8125 514.863281 398.585938 C 509.578125 423.640625 488.085938 421.222656 478.964844 447.710938 C 469.21875 476.003906 491.582031 485.027344 481.796875 516.671875 C 474.964844 538.765625 458.648438 551.871094 464.792969 568.628906 C 467.082031 574.859375 470.40625 575.960938 471.40625 582.796875 C 473.636719 598.050781 460.492188 616.050781 451.570312 614.914062 C 448.296875 614.5 446.265625 611.59375 438.34375 596.023438 C 428.730469 577.121094 423.921875 567.675781 423.230469 564.847656 C 416.785156 538.511719 443.339844 528.261719 444.011719 497.777344 C 444.648438 468.789062 420.910156 466 421.339844 438.265625 C 421.765625 410.632812 445.410156 407.960938 460.070312 366.46875 C 471.675781 333.617188 465.945312 309.554688 474.242188 307.898438 " fill-opacity="1" fill-rule="nonzero"/><path fill="#6a54cd" d="M 474.46875 309.039062 C 471.175781 309.695312 470.535156 315.976562 469.566406 325.484375 C 468.496094 335.929688 467.039062 350.234375 461.164062 366.855469 C 453.988281 387.171875 444.554688 398.417969 436.972656 407.457031 C 429.007812 416.957031 422.714844 424.457031 422.5 438.285156 C 422.296875 451.570312 427.714844 458.847656 433.457031 466.550781 C 439.378906 474.5 445.503906 482.71875 445.171875 497.804688 C 444.847656 512.503906 438.523438 522.78125 432.945312 531.847656 C 426.574219 542.199219 421.070312 551.140625 424.355469 564.570312 C 425.015625 567.269531 430.117188 577.296875 439.378906 595.496094 C 446.933594 610.347656 449.007812 613.421875 451.714844 613.765625 C 454.328125 614.097656 457.675781 612.402344 460.898438 609.125 C 466.421875 603.492188 471.710938 592.90625 470.257812 582.964844 C 469.71875 579.261719 468.464844 577.390625 467.015625 575.222656 C 465.9375 573.609375 464.714844 571.777344 463.703125 569.027344 C 459.65625 557.992188 464.859375 548.5625 470.886719 537.644531 C 474.308594 531.445312 478.1875 524.414062 480.6875 516.328125 C 485.542969 500.628906 482.296875 490.582031 479.15625 480.871094 C 476.097656 471.417969 472.9375 461.640625 477.867188 447.332031 C 482.441406 434.058594 489.925781 427.96875 497.164062 422.082031 C 504.339844 416.25 511.113281 410.738281 513.726562 398.347656 C 517.390625 380.960938 509.957031 365.628906 498.703125 342.414062 C 493.21875 331.105469 481.828125 307.574219 474.46875 309.039062 Z M 452.390625 616.128906 C 452.0625 616.128906 451.738281 616.105469 451.421875 616.066406 C 447.578125 615.578125 445.597656 612.84375 437.308594 596.546875 C 427.363281 577.003906 422.824219 568.082031 422.101562 565.125 C 418.585938 550.746094 424.601562 540.976562 430.96875 530.628906 C 436.65625 521.386719 442.539062 511.824219 442.851562 497.75 C 443.167969 483.46875 437.546875 475.925781 431.59375 467.9375 C 425.875 460.261719 419.960938 452.324219 420.179688 438.246094 C 420.40625 423.597656 426.929688 415.816406 435.195312 405.964844 C 442.65625 397.066406 451.941406 386 458.976562 366.085938 C 464.753906 349.722656 466.199219 335.574219 467.253906 325.25 C 468.367188 314.339844 469.042969 307.75 474.015625 306.761719 C 482.417969 305.089844 491.847656 322.953125 500.789062 341.398438 C 511.84375 364.195312 519.828125 380.664062 515.996094 398.828125 C 513.214844 412.023438 506.128906 417.78125 498.628906 423.882812 C 491.644531 429.5625 484.417969 435.4375 480.0625 448.089844 C 475.386719 461.664062 478.289062 470.644531 481.363281 480.152344 C 484.617188 490.210938 487.980469 500.613281 482.90625 517.011719 C 480.335938 525.328125 476.398438 532.46875 472.921875 538.761719 C 466.929688 549.617188 462.203125 558.1875 465.882812 568.230469 C 466.796875 570.71875 467.890625 572.355469 468.945312 573.933594 C 470.484375 576.230469 471.9375 578.410156 472.554688 582.628906 C 474.121094 593.351562 468.46875 604.722656 462.554688 610.75 C 459.121094 614.25 455.550781 616.128906 452.390625 616.128906 " fill-opacity="1" fill-rule="nonzero"/><path fill="#ffffff" d="M 470.542969 396.402344 C 465.117188 403.40625 460.425781 411.007812 457.058594 419.191406 C 453.6875 427.355469 451.539062 436.066406 451.226562 444.882812 C 451.191406 445.984375 451.101562 447.085938 451.109375 448.183594 L 451.234375 451.484375 C 451.261719 452.035156 451.261719 452.585938 451.304688 453.132812 L 451.5 454.769531 C 451.640625 455.859375 451.734375 456.957031 451.914062 458.042969 C 452.648438 462.378906 453.84375 466.625 455.28125 470.800781 C 456.734375 474.96875 458.441406 479.078125 459.894531 483.308594 C 461.339844 487.53125 462.632812 491.886719 463.078125 496.402344 C 463.285156 497.515625 463.246094 498.65625 463.324219 499.785156 L 463.402344 501.480469 C 463.4375 502.046875 463.363281 502.613281 463.347656 503.175781 L 463.171875 506.566406 L 462.675781 509.917969 C 461.953125 514.367188 460.753906 518.769531 458.914062 522.90625 C 457.125 527.0625 454.804688 530.960938 452.351562 534.6875 C 449.910156 538.425781 447.367188 542.042969 445.382812 545.902344 C 441.257812 553.558594 440.472656 562.546875 442.164062 571.03125 C 443.824219 579.546875 447.945312 587.441406 453.191406 594.386719 C 453.664062 595.011719 453.539062 595.898438 452.914062 596.371094 C 452.289062 596.84375 451.402344 596.71875 450.929688 596.097656 L 450.921875 596.082031 C 445.5625 588.832031 441.316406 580.519531 439.65625 571.511719 C 439.273438 569.261719 438.953125 567 438.898438 564.714844 C 438.804688 563.574219 438.914062 562.429688 438.925781 561.289062 L 438.976562 559.574219 L 439.199219 557.863281 C 439.730469 553.304688 441.230469 548.863281 443.371094 544.859375 C 445.496094 540.828125 448.128906 537.1875 450.582031 533.515625 C 453.046875 529.851562 455.328125 526.101562 457.097656 522.113281 C 458.914062 518.144531 460.113281 513.910156 460.859375 509.613281 L 461.375 506.375 L 461.578125 503.113281 C 461.597656 502.570312 461.675781 502.027344 461.652344 501.484375 L 461.589844 499.847656 C 461.527344 498.761719 461.578125 497.664062 461.390625 496.589844 C 460.550781 487.851562 456.796875 479.699219 453.941406 471.257812 C 452.53125 467.019531 451.355469 462.679688 450.65625 458.242188 C 450.484375 457.132812 450.398438 456.011719 450.269531 454.894531 L 450.089844 453.222656 C 450.046875 452.664062 450.050781 452.105469 450.03125 451.542969 L 449.941406 448.179688 C 449.945312 447.0625 450.050781 445.941406 450.097656 444.828125 C 450.507812 435.871094 452.785156 427.070312 456.273438 418.859375 C 459.765625 410.632812 464.574219 403.03125 470.097656 396.050781 C 470.195312 395.929688 470.371094 395.90625 470.492188 396.007812 C 470.617188 396.101562 470.636719 396.277344 470.542969 396.402344 " fill-opacity="1" fill-rule="nonzero"/><path fill="#6a54cd" d="M 454.402344 658.371094 C 438.75 658.371094 426.0625 645.683594 426.0625 630.03125 L 426.0625 601.6875 L 482.742188 601.6875 L 482.742188 630.03125 C 482.742188 645.683594 470.054688 658.371094 454.402344 658.371094 " fill-opacity="1" fill-rule="nonzero"/><path fill="#000000" d="M 631.832031 93.457031 C 631.359375 93.457031 630.914062 93.167969 630.742188 92.699219 C 630.523438 92.097656 630.832031 91.429688 631.433594 91.214844 C 660.046875 80.695312 689.5625 75.367188 719.148438 75.367188 C 719.355469 75.367188 719.558594 75.367188 719.765625 75.367188 C 720.40625 75.371094 720.925781 75.890625 720.925781 76.53125 C 720.925781 77.171875 720.40625 77.6875 719.765625 77.6875 C 719.589844 77.699219 719.351562 77.6875 719.148438 77.6875 C 689.832031 77.6875 660.597656 82.96875 632.230469 93.390625 C 632.101562 93.4375 631.964844 93.457031 631.832031 93.457031 " fill-opacity="1" fill-rule="nonzero"/><path fill="#000000" d="M 607.738281 103.660156 C 607.304688 103.660156 606.890625 103.417969 606.691406 103.003906 C 606.410156 102.429688 606.65625 101.734375 607.234375 101.457031 C 610.933594 99.675781 614.71875 97.957031 618.480469 96.351562 C 619.070312 96.097656 619.753906 96.375 620.003906 96.960938 C 620.257812 97.554688 619.980469 98.234375 619.394531 98.484375 C 615.664062 100.078125 611.910156 101.785156 608.238281 103.546875 C 608.078125 103.628906 607.90625 103.660156 607.738281 103.660156 " fill-opacity="1" fill-rule="nonzero"/><path fill="#000000" d="M 597.515625 128.046875 C 597.125 128.046875 596.738281 127.84375 596.523438 127.480469 C 596.191406 126.933594 596.367188 126.21875 596.917969 125.886719 C 629.136719 106.453125 677.996094 92.53125 705.835938 94.851562 C 706.472656 94.90625 706.949219 95.46875 706.894531 96.105469 C 706.84375 96.742188 706.292969 97.21875 705.644531 97.164062 C 678.222656 94.882812 629.980469 108.65625 598.117188 127.875 C 597.925781 127.988281 597.722656 128.046875 597.515625 128.046875 " fill-opacity="1" fill-rule="nonzero"/><path fill="#000000" d="M 459.980469 220.785156 C 459.765625 220.785156 459.546875 220.726562 459.351562 220.601562 C 458.8125 220.25 458.660156 219.53125 459.007812 218.992188 C 470.675781 200.957031 484.476562 184.582031 500.027344 170.320312 C 500.5 169.886719 501.230469 169.917969 501.664062 170.390625 C 502.097656 170.863281 502.066406 171.597656 501.59375 172.03125 C 486.1875 186.160156 472.515625 202.382812 460.957031 220.253906 C 460.734375 220.601562 460.363281 220.785156 459.980469 220.785156 " fill-opacity="1" fill-rule="nonzero"/><path fill="#000000" d="M 461.414062 241.496094 C 461.222656 241.496094 461.027344 241.449219 460.847656 241.34375 C 460.289062 241.03125 460.089844 240.324219 460.402344 239.765625 C 472.695312 217.863281 486.804688 199.804688 499.113281 190.21875 C 499.621094 189.828125 500.351562 189.914062 500.742188 190.421875 C 501.136719 190.929688 501.046875 191.65625 500.539062 192.050781 C 488.46875 201.453125 474.578125 219.257812 462.425781 240.902344 C 462.214844 241.28125 461.820312 241.496094 461.414062 241.496094 " fill-opacity="1" fill-rule="nonzero"/><path fill="#000000" d="M 897.058594 123.796875 C 896.828125 123.796875 896.597656 123.726562 896.390625 123.585938 C 895.871094 123.214844 895.742188 122.488281 896.117188 121.964844 L 899.582031 117.066406 C 899.945312 116.539062 900.671875 116.414062 901.199219 116.785156 C 901.722656 117.152344 901.84375 117.878906 901.472656 118.40625 L 898.011719 123.304688 C 897.78125 123.628906 897.425781 123.796875 897.058594 123.796875 " fill-opacity="1" fill-rule="nonzero"/><path fill="#000000" d="M 888.992188 135.21875 C 888.757812 135.21875 888.527344 135.152344 888.320312 135.007812 C 887.796875 134.636719 887.671875 133.914062 888.042969 133.390625 L 891.507812 128.484375 C 891.875 127.960938 892.601562 127.835938 893.125 128.210938 C 893.652344 128.578125 893.777344 129.304688 893.40625 129.824219 L 889.9375 134.730469 C 889.710938 135.050781 889.351562 135.21875 888.992188 135.21875 " fill-opacity="1" fill-rule="nonzero"/><path fill="#000000" d="M 891.5 124.753906 C 891.265625 124.753906 891.03125 124.683594 890.832031 124.542969 L 885.925781 121.074219 C 885.402344 120.707031 885.277344 119.984375 885.652344 119.457031 C 886.019531 118.933594 886.742188 118.8125 887.265625 119.179688 L 892.171875 122.644531 C 892.691406 123.015625 892.816406 123.738281 892.445312 124.265625 C 892.222656 124.582031 891.863281 124.753906 891.5 124.753906 " fill-opacity="1" fill-rule="nonzero"/><path fill="#000000" d="M 902.917969 132.828125 C 902.683594 132.828125 902.453125 132.753906 902.25 132.609375 L 897.34375 129.144531 C 896.820312 128.777344 896.699219 128.054688 897.066406 127.53125 C 897.4375 127.003906 898.164062 126.882812 898.6875 127.25 L 903.589844 130.714844 C 904.113281 131.089844 904.238281 131.8125 903.867188 132.332031 C 903.640625 132.652344 903.28125 132.828125 902.917969 132.828125 " fill-opacity="1" fill-rule="nonzero"/><path fill="#000000" d="M 426.109375 303.121094 C 423.296875 304.386719 422.015625 307.757812 423.257812 310.636719 C 423.867188 312.039062 424.96875 313.113281 426.371094 313.660156 C 427.742188 314.191406 429.230469 314.152344 430.570312 313.554688 C 433.386719 312.285156 434.664062 308.914062 433.421875 306.035156 C 432.816406 304.632812 431.710938 303.5625 430.3125 303.015625 C 428.945312 302.484375 427.449219 302.523438 426.109375 303.121094 Z M 428.34375 316.355469 C 427.394531 316.355469 426.445312 316.179688 425.53125 315.824219 C 423.542969 315.054688 421.980469 313.539062 421.128906 311.558594 C 419.386719 307.519531 421.195312 302.785156 425.160156 301.003906 C 427.074219 300.148438 429.203125 300.09375 431.152344 300.847656 C 433.136719 301.621094 434.703125 303.136719 435.554688 305.117188 C 437.296875 309.152344 435.488281 313.886719 431.523438 315.667969 C 430.503906 316.128906 429.425781 316.355469 428.34375 316.355469 " fill-opacity="1" fill-rule="nonzero"/><path fill="#ffffff" d="M 578.425781 146.449219 L 536.847656 146.449219 C 528.824219 146.449219 522.316406 152.957031 522.316406 160.980469 L 522.316406 263.292969 C 522.316406 271.320312 528.824219 277.828125 536.847656 277.828125 L 578.425781 277.828125 C 586.453125 277.828125 592.960938 271.320312 592.960938 263.292969 L 592.960938 160.980469 C 592.960938 152.957031 586.453125 146.449219 578.425781 146.449219 " fill-opacity="1" fill-rule="nonzero"/><path fill="#000000" d="M 536.847656 147.613281 C 529.476562 147.613281 523.476562 153.609375 523.476562 160.984375 L 523.476562 263.292969 C 523.476562 270.664062 529.476562 276.667969 536.847656 276.667969 L 578.425781 276.667969 C 585.800781 276.667969 591.796875 270.664062 591.796875 263.292969 L 591.796875 160.984375 C 591.796875 153.609375 585.800781 147.613281 578.425781 147.613281 Z M 578.425781 278.988281 L 536.847656 278.988281 C 528.195312 278.988281 521.15625 271.945312 521.15625 263.292969 L 521.15625 160.984375 C 521.15625 152.332031 528.195312 145.289062 536.847656 145.289062 L 578.425781 145.289062 C 587.082031 145.289062 594.121094 152.332031 594.121094 160.984375 L 594.121094 263.292969 C 594.121094 271.945312 587.082031 278.988281 578.425781 278.988281 " fill-opacity="1" fill-rule="nonzero"/><path fill="#d9bff4" d="M 536.847656 274.265625 C 530.800781 274.265625 525.882812 269.347656 525.882812 263.296875 L 525.882812 160.988281 C 525.882812 154.941406 530.800781 150.023438 536.847656 150.023438 L 578.425781 150.023438 C 584.472656 150.023438 589.390625 154.941406 589.390625 160.988281 L 589.390625 263.296875 C 589.390625 269.347656 584.472656 274.265625 578.425781 274.265625 L 536.847656 274.265625 " fill-opacity="1" fill-rule="nonzero"/><path fill="#ffffff" d="M 575.007812 155.683594 L 540.265625 155.683594 C 536.460938 155.683594 533.375 158.765625 533.375 162.574219 L 533.375 163.597656 C 533.375 167.398438 536.460938 170.484375 540.265625 170.484375 L 575.007812 170.484375 C 578.8125 170.484375 581.898438 167.398438 581.898438 163.597656 L 581.898438 162.574219 C 581.898438 158.765625 578.8125 155.683594 575.007812 155.683594 " fill-opacity="1" fill-rule="nonzero"/><path fill="#ffffff" d="M 575.007812 175.304688 L 540.265625 175.304688 C 536.460938 175.304688 533.375 178.390625 533.375 182.199219 L 533.375 183.21875 C 533.375 187.027344 536.460938 190.109375 540.265625 190.109375 L 575.007812 190.109375 C 578.8125 190.109375 581.898438 187.027344 581.898438 183.21875 L 581.898438 182.199219 C 581.898438 178.390625 578.8125 175.304688 575.007812 175.304688 " fill-opacity="1" fill-rule="nonzero"/><path fill="#ffffff" d="M 575.007812 194.925781 L 540.265625 194.925781 C 536.460938 194.925781 533.375 198.011719 533.375 201.816406 L 533.375 202.839844 C 533.375 206.644531 536.460938 209.730469 540.265625 209.730469 L 575.007812 209.730469 C 578.8125 209.730469 581.898438 206.644531 581.898438 202.839844 L 581.898438 201.816406 C 581.898438 198.011719 578.8125 194.925781 575.007812 194.925781 " fill-opacity="1" fill-rule="nonzero"/><path fill="#ffffff" d="M 575.007812 214.550781 L 540.265625 214.550781 C 536.460938 214.550781 533.375 217.632812 533.375 221.441406 L 533.375 222.464844 C 533.375 226.269531 536.460938 229.351562 540.265625 229.351562 L 575.007812 229.351562 C 578.8125 229.351562 581.898438 226.269531 581.898438 222.464844 L 581.898438 221.441406 C 581.898438 217.632812 578.8125 214.550781 575.007812 214.550781 " fill-opacity="1" fill-rule="nonzero"/><path fill="#ffffff" d="M 575.007812 234.175781 L 540.265625 234.175781 C 536.460938 234.175781 533.375 237.257812 533.375 241.066406 L 533.375 242.089844 C 533.375 245.894531 536.460938 248.976562 540.265625 248.976562 L 575.007812 248.976562 C 578.8125 248.976562 581.898438 245.894531 581.898438 242.089844 L 581.898438 241.066406 C 581.898438 237.257812 578.8125 234.175781 575.007812 234.175781 " fill-opacity="1" fill-rule="nonzero"/><path fill="#6a54cd" d="M 575.007812 253.796875 L 540.265625 253.796875 C 536.460938 253.796875 533.375 256.882812 533.375 260.6875 L 533.375 261.710938 C 533.375 265.515625 536.460938 268.601562 540.265625 268.601562 L 575.007812 268.601562 C 578.8125 268.601562 581.898438 265.515625 581.898438 261.710938 L 581.898438 260.6875 C 581.898438 256.882812 578.8125 253.796875 575.007812 253.796875 " fill-opacity="1" fill-rule="nonzero"/><path fill="#ffffff" d="M 569.765625 135.230469 L 546.742188 135.230469 C 542.082031 135.230469 538.300781 139.007812 538.300781 143.667969 L 578.207031 143.667969 C 578.207031 139.007812 574.429688 135.230469 569.765625 135.230469 " fill-opacity="1" fill-rule="nonzero"/><path fill="#000000" d="M 539.554688 142.507812 L 576.953125 142.507812 C 576.394531 139.042969 573.386719 136.386719 569.765625 136.386719 L 546.742188 136.386719 C 543.125 136.386719 540.113281 139.042969 539.554688 142.507812 Z M 578.207031 144.828125 L 538.300781 144.828125 C 537.660156 144.828125 537.140625 144.308594 537.140625 143.667969 C 537.140625 138.371094 541.449219 134.070312 546.742188 134.070312 L 569.765625 134.070312 C 575.058594 134.070312 579.367188 138.371094 579.367188 143.667969 C 579.367188 144.308594 578.847656 144.828125 578.207031 144.828125 " fill-opacity="1" fill-rule="nonzero"/><path fill="#d9bff4" d="M 715.714844 657.96875 L 696.835938 657.96875 L 696.835938 432.417969 L 715.714844 432.417969 L 715.714844 657.96875 " fill-opacity="1" fill-rule="nonzero"/><path fill="#6a54cd" d="M 697.996094 656.808594 L 714.554688 656.808594 L 714.554688 433.582031 L 697.996094 433.582031 Z M 716.875 659.128906 L 695.671875 659.128906 L 695.671875 431.257812 L 716.875 431.257812 L 716.875 659.128906 " fill-opacity="1" fill-rule="nonzero"/><path fill="#d9bff4" d="M 617.777344 665.289062 L 701.339844 657.761719 L 709.003906 657.761719 L 794.3125 665.289062 L 794.3125 671.261719 L 617.777344 671.261719 L 617.777344 665.289062 " fill-opacity="1" fill-rule="nonzero"/><path fill="#6a54cd" d="M 618.9375 670.101562 L 793.152344 670.101562 L 793.152344 666.351562 L 708.949219 658.921875 L 701.394531 658.921875 L 618.9375 666.351562 Z M 795.472656 672.421875 L 616.617188 672.421875 L 616.617188 664.230469 L 701.339844 656.601562 L 709.105469 656.605469 L 795.472656 664.226562 L 795.472656 672.421875 " fill-opacity="1" fill-rule="nonzero"/><path fill="#d9bff4" d="M 691.675781 288.050781 L 691.675781 336.726562 C 691.675781 384.332031 656.433594 422.917969 612.964844 422.917969 C 569.492188 422.917969 534.25 461.511719 534.25 509.113281 C 534.25 513.355469 537.472656 516.796875 541.445312 516.796875 L 749.804688 516.796875 C 814.976562 516.796875 867.804688 458.945312 867.804688 387.578125 L 867.804688 283.722656 C 867.804688 255.339844 846.796875 232.328125 820.875 232.328125 L 742.570312 232.328125 C 714.460938 232.328125 691.675781 257.277344 691.675781 288.050781 " fill-opacity="1" fill-rule="nonzero"/><path fill="#6a54cd" d="M 742.566406 233.488281 C 715.144531 233.488281 692.839844 257.964844 692.839844 288.054688 L 692.839844 336.730469 C 692.839844 384.890625 657.007812 424.082031 612.964844 424.082031 C 570.203125 424.082031 535.414062 462.226562 535.414062 509.113281 C 535.414062 512.710938 538.117188 515.636719 541.445312 515.636719 L 749.804688 515.636719 C 814.234375 515.636719 866.644531 458.191406 866.644531 387.578125 L 866.644531 283.722656 C 866.644531 256.023438 846.113281 233.488281 820.875 233.488281 Z M 749.804688 517.953125 L 541.445312 517.953125 C 536.839844 517.953125 533.089844 513.992188 533.089844 509.113281 C 533.089844 460.945312 568.921875 421.757812 612.964844 421.757812 C 655.726562 421.757812 690.515625 383.613281 690.515625 336.730469 L 690.515625 288.054688 C 690.515625 256.6875 713.863281 231.167969 742.566406 231.167969 L 820.875 231.167969 C 847.390625 231.167969 868.96875 254.746094 868.96875 283.722656 L 868.96875 387.578125 C 868.96875 459.46875 815.511719 517.953125 749.804688 517.953125 " fill-opacity="1" fill-rule="nonzero"/><path fill="#ffffff" d="M 649.363281 627.078125 C 647.425781 625.121094 636.226562 590.289062 636.226562 590.289062 L 614.105469 606.074219 L 638.359375 638.675781 L 649.363281 627.078125 " fill-opacity="1" fill-rule="nonzero"/><path fill="#000000" d="M 615.742188 606.332031 L 638.464844 636.871094 L 647.917969 626.914062 C 645.320312 621.890625 638.441406 600.921875 635.613281 592.15625 Z M 638.359375 639.835938 C 638.335938 639.835938 638.3125 639.832031 638.292969 639.832031 C 637.949219 639.808594 637.632812 639.640625 637.429688 639.367188 L 613.171875 606.769531 C 612.984375 606.519531 612.910156 606.203125 612.957031 605.894531 C 613.007812 605.585938 613.175781 605.3125 613.429688 605.128906 L 635.554688 589.34375 C 635.855469 589.128906 636.242188 589.070312 636.59375 589.1875 C 636.949219 589.300781 637.222656 589.578125 637.332031 589.933594 C 641.5625 603.09375 648.796875 624.597656 650.203125 626.277344 C 650.644531 626.722656 650.636719 627.421875 650.203125 627.878906 L 639.203125 639.46875 C 638.980469 639.703125 638.675781 639.835938 638.359375 639.835938 " fill-opacity="1" fill-rule="nonzero"/><path fill="#000000" d="M 609.492188 671.117188 L 624.207031 671.03125 C 633.941406 670.976562 642.996094 666.027344 648.304688 657.867188 L 662.851562 634.835938 C 666.875 628.46875 664.625 620.035156 657.976562 616.5 C 651.902344 613.273438 645.539062 610.132812 644.050781 610.269531 C 641.023438 610.558594 639.800781 624.882812 639.800781 624.882812 L 626.691406 625.382812 C 626.691406 625.382812 620.214844 652.3125 614.519531 655.375 C 610.367188 657.605469 607.46875 660.878906 605.519531 663.871094 C 603.476562 666.996094 605.753906 671.140625 609.492188 671.117188 " fill-opacity="1" fill-rule="nonzero"/><path fill="#ffffff" d="M 610.972656 666.535156 C 610.40625 666.535156 609.910156 666.121094 609.824219 665.546875 C 609.730469 664.910156 610.167969 664.320312 610.800781 664.222656 L 630.925781 661.195312 C 635.113281 660.5625 638.761719 658.117188 640.933594 654.484375 L 658.71875 624.777344 C 659.046875 624.226562 659.761719 624.046875 660.3125 624.375 C 660.859375 624.707031 661.039062 625.417969 660.710938 625.96875 L 642.925781 655.675781 C 640.394531 659.910156 636.148438 662.753906 631.273438 663.488281 L 611.144531 666.519531 C 611.085938 666.53125 611.03125 666.535156 610.972656 666.535156 " fill-opacity="1" fill-rule="nonzero"/><path fill="#ffffff" d="M 635.816406 644.191406 C 635.714844 644.191406 635.613281 644.179688 635.511719 644.148438 L 624.296875 641.097656 C 623.679688 640.929688 623.3125 640.292969 623.480469 639.671875 C 623.648438 639.054688 624.285156 638.6875 624.90625 638.855469 L 636.121094 641.910156 C 636.738281 642.082031 637.101562 642.71875 636.933594 643.335938 C 636.792969 643.851562 636.328125 644.191406 635.816406 644.191406 " fill-opacity="1" fill-rule="nonzero"/><path fill="#ffffff" d="M 629.972656 649.949219 C 629.882812 649.949219 629.789062 649.941406 629.699219 649.917969 L 622.179688 648.078125 C 621.558594 647.925781 621.175781 647.296875 621.328125 646.671875 C 621.480469 646.050781 622.109375 645.671875 622.730469 645.820312 L 630.25 647.664062 C 630.875 647.8125 631.253906 648.441406 631.101562 649.066406 C 630.972656 649.597656 630.496094 649.949219 629.972656 649.949219 " fill-opacity="1" fill-rule="nonzero"/><path fill="#ffffff" d="M 573.871094 620.429688 L 548.183594 646.242188 L 534.566406 641.242188 L 558.246094 608.222656 L 573.871094 620.429688 " fill-opacity="1" fill-rule="nonzero"/><path fill="#000000" d="M 536.398438 640.675781 L 547.886719 644.894531 L 572.125 620.542969 L 558.484375 609.882812 Z M 548.183594 647.402344 C 548.050781 647.402344 547.914062 647.378906 547.785156 647.328125 L 534.164062 642.328125 C 533.824219 642.207031 533.5625 641.929688 533.457031 641.582031 C 533.351562 641.234375 533.410156 640.859375 533.621094 640.566406 L 557.300781 607.546875 C 557.488281 607.289062 557.769531 607.117188 558.082031 607.074219 C 558.386719 607.03125 558.710938 607.113281 558.960938 607.308594 L 574.585938 619.519531 C 574.847656 619.722656 575.007812 620.027344 575.027344 620.363281 C 575.050781 620.691406 574.929688 621.015625 574.695312 621.253906 L 549.007812 647.058594 C 548.785156 647.285156 548.488281 647.402344 548.183594 647.402344 " fill-opacity="1" fill-rule="nonzero"/><path fill="#000000" d="M 556.300781 642.203125 C 556.300781 642.203125 557.539062 653.183594 555.433594 662.886719 C 554.3125 668.058594 549.652344 671.691406 544.363281 671.691406 L 481.320312 671.691406 C 476.816406 671.691406 474.773438 666.066406 478.226562 663.175781 C 489.433594 653.78125 510.054688 639.441406 535.40625 635.234375 L 542.476562 645.132812 L 556.300781 642.203125 " fill-opacity="1" fill-rule="nonzero"/><path fill="#ffffff" d="M 549.652344 664.183594 L 484.316406 664.183594 C 483.679688 664.183594 483.15625 663.664062 483.15625 663.023438 C 483.15625 662.386719 483.679688 661.867188 484.316406 661.867188 L 549.652344 661.867188 C 550.292969 661.867188 550.8125 662.386719 550.8125 663.023438 C 550.8125 663.664062 550.292969 664.183594 549.652344 664.183594 " fill-opacity="1" fill-rule="nonzero"/><path fill="#ffffff" d="M 520.773438 652.578125 C 520.316406 652.578125 519.882812 652.308594 519.699219 651.863281 L 516.242188 643.472656 C 515.996094 642.878906 516.277344 642.203125 516.871094 641.957031 C 517.464844 641.710938 518.144531 641.996094 518.386719 642.589844 L 521.847656 650.976562 C 522.089844 651.570312 521.808594 652.246094 521.214844 652.492188 C 521.070312 652.550781 520.921875 652.578125 520.773438 652.578125 " fill-opacity="1" fill-rule="nonzero"/><path fill="#ffffff" d="M 509.402344 654.785156 C 508.914062 654.785156 508.460938 654.476562 508.300781 653.988281 L 505.796875 646.421875 C 505.597656 645.8125 505.925781 645.15625 506.535156 644.957031 C 507.144531 644.75 507.800781 645.085938 508.003906 645.691406 L 510.503906 653.261719 C 510.707031 653.871094 510.375 654.527344 509.765625 654.726562 C 509.648438 654.769531 509.523438 654.785156 509.402344 654.785156 " fill-opacity="1" fill-rule="nonzero"/><path fill="#000000" d="M 709.835938 439.832031 C 709.835938 439.832031 592.441406 426.167969 557.535156 456.386719 C 522.625 486.601562 612.640625 616.550781 612.640625 616.550781 L 641.105469 595.441406 L 614.105469 503.59375 L 722.625 472.773438 L 709.835938 439.832031 " fill-opacity="1" fill-rule="nonzero"/><path fill="#000000" d="M 774.449219 499.640625 C 757.394531 505.054688 726.882812 512.050781 684.234375 511.46875 C 672.117188 511.300781 660.933594 517.996094 655.425781 528.792969 C 642.796875 553.566406 615.457031 598.167969 570.921875 627.078125 L 549.652344 615.617188 L 603.9375 493.417969 C 608.894531 482.257812 618.164062 473.585938 629.628906 469.382812 L 737.21875 429.929688 C 737.21875 429.929688 770.578125 420.605469 786.9375 450.386719 C 789.855469 455.707031 795.28125 446.199219 796.574219 450.492188 C 801 465.203125 789.09375 494.996094 774.449219 499.640625 " fill-opacity="1" fill-rule="nonzero"/><path fill="#ffffff" d="M 579.40625 549.800781 C 579.25 549.800781 579.089844 549.765625 578.9375 549.699219 C 578.351562 549.4375 578.085938 548.753906 578.347656 548.167969 L 602.878906 492.945312 C 607.933594 481.5625 617.535156 472.578125 629.226562 468.292969 L 680.75 449.402344 C 681.355469 449.179688 682.019531 449.488281 682.242188 450.089844 C 682.460938 450.691406 682.152344 451.355469 681.550781 451.578125 L 630.027344 470.472656 C 618.921875 474.546875 609.800781 483.078125 605 493.886719 L 580.46875 549.109375 C 580.277344 549.542969 579.851562 549.800781 579.40625 549.800781 " fill-opacity="1" fill-rule="nonzero"/><path fill="#ffffff" d="M 608.050781 597.269531 C 607.761719 597.269531 607.46875 597.164062 607.246094 596.949219 C 606.78125 596.503906 606.769531 595.769531 607.214844 595.308594 C 612.109375 590.210938 616.929688 584.742188 621.53125 579.054688 C 621.933594 578.558594 622.664062 578.480469 623.164062 578.882812 C 623.660156 579.285156 623.738281 580.015625 623.335938 580.515625 C 618.691406 586.253906 613.828125 591.773438 608.886719 596.917969 C 608.660156 597.152344 608.355469 597.269531 608.050781 597.269531 " fill-opacity="1" fill-rule="nonzero"/><path fill="#ffffff" d="M 622.433594 580.945312 C 622.175781 580.945312 621.917969 580.859375 621.703125 580.6875 C 621.203125 580.28125 621.128906 579.550781 621.53125 579.054688 C 623.796875 576.253906 626.050781 573.347656 628.234375 570.417969 C 628.617188 569.902344 629.34375 569.796875 629.859375 570.179688 C 630.375 570.5625 630.480469 571.289062 630.097656 571.804688 C 627.894531 574.757812 625.621094 577.691406 623.335938 580.515625 C 623.105469 580.796875 622.769531 580.945312 622.433594 580.945312 " fill-opacity="1" fill-rule="nonzero"/><path fill="#6a54cd" d="M 781.84375 285.425781 C 768.394531 282.261719 762.785156 282.222656 713.886719 283.992188 C 701.941406 284.425781 687.726562 299.421875 686.320312 311.296875 C 690.117188 322.6875 707.644531 378.925781 677.046875 422.867188 C 672.707031 429.101562 666.800781 435.9375 658.699219 442.492188 C 663.25 446.175781 670.324219 450.96875 679.824219 453.789062 C 695.601562 458.472656 703.53125 453.410156 716.246094 453.789062 C 749.875 454.789062 762.203125 492.242188 783.921875 487.539062 C 789.722656 486.285156 797.40625 481.761719 804.613281 466.585938 C 808.703125 454 818.566406 437.359375 820.589844 420.660156 C 826.078125 375.394531 826.980469 330.09375 818.960938 306.441406 C 816.578125 298.96875 797.703125 289.15625 781.84375 285.425781 " fill-opacity="1" fill-rule="nonzero"/><path fill="#000000" d="M 714.871094 452.605469 C 715.332031 452.605469 715.804688 452.613281 716.28125 452.628906 C 734.300781 453.164062 746.203125 463.792969 756.707031 473.171875 C 765.933594 481.410156 773.902344 488.523438 783.679688 486.402344 C 791.234375 484.769531 797.917969 477.953125 803.535156 466.15625 C 804.933594 461.863281 806.984375 457.125 809.15625 452.109375 C 813.359375 442.402344 818.121094 431.398438 819.4375 420.519531 C 825.625 369.46875 825.050781 328.023438 817.859375 306.8125 C 815.777344 300.285156 798.148438 290.453125 781.578125 286.554688 C 768.4375 283.464844 763.378906 283.359375 713.933594 285.152344 C 703.050781 285.542969 689.082031 299.351562 687.503906 311.179688 C 690.785156 321.082031 694.84375 336.613281 695.742188 354.820312 C 697.0625 381.613281 691.089844 404.730469 677.996094 423.53125 C 673.140625 430.503906 667.273438 436.871094 660.546875 442.476562 C 666.632812 447.1875 673.21875 450.617188 680.15625 452.675781 C 690.003906 455.597656 696.609375 454.644531 703.605469 453.640625 C 707.132812 453.132812 710.773438 452.605469 714.871094 452.605469 Z M 780.109375 489.117188 C 771.082031 489.117188 763.625 482.460938 755.164062 474.902344 C 744.953125 465.789062 733.382812 455.460938 716.210938 454.949219 C 711.730469 454.816406 707.769531 455.386719 703.9375 455.9375 C 697 456.9375 689.828125 457.96875 679.496094 454.898438 C 671.839844 452.628906 664.597656 448.753906 657.96875 443.394531 C 657.695312 443.175781 657.539062 442.84375 657.539062 442.492188 C 657.539062 442.140625 657.695312 441.8125 657.96875 441.589844 C 664.992188 435.910156 671.089844 429.386719 676.09375 422.203125 C 704.164062 381.898438 691.824219 331.472656 685.21875 311.664062 C 685.167969 311.503906 685.148438 311.332031 685.167969 311.160156 C 686.582031 299.195312 700.746094 283.308594 713.847656 282.832031 C 763.585938 281.03125 768.691406 281.140625 782.109375 284.296875 C 797.960938 288.023438 817.449219 297.890625 820.0625 306.085938 C 827.359375 327.59375 827.972656 369.410156 821.742188 420.800781 C 820.382812 432.011719 815.550781 443.179688 811.285156 453.03125 C 809.125 458.023438 807.085938 462.738281 805.71875 466.941406 C 805.703125 466.992188 805.683594 467.039062 805.664062 467.082031 C 799.714844 479.609375 792.484375 486.871094 784.167969 488.671875 C 782.777344 488.972656 781.421875 489.117188 780.109375 489.117188 " fill-opacity="1" fill-rule="nonzero"/><path fill="#ffffff" d="M 674.050781 355.519531 C 674.050781 355.519531 681.960938 292.121094 704.746094 286.710938 C 696.726562 311.347656 694.058594 338.160156 695.222656 366.53125 C 695.273438 367.707031 693.984375 368.453125 692.992188 367.808594 L 674.050781 355.519531 " fill-opacity="1" fill-rule="nonzero"/><path fill="#000000" d="M 675.300781 354.941406 L 693.625 366.835938 C 693.71875 366.898438 693.820312 366.90625 693.917969 366.84375 C 693.988281 366.804688 694.070312 366.726562 694.066406 366.574219 C 692.855469 337.152344 695.765625 311.585938 702.953125 288.511719 C 683.984375 296.425781 676.230469 348.207031 675.300781 354.941406 Z M 693.777344 369.203125 C 693.289062 369.203125 692.792969 369.066406 692.363281 368.785156 L 672.8125 356.097656 L 672.898438 355.375 C 673.226562 352.753906 681.175781 291.113281 704.476562 285.582031 L 706.488281 285.097656 L 705.851562 287.066406 C 698.242188 310.4375 695.144531 336.414062 696.382812 366.480469 C 696.425781 367.460938 695.921875 368.378906 695.070312 368.859375 C 694.667969 369.09375 694.222656 369.203125 693.777344 369.203125 " fill-opacity="1" fill-rule="nonzero"/><path fill="#000000" d="M 651.820312 336.726562 C 644.480469 338.425781 635.683594 341.105469 625.15625 338.789062 C 610.121094 335.476562 597.066406 323.179688 596.753906 310.179688 C 596.714844 308.601562 596.628906 296.914062 606.015625 292.289062 C 610.949219 289.851562 613.769531 291.703125 618.550781 289.648438 C 628.765625 285.269531 622.9375 273.808594 631.246094 265.386719 C 641.355469 255.136719 666.226562 255.636719 679.835938 257.832031 C 701.085938 261.261719 704.5625 270.367188 717 268.792969 C 732.128906 266.867188 732.894531 252.644531 750.636719 239.25 C 767.351562 226.636719 807.675781 224.121094 831.472656 238.082031 C 867.070312 258.976562 871.378906 291.46875 870.160156 314.695312 C 868.949219 337.804688 842.722656 346.757812 816.765625 356.480469 C 805.449219 360.71875 794.773438 342.613281 756.285156 340.816406 C 687.464844 337.597656 679.339844 330.375 651.820312 336.726562 " fill-opacity="1" fill-rule="nonzero"/><path fill="#ffffff" d="M 621.0625 330.730469 C 618.050781 330.730469 615.070312 330.125 612.449219 328.882812 C 604.398438 325.074219 604.347656 317.398438 604.351562 317.074219 C 604.355469 316.429688 604.886719 315.902344 605.519531 315.921875 C 606.15625 315.921875 606.675781 316.445312 606.671875 317.085938 C 606.671875 317.351562 606.714844 323.601562 613.4375 326.785156 C 619.179688 329.5 627.167969 328.691406 632.433594 324.867188 C 632.953125 324.488281 633.679688 324.601562 634.058594 325.121094 C 634.433594 325.640625 634.320312 326.367188 633.800781 326.742188 C 630.195312 329.367188 625.589844 330.730469 621.0625 330.730469 " fill-opacity="1" fill-rule="nonzero"/><path fill="#ffffff" d="M 848.980469 264.09375 C 848.644531 264.09375 848.316406 263.957031 848.089844 263.679688 C 840.742188 254.875 832.824219 249.644531 832.746094 249.59375 C 832.207031 249.238281 832.058594 248.519531 832.410156 247.984375 C 832.761719 247.449219 833.484375 247.300781 834.019531 247.652344 C 834.351562 247.867188 842.304688 253.121094 849.871094 262.191406 C 850.28125 262.6875 850.214844 263.417969 849.722656 263.824219 C 849.503906 264.007812 849.242188 264.09375 848.980469 264.09375 " fill-opacity="1" fill-rule="nonzero"/><path fill="#ffffff" d="M 836.628906 343.042969 C 836.289062 343.042969 835.960938 342.898438 835.726562 342.617188 C 835.320312 342.125 835.390625 341.394531 835.882812 340.984375 C 848.277344 330.726562 855.503906 319.152344 857.359375 306.574219 C 857.449219 305.9375 858.046875 305.496094 858.679688 305.59375 C 859.308594 305.6875 859.746094 306.277344 859.65625 306.910156 C 857.710938 320.074219 850.210938 332.140625 837.359375 342.773438 C 837.148438 342.953125 836.886719 343.042969 836.628906 343.042969 " fill-opacity="1" fill-rule="nonzero"/><path fill="#ffffff" d="M 854.683594 278.050781 C 854.175781 278.050781 853.710938 277.71875 853.566406 277.207031 C 852.308594 272.765625 850.832031 270.046875 850.816406 270.023438 C 850.503906 269.460938 850.710938 268.753906 851.269531 268.445312 C 851.832031 268.136719 852.539062 268.339844 852.847656 268.902344 C 852.914062 269.015625 854.464844 271.855469 855.800781 276.574219 C 855.976562 277.1875 855.617188 277.832031 855 278.003906 C 854.894531 278.035156 854.789062 278.050781 854.683594 278.050781 " fill-opacity="1" fill-rule="nonzero"/><path fill="#ffffff" d="M 677.335938 340.308594 C 681.441406 341.6875 685.621094 342.84375 689.945312 343.128906 C 691.691406 343.242188 693.683594 343.324219 695.867188 343.332031 C 704.242188 343.367188 709.375 338.574219 714.613281 339.871094 C 719.855469 341.171875 753.445312 350.925781 753.445312 350.925781 C 753.445312 350.925781 750.558594 354.910156 741.074219 352.574219 C 731.59375 350.238281 721.519531 349.507812 718.585938 352.003906 C 715.652344 354.5 702.140625 355.003906 698.242188 353.308594 C 694.351562 351.613281 612.136719 359.933594 586.796875 353.265625 C 561.457031 346.597656 586.382812 325.570312 615.449219 326.597656 C 637.976562 327.398438 663.628906 335.707031 677.335938 340.308594 " fill-opacity="1" fill-rule="nonzero"/><path fill="#000000" d="M 613.277344 327.722656 C 593.800781 327.722656 578.523438 337.191406 577.523438 343.980469 C 576.824219 348.707031 583.21875 351.125 587.089844 352.144531 C 603.953125 356.578125 646.042969 354.320312 673.894531 352.828125 C 691.140625 351.90625 697.304688 351.636719 698.707031 352.246094 C 702.558594 353.921875 715.429688 353.164062 717.832031 351.121094 C 721.507812 347.992188 732.800781 349.339844 741.351562 351.449219 C 746.214844 352.644531 749.164062 352.078125 750.800781 351.367188 C 743.109375 349.136719 718.691406 342.078125 714.332031 341 C 712.007812 340.421875 709.535156 341.277344 706.664062 342.269531 C 703.628906 343.324219 700.160156 344.519531 695.863281 344.496094 C 693.851562 344.484375 691.835938 344.414062 689.871094 344.285156 C 685.121094 343.972656 680.679688 342.652344 676.964844 341.410156 C 659.183594 335.441406 636.121094 328.496094 615.40625 327.757812 C 614.691406 327.734375 613.980469 327.722656 613.277344 327.722656 Z M 620.601562 357.0625 C 606.601562 357.0625 594.105469 356.390625 586.5 354.386719 C 575.730469 351.554688 574.8125 346.4375 575.226562 343.640625 C 576.53125 334.796875 594.789062 324.703125 615.488281 325.441406 C 636.5 326.183594 659.773438 333.1875 677.703125 339.207031 C 681.28125 340.40625 685.539062 341.675781 690.019531 341.96875 C 691.941406 342.09375 693.910156 342.164062 695.871094 342.171875 C 699.800781 342.207031 703.046875 341.066406 705.90625 340.078125 C 708.988281 339.011719 711.902344 338.007812 714.890625 338.746094 C 720.09375 340.035156 752.394531 349.414062 753.765625 349.8125 C 754.128906 349.917969 754.417969 350.191406 754.542969 350.546875 C 754.664062 350.90625 754.605469 351.300781 754.382812 351.605469 C 754.246094 351.796875 750.921875 356.199219 740.796875 353.699219 C 730.890625 351.261719 721.664062 350.910156 719.335938 352.886719 C 715.886719 355.820312 701.679688 356.070312 697.78125 354.375 C 696.453125 353.941406 685.558594 354.527344 674.015625 355.144531 C 658.386719 355.984375 638.292969 357.0625 620.601562 357.0625 " fill-opacity="1" fill-rule="nonzero"/><path fill="#6a54cd" d="M 692.019531 300.996094 C 692.019531 300.996094 694.6875 314.539062 702.839844 315.1875 C 710.992188 315.832031 718.503906 292.792969 748.324219 303.972656 C 780.558594 316.054688 821.324219 323.164062 827.003906 339.101562 C 837.53125 368.625 712.453125 350.976562 712.328125 350.1875 L 680.121094 334.746094 L 692.019531 300.996094 " fill-opacity="1" fill-rule="nonzero"/><path fill="#000000" d="M 713.421875 349.800781 C 713.445312 349.859375 713.460938 349.925781 713.46875 349.992188 C 713.460938 349.921875 713.441406 349.859375 713.421875 349.800781 Z M 713.46875 349.992188 C 713.472656 349.996094 713.472656 349.996094 713.472656 350 C 713.472656 349.996094 713.472656 349.996094 713.46875 349.992188 Z M 713.472656 350 L 713.472656 350.003906 Z M 712.855469 349.15625 C 714.910156 349.714844 738.457031 353.152344 764.214844 354.476562 C 797.269531 356.171875 818.109375 353.605469 824.484375 347.066406 C 826.515625 344.980469 826.984375 342.5 825.910156 339.488281 C 822.011719 328.546875 799.667969 321.640625 776.011719 314.332031 C 766.636719 311.4375 756.945312 308.441406 747.917969 305.058594 C 728.070312 297.621094 718.640625 305.636719 711.757812 311.492188 C 708.417969 314.339844 705.777344 316.582031 702.75 316.34375 C 696.617188 315.855469 693.359375 309.179688 691.886719 304.855469 L 681.566406 334.148438 L 712.828125 349.140625 C 712.839844 349.144531 712.851562 349.148438 712.855469 349.15625 Z M 782.121094 357.3125 C 750.636719 357.3125 714.363281 352.058594 712.09375 351.347656 C 711.960938 351.304688 711.84375 351.253906 711.746094 351.191406 L 679.621094 335.792969 C 679.085938 335.535156 678.828125 334.917969 679.023438 334.359375 L 690.925781 300.609375 C 691.097656 300.117188 691.589844 299.804688 692.097656 299.839844 C 692.621094 299.875 693.054688 300.257812 693.15625 300.769531 C 693.183594 300.898438 695.757812 313.460938 702.933594 314.03125 C 705.003906 314.191406 707.320312 312.222656 710.253906 309.726562 C 717.164062 303.847656 727.601562 294.964844 748.730469 302.882812 C 757.695312 306.246094 767.351562 309.230469 776.695312 312.117188 C 801.976562 319.929688 823.804688 326.675781 828.097656 338.707031 C 829.46875 342.558594 828.828125 345.898438 826.195312 348.636719 C 819.84375 355.234375 801.929688 357.3125 782.121094 357.3125 " fill-opacity="1" fill-rule="nonzero"/><path fill="#ffffff" d="M 640.964844 318.234375 C 640.964844 318.234375 658.957031 344.355469 678.261719 344.386719 C 702.804688 344.429688 689.277344 314.199219 689.277344 314.199219 C 689.277344 314.199219 699.269531 311.75 697.921875 302.625 C 696.601562 293.699219 690.070312 296.734375 687.625 300.570312 C 687.625 300.570312 678.988281 316.488281 671.082031 287.058594 C 669.261719 280.277344 675.617188 300.570312 662.414062 305.382812 C 650.609375 309.683594 641.34375 302.625 640.964844 318.234375 " fill-opacity="1" fill-rule="nonzero"/><path fill="#000000" d="M 642.136719 317.878906 C 644.21875 320.769531 660.902344 343.195312 678.265625 343.226562 C 683.828125 343.234375 687.753906 341.59375 689.863281 338.347656 C 695.097656 330.285156 688.285156 314.828125 688.214844 314.675781 C 688.074219 314.359375 688.082031 314 688.230469 313.6875 C 688.382812 313.378906 688.664062 313.15625 689 313.070312 C 689.363281 312.980469 697.949219 310.746094 696.773438 302.792969 C 696.484375 300.824219 695.757812 298.402344 693.960938 298.019531 C 692.15625 297.632812 689.796875 299.347656 688.625 301.167969 C 688.324219 301.703125 685.511719 306.484375 681.347656 305.996094 C 677.804688 305.578125 674.714844 301.601562 671.96875 293.890625 C 671.308594 298.765625 669.074219 304.191406 662.8125 306.472656 C 658.792969 307.9375 655.15625 308.132812 651.945312 308.304688 C 645.648438 308.644531 642.445312 308.820312 642.136719 317.878906 Z M 678.3125 345.546875 C 678.296875 345.546875 678.277344 345.546875 678.257812 345.546875 C 658.574219 345.515625 640.761719 319.976562 640.007812 318.890625 C 639.871094 318.691406 639.800781 318.453125 639.804688 318.207031 C 640.085938 306.617188 645.527344 306.328125 651.820312 305.988281 C 654.867188 305.824219 658.324219 305.636719 662.015625 304.289062 C 671.027344 301.007812 670.09375 289.5 669.597656 286.046875 C 669.417969 284.828125 670.3125 284.585938 670.496094 284.546875 C 670.894531 284.46875 671.625 284.503906 671.921875 285.667969 C 671.976562 285.886719 672.0625 286.242188 672.203125 286.757812 C 676.019531 300.964844 679.738281 303.460938 681.613281 303.6875 C 683.902344 303.960938 685.996094 301.128906 686.601562 300.015625 C 686.617188 299.992188 686.632812 299.964844 686.644531 299.945312 C 688.28125 297.382812 691.484375 295.117188 694.449219 295.746094 C 696.15625 296.113281 698.34375 297.574219 699.066406 302.453125 C 700.132812 309.65625 694.71875 313.53125 690.835938 314.933594 C 692.429688 318.945312 696.867188 331.828125 691.8125 339.613281 C 689.25 343.550781 684.710938 345.546875 678.3125 345.546875 " fill-opacity="1" fill-rule="nonzero"/><path fill="#ffffff" d="M 721.371094 340.8125 C 717.265625 342.191406 713.085938 343.347656 708.761719 343.632812 C 707.015625 343.746094 705.023438 343.828125 702.839844 343.839844 C 694.460938 343.871094 689.332031 339.082031 684.09375 340.378906 C 678.855469 341.675781 645.261719 351.429688 645.261719 351.429688 C 645.261719 351.429688 648.148438 355.414062 657.632812 353.078125 C 667.113281 350.742188 677.1875 350.007812 680.121094 352.503906 C 683.058594 355 696.566406 355.511719 700.464844 353.8125 C 704.359375 352.121094 786.570312 360.4375 811.914062 353.769531 C 837.253906 347.101562 812.324219 326.074219 783.257812 327.101562 C 760.730469 327.902344 735.078125 336.210938 721.371094 340.8125 " fill-opacity="1" fill-rule="nonzero"/><path fill="#000000" d="M 703.726562 352.421875 C 707.355469 352.421875 713.839844 352.742188 724.8125 353.332031 C 752.660156 354.828125 794.75 357.085938 811.613281 352.648438 C 815.492188 351.628906 821.882812 349.210938 821.183594 344.484375 C 820.148438 337.449219 803.773438 327.542969 783.300781 328.265625 C 762.589844 328.996094 739.523438 335.945312 721.742188 341.914062 L 721.371094 340.8125 L 721.742188 341.914062 C 718.027344 343.160156 713.589844 344.476562 708.839844 344.789062 C 706.867188 344.917969 704.851562 344.988281 702.84375 344.996094 C 702.8125 345 702.78125 345 702.75 345 C 698.472656 345 695.054688 343.816406 692.042969 342.777344 C 689.175781 341.785156 686.699219 340.929688 684.375 341.503906 C 680.019531 342.582031 655.59375 349.644531 647.902344 351.875 C 649.539062 352.578125 652.488281 353.152344 657.355469 351.949219 C 665.90625 349.847656 677.199219 348.496094 680.871094 351.621094 C 683.277344 353.667969 696.144531 354.425781 700 352.75 C 700.507812 352.527344 701.652344 352.421875 703.726562 352.421875 Z M 778.105469 357.570312 C 760.414062 357.570312 740.320312 356.488281 724.691406 355.652344 C 713.148438 355.03125 702.253906 354.449219 700.902344 354.886719 C 697.027344 356.578125 682.824219 356.328125 679.367188 353.390625 C 677.042969 351.414062 667.820312 351.765625 657.910156 354.207031 C 647.78125 356.703125 644.460938 352.296875 644.324219 352.113281 C 644.101562 351.804688 644.042969 351.410156 644.164062 351.054688 C 644.289062 350.695312 644.578125 350.421875 644.941406 350.316406 C 646.3125 349.917969 678.609375 340.539062 683.816406 339.25 C 686.808594 338.507812 689.71875 339.515625 692.800781 340.582031 C 695.664062 341.570312 698.925781 342.714844 702.835938 342.675781 C 704.792969 342.667969 706.761719 342.601562 708.6875 342.476562 C 713.167969 342.175781 717.429688 340.910156 721.003906 339.710938 C 738.9375 333.695312 762.207031 326.6875 783.21875 325.941406 C 803.894531 325.210938 822.179688 335.300781 823.484375 344.144531 C 823.898438 346.941406 822.976562 352.054688 812.207031 354.894531 C 804.605469 356.890625 792.105469 357.570312 778.105469 357.570312 " fill-opacity="1" fill-rule="nonzero"/><path fill="#6a54cd" d="M 718.875 340.136719 C 718.175781 338.902344 718.484375 337.332031 719.617188 336.46875 C 721.191406 335.265625 723.554688 334.0625 725.808594 335.242188 C 728.773438 336.796875 733.640625 348.328125 735.746094 353.613281 C 736.269531 354.933594 735.390625 356.382812 733.976562 356.527344 L 729.875 356.945312 C 729.035156 357.03125 728.222656 356.609375 727.804688 355.875 L 718.875 340.136719 " fill-opacity="1" fill-rule="nonzero"/><path fill="#000000" d="M 723.84375 335.925781 C 722.558594 335.925781 721.277344 336.660156 720.320312 337.390625 C 719.65625 337.898438 719.472656 338.835938 719.886719 339.5625 L 728.8125 355.304688 C 729.003906 355.636719 729.375 355.828125 729.757812 355.789062 L 733.859375 355.375 C 734.164062 355.34375 734.4375 355.175781 734.59375 354.910156 C 734.753906 354.648438 734.78125 354.328125 734.667969 354.042969 C 729.898438 342.070312 726.6875 337.015625 725.273438 336.273438 C 724.804688 336.03125 724.324219 335.925781 723.84375 335.925781 Z M 729.660156 358.117188 C 728.480469 358.117188 727.382812 357.484375 726.792969 356.445312 L 717.871094 340.710938 C 716.882812 338.976562 717.328125 336.757812 718.90625 335.546875 C 721.566406 333.519531 724.140625 333.058594 726.347656 334.214844 C 729.394531 335.8125 733.726562 345.410156 736.824219 353.183594 C 737.210938 354.152344 737.121094 355.222656 736.578125 356.113281 C 736.039062 357.003906 735.132812 357.578125 734.097656 357.683594 L 729.992188 358.101562 C 729.882812 358.113281 729.769531 358.117188 729.660156 358.117188 " fill-opacity="1" fill-rule="nonzero"/><path fill="#6a54cd" d="M 1023.210938 260.441406 L 947.714844 260.441406 C 944.53125 260.441406 941.574219 262.027344 939.875 264.636719 L 911.554688 348.011719 L 844.726562 348.011719 L 844.726562 349.261719 C 844.726562 353.203125 847.917969 356.394531 851.859375 356.394531 L 993.679688 356.394531 C 997.613281 356.394531 1000.804688 353.203125 1000.804688 349.261719 L 1000.804688 348.164062 L 1026.410156 270.207031 C 1026.796875 269.019531 1027.277344 267.863281 1027.726562 266.699219 C 1028.839844 263.765625 1026.636719 260.441406 1023.210938 260.441406 " fill-opacity="1" fill-rule="nonzero"/><path fill="#000000" d="M 1000.8125 348.160156 L 1000.824219 348.160156 Z M 845.890625 349.171875 L 845.890625 349.261719 C 845.890625 352.550781 848.574219 355.230469 851.863281 355.230469 L 993.683594 355.230469 C 996.976562 355.230469 999.648438 352.550781 999.648438 349.261719 L 999.648438 348.160156 C 999.648438 348.011719 999.679688 347.863281 999.734375 347.730469 L 1025.3125 269.839844 C 1025.601562 268.953125 1025.9375 268.085938 1026.265625 267.25 C 1026.394531 266.929688 1026.519531 266.605469 1026.644531 266.28125 C 1027.035156 265.257812 1026.882812 264.089844 1026.238281 263.15625 C 1025.558594 262.167969 1024.457031 261.597656 1023.214844 261.597656 L 947.714844 261.597656 C 944.964844 261.597656 942.4375 262.921875 940.933594 265.152344 L 912.65625 348.386719 C 912.496094 348.855469 912.054688 349.171875 911.554688 349.171875 Z M 993.683594 357.554688 L 851.863281 357.554688 C 847.289062 357.554688 843.570312 353.832031 843.570312 349.261719 L 843.570312 348.011719 C 843.570312 347.371094 844.089844 346.851562 844.730469 346.851562 L 910.726562 346.851562 L 938.78125 264.261719 C 938.8125 264.171875 938.855469 264.085938 938.910156 264.003906 C 940.828125 261.046875 944.121094 259.277344 947.714844 259.277344 L 1023.214844 259.277344 C 1025.230469 259.277344 1027.03125 260.214844 1028.152344 261.839844 C 1029.222656 263.398438 1029.472656 265.371094 1028.8125 267.109375 C 1028.683594 267.4375 1028.558594 267.765625 1028.425781 268.097656 C 1028.097656 268.941406 1027.789062 269.738281 1027.519531 270.5625 L 1001.972656 348.351562 L 1001.972656 349.261719 C 1001.972656 353.832031 998.253906 357.554688 993.683594 357.554688 " fill-opacity="1" fill-rule="nonzero"/><path fill="#ffffff" d="M 967.667969 303.175781 C 966.605469 306.707031 968.226562 310.320312 971.300781 311.25 C 974.371094 312.175781 977.726562 310.066406 978.789062 306.53125 C 979.847656 303 978.222656 299.382812 975.15625 298.457031 C 972.078125 297.53125 968.734375 299.644531 967.667969 303.175781 " fill-opacity="1" fill-rule="nonzero"/><path fill="#ffffff" d="M 976.25 349.324219 L 927.042969 349.324219 C 926.402344 349.324219 925.882812 348.804688 925.882812 348.164062 C 925.882812 347.527344 926.402344 347.007812 927.042969 347.007812 L 976.25 347.007812 C 976.886719 347.007812 977.410156 347.527344 977.410156 348.164062 C 977.410156 348.804688 976.886719 349.324219 976.25 349.324219 " fill-opacity="1" fill-rule="nonzero"/><path fill="#ffffff" d="M 1001.296875 349.328125 L 992.578125 349.328125 C 991.9375 349.328125 991.421875 348.808594 991.421875 348.164062 C 991.421875 347.527344 991.9375 347.007812 992.578125 347.007812 L 1001.296875 347.007812 C 1001.9375 347.007812 1002.457031 347.527344 1002.457031 348.164062 C 1002.457031 348.808594 1001.9375 349.328125 1001.296875 349.328125 " fill-opacity="1" fill-rule="nonzero"/><path fill="#ffffff" d="M 609.542969 676.855469 L 543.996094 404.824219 L 478.445312 676.855469 L 462.734375 676.855469 L 534.753906 375.761719 L 553.230469 375.738281 L 625.257812 676.855469 L 609.542969 676.855469 " fill-opacity="1" fill-rule="nonzero"/><path fill="#000000" d="M 610.457031 675.695312 L 623.785156 675.695312 L 552.3125 376.898438 L 535.671875 376.925781 L 464.207031 675.695312 L 477.53125 675.695312 L 543.996094 399.871094 Z M 626.726562 678.015625 L 608.628906 678.015625 L 608.414062 677.128906 L 543.996094 409.78125 L 479.359375 678.015625 L 461.261719 678.015625 L 533.839844 374.605469 L 554.144531 374.574219 L 554.359375 375.46875 L 626.726562 678.015625 " fill-opacity="1" fill-rule="nonzero"/><path fill="#ffffff" d="M 1006.660156 675.921875 L 941.113281 403.894531 L 875.5625 675.921875 L 859.851562 675.921875 L 931.871094 374.832031 L 950.347656 374.808594 L 1022.375 675.921875 L 1006.660156 675.921875 " fill-opacity="1" fill-rule="nonzero"/><path fill="#ffffff" d="M 473.597656 380.992188 L 1021.832031 380.992188 L 1021.832031 356.390625 L 473.597656 356.390625 L 473.597656 380.992188 " fill-opacity="1" fill-rule="nonzero"/><path fill="#000000" d="M 474.757812 379.832031 L 1020.667969 379.832031 L 1020.667969 357.554688 L 474.757812 357.554688 Z M 1022.992188 382.152344 L 472.4375 382.152344 L 472.4375 355.230469 L 1022.992188 355.230469 L 1022.992188 382.152344 " fill-opacity="1" fill-rule="nonzero"/><path fill="#6a54cd" d="M 630.144531 376.375 C 629.5 376.375 628.984375 375.855469 628.984375 375.210938 L 628.984375 361.519531 C 628.984375 360.875 629.5 360.355469 630.144531 360.355469 C 630.785156 360.355469 631.304688 360.875 631.304688 361.519531 L 631.304688 375.210938 C 631.304688 375.855469 630.785156 376.375 630.144531 376.375 " fill-opacity="1" fill-rule="nonzero"/><path fill="#ffffff" d="M 790.953125 100.632812 C 752.40625 101.046875 721.375 121.117188 721.636719 145.464844 C 721.753906 156.355469 728.117188 166.257812 738.570312 173.839844 L 726.800781 198.113281 L 760.125 184.328125 C 769.675781 187.300781 780.480469 188.921875 791.902344 188.796875 C 830.445312 188.386719 861.480469 168.3125 861.222656 143.96875 C 860.957031 119.625 829.503906 100.222656 790.953125 100.632812 " fill-opacity="1" fill-rule="nonzero"/><path fill="#000000" d="M 821.671875 100.800781 C 821.542969 100.800781 821.410156 100.78125 821.285156 100.738281 C 820.382812 100.417969 819.460938 100.113281 818.527344 99.824219 C 817.914062 99.628906 817.574219 98.980469 817.769531 98.367188 C 817.960938 97.753906 818.609375 97.414062 819.222656 97.609375 C 820.179688 97.90625 821.125 98.222656 822.054688 98.546875 C 822.65625 98.761719 822.976562 99.421875 822.765625 100.027344 C 822.597656 100.503906 822.148438 100.800781 821.671875 100.800781 " fill-opacity="1" fill-rule="nonzero"/><path fill="#000000" d="M 786.644531 183.519531 C 784.140625 183.519531 781.636719 183.433594 779.171875 183.269531 C 778.53125 183.230469 778.050781 182.675781 778.09375 182.035156 C 778.132812 181.394531 778.695312 180.914062 779.324219 180.953125 C 782.128906 181.140625 784.988281 181.21875 787.828125 181.191406 C 806.246094 180.992188 823.503906 176.285156 836.421875 167.9375 C 849.164062 159.691406 856.117188 148.894531 855.992188 137.53125 C 855.855469 124.167969 845.984375 111.894531 828.914062 103.859375 C 828.335938 103.585938 828.085938 102.894531 828.359375 102.3125 C 828.632812 101.734375 829.328125 101.484375 829.90625 101.757812 C 847.808594 110.191406 858.160156 123.222656 858.320312 137.511719 C 858.445312 149.695312 851.117188 161.195312 837.679688 169.882812 C 824.40625 178.46875 806.707031 183.308594 787.847656 183.511719 C 787.449219 183.515625 787.046875 183.519531 786.644531 183.519531 " fill-opacity="1" fill-rule="nonzero"/><path fill="#000000" d="M 722.738281 192.828125 C 722.421875 192.828125 722.117188 192.699219 721.890625 192.457031 C 721.5625 192.105469 721.480469 191.59375 721.691406 191.15625 L 733.042969 167.753906 C 722.421875 159.777344 716.527344 149.609375 716.414062 139.027344 C 716.28125 126.84375 723.609375 115.34375 737.050781 106.652344 C 750.320312 98.066406 768.019531 93.226562 786.875 93.027344 C 791.3125 92.980469 795.757812 93.191406 800.09375 93.664062 C 800.726562 93.734375 801.1875 94.304688 801.117188 94.945312 C 801.046875 95.582031 800.460938 96.042969 799.839844 95.972656 C 795.601562 95.507812 791.25 95.300781 786.898438 95.347656 C 768.476562 95.542969 751.21875 100.253906 738.308594 108.597656 C 725.5625 116.84375 718.613281 127.644531 718.730469 139.003906 C 718.839844 149.082031 724.6875 158.832031 735.183594 166.453125 C 735.640625 166.78125 735.796875 167.394531 735.546875 167.902344 L 725.109375 189.425781 L 755.617188 176.808594 C 755.871094 176.707031 756.148438 176.695312 756.410156 176.773438 C 759.28125 177.667969 762.277344 178.4375 765.316406 179.066406 C 765.945312 179.199219 766.351562 179.8125 766.222656 180.4375 C 766.09375 181.066406 765.472656 181.46875 764.851562 181.34375 C 761.878906 180.726562 758.9375 179.980469 756.121094 179.113281 L 723.179688 192.738281 C 723.035156 192.792969 722.886719 192.828125 722.738281 192.828125 " fill-opacity="1" fill-rule="nonzero"/><path fill="#000000" d="M 777.929688 117.550781 C 782.332031 117.550781 786.007812 118.269531 789.15625 119.746094 C 790.566406 120.40625 791.871094 121.238281 793.035156 122.203125 C 792.644531 120.949219 792.183594 119.582031 791.371094 118.652344 C 790.683594 117.875 789.734375 117.375 788.890625 116.988281 C 786.875 116.066406 785.109375 115.65625 783.476562 115.738281 C 781.859375 115.816406 780.023438 116.253906 777.855469 117.085938 C 777.496094 117.226562 777.125 117.382812 776.761719 117.566406 C 776.949219 117.558594 777.136719 117.554688 777.324219 117.554688 C 777.527344 117.550781 777.726562 117.550781 777.929688 117.550781 Z M 774.691406 119.996094 C 774.535156 120.777344 774.605469 121.695312 774.910156 122.609375 C 775.707031 124.980469 776.839844 126.378906 778.394531 127.363281 C 782.769531 126.628906 786.769531 126.667969 791.269531 126.722656 L 791.492188 126.726562 C 792.308594 126.734375 793.125 126.746094 793.933594 126.773438 C 793.941406 126.679688 793.945312 126.582031 793.945312 126.488281 C 792.496094 124.558594 790.503906 122.941406 788.167969 121.847656 C 785.207031 120.453125 781.660156 119.808594 777.355469 119.875 C 776.464844 119.886719 775.574219 119.925781 774.691406 119.996094 Z M 796.992188 126.933594 C 799.457031 127.128906 801.847656 127.503906 804.132812 128.25 C 804.167969 128.214844 804.207031 128.183594 804.242188 128.152344 C 805.285156 127.210938 805.953125 126.269531 806.285156 125.277344 C 806.644531 124.179688 806.542969 122.976562 806.011719 122.21875 C 805.703125 121.769531 805.199219 121.390625 804.449219 121.023438 C 803.25 120.441406 802.144531 120.21875 801.148438 120.363281 C 799.476562 120.605469 797.257812 122.882812 796.753906 124.878906 C 796.640625 125.316406 796.59375 125.777344 796.589844 126.246094 C 796.726562 126.472656 796.867188 126.699219 796.992188 126.933594 Z M 798.074219 129.367188 C 798.25 129.898438 798.398438 130.4375 798.523438 130.992188 C 799.585938 130.765625 800.605469 130.421875 801.578125 129.949219 C 800.4375 129.6875 799.269531 129.496094 798.074219 129.367188 Z M 782.824219 129.171875 C 785.667969 130.0625 788.714844 130.855469 791.703125 131.195312 C 792.378906 130.570312 792.921875 129.84375 793.304688 129.078125 C 792.695312 129.0625 792.078125 129.050781 791.464844 129.046875 L 791.238281 129.042969 C 788.203125 129.007812 785.511719 128.976562 782.824219 129.171875 Z M 794.621094 131.371094 C 794.738281 131.375 794.847656 131.371094 794.957031 131.371094 C 794.929688 131.253906 794.898438 131.132812 794.875 131.011719 C 794.789062 131.132812 794.707031 131.257812 794.621094 131.371094 Z M 771.074219 129.125 C 767.117188 129.230469 764.261719 130.195312 762.378906 132.074219 C 762.292969 132.167969 762.207031 132.253906 762.132812 132.339844 C 764.789062 131.144531 767.710938 130.097656 771.074219 129.125 Z M 798.851562 133.300781 C 798.863281 133.433594 798.867188 133.570312 798.878906 133.699219 C 799.109375 133.507812 799.355469 133.316406 799.605469 133.128906 C 799.355469 133.191406 799.105469 133.25 798.851562 133.300781 Z M 782.738281 131.574219 C 782.871094 131.78125 782.992188 132 783.105469 132.21875 C 783.652344 133.273438 783.964844 134.453125 784.054688 135.679688 C 785.851562 135.015625 787.578125 134.179688 789.148438 133.164062 C 786.96875 132.773438 784.808594 132.207031 782.738281 131.574219 Z M 761.734375 135.085938 C 762.203125 135.765625 763.019531 136.308594 763.777344 136.636719 C 765.78125 137.511719 768.128906 137.917969 771.152344 137.921875 C 771.164062 137.921875 771.164062 137.921875 771.171875 137.921875 C 774.351562 137.921875 778.113281 137.480469 781.761719 136.429688 C 781.765625 135.339844 781.546875 134.261719 781.042969 133.285156 C 780.179688 131.605469 778.695312 130.585938 777.078125 129.980469 C 776.710938 130.058594 776.339844 130.144531 775.96875 130.234375 C 770.164062 131.648438 765.65625 133.179688 761.734375 135.085938 Z M 803.664062 136.640625 C 803.796875 136.640625 803.921875 136.640625 804.039062 136.644531 C 807.597656 136.695312 810.558594 137.546875 812.863281 139.171875 C 811.789062 136.292969 809.578125 133.667969 807.242188 132.21875 C 806.90625 132.011719 806.570312 131.816406 806.230469 131.640625 C 805.683594 131.984375 805.132812 132.332031 804.566406 132.652344 C 802.621094 133.769531 800.972656 134.917969 799.59375 136.128906 C 799.800781 136.390625 800.015625 136.640625 800.242188 136.878906 C 801.375 136.71875 802.519531 136.640625 803.664062 136.640625 Z M 808.402344 130.207031 C 808.425781 130.21875 808.441406 130.234375 808.464844 130.246094 C 811.542969 132.15625 814.347656 135.683594 815.417969 139.519531 C 816.605469 139.246094 817.734375 138.882812 818.804688 138.425781 C 819.265625 138.230469 819.863281 138.046875 820.546875 137.828125 C 821.894531 137.40625 824.691406 136.519531 825.015625 135.609375 C 825.179688 135.152344 825.085938 134.488281 824.746094 133.632812 C 823.378906 130.238281 820.316406 127.789062 816.953125 127.386719 C 813.675781 127.003906 811.0625 128.472656 808.402344 130.207031 Z M 803.273438 138.964844 C 804.929688 139.691406 806.921875 140.078125 809.234375 140.121094 C 809.445312 140.125 809.664062 140.128906 809.867188 140.128906 C 808.226562 139.386719 806.265625 139 804.011719 138.964844 C 803.765625 138.960938 803.519531 138.960938 803.273438 138.964844 Z M 775.113281 140.039062 C 776.785156 140.480469 778.453125 141.070312 779.847656 142.066406 C 780.5 141.175781 781.035156 140.101562 781.378906 138.957031 C 779.085938 139.539062 776.917969 139.863281 775.113281 140.039062 Z M 781.535156 143.695312 C 781.78125 144.019531 782.003906 144.367188 782.203125 144.75 C 782.40625 145.128906 782.5625 145.523438 782.695312 145.917969 C 784.910156 143.875 787.667969 141.917969 791.007812 140.023438 C 792.136719 139.375 793.316406 138.820312 794.519531 138.359375 C 795.101562 137.488281 795.769531 136.652344 796.535156 135.847656 C 796.539062 135.785156 796.542969 135.726562 796.546875 135.664062 C 796.21875 135.046875 795.921875 134.382812 795.65625 133.679688 C 794.609375 133.722656 793.542969 133.691406 792.472656 133.601562 C 789.878906 135.757812 786.875 137.214844 783.9375 138.203125 C 783.625 140.128906 782.8125 142.050781 781.535156 143.695312 Z M 771.636719 141.792969 C 770.304688 141.792969 768.988281 142.128906 767.605469 142.476562 C 766.679688 142.714844 765.71875 142.957031 764.707031 143.113281 C 763.984375 143.222656 760.371094 143.890625 760.410156 146.113281 C 760.441406 147.789062 762.578125 148.582031 763.917969 148.691406 C 766.359375 148.882812 768.78125 148.25 770.832031 147.601562 C 773.167969 146.863281 776.011719 145.78125 778.253906 143.792969 C 776.84375 142.863281 775.007812 142.375 773.1875 141.960938 C 772.664062 141.839844 772.148438 141.792969 771.636719 141.792969 Z M 815.078125 146.917969 C 814.269531 149.28125 813.015625 151.464844 811.574219 153.492188 C 813.195312 152.507812 814.253906 151.28125 814.777344 149.804688 C 815.109375 148.859375 815.1875 147.875 815.078125 146.917969 Z M 783.109375 148.757812 C 783.101562 150.554688 782.664062 152.394531 782.132812 154.144531 C 782.574219 153.914062 783.003906 153.679688 783.4375 153.429688 C 786.945312 151.4375 789.703125 149.246094 791.808594 146.796875 C 791.835938 145.023438 792.167969 143.269531 792.761719 141.707031 C 792.5625 141.8125 792.359375 141.925781 792.15625 142.039062 C 788.34375 144.207031 785.351562 146.429688 783.109375 148.757812 Z M 794.144531 147.617188 C 794.269531 150.289062 795.222656 152.871094 797.128906 154.429688 C 798.804688 153.25 800.457031 151.816406 802.230469 150.277344 C 802.671875 149.890625 803.128906 149.5 803.589844 149.105469 C 806.492188 146.609375 809.890625 144.863281 813.472656 143.902344 C 813.511719 143.621094 813.542969 143.34375 813.550781 143.066406 C 813.351562 142.789062 813.144531 142.527344 812.925781 142.289062 C 811.71875 142.417969 810.472656 142.46875 809.191406 142.445312 C 805.132812 142.371094 801.875 141.324219 799.492188 139.351562 C 799.070312 139.429688 798.652344 139.519531 798.230469 139.617188 C 797.746094 141.460938 796.996094 143.269531 795.992188 144.949219 C 795.441406 145.875 794.832031 146.757812 794.144531 147.617188 Z M 778.996094 155.425781 C 779.085938 155.445312 779.171875 155.46875 779.265625 155.496094 L 779.566406 154.558594 C 779.78125 153.910156 779.988281 153.246094 780.167969 152.578125 C 780.132812 152.640625 780.089844 152.710938 780.050781 152.78125 C 779.554688 153.65625 779.199219 154.546875 778.996094 155.425781 Z M 799.40625 155.640625 C 801.84375 156.394531 804.609375 155.902344 806.878906 155.328125 C 807.011719 155.296875 807.144531 155.261719 807.273438 155.226562 C 809.472656 152.621094 811.574219 149.726562 812.753906 146.539062 C 809.984375 147.460938 807.375 148.914062 805.097656 150.871094 C 804.640625 151.257812 804.191406 151.648438 803.75 152.035156 C 802.277344 153.3125 800.851562 154.546875 799.40625 155.640625 Z M 782.734375 156.449219 C 783.53125 156.671875 784.34375 156.890625 785.144531 157.074219 C 789.125 157.980469 792.214844 157.292969 795.078125 155.714844 C 793.5 154.183594 792.527344 152.117188 792.085938 149.902344 C 790.046875 151.921875 787.558594 153.761719 784.582031 155.449219 C 783.972656 155.800781 783.355469 156.128906 782.734375 156.449219 Z M 773.421875 157.085938 C 771.191406 157.085938 769.457031 157.257812 768.566406 158.363281 C 770.617188 158.148438 772.71875 157.722656 774.816406 157.105469 C 774.636719 157.097656 774.453125 157.09375 774.273438 157.09375 L 774.023438 157.089844 C 773.820312 157.085938 773.617188 157.085938 773.421875 157.085938 Z M 759.664062 136.160156 C 759.589844 136.199219 759.519531 136.242188 759.445312 136.28125 C 757.375 137.433594 754.414062 139.292969 752.5625 142.148438 C 750.644531 145.117188 750.335938 148.207031 751.667969 151.078125 C 753.402344 154.785156 757.746094 157.769531 762.234375 158.332031 C 763.417969 158.480469 764.640625 158.542969 765.886719 158.523438 C 767.070312 154.695312 771.382812 154.738281 774.050781 154.769531 L 774.289062 154.769531 C 775.109375 154.777344 775.917969 154.851562 776.710938 154.972656 C 776.96875 153.851562 777.40625 152.726562 778.039062 151.628906 C 778.769531 150.347656 779.667969 149.109375 780.742188 147.902344 C 780.667969 147.164062 780.480469 146.464844 780.148438 145.824219 C 780.074219 145.6875 779.996094 145.554688 779.917969 145.425781 C 777.332031 147.761719 774.144531 148.992188 771.535156 149.816406 C 769.402344 150.488281 766.585938 151.230469 763.734375 151.003906 C 760.96875 150.777344 758.144531 149.042969 758.089844 146.160156 C 758.035156 142.9375 761.285156 141.289062 764.355469 140.816406 C 765.253906 140.679688 766.15625 140.449219 767.039062 140.226562 C 767.269531 140.167969 767.507812 140.109375 767.746094 140.046875 C 765.914062 139.824219 764.316406 139.402344 762.847656 138.765625 C 761.632812 138.238281 760.386719 137.34375 759.664062 136.160156 Z M 767.972656 160.742188 C 768.109375 161.605469 768.59375 162.472656 769.316406 163.078125 C 770.183594 163.808594 771.382812 164.234375 772.886719 164.351562 C 774.34375 164.464844 775.433594 164.191406 776.121094 163.546875 C 776.695312 163.007812 777.0625 162.15625 777.363281 161.300781 C 777.011719 160.550781 776.765625 159.773438 776.613281 158.980469 C 773.722656 159.921875 770.804688 160.519531 767.972656 160.742188 Z M 779.875 161.085938 C 781.160156 163.15625 783.449219 164.621094 786.152344 165.0625 C 786.929688 165.191406 787.730469 165.222656 788.621094 165.253906 C 795.28125 165.46875 799.589844 163.59375 804.691406 158.140625 C 802.292969 158.492188 799.558594 158.472656 797.148438 157.207031 C 793.632812 159.386719 789.789062 160.511719 784.628906 159.339844 C 783.496094 159.078125 782.371094 158.761719 781.285156 158.449219 C 781.113281 158.402344 780.949219 158.355469 780.789062 158.308594 Z M 789.605469 167.589844 C 789.261719 167.589844 788.910156 167.585938 788.546875 167.574219 C 787.578125 167.542969 786.699219 167.503906 785.785156 167.355469 C 783.007812 166.90625 780.574219 165.566406 778.890625 163.644531 C 778.585938 164.222656 778.207031 164.773438 777.707031 165.242188 C 776.519531 166.351562 774.839844 166.832031 772.703125 166.664062 C 770.714844 166.507812 769.070312 165.90625 767.824219 164.859375 C 766.59375 163.828125 765.8125 162.347656 765.644531 160.847656 C 764.382812 160.851562 763.152344 160.789062 761.945312 160.636719 C 756.710938 159.980469 751.617188 156.457031 749.570312 152.058594 C 748.390625 149.523438 747.609375 145.53125 750.617188 140.890625 C 752.746094 137.597656 756.03125 135.527344 758.3125 134.253906 C 758.550781 134.121094 758.796875 133.988281 759.039062 133.859375 C 759.042969 133.796875 759.042969 133.738281 759.050781 133.671875 C 759.136719 132.554688 759.707031 131.464844 760.742188 130.433594 C 763.140625 128.039062 766.648438 126.847656 771.464844 126.796875 C 772.566406 126.785156 773.613281 126.851562 774.589844 126.984375 C 773.851562 126.023438 773.207031 124.835938 772.710938 123.347656 C 772.359375 122.308594 772.230469 121.242188 772.324219 120.25 C 768.917969 120.707031 765.574219 121.578125 762.335938 122.851562 C 755.738281 125.445312 750.488281 129.46875 747.152344 134.492188 C 746.800781 135.027344 746.078125 135.167969 745.542969 134.816406 C 745.011719 134.460938 744.867188 133.742188 745.21875 133.207031 C 748.824219 127.789062 754.445312 123.460938 761.480469 120.691406 C 765.238281 119.214844 769.117188 118.253906 773.074219 117.816406 C 773.074219 117.816406 773.074219 117.8125 773.074219 117.8125 C 774.019531 116.238281 775.605469 115.464844 777.03125 114.917969 C 779.425781 114 781.492188 113.507812 783.359375 113.417969 C 785.363281 113.316406 787.496094 113.796875 789.855469 114.878906 C 790.859375 115.335938 792.132812 116.003906 793.117188 117.121094 C 794.3125 118.488281 794.855469 120.238281 795.339844 121.78125 C 795.378906 121.902344 795.414062 122.019531 795.453125 122.140625 C 796.652344 120.171875 798.695312 118.375 800.816406 118.0625 C 802.277344 117.851562 803.839844 118.144531 805.460938 118.933594 C 806.585938 119.480469 807.367188 120.101562 807.914062 120.886719 C 808.867188 122.253906 809.085938 124.214844 808.484375 126.011719 C 808.25 126.722656 807.894531 127.410156 807.414062 128.082031 C 810.257812 126.246094 813.28125 124.617188 817.230469 125.082031 C 821.417969 125.578125 825.214844 128.59375 826.898438 132.765625 C 827.46875 134.179688 827.570312 135.367188 827.203125 136.390625 C 826.488281 138.386719 823.585938 139.308594 821.246094 140.039062 C 820.644531 140.234375 820.070312 140.410156 819.710938 140.566406 C 818.484375 141.085938 817.191406 141.496094 815.839844 141.804688 C 815.855469 141.988281 815.863281 142.179688 815.871094 142.363281 C 816.050781 142.667969 816.222656 142.980469 816.371094 143.292969 C 821.410156 142.546875 826.640625 143.300781 831.253906 145.65625 C 831.824219 145.949219 832.054688 146.648438 831.761719 147.21875 C 831.472656 147.792969 830.769531 148.015625 830.199219 147.726562 C 826.152344 145.65625 821.585938 144.953125 817.160156 145.523438 C 817.5625 147.242188 817.523438 149.007812 816.964844 150.582031 C 815.847656 153.722656 813.105469 155.921875 808.582031 157.269531 C 808.089844 157.839844 807.597656 158.398438 807.109375 158.941406 C 801.511719 165.175781 796.679688 167.589844 789.605469 167.589844 " fill-opacity="1" fill-rule="nonzero"/><path fill="#d9bff4" d="M 1011.574219 694.722656 L 858.644531 694.722656 C 849.46875 694.722656 842.59375 686.296875 844.449219 677.304688 L 867.648438 564.523438 C 869.601562 555.035156 877.945312 548.230469 887.632812 548.230469 L 1018.808594 548.230469 L 1011.574219 694.722656 " fill-opacity="1" fill-rule="nonzero"/><path fill="#000000" d="M 887.636719 549.390625 C 878.546875 549.390625 870.621094 555.851562 868.789062 564.753906 L 845.589844 677.539062 C 844.777344 681.480469 845.765625 685.53125 848.3125 688.652344 C 850.855469 691.769531 854.625 693.5625 858.644531 693.5625 L 1010.472656 693.5625 L 1017.589844 549.390625 Z M 1011.578125 695.882812 L 858.644531 695.882812 C 853.925781 695.882812 849.503906 693.785156 846.511719 690.117188 C 843.53125 686.457031 842.363281 681.703125 843.3125 677.074219 L 866.511719 564.289062 C 868.566406 554.308594 877.445312 547.066406 887.636719 547.066406 L 1018.8125 547.066406 C 1019.128906 547.066406 1019.433594 547.199219 1019.652344 547.429688 C 1019.867188 547.660156 1019.984375 547.96875 1019.972656 548.285156 L 1012.734375 694.78125 C 1012.707031 695.398438 1012.195312 695.882812 1011.578125 695.882812 " fill-opacity="1" fill-rule="nonzero"/><path fill="#6a54cd" d="M 1031.160156 694.722656 L 1001.484375 694.722656 C 992.300781 694.722656 985.429688 686.296875 987.28125 677.304688 L 1012.839844 553.082031 C 1013.417969 550.253906 1015.90625 548.226562 1018.789062 548.226562 L 1026.421875 548.226562 C 1029.585938 548.226562 1032.222656 550.65625 1032.476562 553.8125 L 1042.929688 681.953125 C 1043.492188 688.832031 1038.0625 694.722656 1031.160156 694.722656 " fill-opacity="1" fill-rule="nonzero"/><g clip-path="url(#27ad260ea9)"><path fill="#000000" d="M 1018.792969 549.386719 C 1016.472656 549.386719 1014.445312 551.039062 1013.980469 553.3125 L 988.421875 677.539062 C 987.609375 681.480469 988.601562 685.53125 991.148438 688.652344 C 993.691406 691.769531 997.457031 693.5625 1001.484375 693.5625 L 1031.160156 693.5625 C 1034.171875 693.5625 1036.949219 692.34375 1038.992188 690.128906 C 1041.03125 687.917969 1042.019531 685.046875 1041.773438 682.050781 L 1031.324219 553.90625 C 1031.113281 551.375 1028.960938 549.386719 1026.421875 549.386719 Z M 1031.160156 695.882812 L 1001.484375 695.882812 C 996.757812 695.882812 992.335938 693.78125 989.347656 690.117188 C 986.359375 686.457031 985.195312 681.703125 986.148438 677.074219 L 1011.703125 552.847656 C 1012.390625 549.496094 1015.371094 547.066406 1018.792969 547.066406 L 1026.421875 547.066406 C 1030.164062 547.066406 1033.332031 549.988281 1033.636719 553.714844 L 1044.089844 681.859375 C 1044.382812 685.457031 1043.144531 689.046875 1040.695312 691.703125 C 1038.25 694.359375 1034.773438 695.882812 1031.160156 695.882812 " fill-opacity="1" fill-rule="nonzero"/></g><path fill="#000000" d="M 1021.699219 691.476562 L 1001.480469 691.476562 C 998.082031 691.476562 994.90625 689.964844 992.765625 687.335938 C 990.617188 684.699219 989.78125 681.285156 990.464844 677.960938 L 998.851562 637.179688 C 998.980469 636.554688 999.597656 636.148438 1000.222656 636.277344 C 1000.847656 636.40625 1001.257812 637.019531 1001.128906 637.648438 L 992.734375 678.425781 C 992.195312 681.066406 992.859375 683.777344 994.5625 685.867188 C 996.261719 687.957031 998.785156 689.152344 1001.480469 689.152344 L 1021.699219 689.152344 C 1022.339844 689.152344 1022.859375 689.671875 1022.859375 690.3125 C 1022.859375 690.953125 1022.339844 691.476562 1021.699219 691.476562 " fill-opacity="1" fill-rule="nonzero"/><path fill="#000000" d="M 1031.160156 691.476562 C 1030.519531 691.476562 1030 690.953125 1030 690.3125 C 1030 689.671875 1030.519531 689.152344 1031.160156 689.152344 C 1032.925781 689.152344 1034.550781 688.4375 1035.75 687.140625 C 1036.941406 685.847656 1037.523438 684.164062 1037.378906 682.40625 L 1034.996094 653.203125 C 1034.945312 652.566406 1035.421875 652.003906 1036.058594 651.953125 C 1036.707031 651.898438 1037.257812 652.375 1037.3125 653.015625 L 1039.695312 682.214844 C 1039.890625 684.628906 1039.09375 686.9375 1037.457031 688.714844 C 1035.8125 690.492188 1033.578125 691.476562 1031.160156 691.476562 " fill-opacity="1" fill-rule="nonzero"/><path fill="#000000" d="M 1029.523438 573 C 1028.925781 573 1028.417969 572.542969 1028.367188 571.9375 L 1027.871094 565.851562 C 1027.816406 565.210938 1028.292969 564.652344 1028.933594 564.597656 C 1029.570312 564.546875 1030.132812 565.019531 1030.183594 565.660156 L 1030.679688 571.746094 C 1030.730469 572.382812 1030.257812 572.945312 1029.613281 572.996094 C 1029.582031 572.996094 1029.554688 573 1029.523438 573 " fill-opacity="1" fill-rule="nonzero"/><path fill="#000000" d="M 1010.148438 589.195312 C 1010.070312 589.195312 1009.996094 589.191406 1009.917969 589.171875 C 1009.285156 589.042969 1008.882812 588.429688 1009.011719 587.800781 L 1016.023438 553.734375 C 1016.292969 552.425781 1017.457031 551.476562 1018.792969 551.476562 L 1026.421875 551.476562 C 1027.878906 551.476562 1029.121094 552.617188 1029.238281 554.074219 L 1029.5625 558.0625 C 1029.617188 558.699219 1029.140625 559.261719 1028.503906 559.308594 C 1027.847656 559.363281 1027.300781 558.890625 1027.25 558.246094 L 1026.925781 554.265625 C 1026.902344 554.007812 1026.679688 553.796875 1026.421875 553.796875 L 1018.792969 553.796875 C 1018.558594 553.796875 1018.34375 553.972656 1018.292969 554.203125 L 1011.289062 588.269531 C 1011.171875 588.820312 1010.691406 589.195312 1010.148438 589.195312 " fill-opacity="1" fill-rule="nonzero"/><path fill="#000000" d="M 990.746094 608.59375 L 871.003906 608.59375 C 870.363281 608.59375 869.839844 608.074219 869.839844 607.433594 C 869.839844 606.789062 870.363281 606.273438 871.003906 606.273438 L 990.746094 606.273438 C 993.769531 606.273438 996.367188 604.21875 997.066406 601.273438 L 1007.621094 556.714844 C 1007.765625 556.089844 1008.394531 555.703125 1009.015625 555.851562 C 1009.640625 556 1010.027344 556.625 1009.878906 557.25 L 999.320312 601.808594 C 998.378906 605.804688 994.847656 608.59375 990.746094 608.59375 " fill-opacity="1" fill-rule="nonzero"/><path fill="#ffffff" d="M 944.527344 607.433594 L 941.175781 620.964844 C 940.628906 623.25 938.585938 624.867188 936.234375 624.867188 L 912.515625 624.867188 C 909.9375 624.867188 908.070312 622.40625 908.761719 619.917969 L 912.230469 607.433594 L 944.527344 607.433594 " fill-opacity="1" fill-rule="nonzero"/><path fill="#000000" d="M 913.117188 608.59375 L 909.875 620.230469 C 909.644531 621.0625 909.808594 621.9375 910.332031 622.625 C 910.859375 623.316406 911.65625 623.707031 912.519531 623.707031 L 936.230469 623.707031 C 938.054688 623.707031 939.625 622.46875 940.042969 620.695312 L 943.042969 608.59375 Z M 936.230469 626.027344 L 912.519531 626.027344 C 910.921875 626.027344 909.453125 625.300781 908.484375 624.03125 C 907.519531 622.757812 907.210938 621.148438 907.640625 619.609375 L 911.113281 607.121094 C 911.25 606.621094 911.707031 606.273438 912.230469 606.273438 L 944.527344 606.273438 C 944.882812 606.273438 945.21875 606.4375 945.441406 606.71875 C 945.660156 607 945.738281 607.367188 945.652344 607.710938 L 942.300781 621.242188 C 941.632812 624.058594 939.136719 626.027344 936.230469 626.027344 " fill-opacity="1" fill-rule="nonzero"/><path fill="#000000" d="M 979.8125 684.554688 L 852.609375 684.554688 C 851.972656 684.554688 851.445312 684.035156 851.445312 683.394531 C 851.445312 682.75 851.972656 682.230469 852.609375 682.230469 L 979.8125 682.230469 C 980.457031 682.230469 980.976562 682.75 980.976562 683.394531 C 980.976562 684.035156 980.457031 684.554688 979.8125 684.554688 " fill-opacity="1" fill-rule="nonzero"/><path fill="#6a54cd" d="M 917.851562 543.109375 L 907.921875 543.109375 C 905.242188 543.109375 903.0625 545.285156 903.0625 547.96875 L 922.707031 547.96875 C 922.707031 545.285156 920.53125 543.109375 917.851562 543.109375 " fill-opacity="1" fill-rule="nonzero"/><path fill="#000000" d="M 904.414062 546.808594 L 921.359375 546.808594 C 920.871094 545.335938 919.484375 544.273438 917.847656 544.273438 L 907.921875 544.273438 C 906.292969 544.273438 904.902344 545.335938 904.414062 546.808594 Z M 922.707031 549.128906 L 903.0625 549.128906 C 902.421875 549.128906 901.902344 548.605469 901.902344 547.96875 C 901.902344 544.648438 904.605469 541.949219 907.921875 541.949219 L 917.847656 541.949219 C 921.171875 541.949219 923.867188 544.648438 923.867188 547.96875 C 923.867188 548.605469 923.351562 549.128906 922.707031 549.128906 " fill-opacity="1" fill-rule="nonzero"/><path fill="#6a54cd" d="M 997.429688 543.113281 L 987.5 543.113281 C 984.820312 543.113281 982.640625 545.285156 982.640625 547.96875 L 1002.285156 547.96875 C 1002.285156 545.285156 1000.113281 543.113281 997.429688 543.113281 " fill-opacity="1" fill-rule="nonzero"/><path fill="#000000" d="M 983.988281 546.808594 L 1000.9375 546.808594 C 1000.449219 545.335938 999.058594 544.273438 997.429688 544.273438 L 987.5 544.273438 C 985.867188 544.273438 984.480469 545.335938 983.988281 546.808594 Z M 1002.289062 549.128906 L 982.644531 549.128906 C 982 549.128906 981.480469 548.609375 981.480469 547.96875 C 981.480469 544.648438 984.179688 541.953125 987.5 541.953125 L 997.429688 541.953125 C 1000.75 541.953125 1003.445312 544.648438 1003.445312 547.96875 C 1003.445312 548.609375 1002.925781 549.128906 1002.289062 549.128906 " fill-opacity="1" fill-rule="nonzero"/><path fill="#ffffff" d="M 994.839844 542.847656 L 996.4375 533.34375 C 997.570312 526.605469 993.027344 521.140625 986.289062 521.140625 L 926.746094 521.140625 C 920.007812 521.140625 913.621094 526.605469 912.484375 533.34375 L 910.890625 542.847656 L 915.441406 542.847656 L 916.6875 535.453125 C 917.574219 530.207031 922.539062 525.953125 927.789062 525.953125 L 983.625 525.953125 C 988.871094 525.953125 992.410156 530.207031 991.523438 535.453125 L 990.28125 542.847656 L 994.839844 542.847656 " fill-opacity="1" fill-rule="nonzero"/><path fill="#000000" d="M 991.652344 541.6875 L 993.855469 541.6875 L 995.292969 533.152344 C 995.785156 530.203125 995.109375 527.449219 993.378906 525.40625 C 991.6875 523.402344 989.167969 522.300781 986.289062 522.300781 L 926.746094 522.300781 C 920.554688 522.300781 914.675781 527.339844 913.632812 533.539062 L 912.261719 541.6875 L 914.464844 541.6875 L 915.542969 535.261719 C 916.515625 529.488281 922.007812 524.792969 927.785156 524.792969 L 983.625 524.792969 C 986.484375 524.792969 989.007812 525.910156 990.722656 527.941406 C 992.46875 530.003906 993.15625 532.738281 992.667969 535.644531 Z M 994.835938 544.007812 L 990.28125 544.007812 C 989.9375 544.007812 989.613281 543.859375 989.398438 543.601562 C 989.171875 543.335938 989.082031 542.992188 989.132812 542.65625 L 990.378906 535.261719 C 990.757812 533.039062 990.246094 530.972656 988.945312 529.4375 C 987.679688 527.941406 985.789062 527.113281 983.625 527.113281 L 927.785156 527.113281 C 923.09375 527.113281 918.628906 530.941406 917.832031 535.644531 L 916.589844 543.042969 C 916.492188 543.601562 916.011719 544.007812 915.441406 544.007812 L 910.886719 544.007812 C 910.550781 544.007812 910.21875 543.859375 910 543.601562 C 909.777344 543.335938 909.683594 542.992188 909.742188 542.65625 L 911.339844 533.152344 C 912.5625 525.890625 919.472656 519.980469 926.746094 519.980469 L 986.289062 519.980469 C 989.859375 519.980469 993.011719 521.371094 995.152344 523.90625 C 997.332031 526.484375 998.195312 529.90625 997.582031 533.539062 L 995.980469 543.042969 C 995.886719 543.601562 995.402344 544.007812 994.835938 544.007812 " fill-opacity="1" fill-rule="nonzero"/><path fill="#d9bff4" d="M 983.335938 517.203125 L 931.03125 517.203125 C 928.921875 517.203125 926.929688 518.914062 926.570312 521.019531 L 925.800781 525.589844 C 925.445312 527.699219 926.867188 529.40625 928.976562 529.40625 L 981.28125 529.40625 C 983.386719 529.40625 985.382812 527.699219 985.738281 525.589844 L 986.511719 521.019531 C 986.863281 518.914062 985.441406 517.203125 983.335938 517.203125 " fill-opacity="1" fill-rule="nonzero"/><path fill="#000000" d="M 931.03125 518.367188 C 929.496094 518.367188 927.976562 519.671875 927.710938 521.214844 L 926.945312 525.785156 C 926.832031 526.472656 926.980469 527.097656 927.367188 527.558594 C 927.742188 528.003906 928.3125 528.246094 928.972656 528.246094 L 981.277344 528.246094 C 982.8125 528.246094 984.332031 526.941406 984.589844 525.398438 L 985.359375 520.828125 C 985.472656 520.140625 985.324219 519.511719 984.9375 519.054688 C 984.5625 518.609375 983.992188 518.367188 983.335938 518.367188 Z M 981.277344 530.566406 L 928.972656 530.566406 C 927.617188 530.566406 926.417969 530.03125 925.59375 529.058594 C 924.757812 528.070312 924.425781 526.769531 924.65625 525.398438 L 925.425781 520.828125 C 925.875 518.144531 928.339844 516.042969 931.03125 516.042969 L 983.335938 516.042969 C 984.683594 516.042969 985.886719 516.582031 986.707031 517.550781 C 987.546875 518.542969 987.882812 519.84375 987.648438 521.214844 L 986.878906 525.785156 C 986.429688 528.464844 983.96875 530.566406 981.277344 530.566406 " fill-opacity="1" fill-rule="nonzero"/><path fill="#d9bff4" d="M 1001.203125 684.554688 C 1000.796875 684.554688 1000.402344 684.34375 1000.191406 683.96875 C 999.875 683.410156 1000.070312 682.703125 1000.625 682.382812 L 1020.539062 671.039062 L 1020.539062 556.980469 C 1020.539062 556.34375 1021.058594 555.820312 1021.699219 555.820312 C 1022.339844 555.820312 1022.859375 556.34375 1022.859375 556.980469 L 1022.859375 671.710938 C 1022.859375 672.128906 1022.632812 672.515625 1022.277344 672.722656 L 1001.769531 684.398438 C 1001.597656 684.503906 1001.394531 684.554688 1001.203125 684.554688 " fill-opacity="1" fill-rule="nonzero"/><g fill="#ffffff" fill-opacity="1"><g transform="translate(25.27764, 761.599974)"><g><path d="M 5.671875 0 L 2.921875 0 L 2.921875 -25.828125 L 5.671875 -25.828125 Z M 5.671875 0 "/></g></g></g></svg>