<svg xmlns="http://www.w3.org/2000/svg" xmlns:xlink="http://www.w3.org/1999/xlink" width="1920" zoomAndPan="magnify" viewBox="0 0 1440 809.999993" height="1080" preserveAspectRatio="xMidYMid meet" version="1.0"><defs><g/></defs><path fill="#f7f1fd" d="M 508.160156 80.914062 C 659.703125 0.296875 862.726562 84.054688 968.515625 176.894531 C 998.746094 203.417969 1072.023438 269.589844 1089.332031 375.636719 C 1110.820312 507.367188 1040.464844 667.042969 879.09375 735.339844 C 703.453125 809.679688 507.0625 739.222656 415.144531 624.863281 C 329.179688 517.90625 346.386719 391.964844 352.535156 346.976562 C 359.746094 294.191406 381.195312 148.453125 508.160156 80.914062 " fill-opacity="1" fill-rule="nonzero"/><path fill="#d9bff4" d="M 842.019531 146.476562 C 842.019531 92.96875 885.398438 49.597656 938.902344 49.597656 C 992.402344 49.597656 1035.78125 92.96875 1035.78125 146.476562 C 1035.78125 199.976562 992.402344 243.355469 938.902344 243.355469 C 885.398438 243.355469 842.019531 199.976562 842.019531 146.476562 " fill-opacity="1" fill-rule="nonzero"/><path fill="#ffffff" d="M 861.085938 146.480469 C 861.085938 103.507812 895.921875 68.671875 938.894531 68.671875 C 981.867188 68.671875 1016.707031 103.507812 1016.707031 146.480469 C 1016.707031 189.453125 981.867188 224.289062 938.894531 224.289062 C 895.921875 224.289062 861.085938 189.453125 861.085938 146.480469 " fill-opacity="1" fill-rule="nonzero"/><path fill="#d9bff4" d="M 879.046875 146.476562 C 879.046875 113.417969 905.84375 86.621094 938.902344 86.621094 C 971.957031 86.621094 998.757812 113.417969 998.757812 146.476562 C 998.757812 179.53125 971.957031 206.328125 938.902344 206.328125 C 905.84375 206.328125 879.046875 179.53125 879.046875 146.476562 " fill-opacity="1" fill-rule="nonzero"/><path fill="#ffffff" d="M 900.253906 146.472656 C 900.253906 125.128906 917.554688 107.828125 938.898438 107.828125 C 960.25 107.828125 977.550781 125.128906 977.550781 146.472656 C 977.550781 167.824219 960.25 185.125 938.898438 185.125 C 917.554688 185.125 900.253906 167.824219 900.253906 146.472656 " fill-opacity="1" fill-rule="nonzero"/><path fill="#6a54cd" d="M 917.792969 146.476562 C 917.792969 134.820312 927.246094 125.371094 938.898438 125.371094 C 950.558594 125.371094 960.003906 134.820312 960.003906 146.476562 C 960.003906 158.132812 950.558594 167.585938 938.898438 167.585938 C 927.246094 167.585938 917.792969 158.132812 917.792969 146.476562 " fill-opacity="1" fill-rule="nonzero"/><path fill="#6a54cd" d="M 850.5 108.136719 C 850.320312 108.136719 850.128906 108.09375 849.945312 108.011719 C 849.269531 107.707031 848.964844 106.90625 849.273438 106.226562 C 859.273438 83.992188 877.066406 66.34375 899.378906 56.527344 C 900.058594 56.226562 900.855469 56.539062 901.15625 57.214844 C 901.457031 57.902344 901.144531 58.699219 900.464844 59 C 878.765625 68.546875 861.460938 85.710938 851.730469 107.335938 C 851.507812 107.832031 851.011719 108.136719 850.5 108.136719 " fill-opacity="1" fill-rule="nonzero"/><path fill="#6a54cd" d="M 881.734375 165.625 C 881.15625 165.625 880.625 165.257812 880.445312 164.675781 C 878.621094 158.808594 877.695312 152.683594 877.695312 146.480469 C 877.695312 145.734375 878.296875 145.128906 879.046875 145.128906 C 879.792969 145.128906 880.390625 145.734375 880.390625 146.480469 C 880.390625 152.414062 881.273438 158.265625 883.019531 163.878906 C 883.242188 164.589844 882.847656 165.34375 882.136719 165.566406 C 882 165.609375 881.863281 165.625 881.734375 165.625 " fill-opacity="1" fill-rule="nonzero"/><path fill="#6a54cd" d="M 997.535156 135.761719 C 996.910156 135.761719 996.347656 135.320312 996.21875 134.683594 C 993.550781 121.675781 986.414062 109.832031 976.117188 101.332031 C 975.542969 100.855469 975.460938 100.003906 975.929688 99.425781 C 976.410156 98.855469 977.253906 98.773438 977.835938 99.25 C 988.609375 108.136719 996.074219 120.535156 998.863281 134.140625 C 999.011719 134.875 998.539062 135.585938 997.8125 135.734375 C 997.71875 135.753906 997.628906 135.761719 997.535156 135.761719 " fill-opacity="1" fill-rule="nonzero"/><path fill="#6a54cd" d="M 879.046875 147.828125 C 878.296875 147.828125 877.699219 147.222656 877.699219 146.476562 C 877.699219 112.730469 905.152344 85.273438 938.898438 85.273438 C 945.273438 85.273438 951.550781 86.246094 957.566406 88.175781 C 958.277344 88.398438 958.667969 89.160156 958.441406 89.867188 C 958.214844 90.582031 957.453125 90.972656 956.746094 90.742188 C 951 88.902344 944.992188 87.972656 938.898438 87.972656 C 906.640625 87.972656 880.390625 114.214844 880.390625 146.476562 C 880.390625 147.222656 879.792969 147.828125 879.046875 147.828125 " fill-opacity="1" fill-rule="nonzero"/><path fill="#6a54cd" d="M 1092.367188 178.421875 C 1050.882812 187.273438 1039.011719 150.082031 983.050781 178.421875 L 983.050781 107.570312 C 1024.695312 94.75 1049.929688 113.957031 1092.367188 107.570312 L 1076.75 142.65625 L 1092.367188 178.421875 " fill-opacity="1" fill-rule="nonzero"/><path fill="#000000" d="M 981.703125 283.554688 L 979.828125 283.554688 C 978.339844 283.554688 977.132812 282.347656 977.132812 280.859375 L 977.132812 103.523438 C 977.132812 102.027344 978.339844 100.820312 979.828125 100.820312 L 981.703125 100.820312 C 983.191406 100.820312 984.398438 102.027344 984.398438 103.523438 L 984.398438 280.859375 C 984.398438 282.347656 983.191406 283.554688 981.703125 283.554688 " fill-opacity="1" fill-rule="nonzero"/><path fill="#ffffff" d="M 944.023438 781.78125 L 902.355469 781.78125 L 902.355469 269.519531 L 943.609375 266.605469 L 944.023438 781.78125 " fill-opacity="1" fill-rule="nonzero"/><path fill="#000000" d="M 903.710938 780.429688 L 942.679688 780.429688 L 942.265625 268.054688 L 903.710938 270.773438 Z M 944.03125 783.128906 L 902.355469 783.128906 C 901.609375 783.128906 901.007812 782.523438 901.007812 781.777344 L 901.007812 269.515625 C 901.007812 268.808594 901.554688 268.222656 902.261719 268.171875 L 943.519531 265.257812 C 943.886719 265.230469 944.257812 265.359375 944.535156 265.617188 C 944.804688 265.871094 944.964844 266.226562 944.964844 266.597656 L 945.378906 781.777344 C 945.378906 782.136719 945.234375 782.480469 944.984375 782.734375 C 944.734375 782.984375 944.390625 783.128906 944.03125 783.128906 " fill-opacity="1" fill-rule="nonzero"/><path fill="#d9bff4" d="M 1055.769531 781.78125 L 944.023438 781.78125 C 943.792969 781.78125 943.605469 781.519531 943.605469 781.199219 L 943.605469 267.210938 C 943.605469 266.878906 943.808594 266.617188 944.039062 266.628906 L 1055.785156 272.527344 C 1056.003906 272.539062 1056.183594 272.796875 1056.183594 273.109375 L 1056.183594 781.199219 C 1056.183594 781.519531 1056 781.78125 1055.769531 781.78125 " fill-opacity="1" fill-rule="nonzero"/><path fill="#000000" d="M 944.960938 780.429688 L 1054.839844 780.429688 L 1054.839844 273.828125 L 944.960938 268.023438 Z M 1055.769531 783.128906 L 944.03125 783.128906 C 943.035156 783.128906 942.265625 782.28125 942.265625 781.199219 L 942.265625 267.210938 C 942.265625 266.644531 942.484375 266.109375 942.863281 265.746094 C 943.207031 265.421875 943.65625 265.257812 944.117188 265.277344 L 1055.855469 271.179688 C 1056.800781 271.226562 1057.539062 272.078125 1057.539062 273.109375 L 1057.539062 781.199219 C 1057.539062 782.28125 1056.761719 783.128906 1055.769531 783.128906 " fill-opacity="1" fill-rule="nonzero"/><path fill="#f7f1fd" d="M 1019.089844 514.582031 C 1018.34375 514.582031 1017.738281 513.976562 1017.738281 513.230469 L 1017.738281 305.207031 C 1017.738281 304.457031 1018.34375 303.855469 1019.089844 303.855469 C 1019.835938 303.855469 1020.4375 304.457031 1020.4375 305.207031 L 1020.4375 513.230469 C 1020.4375 513.976562 1019.835938 514.582031 1019.089844 514.582031 " fill-opacity="1" fill-rule="nonzero"/><path fill="#f7f1fd" d="M 983.746094 440.453125 C 982.996094 440.453125 982.390625 439.851562 982.390625 439.109375 L 982.390625 377.738281 C 982.390625 376.988281 982.996094 376.382812 983.746094 376.382812 C 984.488281 376.382812 985.089844 376.988281 985.089844 377.738281 L 985.089844 439.109375 C 985.089844 439.851562 984.488281 440.453125 983.746094 440.453125 " fill-opacity="1" fill-rule="nonzero"/><path fill="#f7f1fd" d="M 983.746094 650.890625 C 982.996094 650.890625 982.390625 650.285156 982.390625 649.539062 L 982.390625 543.640625 C 982.390625 542.894531 982.996094 542.292969 983.746094 542.292969 C 984.488281 542.292969 985.089844 542.894531 985.089844 543.640625 L 985.089844 649.539062 C 985.089844 650.285156 984.488281 650.890625 983.746094 650.890625 " fill-opacity="1" fill-rule="nonzero"/><path fill="#ffffff" d="M 803.507812 781.839844 L 762.023438 781.839844 L 762.023438 399.402344 L 803.28125 386.375 L 803.507812 781.839844 " fill-opacity="1" fill-rule="nonzero"/><path fill="#000000" d="M 763.375 780.488281 L 802.15625 780.488281 L 801.929688 388.214844 L 763.375 400.394531 Z M 803.507812 783.1875 L 762.023438 783.1875 C 761.277344 783.1875 760.671875 782.585938 760.671875 781.839844 L 760.671875 399.402344 C 760.671875 398.8125 761.054688 398.292969 761.617188 398.117188 L 802.871094 385.085938 C 803.28125 384.957031 803.730469 385.03125 804.074219 385.285156 C 804.421875 385.539062 804.628906 385.945312 804.628906 386.375 L 804.851562 781.839844 C 804.851562 782.195312 804.714844 782.539062 804.460938 782.792969 C 804.207031 783.046875 803.863281 783.1875 803.507812 783.1875 " fill-opacity="1" fill-rule="nonzero"/><path fill="#d9bff4" d="M 915.433594 781.839844 L 803.699219 781.839844 C 803.464844 781.839844 803.28125 781.640625 803.28125 781.394531 L 803.28125 386.835938 C 803.28125 386.582031 803.476562 386.382812 803.707031 386.390625 L 915.453125 390.921875 C 915.679688 390.929688 915.851562 391.128906 915.851562 391.363281 L 915.851562 781.394531 C 915.851562 781.640625 915.664062 781.839844 915.433594 781.839844 " fill-opacity="1" fill-rule="nonzero"/><path fill="#000000" d="M 804.628906 780.488281 L 914.503906 780.488281 L 914.503906 392.230469 L 804.628906 387.777344 Z M 915.441406 783.1875 L 803.699219 783.1875 C 802.726562 783.1875 801.929688 782.382812 801.929688 781.394531 L 801.929688 386.832031 C 801.929688 386.339844 802.132812 385.867188 802.484375 385.527344 C 802.828125 385.199219 803.292969 385.011719 803.765625 385.039062 L 915.507812 389.570312 C 916.460938 389.605469 917.207031 390.394531 917.207031 391.359375 L 917.207031 781.394531 C 917.207031 782.382812 916.414062 783.1875 915.441406 783.1875 " fill-opacity="1" fill-rule="nonzero"/><path fill="#f7f1fd" d="M 859.59375 593.453125 C 858.847656 593.453125 858.242188 592.847656 858.242188 592.101562 L 858.242188 416.925781 C 858.242188 416.179688 858.847656 415.578125 859.59375 415.578125 C 860.335938 415.578125 860.945312 416.179688 860.945312 416.925781 L 860.945312 592.101562 C 860.945312 592.847656 860.335938 593.453125 859.59375 593.453125 " fill-opacity="1" fill-rule="nonzero"/><path fill="#f7f1fd" d="M 830.089844 475.4375 C 829.347656 475.4375 828.742188 474.832031 828.742188 474.085938 L 828.742188 444.226562 C 828.742188 443.484375 829.347656 442.878906 830.089844 442.878906 C 830.835938 442.878906 831.441406 443.484375 831.441406 444.226562 L 831.441406 474.085938 C 831.441406 474.832031 830.835938 475.4375 830.089844 475.4375 " fill-opacity="1" fill-rule="nonzero"/><path fill="#f7f1fd" d="M 830.089844 673.554688 C 829.347656 673.554688 828.742188 672.945312 828.742188 672.203125 L 828.742188 523.472656 C 828.742188 522.726562 829.347656 522.125 830.089844 522.125 C 830.835938 522.125 831.441406 522.726562 831.441406 523.472656 L 831.441406 672.203125 C 831.441406 672.945312 830.835938 673.554688 830.089844 673.554688 " fill-opacity="1" fill-rule="nonzero"/><path fill="#f7f1fd" d="M 889.09375 534.304688 C 888.347656 534.304688 887.738281 533.699219 887.738281 532.953125 L 887.738281 503.09375 C 887.738281 502.347656 888.347656 501.75 889.09375 501.75 C 889.832031 501.75 890.441406 502.347656 890.441406 503.09375 L 890.441406 532.953125 C 890.441406 533.699219 889.832031 534.304688 889.09375 534.304688 " fill-opacity="1" fill-rule="nonzero"/><path fill="#ffffff" d="M 663.964844 781.839844 L 622.710938 781.839844 L 622.710938 562.035156 L 663.964844 552.988281 L 663.964844 781.839844 " fill-opacity="1" fill-rule="nonzero"/><path fill="#000000" d="M 624.058594 780.488281 L 662.621094 780.488281 L 662.621094 554.667969 L 624.058594 563.121094 Z M 663.964844 783.1875 L 622.710938 783.1875 C 621.96875 783.1875 621.363281 782.585938 621.363281 781.839844 L 621.363281 562.035156 C 621.363281 561.402344 621.804688 560.855469 622.421875 560.71875 L 663.679688 551.671875 C 664.078125 551.585938 664.492188 551.683594 664.8125 551.941406 C 665.132812 552.195312 665.316406 552.585938 665.316406 552.988281 L 665.316406 781.839844 C 665.316406 782.585938 664.710938 783.1875 663.964844 783.1875 " fill-opacity="1" fill-rule="nonzero"/><path fill="#d9bff4" d="M 776.542969 781.839844 L 663.964844 781.839844 L 663.964844 553.472656 C 663.964844 553.210938 664.183594 552.996094 664.445312 553.003906 L 776.542969 556.761719 L 776.542969 781.839844 " fill-opacity="1" fill-rule="nonzero"/><path fill="#000000" d="M 665.316406 780.488281 L 775.191406 780.488281 L 775.191406 558.066406 L 665.316406 554.386719 Z M 777.890625 783.1875 L 662.621094 783.1875 L 662.621094 553.472656 C 662.621094 552.980469 662.820312 552.507812 663.171875 552.164062 C 663.519531 551.828125 663.992188 551.632812 664.492188 551.660156 L 777.890625 555.457031 L 777.890625 783.1875 " fill-opacity="1" fill-rule="nonzero"/><path fill="#f7f1fd" d="M 693.894531 718.027344 C 693.148438 718.027344 692.542969 717.421875 692.542969 716.675781 L 692.542969 580.335938 C 692.542969 579.589844 693.148438 578.984375 693.894531 578.984375 C 694.636719 578.984375 695.238281 579.589844 695.238281 580.335938 L 695.238281 716.675781 C 695.238281 717.421875 694.636719 718.027344 693.894531 718.027344 " fill-opacity="1" fill-rule="nonzero"/><path fill="#f7f1fd" d="M 752.894531 733.972656 C 752.148438 733.972656 751.542969 733.367188 751.542969 732.621094 L 751.542969 596.28125 C 751.542969 595.535156 752.148438 594.933594 752.894531 594.933594 C 753.636719 594.933594 754.242188 595.535156 754.242188 596.28125 L 754.242188 732.621094 C 754.242188 733.367188 753.636719 733.972656 752.894531 733.972656 " fill-opacity="1" fill-rule="nonzero"/><path fill="#f7f1fd" d="M 723.394531 680.554688 C 722.648438 680.554688 722.042969 679.949219 722.042969 679.203125 L 722.042969 651.300781 C 722.042969 650.554688 722.648438 649.949219 723.394531 649.949219 C 724.136719 649.949219 724.746094 650.554688 724.746094 651.300781 L 724.746094 679.203125 C 724.746094 679.949219 724.136719 680.554688 723.394531 680.554688 " fill-opacity="1" fill-rule="nonzero"/><path fill="#ffffff" d="M 525.226562 781.839844 L 483.582031 781.839844 L 483.582031 672.824219 L 524.835938 664.691406 L 525.226562 781.839844 " fill-opacity="1" fill-rule="nonzero"/><path fill="#000000" d="M 484.929688 780.488281 L 523.875 780.488281 L 523.492188 666.332031 L 484.929688 673.933594 Z M 525.226562 783.1875 L 483.582031 783.1875 C 482.835938 783.1875 482.230469 782.585938 482.230469 781.839844 L 482.230469 672.824219 C 482.230469 672.179688 482.6875 671.625 483.320312 671.5 L 524.574219 663.367188 C 524.96875 663.285156 525.378906 663.390625 525.691406 663.644531 C 526 663.902344 526.183594 664.285156 526.1875 664.6875 L 526.578125 781.835938 C 526.578125 782.191406 526.4375 782.535156 526.183594 782.792969 C 525.929688 783.046875 525.585938 783.1875 525.226562 783.1875 " fill-opacity="1" fill-rule="nonzero"/><path fill="#d9bff4" d="M 637.015625 781.839844 L 525.226562 781.839844 C 525.011719 781.839844 524.835938 781.664062 524.835938 781.445312 L 524.835938 665.09375 C 524.835938 664.871094 525.015625 664.695312 525.234375 664.699219 L 637.023438 666.519531 C 637.238281 666.523438 637.410156 666.699219 637.410156 666.914062 L 637.410156 781.445312 C 637.410156 781.664062 637.234375 781.839844 637.015625 781.839844 " fill-opacity="1" fill-rule="nonzero"/><path fill="#000000" d="M 526.1875 780.488281 L 636.058594 780.488281 L 636.058594 667.855469 L 526.1875 666.0625 Z M 637.015625 783.1875 L 525.226562 783.1875 C 524.269531 783.1875 523.484375 782.40625 523.484375 781.445312 L 523.484375 665.09375 C 523.484375 664.621094 523.671875 664.179688 524.007812 663.847656 C 524.339844 663.519531 524.785156 663.351562 525.257812 663.347656 L 637.046875 665.171875 C 637.992188 665.183594 638.761719 665.964844 638.761719 666.914062 L 638.761719 781.445312 C 638.761719 782.40625 637.976562 783.1875 637.015625 783.1875 " fill-opacity="1" fill-rule="nonzero"/><path fill="#f7f1fd" d="M 603.386719 755.5 C 602.640625 755.5 602.039062 754.898438 602.039062 754.152344 L 602.039062 684.789062 C 602.039062 684.039062 602.640625 683.4375 603.386719 683.4375 C 604.132812 683.4375 604.738281 684.039062 604.738281 684.789062 L 604.738281 754.152344 C 604.738281 754.898438 604.132812 755.5 603.386719 755.5 " fill-opacity="1" fill-rule="nonzero"/><path fill="#f7f1fd" d="M 568.039062 730.785156 C 567.292969 730.785156 566.691406 730.179688 566.691406 729.433594 L 566.691406 708.96875 C 566.691406 708.222656 567.292969 707.621094 568.039062 707.621094 C 568.785156 707.621094 569.390625 708.222656 569.390625 708.96875 L 569.390625 729.433594 C 569.390625 730.179688 568.785156 730.785156 568.039062 730.785156 " fill-opacity="1" fill-rule="nonzero"/><path fill="#ffffff" d="M 386.429688 781.839844 L 344.78125 781.839844 L 344.78125 724.746094 L 386.039062 717.789062 L 386.429688 781.839844 " fill-opacity="1" fill-rule="nonzero"/><path fill="#000000" d="M 346.132812 780.488281 L 385.070312 780.488281 L 384.699219 719.378906 L 346.132812 725.890625 Z M 386.429688 783.1875 L 344.78125 783.1875 C 344.035156 783.1875 343.429688 782.585938 343.429688 781.839844 L 343.429688 724.746094 C 343.429688 724.089844 343.90625 723.527344 344.558594 723.417969 L 385.8125 716.457031 C 386.203125 716.386719 386.601562 716.496094 386.90625 716.75 C 387.207031 717.007812 387.382812 717.382812 387.386719 717.78125 L 387.78125 781.832031 C 387.78125 782.191406 387.640625 782.535156 387.386719 782.789062 C 387.132812 783.042969 386.789062 783.1875 386.429688 783.1875 " fill-opacity="1" fill-rule="nonzero"/><path fill="#d9bff4" d="M 498.21875 781.839844 L 386.429688 781.839844 C 386.214844 781.839844 386.039062 781.742188 386.039062 781.621094 L 386.039062 718.003906 C 386.039062 717.886719 386.21875 717.789062 386.4375 717.789062 L 498.226562 718.785156 C 498.441406 718.789062 498.613281 718.882812 498.613281 719.003906 L 498.613281 781.621094 C 498.613281 781.742188 498.4375 781.839844 498.21875 781.839844 " fill-opacity="1" fill-rule="nonzero"/><path fill="#000000" d="M 387.386719 780.488281 L 497.261719 780.488281 L 497.261719 720.128906 L 387.386719 719.148438 Z M 498.21875 783.1875 L 386.429688 783.1875 C 385.453125 783.1875 384.6875 782.503906 384.6875 781.621094 L 384.6875 718.003906 C 384.6875 717.605469 384.847656 717.230469 385.136719 716.941406 C 385.460938 716.621094 385.945312 716.445312 386.449219 716.441406 L 498.238281 717.4375 C 499.222656 717.445312 499.960938 718.117188 499.960938 719.003906 L 499.960938 781.621094 C 499.960938 782.503906 499.195312 783.1875 498.21875 783.1875 " fill-opacity="1" fill-rule="nonzero"/><path fill="#f7f1fd" d="M 464.589844 768.050781 C 463.84375 768.050781 463.238281 767.445312 463.238281 766.699219 L 463.238281 728.777344 C 463.238281 728.023438 463.84375 727.425781 464.589844 727.425781 C 465.335938 727.425781 465.9375 728.023438 465.9375 728.777344 L 465.9375 766.699219 C 465.9375 767.445312 465.335938 768.050781 464.589844 768.050781 " fill-opacity="1" fill-rule="nonzero"/><path fill="#f7f1fd" d="M 429.242188 754.539062 C 428.496094 754.539062 427.894531 753.933594 427.894531 753.1875 L 427.894531 742 C 427.894531 741.253906 428.496094 740.648438 429.242188 740.648438 C 429.988281 740.648438 430.589844 741.253906 430.589844 742 L 430.589844 753.1875 C 430.589844 753.933594 429.988281 754.539062 429.242188 754.539062 " fill-opacity="1" fill-rule="nonzero"/><path fill="#ffffff" d="M 509.136719 605.8125 L 505.058594 641.988281 L 520.441406 648.398438 L 526.113281 608.957031 L 509.136719 605.8125 " fill-opacity="1" fill-rule="nonzero"/><path fill="#000000" d="M 506.511719 641.132812 L 519.355469 646.480469 L 524.589844 610.046875 L 510.3125 607.402344 Z M 520.445312 649.746094 C 520.269531 649.746094 520.089844 649.710938 519.925781 649.640625 L 504.539062 643.238281 C 503.984375 643.003906 503.648438 642.433594 503.714844 641.839844 L 507.792969 605.660156 C 507.835938 605.289062 508.03125 604.949219 508.332031 604.726562 C 508.632812 604.503906 509.011719 604.417969 509.382812 604.484375 L 526.355469 607.625 C 527.066406 607.761719 527.550781 608.429688 527.449219 609.148438 L 521.78125 648.589844 C 521.722656 649.003906 521.472656 649.363281 521.113281 649.570312 C 520.90625 649.6875 520.675781 649.746094 520.445312 649.746094 " fill-opacity="1" fill-rule="nonzero"/><path fill="#d9bff4" d="M 501.476562 638.574219 C 500.992188 642 500.207031 648.363281 500.144531 654.070312 C 500.101562 657.652344 502.792969 660.671875 506.34375 661.128906 C 516.390625 662.417969 539.179688 663.824219 558.585938 662.066406 C 559.917969 661.945312 562.265625 660.980469 562.921875 657.660156 C 565.117188 646.519531 545.738281 643.789062 524.488281 635.707031 C 523.65625 635.390625 522.714844 635.578125 522.074219 636.203125 L 519.78125 638.417969 C 517.488281 640.640625 514.089844 641.269531 511.152344 640.015625 L 504.183594 637.042969 C 502.996094 636.539062 501.65625 637.296875 501.476562 638.574219 " fill-opacity="1" fill-rule="nonzero"/><path fill="#000000" d="M 502.8125 638.761719 C 502.347656 642.050781 501.558594 648.417969 501.492188 654.085938 C 501.460938 656.964844 503.621094 659.421875 506.515625 659.789062 C 516.875 661.121094 539.257812 662.46875 558.464844 660.722656 C 558.886719 660.6875 561.015625 660.34375 561.597656 657.398438 C 562.980469 650.382812 554.15625 647.125 538.441406 641.964844 C 533.808594 640.445312 529.015625 638.875 524.007812 636.96875 C 523.664062 636.839844 523.273438 636.917969 523.011719 637.167969 L 520.722656 639.386719 C 518.03125 641.992188 514.070312 642.726562 510.625 641.257812 L 503.65625 638.285156 C 503.414062 638.183594 503.214844 638.257812 503.117188 638.3125 C 503.019531 638.371094 502.847656 638.5 502.8125 638.761719 Z M 538.367188 664.246094 C 525.285156 664.246094 513.085938 663.355469 506.171875 662.46875 C 501.917969 661.921875 498.746094 658.304688 498.792969 654.054688 C 498.859375 648.238281 499.664062 641.738281 500.140625 638.382812 C 500.285156 637.355469 500.886719 636.476562 501.789062 635.964844 C 502.695312 635.453125 503.757812 635.394531 504.714844 635.804688 L 511.683594 638.777344 C 514.125 639.816406 516.9375 639.296875 518.84375 637.449219 L 521.136719 635.230469 C 522.144531 634.253906 523.648438 633.945312 524.96875 634.449219 C 529.917969 636.328125 534.675781 637.890625 539.28125 639.402344 C 554.296875 644.328125 566.160156 648.21875 564.246094 657.921875 C 563.503906 661.667969 560.800781 663.222656 558.710938 663.414062 C 552.101562 664.011719 545.117188 664.246094 538.367188 664.246094 " fill-opacity="1" fill-rule="nonzero"/><path fill="#ffffff" d="M 500.160156 653.210938 C 500.160156 653.210938 500.144531 653.792969 500.144531 654.070312 C 500.101562 657.652344 502.792969 660.671875 506.34375 661.128906 C 516.390625 662.417969 539.179688 663.824219 558.585938 662.066406 C 559.917969 661.945312 562.265625 660.980469 562.921875 657.660156 C 563.121094 656.644531 563 654.8125 563 654.8125 L 561.621094 654.875 C 542.007812 655.847656 522.351562 655.378906 502.804688 653.46875 L 500.160156 653.210938 " fill-opacity="1" fill-rule="nonzero"/><path fill="#000000" d="M 501.519531 654.699219 C 501.777344 657.308594 503.828125 659.445312 506.515625 659.789062 C 516.875 661.121094 539.257812 662.46875 558.464844 660.722656 C 558.886719 660.6875 561.015625 660.34375 561.597656 657.398438 C 561.65625 657.097656 561.679688 656.65625 561.683594 656.226562 C 542.074219 657.195312 522.21875 656.71875 502.675781 654.816406 Z M 538.367188 664.246094 C 525.285156 664.246094 513.085938 663.355469 506.171875 662.46875 C 501.917969 661.921875 498.746094 658.304688 498.792969 654.054688 L 498.808594 653.1875 C 498.816406 652.808594 498.980469 652.453125 499.261719 652.203125 C 499.542969 651.953125 499.914062 651.835938 500.289062 651.867188 L 502.9375 652.125 C 522.347656 654.019531 542.070312 654.492188 561.554688 653.53125 L 562.929688 653.460938 C 563.664062 653.40625 564.296875 653.984375 564.34375 654.722656 C 564.359375 654.925781 564.472656 656.761719 564.246094 657.921875 C 563.503906 661.667969 560.800781 663.222656 558.710938 663.414062 C 552.101562 664.011719 545.117188 664.246094 538.367188 664.246094 " fill-opacity="1" fill-rule="nonzero"/><path fill="#000000" d="M 529.363281 649.085938 C 529.015625 649.085938 528.671875 648.957031 528.40625 648.695312 C 527.878906 648.167969 527.878906 647.3125 528.40625 646.78125 L 535.863281 639.328125 C 536.390625 638.800781 537.242188 638.800781 537.773438 639.324219 C 538.296875 639.851562 538.296875 640.707031 537.773438 641.234375 L 530.316406 648.695312 C 530.050781 648.957031 529.707031 649.085938 529.363281 649.085938 " fill-opacity="1" fill-rule="nonzero"/><path fill="#000000" d="M 536.6875 649.863281 C 536.347656 649.863281 536.011719 649.738281 535.75 649.484375 C 535.210938 648.96875 535.195312 648.113281 535.714844 647.578125 L 541.671875 641.386719 C 542.1875 640.851562 543.039062 640.835938 543.578125 641.351562 C 544.117188 641.867188 544.132812 642.722656 543.613281 643.257812 L 537.65625 649.449219 C 537.390625 649.722656 537.039062 649.863281 536.6875 649.863281 " fill-opacity="1" fill-rule="nonzero"/><path fill="#000000" d="M 565.019531 367.386719 C 565.019531 367.386719 555.652344 372.824219 551.996094 404.695312 C 548.339844 436.570312 549.5625 474.148438 524.101562 511.414062 C 503.769531 541.175781 505.558594 591.402344 502.601562 624.320312 C 502.457031 625.910156 503.683594 627.289062 505.277344 627.34375 L 524.769531 628.007812 C 526.007812 628.054688 527.128906 627.273438 527.507812 626.089844 C 530.992188 615.300781 548.316406 563.257812 567.777344 533.082031 C 588.34375 501.1875 613.351562 418.40625 613.351562 418.40625 C 613.351562 418.40625 608.710938 397.480469 608.066406 377.429688 C 607.421875 357.371094 565.019531 367.386719 565.019531 367.386719 " fill-opacity="1" fill-rule="nonzero"/><path fill="#ffffff" d="M 679.804688 498.492188 L 671.585938 533.960938 L 686.128906 542.09375 L 696.304688 503.566406 L 679.804688 498.492188 " fill-opacity="1" fill-rule="nonzero"/><path fill="#000000" d="M 673.128906 533.277344 L 685.269531 540.070312 L 694.671875 504.476562 L 680.792969 500.207031 Z M 686.128906 543.445312 C 685.90625 543.445312 685.675781 543.390625 685.472656 543.273438 L 670.925781 535.136719 C 670.402344 534.84375 670.136719 534.238281 670.273438 533.652344 L 678.492188 498.183594 C 678.574219 497.820312 678.804688 497.507812 679.128906 497.320312 C 679.453125 497.136719 679.84375 497.089844 680.203125 497.203125 L 696.703125 502.277344 C 697.394531 502.492188 697.796875 503.210938 697.609375 503.914062 L 687.4375 542.4375 C 687.332031 542.84375 687.042969 543.175781 686.660156 543.339844 C 686.492188 543.410156 686.3125 543.445312 686.128906 543.445312 " fill-opacity="1" fill-rule="nonzero"/><path fill="#d9bff4" d="M 669.835938 531.863281 C 669.355469 535.296875 666.273438 541.796875 666.207031 547.5 C 666.164062 551.082031 668.855469 554.101562 672.410156 554.558594 C 682.453125 555.847656 707.542969 557.121094 726.949219 555.359375 C 728.277344 555.234375 730.628906 554.269531 731.28125 550.949219 C 733.480469 539.808594 714.101562 537.082031 692.847656 529 C 692.015625 528.683594 691.078125 528.867188 690.4375 529.492188 L 688.144531 531.707031 C 685.851562 533.929688 682.449219 534.558594 679.515625 533.304688 L 672.546875 530.332031 C 671.359375 529.828125 670.019531 530.585938 669.835938 531.863281 " fill-opacity="1" fill-rule="nonzero"/><path fill="#000000" d="M 671.175781 532.050781 C 670.980469 533.433594 670.433594 535.15625 669.804688 537.144531 C 668.816406 540.253906 667.59375 544.121094 667.554688 547.515625 C 667.523438 550.394531 669.683594 552.851562 672.578125 553.21875 C 681.679688 554.390625 706.9375 555.816406 726.828125 554.011719 C 727.25 553.976562 729.378906 553.636719 729.960938 550.6875 C 731.34375 543.671875 722.515625 540.414062 706.800781 535.257812 C 702.167969 533.734375 697.375 532.164062 692.371094 530.261719 C 692.023438 530.128906 691.632812 530.207031 691.375 530.460938 L 689.082031 532.679688 C 686.394531 535.28125 682.429688 536.015625 678.988281 534.546875 L 672.015625 531.574219 C 671.777344 531.472656 671.578125 531.550781 671.480469 531.605469 C 671.378906 531.660156 671.210938 531.789062 671.175781 532.050781 Z M 705.195312 557.5625 C 692.050781 557.5625 679.277344 556.800781 672.234375 555.894531 C 667.980469 555.351562 664.804688 551.730469 664.855469 547.484375 C 664.898438 543.691406 666.1875 539.609375 667.230469 536.332031 C 667.824219 534.457031 668.339844 532.835938 668.503906 531.675781 C 668.644531 530.644531 669.25 529.765625 670.152344 529.253906 C 671.058594 528.746094 672.121094 528.6875 673.074219 529.09375 L 680.042969 532.066406 C 682.488281 533.105469 685.300781 532.585938 687.207031 530.738281 L 689.496094 528.519531 C 690.507812 527.542969 692.007812 527.234375 693.332031 527.738281 C 698.277344 529.621094 703.039062 531.179688 707.644531 532.691406 C 722.660156 537.621094 734.519531 541.511719 732.609375 551.210938 C 731.867188 554.960938 729.160156 556.511719 727.074219 556.703125 C 720.328125 557.316406 712.699219 557.5625 705.195312 557.5625 " fill-opacity="1" fill-rule="nonzero"/><path fill="#ffffff" d="M 666.75 546.402344 C 666.75 546.402344 666.738281 546.984375 666.738281 547.261719 C 666.699219 550.84375 669.386719 553.867188 672.941406 554.320312 C 682.988281 555.609375 707.542969 557.121094 726.949219 555.359375 C 728.277344 555.234375 730.628906 554.269531 731.28125 550.949219 C 731.484375 549.933594 731.359375 548.101562 731.359375 548.101562 L 729.984375 548.171875 C 710.371094 549.136719 690.710938 548.667969 671.167969 546.761719 L 666.75 546.402344 " fill-opacity="1" fill-rule="nonzero"/><path fill="#000000" d="M 668.109375 547.867188 C 668.355469 550.488281 670.414062 552.636719 673.113281 552.980469 C 681.90625 554.109375 706.609375 555.847656 726.828125 554.011719 C 727.25 553.976562 729.378906 553.636719 729.960938 550.6875 C 730.015625 550.386719 730.042969 549.949219 730.046875 549.515625 C 710.4375 550.484375 690.582031 550.007812 671.035156 548.105469 Z M 707.058594 557.511719 C 692.496094 557.511719 678.859375 556.441406 672.769531 555.65625 C 668.511719 555.113281 665.339844 551.496094 665.386719 547.246094 L 665.402344 546.378906 C 665.410156 546.003906 665.570312 545.652344 665.84375 545.402344 C 666.125 545.152344 666.488281 545.03125 666.859375 545.058594 L 671.277344 545.414062 C 690.710938 547.308594 710.433594 547.78125 729.917969 546.820312 L 731.292969 546.753906 C 732.035156 546.707031 732.65625 547.277344 732.707031 548.011719 C 732.722656 548.214844 732.835938 550.054688 732.609375 551.210938 C 731.867188 554.960938 729.160156 556.511719 727.074219 556.703125 C 720.636719 557.289062 713.75 557.511719 707.058594 557.511719 " fill-opacity="1" fill-rule="nonzero"/><path fill="#000000" d="M 697.726562 542.378906 C 697.375 542.378906 697.03125 542.246094 696.765625 541.984375 C 696.242188 541.457031 696.242188 540.601562 696.765625 540.078125 L 704.226562 532.617188 C 704.75 532.089844 705.605469 532.089844 706.132812 532.617188 C 706.660156 533.140625 706.660156 533.996094 706.132812 534.523438 L 698.679688 541.984375 C 698.414062 542.246094 698.070312 542.378906 697.726562 542.378906 " fill-opacity="1" fill-rule="nonzero"/><path fill="#000000" d="M 705.050781 543.152344 C 704.707031 543.152344 704.371094 543.03125 704.113281 542.773438 C 703.574219 542.257812 703.558594 541.402344 704.074219 540.867188 L 710.03125 534.675781 C 710.550781 534.140625 711.402344 534.125 711.9375 534.640625 C 712.480469 535.160156 712.496094 536.011719 711.976562 536.550781 L 706.019531 542.738281 C 705.753906 543.015625 705.402344 543.152344 705.050781 543.152344 " fill-opacity="1" fill-rule="nonzero"/><path fill="#000000" d="M 602.566406 424.027344 C 602.566406 424.027344 646.363281 420.585938 695.238281 394.339844 C 696.679688 393.5625 697.613281 395.953125 696.738281 397.335938 C 694.277344 401.230469 692.972656 407.066406 689.300781 417.027344 C 684.785156 429.289062 675.242188 492.734375 672.097656 512.480469 C 671.816406 514.265625 673.15625 515.890625 674.960938 515.949219 L 693.757812 516.558594 C 694.945312 516.597656 696.042969 515.933594 696.558594 514.863281 C 703.335938 500.738281 747.613281 389.554688 745.921875 368.847656 C 744.09375 346.457031 718.539062 347.957031 707.878906 347.273438 C 696.847656 346.5625 596.867188 365.25 596.867188 365.25 L 602.566406 424.027344 " fill-opacity="1" fill-rule="nonzero"/><path fill="#ffffff" d="M 469.359375 391.332031 C 470.875 389.527344 472.835938 387.414062 474.519531 385.746094 C 476.699219 383.59375 483.964844 369.449219 483.964844 369.449219 L 496.675781 373.046875 C 496.675781 373.046875 490.734375 383.441406 492.160156 388.617188 C 493.488281 393.4375 494.539062 403.621094 487.480469 411.03125 C 486.671875 411.882812 484.898438 412.105469 484.28125 411.960938 C 482.441406 411.53125 482.402344 408.972656 483.304688 407.308594 L 485.851562 402.617188 C 486.078125 402.203125 485.738281 401.710938 485.273438 401.777344 C 483.367188 402.046875 479.171875 403.269531 474.785156 408.683594 C 471.40625 412.847656 464.714844 422.144531 462.464844 420.605469 C 458.445312 417.855469 461.074219 401.210938 469.359375 391.332031 " fill-opacity="1" fill-rule="nonzero"/><path fill="#000000" d="M 470.394531 392.199219 C 464.398438 399.347656 461.257812 410.640625 462.089844 416.707031 C 462.269531 418.03125 462.644531 419 463.128906 419.417969 C 464.835938 419.148438 469.847656 412.761719 472.011719 410.007812 C 472.644531 409.203125 473.226562 408.460938 473.734375 407.832031 C 478.347656 402.144531 482.824219 400.757812 485.085938 400.441406 C 485.808594 400.339844 486.511719 400.648438 486.929688 401.246094 C 487.34375 401.847656 487.386719 402.617188 487.039062 403.261719 L 484.492188 407.957031 C 484.078125 408.714844 483.957031 409.75 484.210938 410.316406 C 484.308594 410.539062 484.433594 410.613281 484.589844 410.644531 C 484.960938 410.707031 486.125 410.492188 486.503906 410.101562 C 494.015625 402.207031 491.449219 391.121094 490.859375 388.976562 C 489.617188 384.480469 493.007812 377.125 494.683594 373.886719 L 484.660156 371.046875 C 482.875 374.476562 477.460938 384.734375 475.46875 386.703125 C 473.792969 388.363281 471.847656 390.46875 470.394531 392.199219 Z M 463.226562 419.492188 L 463.234375 419.492188 Z M 463.035156 422.140625 C 462.5625 422.140625 462.117188 422 461.703125 421.71875 C 460.492188 420.894531 459.722656 419.328125 459.414062 417.078125 C 458.507812 410.464844 461.65625 398.410156 468.328125 390.460938 C 469.851562 388.644531 471.8125 386.523438 473.570312 384.785156 C 475.046875 383.328125 479.992188 374.226562 482.765625 368.832031 C 483.058594 368.257812 483.714844 367.976562 484.332031 368.144531 L 497.042969 371.75 C 497.441406 371.863281 497.765625 372.15625 497.921875 372.539062 C 498.082031 372.925781 498.050781 373.359375 497.847656 373.71875 C 496.273438 376.476562 492.414062 384.464844 493.460938 388.261719 C 495.367188 395.175781 495.054688 405.03125 488.457031 411.960938 C 487.230469 413.25 484.925781 413.5 483.972656 413.273438 C 482.96875 413.039062 482.179688 412.378906 481.746094 411.421875 C 481.140625 410.070312 481.285156 408.203125 482.117188 406.667969 L 483.832031 403.503906 C 481.890625 404.148438 478.925781 405.71875 475.832031 409.53125 C 475.332031 410.148438 474.757812 410.882812 474.132812 411.671875 C 469.277344 417.863281 465.691406 422.140625 463.035156 422.140625 " fill-opacity="1" fill-rule="nonzero"/><path fill="#6a54cd" d="M 774.015625 231.574219 L 765.804688 217.730469 C 764.453125 215.449219 760.199219 214.761719 758.082031 216.34375 C 711.667969 250.9375 662.289062 236.828125 654.664062 235.007812 C 635.738281 230.507812 626.207031 229.816406 611.265625 228.90625 C 589.40625 227.578125 557.953125 240.21875 536.792969 261.382812 C 519.957031 278.21875 491.242188 332.824219 478.222656 370.757812 C 477.675781 372.347656 478.378906 374.101562 479.875 374.878906 L 492.9375 381.660156 C 494.597656 382.519531 496.632812 381.890625 497.507812 380.242188 C 504.15625 367.71875 532.960938 315.761719 563.105469 298.609375 C 565.320312 297.351562 568.65625 298.683594 568.53125 301.230469 C 568.128906 309.214844 563.171875 338.8125 561.660156 366.238281 C 561.460938 369.859375 563.960938 373.070312 567.523438 373.726562 L 580.710938 376.171875 C 603.714844 381.527344 625.28125 375.5625 634.78125 372.171875 C 637.691406 371.136719 639.101562 368.328125 639.542969 365.269531 C 640.273438 360.199219 650.484375 319.542969 669.097656 292.648438 C 671.445312 289.257812 674.996094 286.914062 679.105469 286.675781 C 695.707031 285.707031 742.957031 279.070312 773.8125 235.835938 C 774.714844 234.574219 774.804688 232.910156 774.015625 231.574219 " fill-opacity="1" fill-rule="nonzero"/><path fill="#ffffff" d="M 762.707031 221.894531 C 762.53125 220.863281 762.894531 219.816406 763.695312 219.144531 C 764.746094 218.25 766.515625 216.726562 769.09375 214.472656 C 773.632812 210.496094 779.320312 202.570312 784.269531 200.191406 C 789.21875 197.816406 807.167969 190.800781 810.042969 192.285156 C 812.914062 193.777344 811.488281 197.148438 807.410156 199.105469 C 803.335938 201.0625 798.03125 203.074219 798.03125 203.074219 C 798.03125 203.074219 800.996094 202.90625 803.1875 206.332031 C 805.375 209.757812 802.34375 211.144531 803.625 212.84375 C 805.261719 215.011719 804.777344 217.542969 803.480469 218.644531 C 800.511719 221.171875 796.921875 216.183594 794.246094 221.347656 C 792.382812 224.929688 787.980469 227.269531 779.0625 228.972656 C 776.667969 229.429688 774.386719 230.347656 772.320312 231.636719 C 771.46875 232.175781 770.386719 232.21875 769.507812 231.71875 C 767.375 230.519531 763.679688 227.65625 762.707031 221.894531 " fill-opacity="1" fill-rule="nonzero"/><path fill="#000000" d="M 808.734375 193.386719 C 804.917969 193.386719 790.710938 198.59375 784.855469 201.40625 C 781.933594 202.808594 778.609375 206.4375 775.398438 209.945312 C 773.488281 212.027344 771.6875 213.992188 769.988281 215.484375 C 767.402344 217.742188 765.625 219.269531 764.566406 220.167969 C 764.140625 220.535156 763.941406 221.09375 764.042969 221.667969 C 764.921875 226.875 768.257812 229.464844 770.171875 230.539062 C 770.609375 230.792969 771.164062 230.773438 771.609375 230.496094 C 773.859375 229.085938 776.285156 228.125 778.808594 227.644531 C 787.09375 226.0625 791.351562 223.992188 793.050781 220.722656 C 795.058594 216.847656 797.882812 217.4375 799.75 217.824219 C 801.128906 218.113281 801.882812 218.234375 802.609375 217.617188 C 803.355469 216.980469 803.753906 215.246094 802.550781 213.648438 C 801.5625 212.347656 802.023438 211.058594 802.332031 210.203125 C 802.679688 209.234375 802.953125 208.464844 802.050781 207.058594 C 800.339844 204.375 798.125 204.421875 798.109375 204.421875 C 797.441406 204.457031 796.851562 204.007812 796.714844 203.355469 C 796.574219 202.703125 796.929688 202.046875 797.550781 201.8125 C 797.605469 201.789062 802.855469 199.796875 806.832031 197.890625 C 809.128906 196.78125 810.1875 195.347656 810.203125 194.476562 C 810.203125 194.316406 810.210938 193.890625 809.425781 193.484375 C 809.261719 193.417969 809.027344 193.386719 808.734375 193.386719 Z M 770.839844 233.417969 C 770.148438 233.417969 769.464844 233.242188 768.84375 232.890625 C 766.511719 231.578125 762.445312 228.433594 761.378906 222.117188 C 761.128906 220.621094 761.675781 219.082031 762.820312 218.113281 C 763.871094 217.21875 765.644531 215.699219 768.207031 213.453125 C 769.800781 212.058594 771.550781 210.148438 773.410156 208.121094 C 776.792969 204.425781 780.296875 200.601562 783.683594 198.972656 C 783.90625 198.867188 806.445312 188.898438 810.664062 191.089844 C 812.109375 191.832031 812.917969 193.085938 812.902344 194.519531 C 812.871094 196.660156 810.992188 198.882812 808 200.320312 C 805.988281 201.289062 803.699219 202.261719 801.875 203.003906 C 802.707031 203.578125 803.5625 204.40625 804.328125 205.605469 C 805.941406 208.128906 805.300781 209.921875 804.875 211.113281 C 804.601562 211.882812 804.628906 211.921875 804.707031 212.027344 C 806.789062 214.789062 806.152344 218.144531 804.355469 219.671875 C 802.59375 221.171875 800.632812 220.765625 799.199219 220.46875 C 797.410156 220.09375 796.515625 219.90625 795.441406 221.964844 C 793.320312 226.050781 788.5 228.539062 779.316406 230.292969 C 777.121094 230.714844 775.007812 231.550781 773.039062 232.78125 C 772.367188 233.203125 771.601562 233.417969 770.839844 233.417969 " fill-opacity="1" fill-rule="nonzero"/><path fill="#ffffff" d="M 642.726562 191.378906 L 618.171875 232.078125 C 617.835938 232.542969 614.230469 232.414062 610.164062 232.828125 C 608.269531 233.019531 606.285156 233.308594 604.640625 233.578125 C 603.289062 233.796875 602.90625 235.554688 604.050781 236.3125 L 608.445312 239.226562 C 617.65625 245.328125 628.597656 248.484375 639.625 247.734375 C 642.691406 247.527344 645.625 247.035156 648.238281 246.222656 L 657.644531 243.261719 C 659.054688 242.816406 659.046875 240.816406 657.628906 240.386719 L 645.65625 236.757812 L 655.761719 215.296875 L 642.726562 191.378906 " fill-opacity="1" fill-rule="nonzero"/><path fill="#000000" d="M 642.667969 194.085938 L 619.328125 232.773438 C 619.308594 232.804688 619.289062 232.835938 619.265625 232.863281 C 618.6875 233.664062 617.703125 233.710938 614.773438 233.859375 C 613.503906 233.921875 611.921875 234 610.304688 234.164062 C 608.71875 234.328125 606.886719 234.574219 604.859375 234.90625 C 604.820312 234.910156 604.753906 234.921875 604.730469 235.023438 C 604.707031 235.128906 604.765625 235.164062 604.796875 235.183594 L 609.191406 238.097656 C 618.328125 244.148438 629.109375 247.089844 639.535156 246.386719 C 642.613281 246.175781 645.40625 245.6875 647.839844 244.929688 L 657.242188 241.96875 C 657.285156 241.957031 657.347656 241.9375 657.347656 241.824219 C 657.347656 241.710938 657.285156 241.691406 657.238281 241.679688 L 645.265625 238.046875 C 644.890625 237.933594 644.578125 237.664062 644.425781 237.304688 C 644.265625 236.945312 644.269531 236.535156 644.4375 236.179688 L 654.253906 215.339844 Z M 636.476562 249.1875 C 626.492188 249.1875 616.386719 246.101562 607.703125 240.34375 L 603.304688 237.433594 C 602.320312 236.78125 601.84375 235.613281 602.089844 234.457031 C 602.339844 233.300781 603.257812 232.429688 604.425781 232.238281 C 606.507812 231.902344 608.390625 231.648438 610.03125 231.480469 C 611.71875 231.3125 613.339844 231.230469 614.636719 231.164062 C 615.625 231.113281 616.71875 231.058594 617.257812 230.984375 L 641.570312 190.675781 C 641.820312 190.265625 642.273438 190.019531 642.757812 190.027344 C 643.242188 190.035156 643.683594 190.304688 643.914062 190.730469 L 656.949219 214.652344 C 657.15625 215.027344 657.171875 215.480469 656.988281 215.871094 L 647.542969 235.917969 L 658.019531 239.09375 C 659.226562 239.457031 660.042969 240.550781 660.046875 241.8125 C 660.054688 243.066406 659.253906 244.167969 658.046875 244.546875 L 648.644531 247.503906 C 646.007812 248.328125 643.007812 248.855469 639.71875 249.082031 C 638.644531 249.152344 637.558594 249.1875 636.476562 249.1875 " fill-opacity="1" fill-rule="nonzero"/><path fill="#ffffff" d="M 653.6875 216.132812 C 654.976562 216.300781 656.304688 216.355469 657.667969 216.285156 L 660.089844 216.15625 C 660.089844 216.15625 673.996094 214.316406 676.226562 210.863281 C 678.453125 207.417969 673.742188 194.902344 673.742188 194.902344 C 675.890625 193.226562 676.371094 191.117188 675.910156 190.40625 C 675.453125 189.695312 672.351562 188.613281 671.09375 187.683594 C 670.070312 186.933594 667.777344 180.941406 666.789062 178.367188 C 666.789062 178.367188 664.96875 168.210938 648.671875 169.53125 C 611.335938 172.554688 638.179688 207.109375 638.179688 207.109375 C 638.757812 207.78125 639.355469 208.425781 639.96875 209.035156 L 653.6875 216.132812 " fill-opacity="1" fill-rule="nonzero"/><path fill="#000000" d="M 656.492188 217.667969 C 654.390625 217.667969 652.316406 217.386719 650.324219 216.828125 C 649.609375 216.628906 649.1875 215.886719 649.386719 215.164062 C 649.585938 214.449219 650.328125 214.03125 651.046875 214.226562 C 653.152344 214.820312 655.359375 215.058594 657.59375 214.941406 L 659.964844 214.820312 C 665.484375 214.078125 673.789062 212.144531 675.085938 210.136719 C 676.371094 208.15625 674.332031 200.316406 672.476562 195.378906 C 672.269531 194.828125 672.445312 194.203125 672.910156 193.839844 C 674.296875 192.761719 674.699219 191.597656 674.71875 191.144531 C 674.355469 190.894531 673.5 190.488281 672.910156 190.207031 C 671.949219 189.742188 670.957031 189.273438 670.289062 188.78125 C 669.292969 188.046875 668.050781 185.449219 665.523438 178.859375 C 665.496094 178.777344 665.472656 178.699219 665.457031 178.613281 C 665.390625 178.261719 663.558594 169.679688 648.78125 170.882812 C 639.707031 171.617188 633.925781 174.203125 631.617188 178.554688 C 627.695312 185.949219 634.027344 197.15625 637.808594 203.847656 L 638.144531 204.449219 C 638.515625 205.097656 638.285156 205.921875 637.632812 206.285156 C 636.988281 206.652344 636.164062 206.425781 635.796875 205.777344 L 635.460938 205.175781 C 631.402344 198 624.617188 185.992188 629.234375 177.289062 C 632.003906 172.066406 638.507812 169.007812 648.5625 168.191406 C 664.726562 166.882812 667.730469 176.582031 668.078125 177.976562 C 670.550781 184.433594 671.539062 186.25 671.933594 186.640625 C 672.351562 186.945312 673.269531 187.386719 674.078125 187.773438 C 675.675781 188.535156 676.601562 189 677.042969 189.679688 C 677.855469 190.933594 677.378906 193.324219 675.324219 195.316406 C 676.546875 198.734375 679.585938 208.148438 677.355469 211.601562 C 674.910156 215.382812 662.691406 217.175781 660.265625 217.496094 C 660.230469 217.5 660.195312 217.507812 660.15625 217.511719 L 657.734375 217.632812 C 657.320312 217.65625 656.902344 217.667969 656.492188 217.667969 " fill-opacity="1" fill-rule="nonzero"/><path fill="#000000" d="M 641.046875 165.113281 C 645.125 164.3125 649.761719 164.945312 651.742188 164.269531 C 654.941406 163.179688 654.867188 159.496094 659.375 159.132812 C 663.34375 158.816406 667.035156 159.554688 669.03125 162.59375 C 669.367188 163.097656 669.65625 163.664062 669.890625 164.308594 C 673.015625 172.890625 668.699219 177.03125 666.789062 178.371094 C 666.789062 178.371094 654.699219 184.183594 652.609375 185.851562 C 650.65625 187.410156 648.355469 191.128906 649.613281 196.503906 C 649.773438 197.199219 649.441406 197.914062 648.820312 198.265625 C 648.089844 198.671875 647.164062 198.46875 646.691406 197.78125 C 645.191406 195.617188 641.902344 191.421875 639.464844 192.394531 C 636.617188 193.523438 635.652344 200.667969 640.878906 202.433594 C 642.488281 202.976562 643.019531 205.085938 641.859375 206.324219 C 640.898438 207.359375 639.425781 208.082031 637.210938 207.515625 C 637.210938 207.515625 624.203125 198.242188 622.664062 186.023438 C 621.125 173.800781 635.632812 166.179688 641.046875 165.113281 " fill-opacity="1" fill-rule="nonzero"/><path fill="#000000" d="M 758.925781 78.679688 L 758.9375 78.679688 Z M 763.757812 77.515625 C 762.328125 77.515625 760.917969 78.1875 760.035156 79.449219 C 759.34375 80.449219 759.078125 81.648438 759.296875 82.839844 C 759.507812 84.035156 760.171875 85.070312 761.164062 85.757812 C 763.214844 87.1875 766.042969 86.683594 767.472656 84.628906 C 768.167969 83.636719 768.429688 82.433594 768.214844 81.242188 C 768.003906 80.054688 767.339844 79.011719 766.34375 78.320312 C 765.558594 77.773438 764.65625 77.515625 763.757812 77.515625 Z M 763.742188 89.277344 C 762.273438 89.277344 760.847656 88.832031 759.625 87.976562 C 758.035156 86.875 756.980469 85.214844 756.636719 83.316406 C 756.296875 81.414062 756.71875 79.492188 757.816406 77.910156 C 760.09375 74.636719 764.613281 73.828125 767.886719 76.109375 C 769.46875 77.210938 770.53125 78.867188 770.867188 80.765625 C 771.21875 82.671875 770.796875 84.589844 769.6875 86.171875 C 768.589844 87.761719 766.929688 88.820312 765.03125 89.160156 C 764.597656 89.238281 764.171875 89.277344 763.742188 89.277344 " fill-opacity="1" fill-rule="nonzero"/><path fill="#000000" d="M 807.394531 96.839844 C 807.011719 96.839844 806.636719 96.679688 806.367188 96.367188 C 805.882812 95.800781 805.953125 94.945312 806.515625 94.464844 L 810.878906 90.746094 C 811.441406 90.265625 812.296875 90.332031 812.78125 90.902344 C 813.265625 91.464844 813.195312 92.320312 812.628906 92.800781 L 808.269531 96.519531 C 808.015625 96.734375 807.703125 96.839844 807.394531 96.839844 " fill-opacity="1" fill-rule="nonzero"/><path fill="#000000" d="M 793.625 108.578125 C 793.246094 108.578125 792.863281 108.417969 792.597656 108.105469 C 792.113281 107.535156 792.179688 106.683594 792.75 106.199219 L 797.109375 102.488281 C 797.675781 102.003906 798.527344 102.066406 799.007812 102.636719 C 799.492188 103.203125 799.425781 104.054688 798.859375 104.539062 L 794.5 108.257812 C 794.242188 108.472656 793.929688 108.578125 793.625 108.578125 " fill-opacity="1" fill-rule="nonzero"/><path fill="#000000" d="M 798.679688 96.144531 C 798.292969 96.144531 797.914062 95.984375 797.652344 95.667969 L 793.933594 91.308594 C 793.449219 90.746094 793.515625 89.886719 794.082031 89.40625 C 794.652344 88.921875 795.503906 88.988281 795.984375 89.554688 L 799.703125 93.917969 C 800.1875 94.484375 800.121094 95.332031 799.554688 95.820312 C 799.300781 96.035156 798.988281 96.144531 798.679688 96.144531 " fill-opacity="1" fill-rule="nonzero"/><path fill="#000000" d="M 810.421875 109.917969 C 810.039062 109.917969 809.664062 109.75 809.398438 109.441406 L 805.679688 105.082031 C 805.191406 104.511719 805.257812 103.664062 805.832031 103.179688 C 806.394531 102.695312 807.242188 102.761719 807.734375 103.328125 L 811.449219 107.691406 C 811.929688 108.257812 811.863281 109.109375 811.296875 109.59375 C 811.039062 109.808594 810.730469 109.917969 810.421875 109.917969 " fill-opacity="1" fill-rule="nonzero"/><path fill="#000000" d="M 447.363281 613.789062 C 446.640625 613.789062 446.042969 613.214844 446.015625 612.488281 L 445.796875 606.761719 C 445.769531 606.015625 446.351562 605.390625 447.097656 605.363281 C 447.863281 605.335938 448.46875 605.917969 448.496094 606.660156 L 448.710938 612.386719 C 448.738281 613.132812 448.160156 613.757812 447.414062 613.789062 C 447.394531 613.789062 447.378906 613.789062 447.363281 613.789062 " fill-opacity="1" fill-rule="nonzero"/><path fill="#000000" d="M 448.042969 631.875 C 447.324219 631.875 446.726562 631.300781 446.695312 630.574219 L 446.480469 624.851562 C 446.453125 624.105469 447.035156 623.480469 447.777344 623.453125 C 448.546875 623.433594 449.152344 624.003906 449.179688 624.75 L 449.394531 630.472656 C 449.421875 631.21875 448.839844 631.84375 448.097656 631.875 C 448.078125 631.875 448.0625 631.875 448.042969 631.875 " fill-opacity="1" fill-rule="nonzero"/><path fill="#000000" d="M 435.6875 620.414062 C 434.96875 620.414062 434.371094 619.84375 434.339844 619.117188 C 434.3125 618.371094 434.894531 617.746094 435.640625 617.714844 L 441.363281 617.503906 C 442.121094 617.480469 442.734375 618.058594 442.761719 618.800781 C 442.789062 619.546875 442.210938 620.171875 441.464844 620.199219 L 435.742188 620.414062 C 435.722656 620.414062 435.707031 620.414062 435.6875 620.414062 " fill-opacity="1" fill-rule="nonzero"/><path fill="#000000" d="M 453.777344 619.734375 C 453.054688 619.734375 452.457031 619.164062 452.429688 618.4375 C 452.402344 617.691406 452.980469 617.066406 453.726562 617.035156 L 459.449219 616.820312 C 460.21875 616.800781 460.824219 617.371094 460.851562 618.117188 C 460.878906 618.863281 460.296875 619.488281 459.554688 619.519531 L 453.828125 619.734375 C 453.8125 619.734375 453.792969 619.734375 453.777344 619.734375 " fill-opacity="1" fill-rule="nonzero"/><path fill="#000000" d="M 417.585938 534.9375 C 417.074219 534.9375 416.585938 534.648438 416.359375 534.152344 C 392.484375 482.167969 384.503906 424.6875 393.28125 367.917969 C 395.492188 353.621094 398.765625 339.425781 403.015625 325.714844 C 403.234375 325.003906 403.992188 324.605469 404.703125 324.828125 C 405.414062 325.046875 405.816406 325.800781 405.59375 326.511719 C 401.382812 340.09375 398.136719 354.167969 395.949219 368.328125 C 387.253906 424.578125 395.160156 481.527344 418.808594 533.027344 C 419.121094 533.703125 418.824219 534.503906 418.148438 534.816406 C 417.964844 534.898438 417.773438 534.9375 417.585938 534.9375 " fill-opacity="1" fill-rule="nonzero"/><path fill="#000000" d="M 420.984375 542.082031 C 420.488281 542.082031 420.007812 541.808594 419.773438 541.328125 C 418.609375 538.96875 417.460938 536.550781 416.359375 534.152344 C 416.046875 533.472656 416.34375 532.675781 417.019531 532.363281 C 417.695312 532.050781 418.5 532.347656 418.808594 533.027344 C 419.902344 535.402344 421.042969 537.796875 422.195312 540.136719 C 422.523438 540.804688 422.25 541.617188 421.582031 541.945312 C 421.390625 542.039062 421.1875 542.082031 420.984375 542.082031 " fill-opacity="1" fill-rule="nonzero"/><path fill="#000000" d="M 403.691406 569.871094 C 403.199219 569.871094 402.726562 569.605469 402.488281 569.140625 C 385.800781 536.542969 374.742188 501.542969 369.617188 465.109375 C 364.316406 427.410156 365.53125 389.136719 373.230469 351.351562 C 373.378906 350.621094 374.089844 350.144531 374.820312 350.296875 C 375.550781 350.445312 376.023438 351.15625 375.875 351.890625 C 360.902344 425.390625 371.207031 502.109375 404.890625 567.90625 C 405.230469 568.570312 404.96875 569.386719 404.304688 569.722656 C 404.109375 569.828125 403.898438 569.871094 403.691406 569.871094 " fill-opacity="1" fill-rule="nonzero"/><path fill="#000000" d="M 375.773438 332.921875 L 383.328125 335.96875 L 383.546875 326.839844 Z M 384.628906 339.300781 C 384.457031 339.300781 384.285156 339.269531 384.125 339.203125 L 372.597656 334.542969 C 372.152344 334.363281 371.835938 333.960938 371.765625 333.480469 C 371.699219 333.003906 371.890625 332.527344 372.273438 332.230469 L 384.136719 322.949219 C 384.546875 322.632812 385.105469 322.574219 385.574219 322.808594 C 386.039062 323.046875 386.328125 323.527344 386.316406 324.046875 L 385.980469 337.984375 C 385.96875 338.429688 385.742188 338.839844 385.371094 339.078125 C 385.148438 339.230469 384.890625 339.300781 384.628906 339.300781 " fill-opacity="1" fill-rule="nonzero"/><path fill="#000000" d="M 780.085938 372.980469 C 779.675781 372.980469 779.265625 372.792969 779 372.4375 C 778.558594 371.839844 778.6875 370.992188 779.28125 370.550781 L 818.617188 341.414062 C 819.214844 340.972656 820.058594 341.09375 820.503906 341.695312 C 820.945312 342.292969 820.820312 343.136719 820.21875 343.582031 L 780.890625 372.71875 C 780.644531 372.894531 780.367188 372.980469 780.085938 372.980469 " fill-opacity="1" fill-rule="nonzero"/><path fill="#000000" d="M 720.707031 321.695312 C 720.289062 321.695312 719.882812 321.507812 719.621094 321.152344 C 719.175781 320.550781 719.304688 319.707031 719.902344 319.261719 L 820.253906 244.925781 C 820.855469 244.484375 821.699219 244.609375 822.148438 245.207031 C 822.589844 245.808594 822.460938 246.652344 821.863281 247.09375 L 721.507812 321.4375 C 721.265625 321.609375 720.988281 321.695312 720.707031 321.695312 " fill-opacity="1" fill-rule="nonzero"/><path fill="#000000" d="M 791.671875 288.261719 C 791.257812 288.261719 790.855469 288.070312 790.585938 287.710938 C 790.144531 287.113281 790.265625 286.265625 790.867188 285.824219 L 843.648438 246.726562 C 844.25 246.285156 845.089844 246.410156 845.539062 247.011719 C 845.976562 247.605469 845.851562 248.457031 845.253906 248.898438 L 792.472656 287.996094 C 792.230469 288.171875 791.945312 288.261719 791.671875 288.261719 " fill-opacity="1" fill-rule="nonzero"/><path fill="#000000" d="M 478.085938 381.199219 C 477.175781 381.199219 476.261719 381.03125 475.386719 380.691406 C 473.488281 379.949219 471.988281 378.5 471.171875 376.605469 C 469.503906 372.742188 471.238281 368.207031 475.03125 366.5 C 475.714844 366.199219 476.511719 366.5 476.816406 367.179688 C 477.125 367.859375 476.820312 368.65625 476.140625 368.964844 C 473.679688 370.070312 472.5625 373.019531 473.648438 375.535156 C 474.179688 376.761719 475.144531 377.699219 476.367188 378.171875 C 477.558594 378.640625 478.859375 378.601562 480.027344 378.078125 C 482.488281 376.972656 483.601562 374.03125 482.515625 371.507812 C 482.222656 370.824219 482.535156 370.03125 483.222656 369.734375 C 483.90625 369.441406 484.699219 369.757812 484.996094 370.441406 C 486.664062 374.304688 484.929688 378.835938 481.132812 380.542969 C 480.15625 380.980469 479.121094 381.199219 478.085938 381.199219 " fill-opacity="1" fill-rule="nonzero"/><path fill="#ffffff" d="M 549.574219 80.429688 C 562.972656 76.933594 576.667969 84.964844 580.164062 98.359375 C 583.664062 111.761719 575.636719 125.457031 562.238281 128.953125 C 548.835938 132.453125 535.140625 124.421875 531.644531 111.027344 C 528.148438 97.628906 536.175781 83.929688 549.574219 80.429688 Z M 505.921875 112.707031 L 508.382812 122.128906 L 519.011719 121.769531 C 519.972656 123.855469 521.089844 125.828125 522.359375 127.675781 L 516.625 136.625 L 523.46875 143.554688 L 532.5 137.929688 C 534.347656 139.230469 536.304688 140.378906 538.347656 141.355469 L 537.851562 151.984375 L 547.242188 154.570312 L 552.246094 145.195312 C 554.476562 145.394531 556.746094 145.40625 559.03125 145.226562 L 563.917969 154.675781 L 573.339844 152.214844 L 572.984375 141.582031 C 575.066406 140.625 577.039062 139.507812 578.890625 138.238281 L 587.835938 143.972656 L 594.765625 137.132812 L 589.140625 128.101562 C 590.441406 126.25 591.589844 124.292969 592.570312 122.253906 L 603.199219 122.75 L 605.777344 113.351562 L 596.40625 108.355469 C 596.609375 106.121094 596.617188 103.855469 596.4375 101.566406 L 605.886719 96.683594 L 603.429688 87.257812 L 592.796875 87.613281 C 591.835938 85.53125 590.71875 83.554688 589.453125 81.710938 L 595.1875 72.761719 L 588.34375 65.835938 L 579.3125 71.457031 C 577.460938 70.15625 575.503906 69.007812 573.464844 68.03125 L 573.957031 57.402344 L 564.566406 54.820312 L 559.566406 64.191406 C 557.332031 63.992188 555.0625 63.980469 552.78125 64.160156 L 547.894531 54.710938 L 538.46875 57.171875 L 538.824219 67.800781 C 536.746094 68.761719 534.769531 69.882812 532.921875 71.144531 L 523.976562 65.410156 L 517.042969 72.257812 L 522.667969 81.285156 C 521.367188 83.136719 520.222656 85.09375 519.242188 87.136719 L 508.613281 86.636719 L 506.03125 96.035156 L 515.40625 101.03125 C 515.203125 103.265625 515.191406 105.539062 515.371094 107.820312 L 505.921875 112.707031 " fill-opacity="1" fill-rule="nonzero"/><path fill="#000000" d="M 554.046875 84.160156 C 541.390625 87.46875 533.78125 100.453125 537.082031 113.113281 C 540.386719 125.769531 553.375 133.375 566.027344 130.078125 C 578.6875 126.773438 586.296875 113.785156 582.992188 101.128906 C 581.390625 94.996094 577.5 89.855469 572.035156 86.652344 C 566.566406 83.445312 560.175781 82.566406 554.046875 84.160156 Z M 560.042969 133.542969 C 548.308594 133.542969 537.570312 125.660156 534.472656 113.792969 C 530.792969 99.691406 539.269531 85.234375 553.363281 81.554688 C 560.195312 79.769531 567.308594 80.753906 573.398438 84.324219 C 579.488281 87.894531 583.824219 93.617188 585.605469 100.449219 C 587.386719 107.28125 586.402344 114.390625 582.835938 120.480469 C 579.265625 126.566406 573.539062 130.902344 566.710938 132.6875 C 564.480469 133.269531 562.246094 133.542969 560.042969 133.542969 Z M 563.164062 146.304688 C 563.664062 146.304688 564.128906 146.582031 564.363281 147.03125 L 568.753906 155.523438 L 576.089844 153.609375 L 575.769531 144.054688 C 575.75 143.511719 576.058594 143.007812 576.554688 142.785156 C 578.566406 141.855469 580.484375 140.769531 582.261719 139.554688 C 582.707031 139.246094 583.296875 139.238281 583.75 139.527344 L 591.785156 144.679688 L 597.183594 139.355469 L 592.128906 131.242188 C 591.839844 130.777344 591.859375 130.191406 592.171875 129.746094 C 593.425781 127.964844 594.542969 126.0625 595.484375 124.09375 C 595.71875 123.609375 596.226562 123.304688 596.761719 123.328125 L 606.316406 123.773438 L 608.324219 116.464844 L 599.902344 111.96875 C 599.425781 111.714844 599.144531 111.199219 599.195312 110.660156 C 599.386719 108.519531 599.398438 106.308594 599.222656 104.097656 C 599.183594 103.558594 599.46875 103.042969 599.949219 102.792969 L 608.441406 98.40625 L 606.527344 91.070312 L 596.972656 91.386719 C 596.441406 91.398438 595.929688 91.101562 595.703125 90.605469 C 594.773438 88.59375 593.6875 86.667969 592.472656 84.894531 C 592.164062 84.449219 592.15625 83.863281 592.449219 83.40625 L 597.597656 75.371094 L 592.273438 69.972656 L 584.15625 75.03125 C 583.699219 75.316406 583.109375 75.300781 582.667969 74.988281 C 580.882812 73.730469 578.980469 72.613281 577.011719 71.671875 C 576.523438 71.441406 576.222656 70.933594 576.25 70.394531 L 576.695312 60.839844 L 569.382812 58.828125 L 564.886719 67.257812 C 564.632812 67.730469 564.117188 68.015625 563.574219 67.960938 C 561.4375 67.769531 559.230469 67.757812 557.015625 67.929688 C 556.46875 67.96875 555.960938 67.6875 555.710938 67.207031 L 551.324219 58.71875 L 543.988281 60.628906 L 544.308594 70.183594 C 544.324219 70.730469 544.015625 71.226562 543.523438 71.457031 C 541.511719 72.382812 539.589844 73.472656 537.816406 74.683594 C 537.367188 74.992188 536.78125 75.003906 536.324219 74.707031 L 528.289062 69.558594 L 522.894531 74.886719 L 527.949219 82.996094 C 528.234375 83.460938 528.21875 84.042969 527.90625 84.492188 C 526.652344 86.269531 525.535156 88.171875 524.589844 90.140625 C 524.359375 90.632812 523.84375 90.921875 523.3125 90.90625 L 513.761719 90.464844 L 511.75 97.773438 L 520.171875 102.269531 C 520.652344 102.523438 520.929688 103.042969 520.882812 103.582031 C 520.6875 105.71875 520.679688 107.933594 520.851562 110.140625 C 520.890625 110.679688 520.605469 111.199219 520.125 111.445312 L 511.632812 115.835938 L 513.550781 123.171875 L 523.101562 122.847656 C 523.644531 122.835938 524.144531 123.136719 524.371094 123.636719 C 525.300781 125.644531 526.390625 127.566406 527.605469 129.339844 C 527.910156 129.785156 527.921875 130.375 527.628906 130.832031 L 522.476562 138.871094 L 527.800781 144.265625 L 535.917969 139.210938 C 536.378906 138.921875 536.964844 138.941406 537.410156 139.253906 C 539.191406 140.507812 541.09375 141.621094 543.0625 142.566406 C 543.550781 142.800781 543.851562 143.300781 543.828125 143.847656 L 543.382812 153.398438 L 550.691406 155.40625 L 555.1875 146.984375 C 555.441406 146.503906 555.957031 146.230469 556.5 146.277344 C 558.644531 146.472656 560.851562 146.480469 563.058594 146.308594 C 563.09375 146.304688 563.128906 146.304688 563.164062 146.304688 Z M 568.050781 158.449219 C 567.554688 158.449219 567.085938 158.179688 566.851562 157.722656 L 562.371094 149.058594 C 560.621094 149.160156 558.871094 149.152344 557.152344 149.03125 L 552.566406 157.628906 C 552.269531 158.1875 551.625 158.460938 551.019531 158.292969 L 541.628906 155.710938 C 541.019531 155.542969 540.609375 154.976562 540.636719 154.347656 L 541.089844 144.601562 C 539.539062 143.820312 538.035156 142.933594 536.597656 141.96875 L 528.3125 147.128906 C 527.777344 147.457031 527.082031 147.378906 526.640625 146.929688 L 519.796875 139.996094 C 519.355469 139.550781 519.28125 138.851562 519.621094 138.320312 L 524.878906 130.121094 C 523.9375 128.679688 523.078125 127.15625 522.308594 125.574219 L 512.5625 125.90625 C 511.914062 125.910156 511.371094 125.503906 511.210938 124.894531 L 508.75 115.472656 C 508.589844 114.863281 508.875 114.222656 509.4375 113.933594 L 518.097656 109.453125 C 517.996094 107.699219 518.007812 105.953125 518.121094 104.234375 L 509.527344 99.652344 C 508.972656 99.355469 508.695312 98.707031 508.863281 98.097656 L 511.445312 88.707031 C 511.613281 88.097656 512.171875 87.6875 512.808594 87.71875 L 522.554688 88.171875 C 523.339844 86.621094 524.222656 85.117188 525.1875 83.675781 L 520.03125 75.398438 C 519.699219 74.859375 519.78125 74.164062 520.230469 73.71875 L 527.160156 66.878906 C 527.609375 66.4375 528.304688 66.363281 528.835938 66.699219 L 537.039062 71.957031 C 538.476562 71.019531 540 70.15625 541.578125 69.390625 L 541.253906 59.644531 C 541.230469 59.011719 541.652344 58.449219 542.261719 58.289062 L 551.6875 55.832031 C 552.296875 55.671875 552.9375 55.957031 553.226562 56.515625 L 557.703125 65.179688 C 559.460938 65.078125 561.207031 65.089844 562.921875 65.203125 L 567.507812 56.609375 C 567.804688 56.054688 568.449219 55.773438 569.058594 55.945312 L 578.449219 58.527344 C 579.058594 58.695312 579.46875 59.261719 579.4375 59.894531 L 578.988281 69.640625 C 580.53125 70.421875 582.039062 71.304688 583.480469 72.269531 L 591.761719 67.113281 C 592.296875 66.777344 592.992188 66.863281 593.4375 67.308594 L 600.277344 74.242188 C 600.722656 74.691406 600.792969 75.386719 600.453125 75.921875 L 595.199219 84.117188 C 596.136719 85.558594 597 87.078125 597.769531 88.660156 L 607.515625 88.335938 C 608.160156 88.3125 608.707031 88.734375 608.867188 89.34375 L 611.328125 98.765625 C 611.484375 99.375 611.199219 100.019531 610.640625 100.308594 L 601.976562 104.789062 C 602.078125 106.539062 602.070312 108.285156 601.953125 110.007812 L 610.546875 114.589844 C 611.101562 114.886719 611.382812 115.53125 611.214844 116.136719 L 608.632812 125.53125 C 608.464844 126.136719 607.898438 126.542969 607.265625 126.519531 L 597.519531 126.066406 C 596.738281 127.613281 595.855469 129.121094 594.886719 130.5625 L 600.042969 138.84375 C 600.378906 139.382812 600.296875 140.078125 599.847656 140.519531 L 592.914062 147.359375 C 592.464844 147.800781 591.769531 147.878906 591.238281 147.539062 L 583.039062 142.277344 C 581.597656 143.222656 580.074219 144.082031 578.496094 144.847656 L 578.820312 154.59375 C 578.84375 155.226562 578.425781 155.785156 577.816406 155.949219 L 568.390625 158.40625 C 568.277344 158.4375 568.160156 158.449219 568.050781 158.449219 " fill-opacity="1" fill-rule="nonzero"/><path fill="#d9bff4" d="M 420.773438 151.195312 C 443.703125 145.210938 467.136719 158.949219 473.121094 181.871094 C 479.105469 204.800781 465.371094 228.238281 442.441406 234.226562 C 419.515625 240.210938 396.078125 226.472656 390.09375 203.542969 C 384.109375 180.613281 397.847656 157.179688 420.773438 151.195312 Z M 346.078125 206.421875 L 350.289062 222.542969 L 368.480469 221.933594 C 370.125 225.496094 372.035156 228.875 374.203125 232.039062 L 364.390625 247.34375 L 376.097656 259.210938 L 391.554688 249.582031 C 394.722656 251.8125 398.070312 253.769531 401.5625 255.445312 L 400.714844 273.632812 L 416.785156 278.054688 L 425.34375 262.011719 C 429.164062 262.355469 433.046875 262.378906 436.957031 262.066406 L 445.316406 278.242188 L 461.445312 274.027344 L 460.835938 255.835938 C 464.394531 254.195312 467.773438 252.285156 470.9375 250.117188 L 486.246094 259.925781 L 498.105469 248.21875 L 488.480469 232.757812 C 490.710938 229.59375 492.671875 226.25 494.347656 222.757812 L 512.535156 223.605469 L 516.953125 207.53125 L 500.910156 198.972656 C 501.257812 195.148438 501.273438 191.269531 500.964844 187.359375 L 517.136719 179 L 512.929688 162.871094 L 494.738281 163.480469 C 493.09375 159.925781 491.179688 156.546875 489.011719 153.378906 L 498.824219 138.070312 L 487.117188 126.210938 L 471.660156 135.839844 C 468.496094 133.609375 465.148438 131.644531 461.65625 129.972656 L 462.5 111.78125 L 446.429688 107.367188 L 437.871094 123.40625 C 434.050781 123.058594 430.167969 123.042969 426.257812 123.347656 L 417.898438 107.179688 L 401.773438 111.386719 L 402.382812 129.582031 C 398.820312 131.226562 395.441406 133.136719 392.277344 135.304688 L 376.972656 125.496094 L 365.109375 137.203125 L 374.734375 152.65625 C 372.507812 155.824219 370.546875 159.171875 368.871094 162.664062 L 350.683594 161.816406 L 346.261719 177.890625 L 362.304688 186.445312 C 361.960938 190.265625 361.941406 194.148438 362.25 198.058594 L 346.078125 206.421875 " fill-opacity="1" fill-rule="nonzero"/><path fill="#000000" d="M 428.1875 156.648438 C 406.019531 162.4375 392.6875 185.179688 398.472656 207.351562 C 401.273438 218.09375 408.09375 227.097656 417.667969 232.707031 C 427.246094 238.324219 438.433594 239.871094 449.175781 237.070312 C 459.914062 234.265625 468.921875 227.445312 474.53125 217.871094 C 480.144531 208.296875 481.691406 197.105469 478.890625 186.367188 C 476.085938 175.621094 469.269531 166.621094 459.691406 161.011719 C 450.117188 155.394531 438.925781 153.84375 428.1875 156.648438 Z M 438.6875 241.113281 C 419.039062 241.121094 401.050781 227.914062 395.863281 208.035156 C 389.699219 184.425781 403.894531 160.199219 427.507812 154.039062 C 438.945312 151.054688 450.859375 152.703125 461.054688 158.675781 C 471.257812 164.65625 478.515625 174.246094 481.5 185.683594 C 484.484375 197.121094 482.839844 209.035156 476.859375 219.230469 C 470.886719 229.433594 461.292969 236.695312 449.859375 239.679688 C 446.125 240.648438 442.375 241.113281 438.6875 241.113281 Z M 444.03125 264.871094 C 444.53125 264.871094 444.996094 265.148438 445.230469 265.597656 L 453.09375 280.808594 L 467.132812 277.148438 L 466.5625 260.027344 C 466.542969 259.488281 466.851562 258.988281 467.34375 258.757812 C 470.832031 257.152344 474.167969 255.265625 477.25 253.148438 C 477.695312 252.84375 478.285156 252.835938 478.738281 253.125 L 493.140625 262.355469 L 503.464844 252.164062 L 494.410156 237.625 C 494.121094 237.164062 494.136719 236.578125 494.449219 236.132812 C 496.628906 233.039062 498.566406 229.734375 500.203125 226.324219 C 500.4375 225.832031 500.9375 225.535156 501.480469 225.554688 L 518.589844 226.355469 L 522.4375 212.363281 L 507.347656 204.308594 C 506.871094 204.054688 506.589844 203.542969 506.640625 203 C 506.976562 199.28125 506.996094 195.453125 506.695312 191.613281 C 506.652344 191.074219 506.941406 190.5625 507.421875 190.308594 L 522.632812 182.445312 L 518.96875 168.410156 L 501.855469 168.980469 C 501.320312 168.996094 500.808594 168.6875 500.582031 168.195312 C 498.972656 164.703125 497.082031 161.367188 494.972656 158.292969 C 494.667969 157.84375 494.65625 157.253906 494.949219 156.800781 L 504.179688 142.398438 L 493.988281 132.074219 L 479.445312 141.128906 C 478.988281 141.417969 478.402344 141.402344 477.957031 141.089844 C 474.859375 138.90625 471.558594 136.976562 468.144531 135.335938 C 467.65625 135.105469 467.355469 134.597656 467.378906 134.058594 L 468.175781 116.949219 L 454.1875 113.101562 L 446.132812 128.191406 C 445.878906 128.671875 445.363281 128.945312 444.820312 128.898438 C 441.105469 128.5625 437.273438 128.542969 433.4375 128.847656 C 432.894531 128.886719 432.382812 128.597656 432.132812 128.117188 L 424.269531 112.910156 L 410.230469 116.570312 L 410.800781 133.683594 C 410.820312 134.230469 410.511719 134.730469 410.019531 134.957031 C 406.523438 136.570312 403.191406 138.457031 400.113281 140.566406 C 399.667969 140.875 399.078125 140.882812 398.621094 140.59375 L 384.226562 131.363281 L 373.898438 141.554688 L 382.953125 156.09375 C 383.242188 156.554688 383.222656 157.140625 382.910156 157.578125 C 380.734375 160.675781 378.800781 163.976562 377.160156 167.394531 C 376.925781 167.882812 376.421875 168.1875 375.882812 168.160156 L 358.769531 167.363281 L 354.925781 181.355469 L 370.011719 189.40625 C 370.492188 189.660156 370.769531 190.175781 370.722656 190.71875 C 370.386719 194.4375 370.367188 198.269531 370.667969 202.105469 C 370.710938 202.644531 370.425781 203.15625 369.941406 203.402344 L 354.730469 211.269531 L 358.394531 225.308594 L 375.507812 224.738281 C 376.0625 224.71875 376.550781 225.027344 376.777344 225.519531 C 378.390625 229.011719 380.277344 232.34375 382.390625 235.425781 C 382.699219 235.875 382.707031 236.460938 382.414062 236.917969 L 373.183594 251.3125 L 383.375 261.644531 L 397.914062 252.585938 C 398.375 252.300781 398.960938 252.316406 399.40625 252.628906 C 402.503906 254.808594 405.804688 256.742188 409.21875 258.378906 C 409.707031 258.613281 410.007812 259.117188 409.980469 259.660156 L 409.1875 276.769531 L 423.175781 280.617188 L 431.226562 265.527344 C 431.484375 265.046875 432.003906 264.769531 432.539062 264.820312 C 436.261719 265.152344 440.089844 265.171875 443.925781 264.871094 C 443.960938 264.871094 443.996094 264.871094 444.03125 264.871094 Z M 452.390625 283.738281 C 451.894531 283.738281 451.429688 283.464844 451.191406 283.011719 L 443.238281 267.628906 C 439.863281 267.851562 436.488281 267.835938 433.191406 267.582031 L 425.050781 282.835938 C 424.753906 283.394531 424.109375 283.671875 423.5 283.503906 L 407.433594 279.085938 C 406.824219 278.917969 406.410156 278.351562 406.441406 277.71875 L 407.246094 260.417969 C 404.253906 258.9375 401.347656 257.234375 398.589844 255.34375 L 383.886719 264.5 C 383.351562 264.835938 382.65625 264.753906 382.210938 264.304688 L 370.503906 252.441406 C 370.0625 251.996094 369.988281 251.296875 370.328125 250.769531 L 379.664062 236.207031 C 377.828125 233.457031 376.167969 230.523438 374.710938 227.464844 L 357.40625 228.042969 C 356.753906 228.0625 356.214844 227.644531 356.054688 227.03125 L 351.847656 210.90625 C 351.6875 210.300781 351.972656 209.65625 352.53125 209.367188 L 367.910156 201.414062 C 367.6875 198.035156 367.707031 194.664062 367.960938 191.371094 L 352.703125 183.226562 C 352.144531 182.933594 351.867188 182.285156 352.035156 181.675781 L 356.457031 165.609375 C 356.621094 165 357.179688 164.585938 357.820312 164.617188 L 375.117188 165.421875 C 376.605469 162.425781 378.304688 159.523438 380.191406 156.765625 L 371.035156 142.066406 C 370.703125 141.527344 370.785156 140.835938 371.234375 140.390625 L 383.09375 128.679688 C 383.546875 128.238281 384.242188 128.164062 384.773438 128.507812 L 399.332031 137.839844 C 402.082031 136.003906 405.015625 134.34375 408.074219 132.886719 L 407.496094 115.585938 C 407.476562 114.953125 407.894531 114.390625 408.503906 114.234375 L 424.628906 110.023438 C 425.238281 109.863281 425.882812 110.144531 426.171875 110.707031 L 434.125 126.089844 C 437.503906 125.867188 440.875 125.882812 444.171875 126.136719 L 452.3125 110.878906 C 452.609375 110.324219 453.253906 110.042969 453.859375 110.210938 L 469.933594 114.632812 C 470.539062 114.800781 470.949219 115.367188 470.921875 115.992188 L 470.117188 133.296875 C 473.113281 134.78125 476.019531 136.480469 478.773438 138.371094 L 493.476562 129.210938 C 494.011719 128.882812 494.707031 128.964844 495.148438 129.414062 L 506.859375 141.269531 C 507.300781 141.722656 507.375 142.417969 507.035156 142.949219 L 497.703125 157.507812 C 499.53125 160.261719 501.195312 163.195312 502.652344 166.253906 L 519.957031 165.671875 C 520.597656 165.648438 521.148438 166.074219 521.308594 166.679688 L 525.515625 182.804688 C 525.675781 183.417969 525.390625 184.058594 524.832031 184.351562 L 509.449219 192.300781 C 509.671875 195.679688 509.65625 199.054688 509.402344 202.347656 L 524.660156 210.492188 C 525.214844 210.785156 525.492188 211.429688 525.328125 212.039062 L 520.910156 228.109375 C 520.742188 228.71875 520.171875 229.125 519.542969 229.097656 L 502.242188 228.296875 C 500.761719 231.285156 499.058594 234.191406 497.167969 236.953125 L 506.324219 251.652344 C 506.660156 252.1875 506.578125 252.882812 506.128906 253.328125 L 494.265625 265.035156 C 493.820312 265.476562 493.121094 265.554688 492.589844 265.210938 L 478.03125 255.875 C 475.277344 257.710938 472.34375 259.371094 469.289062 260.828125 L 469.867188 278.132812 C 469.886719 278.765625 469.46875 279.328125 468.859375 279.484375 L 452.730469 283.691406 C 452.617188 283.722656 452.503906 283.738281 452.390625 283.738281 " fill-opacity="1" fill-rule="nonzero"/><path fill="#6a54cd" d="M 1049.84375 794.652344 L 865.40625 794.652344 C 854.332031 794.652344 846.050781 784.492188 848.28125 773.648438 L 876.265625 637.625 C 878.617188 626.1875 888.683594 617.976562 900.363281 617.976562 L 1058.566406 617.976562 L 1049.84375 794.652344 " fill-opacity="1" fill-rule="nonzero"/><path fill="#000000" d="M 900.363281 619.324219 C 889.375 619.324219 879.796875 627.136719 877.585938 637.894531 L 849.605469 773.921875 C 848.621094 778.691406 849.824219 783.589844 852.898438 787.367188 C 855.976562 791.140625 860.53125 793.304688 865.40625 793.304688 L 1048.558594 793.304688 L 1057.152344 619.324219 Z M 1049.84375 796.003906 L 865.40625 796.003906 C 859.722656 796.003906 854.398438 793.476562 850.804688 789.070312 C 847.21875 784.664062 845.8125 778.945312 846.957031 773.378906 L 874.9375 637.355469 C 877.414062 625.34375 888.101562 616.628906 900.363281 616.628906 L 1058.570312 616.628906 C 1058.9375 616.628906 1059.285156 616.777344 1059.546875 617.046875 C 1059.800781 617.316406 1059.933594 617.675781 1059.914062 618.042969 L 1051.191406 794.722656 C 1051.15625 795.441406 1050.5625 796.003906 1049.84375 796.003906 " fill-opacity="1" fill-rule="nonzero"/><path fill="#d9bff4" d="M 1073.453125 794.652344 L 1037.664062 794.652344 C 1026.597656 794.652344 1018.308594 784.492188 1020.539062 773.648438 L 1051.359375 623.828125 C 1052.0625 620.421875 1055.0625 617.980469 1058.539062 617.980469 L 1067.742188 617.980469 C 1071.554688 617.980469 1074.734375 620.90625 1075.042969 624.710938 L 1087.652344 779.253906 C 1088.328125 787.550781 1081.78125 794.652344 1073.453125 794.652344 " fill-opacity="1" fill-rule="nonzero"/><path fill="#000000" d="M 1058.535156 619.324219 C 1055.714844 619.324219 1053.25 621.335938 1052.683594 624.097656 L 1021.859375 773.921875 C 1020.886719 778.691406 1022.082031 783.589844 1025.160156 787.367188 C 1028.238281 791.140625 1032.796875 793.304688 1037.667969 793.304688 L 1073.457031 793.304688 C 1077.101562 793.304688 1080.472656 791.828125 1082.9375 789.152344 C 1085.40625 786.46875 1086.609375 782.992188 1086.308594 779.363281 L 1073.707031 624.820312 C 1073.453125 621.738281 1070.832031 619.324219 1067.742188 619.324219 Z M 1073.457031 796.003906 L 1037.667969 796.003906 C 1031.980469 796.003906 1026.660156 793.476562 1023.070312 789.070312 C 1019.480469 784.664062 1018.074219 778.945312 1019.21875 773.378906 L 1050.039062 623.554688 C 1050.867188 619.542969 1054.441406 616.628906 1058.535156 616.628906 L 1067.742188 616.628906 C 1072.226562 616.628906 1076.027344 620.128906 1076.394531 624.597656 L 1089 779.144531 C 1089.351562 783.472656 1087.867188 787.789062 1084.925781 790.980469 C 1081.980469 794.175781 1077.800781 796.003906 1073.457031 796.003906 " fill-opacity="1" fill-rule="nonzero"/><path fill="#000000" d="M 1014.347656 690.730469 L 884.488281 690.730469 C 883.738281 690.730469 883.132812 690.125 883.132812 689.378906 C 883.132812 688.636719 883.738281 688.027344 884.488281 688.027344 L 1014.347656 688.027344 C 1018.019531 688.027344 1021.179688 685.535156 1022.023438 681.964844 L 1034.75 628.226562 C 1034.925781 627.496094 1035.652344 627.050781 1036.375 627.222656 C 1037.097656 627.394531 1037.546875 628.121094 1037.378906 628.847656 L 1024.648438 682.585938 C 1023.515625 687.382812 1019.277344 690.730469 1014.347656 690.730469 " fill-opacity="1" fill-rule="nonzero"/><path fill="#ffffff" d="M 968.976562 689.378906 L 964.929688 705.699219 C 964.277344 708.457031 961.8125 710.40625 958.976562 710.40625 L 930.375 710.40625 C 927.257812 710.40625 925.003906 707.4375 925.835938 704.4375 L 930.027344 689.378906 L 968.976562 689.378906 " fill-opacity="1" fill-rule="nonzero"/><path fill="#000000" d="M 931.054688 690.730469 L 927.136719 704.800781 C 926.851562 705.820312 927.058594 706.890625 927.699219 707.734375 C 928.339844 708.578125 929.3125 709.058594 930.375 709.058594 L 958.972656 709.058594 C 961.195312 709.058594 963.105469 707.546875 963.617188 705.386719 L 967.253906 690.730469 Z M 958.972656 711.757812 L 930.375 711.757812 C 928.464844 711.757812 926.707031 710.886719 925.550781 709.367188 C 924.390625 707.84375 924.027344 705.914062 924.535156 704.078125 L 928.730469 689.019531 C 928.886719 688.433594 929.421875 688.027344 930.027344 688.027344 L 968.976562 688.027344 C 969.386719 688.027344 969.777344 688.222656 970.042969 688.546875 C 970.292969 688.875 970.382812 689.300781 970.285156 689.703125 L 966.242188 706.019531 C 965.441406 709.390625 962.457031 711.757812 958.972656 711.757812 " fill-opacity="1" fill-rule="nonzero"/><path fill="#ffffff" d="M 1029.65625 617.066406 L 1032.972656 600.027344 C 1034.511719 589.34375 1028.863281 583.382812 1020.738281 583.382812 L 946.136719 583.382812 C 938.011719 583.382812 930.308594 591.898438 928.945312 600.027344 L 925.621094 617.066406 L 937.597656 617.066406 L 940.492188 602.566406 C 941.554688 596.238281 945.421875 593.039062 951.746094 593.039062 L 1014.5625 593.039062 C 1020.894531 593.039062 1021.636719 596.238281 1020.570312 602.566406 L 1017.679688 617.066406 L 1029.65625 617.066406 " fill-opacity="1" fill-rule="nonzero"/><path fill="#000000" d="M 1019.320312 615.714844 L 1028.542969 615.714844 L 1031.652344 599.769531 C 1032.34375 594.921875 1031.484375 590.902344 1029.148438 588.203125 C 1027.175781 585.933594 1024.273438 584.730469 1020.734375 584.730469 L 946.136719 584.730469 C 938.550781 584.730469 931.507812 592.925781 930.273438 600.25 L 927.257812 615.714844 L 936.484375 615.714844 L 939.167969 602.304688 C 940.335938 595.375 944.683594 591.6875 951.746094 591.6875 L 1014.566406 591.6875 C 1017.632812 591.6875 1019.648438 592.382812 1020.914062 593.878906 C 1022.738281 596.035156 1022.464844 599.4375 1021.902344 602.789062 Z M 1029.652344 618.417969 L 1017.675781 618.417969 C 1017.269531 618.417969 1016.890625 618.234375 1016.632812 617.921875 C 1016.371094 617.609375 1016.269531 617.195312 1016.351562 616.800781 L 1019.246094 602.304688 C 1019.855469 598.683594 1019.738281 596.671875 1018.851562 595.621094 C 1018.148438 594.792969 1016.75 594.386719 1014.566406 594.386719 L 951.746094 594.386719 C 946.019531 594.386719 942.777344 597.136719 941.824219 602.789062 L 938.917969 617.332031 C 938.789062 617.964844 938.238281 618.417969 937.59375 618.417969 L 925.617188 618.417969 C 925.210938 618.417969 924.828125 618.238281 924.570312 617.925781 C 924.316406 617.613281 924.210938 617.203125 924.292969 616.808594 L 927.617188 599.769531 C 929.023438 591.398438 936.984375 582.03125 946.136719 582.03125 L 1020.734375 582.03125 C 1025.011719 582.03125 1028.722656 583.59375 1031.1875 586.433594 C 1034.050781 589.742188 1035.132812 594.503906 1034.3125 600.214844 L 1030.980469 617.324219 C 1030.851562 617.957031 1030.296875 618.417969 1029.652344 618.417969 " fill-opacity="1" fill-rule="nonzero"/><path fill="#d9bff4" d="M 1015.777344 580.5625 L 952.695312 580.5625 C 950.15625 580.5625 947.746094 582.621094 947.320312 585.164062 L 946.394531 590.671875 C 945.964844 593.214844 947.679688 595.273438 950.21875 595.273438 L 1013.300781 595.273438 C 1015.839844 595.273438 1018.25 593.214844 1018.675781 590.671875 L 1019.609375 585.164062 C 1020.03125 582.621094 1018.320312 580.5625 1015.777344 580.5625 " fill-opacity="1" fill-rule="nonzero"/><path fill="#000000" d="M 952.703125 581.910156 C 950.820312 581.910156 948.96875 583.503906 948.648438 585.386719 L 947.71875 590.898438 C 947.582031 591.738281 947.765625 592.515625 948.238281 593.078125 C 948.703125 593.625 949.40625 593.925781 950.222656 593.925781 L 1013.300781 593.925781 C 1015.175781 593.925781 1017.027344 592.332031 1017.347656 590.445312 L 1018.277344 584.941406 C 1018.417969 584.097656 1018.230469 583.320312 1017.757812 582.757812 C 1017.292969 582.210938 1016.589844 581.910156 1015.78125 581.910156 Z M 1013.300781 596.625 L 950.222656 596.625 C 948.601562 596.625 947.167969 595.984375 946.183594 594.824219 C 945.1875 593.640625 944.785156 592.089844 945.0625 590.445312 L 945.988281 584.941406 C 946.535156 581.726562 949.476562 579.207031 952.703125 579.207031 L 1015.78125 579.207031 C 1017.398438 579.207031 1018.832031 579.851562 1019.8125 581.015625 C 1020.8125 582.191406 1021.210938 583.75 1020.9375 585.386719 L 1020.007812 590.898438 C 1019.46875 594.113281 1016.519531 596.625 1013.300781 596.625 " fill-opacity="1" fill-rule="nonzero"/><path fill="#f7f1fd" d="M 1037.324219 774.511719 C 1036.851562 774.511719 1036.402344 774.265625 1036.148438 773.828125 C 1035.78125 773.179688 1036.007812 772.359375 1036.652344 771.988281 L 1060.695312 758.289062 L 1060.695312 637.929688 C 1060.695312 637.183594 1061.304688 636.582031 1062.050781 636.582031 C 1062.792969 636.582031 1063.398438 637.183594 1063.398438 637.929688 L 1063.398438 759.074219 C 1063.398438 759.558594 1063.136719 760.007812 1062.714844 760.246094 L 1037.992188 774.332031 C 1037.777344 774.457031 1037.550781 774.511719 1037.324219 774.511719 " fill-opacity="1" fill-rule="nonzero"/><g fill="#ffffff" fill-opacity="1"><g transform="translate(25.27764, 761.599974)"><g><path d="M 5.671875 0 L 2.921875 0 L 2.921875 -25.828125 L 5.671875 -25.828125 Z M 5.671875 0 "/></g></g></g></svg>