<svg xmlns="http://www.w3.org/2000/svg" xmlns:xlink="http://www.w3.org/1999/xlink" width="1920" zoomAndPan="magnify" viewBox="0 0 1440 809.999993" height="1080" preserveAspectRatio="xMidYMid meet" version="1.0"><defs><g/></defs><path fill="#000000" d="M 818.34375 269.132812 C 781.878906 282.144531 693.660156 283.132812 657.582031 268.964844 C 630.371094 258.285156 626.285156 215.8125 621.527344 192.871094 C 618.640625 178.945312 596.53125 88.453125 685.402344 92.800781 C 780.265625 -0.0117188 894.992188 81.980469 867.65625 187.246094 C 854.921875 236.296875 846.363281 259.132812 818.34375 269.132812 Z M 818.34375 269.132812 " fill-opacity="1" fill-rule="evenodd"/><path fill="#c69fff" d="M 570.003906 809.992188 L 912.507812 808.773438 L 909.464844 721.148438 C 909.464844 721.148438 984.601562 790.882812 1025.027344 730.128906 C 1055.554688 684.226562 930.019531 434.976562 904.058594 418.304688 C 874.140625 398.890625 774.867188 384.425781 774.867188 384.425781 L 743.882812 381.839844 L 707.1875 386.253906 C 707.1875 386.253906 609.4375 407.722656 595.507812 421.5 C 591.472656 425.539062 384.398438 673.1875 463.878906 747.566406 C 499.8125 781.136719 575.710938 713.917969 575.710938 713.917969 Z M 570.003906 809.992188 " fill-opacity="1" fill-rule="evenodd"/><path fill="#e1c3ff" d="M 705.453125 300.355469 L 777.390625 300.355469 L 777.390625 396.289062 L 705.453125 396.289062 Z M 705.453125 300.355469 " fill-opacity="1" fill-rule="evenodd"/><path fill="#000000" d="M 705.449219 340.078125 C 726.460938 361.71875 748.058594 367.5625 777.378906 365.78125 L 777.378906 324.199219 L 705.449219 331.789062 Z M 705.449219 340.078125 " fill-opacity="1" fill-rule="evenodd"/><path fill="#000000" d="M 581.050781 585.691406 C 581.050781 585.691406 581.53125 583.78125 581.886719 580.800781 C 582.066406 579.789062 582.125 578.714844 582.183594 577.523438 C 582.484375 572.753906 582.660156 566.671875 582.839844 560.949219 C 583.078125 552.1875 583.140625 544.4375 583.140625 544.4375 C 583.199219 543.78125 582.722656 543.183594 582.066406 543.125 C 581.410156 543.066406 580.8125 543.542969 580.753906 544.199219 C 580.753906 544.199219 579.503906 551.828125 578.191406 560.59375 C 577.355469 566.195312 576.460938 572.21875 575.984375 576.925781 C 575.804688 578.117188 575.746094 579.253906 575.6875 580.265625 C 575.570312 583.304688 575.6875 585.214844 575.6875 585.214844 C 575.570312 586.703125 576.640625 588.015625 578.132812 588.136719 C 579.621094 588.253906 580.933594 587.179688 581.050781 585.691406 Z M 581.050781 585.691406 " fill-opacity="1" fill-rule="evenodd"/><path fill="#000000" d="M 895.230469 585.214844 C 895.230469 585.214844 895.347656 583.304688 895.230469 580.265625 C 895.171875 579.253906 895.109375 578.117188 894.929688 576.925781 C 894.453125 572.21875 893.558594 566.195312 892.726562 560.59375 C 891.414062 551.828125 890.164062 544.199219 890.164062 544.199219 C 890.101562 543.542969 889.507812 543.066406 888.851562 543.125 C 888.195312 543.183594 887.71875 543.78125 887.777344 544.4375 C 887.777344 544.4375 887.835938 552.1875 888.074219 560.949219 C 888.253906 566.671875 888.433594 572.753906 888.730469 577.523438 C 888.789062 578.714844 888.851562 579.789062 889.03125 580.800781 C 889.386719 583.78125 889.863281 585.691406 889.863281 585.691406 C 889.984375 587.179688 891.296875 588.253906 892.785156 588.136719 C 894.277344 588.015625 895.347656 586.703125 895.230469 585.214844 Z M 895.230469 585.214844 " fill-opacity="1" fill-rule="evenodd"/><path fill="#d9bff4" d="M 656.535156 621.3125 L 698.203125 589.609375 C 698.203125 589.609375 720.578125 587.558594 729.203125 584.269531 C 745.722656 577.972656 756.523438 568.414062 756.523438 568.414062 C 756.523438 568.414062 798.589844 547.484375 805.566406 541.109375 C 809.589844 537.4375 805.46875 528.273438 799.957031 530.210938 C 783.136719 536.105469 755.234375 552.539062 754.402344 550.777344 C 753.632812 549.152344 799.574219 527.746094 811.714844 520.347656 C 820.480469 515 813.214844 503.121094 805.183594 506.925781 C 790.378906 513.945312 748.394531 532.960938 746.304688 529.980469 C 745.28125 528.527344 799.046875 505.605469 809.480469 496.675781 C 818.476562 488.980469 808.617188 476.828125 800.808594 481.878906 C 790.644531 488.460938 737.75 511.710938 736.117188 509.738281 C 734.308594 507.550781 783.949219 473.664062 783.949219 473.664062 C 791.15625 466.839844 781.484375 454.871094 773.128906 461.714844 L 714.632812 499.78125 L 698.015625 508.070312 C 697.117188 505.710938 693.953125 500.832031 691.765625 498.019531 C 692.585938 485.867188 679.667969 466.910156 668.992188 473.53125 C 666.671875 474.972656 673.40625 491.757812 673.535156 513.554688 C 673.605469 525.761719 662.945312 546.042969 662.945312 546.042969 L 621.988281 578.167969 Z M 656.535156 621.3125 " fill-opacity="1" fill-rule="evenodd"/><path fill="#e1c3ff" d="M 811.582031 618.382812 L 769.90625 586.671875 C 769.90625 586.671875 747.527344 584.621094 738.898438 581.332031 C 722.378906 575.035156 711.578125 565.476562 711.578125 565.476562 C 711.578125 565.476562 669.503906 544.542969 662.523438 538.167969 C 658.5 534.492188 662.621094 525.332031 668.136719 527.265625 C 684.957031 533.160156 712.863281 549.597656 713.699219 547.835938 C 714.464844 546.210938 668.515625 524.800781 656.375 517.402344 C 647.609375 512.050781 654.875 500.171875 662.90625 503.976562 C 677.714844 511 719.707031 530.015625 721.796875 527.035156 C 722.816406 525.582031 669.046875 502.660156 658.609375 493.726562 C 649.613281 486.027344 659.46875 473.875 667.28125 478.929688 C 677.449219 485.511719 730.351562 508.761719 731.984375 506.789062 C 733.792969 504.601562 684.144531 470.710938 684.144531 470.710938 C 676.933594 463.882812 686.609375 451.914062 694.96875 458.757812 L 753.472656 496.832031 L 770.09375 505.121094 C 770.988281 502.757812 774.15625 497.878906 776.339844 495.070312 C 775.519531 482.914062 788.441406 463.953125 799.117188 470.578125 C 801.4375 472.019531 794.703125 488.804688 794.578125 510.605469 C 794.507812 522.816406 805.167969 543.101562 805.167969 543.101562 L 846.132812 575.226562 Z M 811.582031 618.382812 " fill-opacity="1" fill-rule="evenodd"/><path fill="#c69fff" d="M 575.390625 585.445312 L 655.871094 534.175781 L 713.101562 605.714844 L 614.734375 681.425781 Z M 575.390625 585.445312 " fill-opacity="1" fill-rule="evenodd"/><path fill="#c69fff" d="M 902.074219 588.425781 L 823.382812 534.175781 L 766.152344 605.714844 L 864.519531 681.425781 Z M 902.074219 588.425781 " fill-opacity="1" fill-rule="evenodd"/><path fill="#000000" d="M 576.34375 714.632812 C 576.34375 714.632812 604.421875 693.707031 635.363281 670.339844 C 643.707031 664.019531 652.292969 657.582031 660.519531 651.203125 C 690.089844 628.371094 715.84375 607.800781 715.84375 607.800781 C 717.332031 606.667969 717.574219 604.464844 716.441406 602.972656 L 659.148438 529.707031 C 658.074219 528.273438 656.050781 527.976562 654.558594 528.992188 C 654.558594 528.992188 636.316406 541.269531 613.363281 557.1875 C 573.003906 585.148438 517.859375 624.136719 517.859375 624.136719 C 517.203125 624.613281 517.023438 625.566406 517.5 626.28125 C 517.976562 626.9375 518.933594 627.117188 519.648438 626.640625 C 519.648438 626.640625 576.164062 589.738281 616.941406 562.554688 C 635.003906 550.511719 649.910156 540.375 655.75 536.441406 C 655.75 536.441406 708.867188 604.523438 708.867188 604.523438 C 701.476562 610.304688 680.015625 627.175781 656.527344 646.136719 C 648.417969 652.695312 640.132812 659.488281 632.082031 666.164062 C 602.15625 690.847656 575.269531 713.320312 575.269531 713.320312 C 574.910156 713.621094 574.851562 714.15625 575.148438 714.515625 C 575.390625 714.871094 575.925781 714.929688 576.34375 714.632812 Z M 576.34375 714.632812 " fill-opacity="1" fill-rule="evenodd"/><path fill="#000000" d="M 923.035156 731.214844 C 923.035156 731.214844 906.820312 717.800781 884.824219 699.796875 C 873.140625 690.195312 859.84375 679.289062 846.492188 668.496094 C 838.679688 662.175781 830.871094 655.917969 823.300781 649.957031 C 799.511719 631.117188 778.828125 614.902344 771.613281 609.296875 C 771.613281 609.296875 824.671875 541.15625 824.671875 541.15625 C 830.515625 545.152344 845.476562 555.285156 863.480469 567.269531 C 904.320312 594.453125 960.773438 631.417969 960.773438 631.417969 C 961.488281 631.894531 962.445312 631.714844 962.921875 631.058594 C 963.398438 630.34375 963.21875 629.390625 962.5625 628.914062 C 962.5625 628.914062 907.359375 589.984375 867.058594 562.023438 C 844.046875 546.105469 825.863281 533.765625 825.863281 533.765625 C 824.371094 532.753906 822.40625 533.050781 821.273438 534.480469 L 763.984375 607.75 C 762.789062 609.296875 763.089844 611.445312 764.578125 612.636719 C 764.578125 612.636719 789.261719 632.070312 819.1875 655.203125 C 826.816406 661.105469 834.746094 667.246094 842.734375 673.265625 C 856.445312 683.699219 870.21875 693.953125 882.320312 703.015625 C 905.035156 720.003906 922.023438 732.523438 922.023438 732.523438 C 922.382812 732.820312 922.917969 732.761719 923.15625 732.40625 C 923.453125 732.046875 923.394531 731.511719 923.035156 731.214844 Z M 923.035156 731.214844 " fill-opacity="1" fill-rule="evenodd"/><path fill="#e1c3ff" d="M 670.421875 232.394531 C 670.421875 233.390625 670.382812 234.386719 670.296875 235.378906 C 670.214844 236.375 670.089844 237.359375 669.921875 238.339844 C 669.757812 239.316406 669.550781 240.285156 669.300781 241.242188 C 669.054688 242.195312 668.769531 243.132812 668.441406 244.054688 C 668.113281 244.980469 667.75 245.878906 667.351562 246.761719 C 666.949219 247.640625 666.511719 248.496094 666.035156 249.324219 C 665.5625 250.15625 665.058594 250.957031 664.515625 251.726562 C 663.976562 252.5 663.402344 253.238281 662.800781 253.945312 C 662.199219 254.652344 661.566406 255.320312 660.90625 255.953125 C 660.25 256.585938 659.566406 257.179688 658.855469 257.734375 C 658.148438 258.289062 657.417969 258.800781 656.667969 259.273438 C 655.914062 259.742188 655.144531 260.167969 654.355469 260.550781 C 653.570312 260.933594 652.769531 261.269531 651.953125 261.558594 C 651.136719 261.847656 650.3125 262.089844 649.476562 262.285156 C 648.640625 262.480469 647.796875 262.628906 646.949219 262.726562 C 646.101562 262.824219 645.25 262.871094 644.398438 262.871094 C 643.546875 262.871094 642.695312 262.824219 641.847656 262.726562 C 641 262.628906 640.15625 262.480469 639.320312 262.285156 C 638.484375 262.089844 637.660156 261.847656 636.84375 261.558594 C 636.027344 261.269531 635.226562 260.933594 634.4375 260.550781 C 633.652344 260.167969 632.882812 259.742188 632.128906 259.273438 C 631.378906 258.800781 630.648438 258.289062 629.941406 257.734375 C 629.230469 257.179688 628.546875 256.585938 627.890625 255.953125 C 627.230469 255.320312 626.597656 254.652344 625.996094 253.945312 C 625.394531 253.238281 624.820312 252.5 624.28125 251.726562 C 623.738281 250.957031 623.234375 250.15625 622.757812 249.324219 C 622.285156 248.496094 621.847656 247.640625 621.445312 246.761719 C 621.042969 245.878906 620.679688 244.980469 620.355469 244.054688 C 620.027344 243.132812 619.742188 242.195312 619.492188 241.242188 C 619.246094 240.285156 619.039062 239.316406 618.875 238.339844 C 618.707031 237.359375 618.582031 236.375 618.5 235.378906 C 618.414062 234.386719 618.375 233.390625 618.375 232.394531 C 618.375 231.394531 618.414062 230.398438 618.5 229.40625 C 618.582031 228.414062 618.707031 227.425781 618.875 226.445312 C 619.039062 225.46875 619.246094 224.5 619.492188 223.546875 C 619.742188 222.589844 620.027344 221.652344 620.355469 220.730469 C 620.679688 219.808594 621.042969 218.90625 621.445312 218.027344 C 621.847656 217.144531 622.285156 216.289062 622.757812 215.460938 C 623.234375 214.628906 623.738281 213.828125 624.28125 213.058594 C 624.820312 212.285156 625.394531 211.546875 625.996094 210.839844 C 626.597656 210.136719 627.230469 209.464844 627.890625 208.832031 C 628.546875 208.199219 629.230469 207.605469 629.941406 207.050781 C 630.648438 206.496094 631.378906 205.984375 632.132812 205.511719 C 632.882812 205.042969 633.652344 204.617188 634.4375 204.234375 C 635.226562 203.851562 636.027344 203.515625 636.84375 203.226562 C 637.660156 202.9375 638.484375 202.695312 639.320312 202.5 C 640.15625 202.304688 641 202.160156 641.847656 202.0625 C 642.695312 201.964844 643.546875 201.914062 644.398438 201.914062 C 645.25 201.914062 646.101562 201.964844 646.949219 202.0625 C 647.796875 202.160156 648.640625 202.304688 649.476562 202.5 C 650.3125 202.695312 651.136719 202.9375 651.953125 203.226562 C 652.769531 203.515625 653.570312 203.851562 654.355469 204.234375 C 655.144531 204.617188 655.914062 205.042969 656.667969 205.511719 C 657.417969 205.984375 658.148438 206.496094 658.855469 207.050781 C 659.566406 207.605469 660.25 208.199219 660.90625 208.832031 C 661.566406 209.464844 662.199219 210.136719 662.800781 210.839844 C 663.402344 211.546875 663.976562 212.285156 664.515625 213.058594 C 665.058594 213.828125 665.5625 214.628906 666.035156 215.460938 C 666.511719 216.289062 666.949219 217.144531 667.351562 218.027344 C 667.75 218.90625 668.113281 219.808594 668.441406 220.730469 C 668.769531 221.652344 669.054688 222.589844 669.304688 223.546875 C 669.550781 224.5 669.757812 225.46875 669.921875 226.445312 C 670.089844 227.425781 670.214844 228.414062 670.296875 229.40625 C 670.382812 230.398438 670.421875 231.394531 670.421875 232.394531 Z M 670.421875 232.394531 " fill-opacity="1" fill-rule="nonzero"/><path fill="#e1c3ff" d="M 864.894531 230.011719 C 864.894531 231.007812 864.851562 232.003906 864.769531 232.996094 C 864.6875 233.992188 864.558594 234.976562 864.394531 235.957031 C 864.226562 236.933594 864.019531 237.902344 863.773438 238.855469 C 863.527344 239.8125 863.238281 240.75 862.910156 241.671875 C 862.585938 242.59375 862.222656 243.496094 861.820312 244.378906 C 861.417969 245.257812 860.980469 246.113281 860.507812 246.941406 C 860.035156 247.773438 859.527344 248.574219 858.988281 249.34375 C 858.445312 250.117188 857.875 250.855469 857.273438 251.5625 C 856.667969 252.265625 856.039062 252.9375 855.378906 253.570312 C 854.71875 254.203125 854.035156 254.796875 853.328125 255.351562 C 852.617188 255.90625 851.886719 256.417969 851.136719 256.890625 C 850.386719 257.359375 849.617188 257.785156 848.828125 258.167969 C 848.039062 258.550781 847.238281 258.886719 846.421875 259.175781 C 845.609375 259.464844 844.78125 259.707031 843.945312 259.902344 C 843.109375 260.097656 842.269531 260.242188 841.421875 260.34375 C 840.574219 260.441406 839.722656 260.488281 838.871094 260.488281 C 838.015625 260.488281 837.167969 260.441406 836.320312 260.339844 C 835.46875 260.242188 834.628906 260.097656 833.792969 259.902344 C 832.957031 259.707031 832.128906 259.464844 831.3125 259.175781 C 830.5 258.886719 829.695312 258.550781 828.910156 258.167969 C 828.121094 257.785156 827.351562 257.359375 826.601562 256.890625 C 825.851562 256.417969 825.121094 255.90625 824.410156 255.351562 C 823.703125 254.796875 823.019531 254.203125 822.359375 253.570312 C 821.699219 252.9375 821.070312 252.265625 820.46875 251.5625 C 819.863281 250.855469 819.292969 250.117188 818.75 249.34375 C 818.210938 248.574219 817.703125 247.773438 817.230469 246.941406 C 816.757812 246.113281 816.320312 245.257812 815.917969 244.378906 C 815.515625 243.496094 815.152344 242.59375 814.824219 241.671875 C 814.5 240.75 814.210938 239.8125 813.964844 238.855469 C 813.71875 237.902344 813.511719 236.933594 813.34375 235.957031 C 813.179688 234.976562 813.054688 233.992188 812.96875 232.996094 C 812.886719 232.003906 812.84375 231.007812 812.84375 230.011719 C 812.84375 229.011719 812.886719 228.015625 812.96875 227.023438 C 813.054688 226.027344 813.179688 225.042969 813.34375 224.0625 C 813.511719 223.085938 813.71875 222.117188 813.964844 221.164062 C 814.210938 220.207031 814.5 219.269531 814.824219 218.347656 C 815.152344 217.421875 815.515625 216.523438 815.917969 215.640625 C 816.320312 214.761719 816.757812 213.90625 817.230469 213.078125 C 817.703125 212.246094 818.210938 211.445312 818.75 210.675781 C 819.292969 209.902344 819.863281 209.164062 820.46875 208.457031 C 821.070312 207.753906 821.699219 207.082031 822.359375 206.449219 C 823.019531 205.816406 823.703125 205.222656 824.410156 204.667969 C 825.121094 204.113281 825.851562 203.601562 826.601562 203.128906 C 827.351562 202.660156 828.121094 202.234375 828.910156 201.851562 C 829.699219 201.46875 830.5 201.132812 831.316406 200.84375 C 832.128906 200.554688 832.957031 200.3125 833.792969 200.117188 C 834.628906 199.921875 835.46875 199.777344 836.320312 199.679688 C 837.167969 199.582031 838.015625 199.53125 838.871094 199.53125 C 839.722656 199.53125 840.574219 199.582031 841.421875 199.679688 C 842.269531 199.777344 843.109375 199.921875 843.945312 200.117188 C 844.78125 200.3125 845.609375 200.554688 846.421875 200.84375 C 847.238281 201.132812 848.039062 201.46875 848.828125 201.851562 C 849.617188 202.234375 850.386719 202.660156 851.136719 203.128906 C 851.886719 203.601562 852.617188 204.113281 853.328125 204.667969 C 854.035156 205.222656 854.71875 205.816406 855.378906 206.449219 C 856.039062 207.082031 856.667969 207.753906 857.273438 208.457031 C 857.875 209.164062 858.445312 209.902344 858.988281 210.675781 C 859.527344 211.445312 860.035156 212.246094 860.507812 213.078125 C 860.980469 213.90625 861.417969 214.761719 861.820312 215.640625 C 862.222656 216.523438 862.585938 217.421875 862.910156 218.34375 C 863.238281 219.269531 863.527344 220.207031 863.773438 221.164062 C 864.019531 222.117188 864.226562 223.085938 864.394531 224.0625 C 864.558594 225.042969 864.683594 226.027344 864.769531 227.023438 C 864.851562 228.015625 864.894531 229.011719 864.894531 230.011719 Z M 864.894531 230.011719 " fill-opacity="1" fill-rule="nonzero"/><path fill="#e1c3ff" d="M 748.1875 124.914062 C 810.355469 124.914062 854.90625 111.242188 842.945312 217.757812 C 834.621094 291.894531 806.183594 352.929688 744.015625 352.929688 C 681.847656 352.929688 648.355469 296.179688 638.261719 222.265625 C 623.046875 110.816406 686.019531 124.914062 748.1875 124.914062 Z M 748.1875 124.914062 " fill-opacity="1" fill-rule="evenodd"/><path fill="#000000" d="M 714.347656 287.292969 C 716.972656 290.273438 720.011719 292.777344 723.46875 294.6875 C 727.105469 296.710938 731.160156 298.023438 735.335938 298.621094 C 737.125 298.917969 738.910156 299.039062 740.699219 298.976562 C 743.738281 298.917969 746.71875 298.382812 749.640625 297.488281 C 756.140625 295.402344 762.042969 291.527344 766.453125 285.742188 C 766.871094 285.265625 766.8125 284.492188 766.335938 284.074219 C 765.855469 283.65625 765.082031 283.714844 764.664062 284.191406 C 760.132812 288.902344 754.410156 291.707031 748.449219 293.015625 C 745.886719 293.554688 743.261719 293.792969 740.582031 293.851562 C 737.957031 293.910156 735.335938 293.851562 732.710938 293.433594 C 730.085938 293.015625 727.464844 292.359375 724.960938 291.40625 C 721.5625 290.152344 718.285156 288.484375 715.421875 286.21875 C 715.125 285.921875 714.648438 285.921875 714.347656 286.21875 C 714.050781 286.519531 714.050781 286.996094 714.347656 287.292969 Z M 714.347656 287.292969 " fill-opacity="1" fill-rule="evenodd"/><path fill="#000000" d="M 681.148438 221.242188 C 682.875 222.433594 685.023438 223.566406 687.585938 224.402344 C 689.851562 225.175781 692.355469 225.65625 694.917969 225.953125 C 695.992188 226.070312 697.066406 226.132812 698.136719 226.070312 C 699.984375 226.011719 701.773438 225.714844 703.503906 225.296875 C 708.332031 224.164062 712.445312 222.019531 714.589844 218.976562 C 715.007812 218.5 714.949219 217.726562 714.472656 217.308594 C 713.996094 216.890625 713.21875 216.949219 712.804688 217.425781 C 710.894531 219.277344 707.796875 220.171875 704.339844 220.648438 C 702.609375 220.824219 700.820312 220.824219 698.972656 220.886719 C 697.839844 220.945312 696.589844 221.003906 695.394531 221.003906 C 692.59375 221.125 689.792969 221.066406 687.285156 220.765625 C 685.199219 220.585938 683.410156 220.40625 681.863281 219.929688 C 681.445312 219.753906 681.027344 219.871094 680.847656 220.230469 C 680.671875 220.648438 680.789062 221.066406 681.148438 221.242188 Z M 681.148438 221.242188 " fill-opacity="1" fill-rule="evenodd"/><path fill="#000000" d="M 793.199219 219.929688 C 791.648438 220.40625 789.859375 220.585938 787.773438 220.765625 C 785.269531 221.066406 782.46875 221.125 779.664062 221.003906 C 778.472656 221.003906 777.222656 220.945312 776.089844 220.886719 C 774.242188 220.824219 772.453125 220.824219 770.722656 220.648438 C 767.265625 220.171875 764.164062 219.277344 762.257812 217.425781 C 761.839844 216.949219 761.066406 216.890625 760.589844 217.308594 C 760.113281 217.726562 760.054688 218.5 760.46875 218.976562 C 762.617188 222.019531 766.730469 224.164062 771.558594 225.296875 C 773.289062 225.714844 775.074219 226.011719 776.925781 226.070312 C 777.996094 226.132812 779.070312 226.070312 780.144531 225.953125 C 782.707031 225.65625 785.210938 225.175781 787.476562 224.402344 C 790.039062 223.566406 792.183594 222.433594 793.914062 221.242188 C 794.273438 221.066406 794.390625 220.648438 794.210938 220.230469 C 794.035156 219.871094 793.617188 219.753906 793.199219 219.929688 Z M 793.199219 219.929688 " fill-opacity="1" fill-rule="evenodd"/><path fill="#000000" d="M 762.488281 200.820312 C 765.433594 199.304688 768.597656 198.507812 771.847656 198.003906 C 773.429688 197.769531 775.007812 197.679688 776.601562 197.625 C 778.175781 197.550781 779.738281 197.644531 781.289062 197.734375 C 782.539062 197.804688 783.773438 197.914062 784.988281 198.058594 C 786.871094 198.292969 788.699219 198.582031 790.457031 199.105469 C 793.566406 200.042969 796.441406 201.289062 798.761719 203.417969 C 799.496094 204.285156 800.800781 204.410156 801.675781 203.671875 C 802.550781 202.929688 802.664062 201.632812 801.925781 200.746094 C 799.335938 196.757812 795.523438 193.746094 790.984375 191.707031 C 789.25 190.929688 787.402344 190.371094 785.488281 189.972656 C 784.246094 189.738281 782.972656 189.578125 781.6875 189.558594 C 778.5625 189.484375 775.378906 189.882812 772.324219 190.804688 C 767.867188 192.15625 763.757812 194.429688 760.242188 197.570312 C 759.34375 198.183594 759.113281 199.410156 759.734375 200.3125 C 760.355469 201.214844 761.589844 201.449219 762.488281 200.820312 Z M 762.488281 200.820312 " fill-opacity="1" fill-rule="evenodd"/><path fill="#000000" d="M 714.632812 197.570312 C 711.117188 194.429688 707.003906 192.15625 702.546875 190.804688 C 699.496094 189.882812 696.308594 189.484375 693.183594 189.558594 C 691.902344 189.578125 690.628906 189.738281 689.386719 189.972656 C 687.472656 190.371094 685.625 190.929688 683.890625 191.707031 C 679.351562 193.746094 675.535156 196.757812 672.945312 200.746094 C 672.210938 201.632812 672.320312 202.929688 673.195312 203.671875 C 674.070312 204.410156 675.378906 204.285156 676.113281 203.417969 C 678.429688 201.289062 681.308594 200.042969 684.417969 199.105469 C 686.171875 198.582031 688 198.292969 689.882812 198.058594 C 691.101562 197.914062 692.335938 197.804688 693.582031 197.734375 C 695.132812 197.644531 696.695312 197.550781 698.273438 197.625 C 699.863281 197.679688 701.441406 197.769531 703.027344 198.003906 C 706.273438 198.507812 709.4375 199.304688 712.382812 200.820312 C 713.28125 201.449219 714.515625 201.214844 715.136719 200.3125 C 715.757812 199.410156 715.53125 198.183594 714.632812 197.570312 Z M 714.632812 197.570312 " fill-opacity="1" fill-rule="evenodd"/><path fill="#000000" d="M 740.925781 202.359375 C 740.925781 202.359375 741.949219 212.984375 742.742188 224.988281 C 743.070312 229.984375 743.347656 235.230469 743.511719 240.042969 C 743.738281 246.820312 743.738281 252.710938 743.003906 255.761719 C 742.957031 255.960938 742.730469 255.976562 742.5 255.992188 C 741.808594 256.09375 740.957031 256.011719 740.003906 255.859375 C 737.496094 255.476562 734.429688 254.609375 731.523438 254.078125 C 729.183594 253.644531 726.9375 253.429688 725.09375 253.695312 C 722.578125 254.078125 720.679688 255.226562 719.878906 257.675781 C 718.667969 261.421875 719.621094 264.867188 721.601562 267.800781 C 725.507812 273.578125 733.347656 277.257812 733.347656 277.257812 C 733.847656 277.507812 734.472656 277.324219 734.742188 276.855469 C 735.007812 276.390625 734.816406 275.808594 734.316406 275.558594 C 734.316406 275.558594 727.339844 271.863281 724.058594 266.417969 C 722.667969 264.117188 721.984375 261.472656 723.054688 258.65625 C 723.421875 257.675781 724.210938 257.226562 725.191406 257.042969 C 726.34375 256.84375 727.722656 256.976562 729.191406 257.226562 C 732.324219 257.757812 735.820312 258.875 738.699219 259.441406 C 740.722656 259.839844 742.5 259.941406 743.792969 259.640625 C 745.480469 259.238281 746.605469 258.273438 747.007812 256.558594 C 747.464844 254.542969 747.675781 251.363281 747.632812 247.535156 C 747.589844 243.6875 747.320312 239.160156 746.910156 234.464844 C 745.574219 219.128906 742.886719 202.144531 742.886719 202.144531 C 742.820312 201.644531 742.328125 201.277344 741.789062 201.34375 C 741.246094 201.394531 740.859375 201.859375 740.925781 202.359375 Z M 740.925781 202.359375 " fill-opacity="1" fill-rule="evenodd"/><path fill="#e1c3ff" d="M 699.960938 387.9375 C 703.597656 401.648438 714.265625 426.570312 743.480469 426.867188 C 773.167969 427.167969 786.640625 402.484375 792.066406 387.285156 C 781.632812 385.496094 774.957031 384.480469 774.957031 384.480469 L 743.957031 381.917969 L 707.230469 386.269531 C 707.230469 386.269531 704.492188 386.867188 699.960938 387.9375 Z M 699.960938 387.9375 " fill-opacity="1" fill-rule="evenodd"/><path fill="#000000" d="M 623.195312 191.300781 L 640.929688 134.5625 L 679.40625 111.269531 C 679.40625 111.269531 661.144531 94.8125 667.234375 86.996094 C 671.214844 81.960938 683.765625 99.847656 683.765625 99.847656 C 683.765625 99.847656 679.03125 84.140625 684.066406 81.058594 C 689.925781 77.375 703.003906 107.660156 703.003906 107.660156 L 746.210938 96.089844 L 830.453125 111.417969 L 862.089844 194.304688 C 862.089844 194.304688 857.207031 241.722656 846.085938 240.898438 C 841.046875 240.523438 839.546875 211.066406 839.546875 211.066406 L 830.828125 165 C 804.601562 192.953125 666.480469 184.539062 654.683594 148.164062 L 643.636719 211.664062 C 643.636719 211.664062 647.542969 245.03125 639.726562 244.65625 C 630.410156 244.203125 623.195312 191.300781 623.195312 191.300781 Z M 623.195312 191.300781 " fill-opacity="1" fill-rule="evenodd"/><g fill="#ffffff" fill-opacity="1"><g transform="translate(25.27764, 761.599974)"><g><path d="M 5.671875 0 L 2.921875 0 L 2.921875 -25.828125 L 5.671875 -25.828125 Z M 5.671875 0 "/></g></g></g></svg>