<svg xmlns="http://www.w3.org/2000/svg" xmlns:xlink="http://www.w3.org/1999/xlink" width="1920" zoomAndPan="magnify" viewBox="0 0 1440 809.999993" height="1080" preserveAspectRatio="xMidYMid meet" version="1.0"><defs><g/></defs><path fill="#9e7fd1" d="M 758.921875 525.890625 L 774.890625 586.796875 L 785.335938 513.566406 C 785.335938 513.566406 762.421875 524.027344 758.921875 525.890625 Z M 758.921875 525.890625 " fill-opacity="1" fill-rule="nonzero"/><path fill="#9e7fd1" d="M 671.027344 331.894531 C 666.75 327.796875 661.527344 324.699219 655.863281 322.867188 C 652.898438 321.878906 651.964844 321.804688 650.550781 319.445312 C 656.804688 313.929688 660.699219 307.320312 664.859375 299.53125 C 669.433594 290.976562 672.382812 281.625 673.414062 272.097656 C 674.183594 272.273438 674.773438 273.042969 674.949219 273.835938 C 675.730469 277.609375 665.574219 306.230469 671.027344 331.894531 Z M 671.027344 331.894531 " fill-opacity="1" fill-rule="nonzero"/><path fill="#9e7fd1" d="M 530.019531 528.632812 C 530.046875 529.457031 529.394531 530.164062 528.542969 530.164062 C 527.746094 530.164062 527.097656 529.546875 527.066406 528.75 C 526.597656 517.226562 526.558594 505.371094 526.773438 497.863281 C 527.746094 498.273438 528.71875 498.660156 529.691406 499.011719 C 529.5 505.707031 529.539062 517.433594 530.019531 528.632812 Z M 530.019531 528.632812 " fill-opacity="1" fill-rule="nonzero"/><path fill="#9e7fd1" d="M 579.167969 327.4375 C 553.425781 364.402344 537.871094 411.382812 532.585938 457.621094 C 531.667969 457.152344 530.753906 456.679688 529.8125 456.207031 C 529.929688 455.144531 530.046875 454.113281 530.195312 453.078125 C 536.804688 403.8125 552.617188 360.386719 576.746094 325.753906 C 577.21875 325.074219 578.132812 324.929688 578.78125 325.371094 C 579.460938 325.84375 579.636719 326.757812 579.167969 327.4375 Z M 579.167969 327.4375 " fill-opacity="1" fill-rule="nonzero"/><path fill="#9e7fd1" d="M 545.226562 672.265625 C 538.097656 631.261719 531.941406 594.289062 528.835938 557.050781 C 528.769531 556.242188 529.375 555.527344 530.183594 555.460938 C 530.96875 555.371094 531.710938 555.992188 531.777344 556.808594 C 534.871094 593.921875 541.015625 630.828125 548.132812 671.757812 C 548.273438 672.5625 547.734375 673.324219 546.933594 673.464844 C 546.097656 673.605469 545.363281 673.042969 545.226562 672.265625 Z M 545.226562 672.265625 " fill-opacity="1" fill-rule="nonzero"/><path fill="#9e7fd1" d="M 616.09375 459.429688 C 616.085938 459.429688 616.082031 459.429688 616.074219 459.429688 C 615.257812 459.414062 614.609375 458.746094 614.621094 457.929688 C 614.753906 449.277344 615.042969 439.789062 615.503906 428.921875 C 616.367188 409.40625 617.792969 390.46875 625.699219 373.289062 C 634.550781 353.953125 651.613281 340.601562 669.175781 339.273438 C 670.003906 339.203125 670.695312 339.820312 670.757812 340.636719 C 670.820312 341.449219 670.210938 342.15625 669.398438 342.214844 C 652.894531 343.464844 636.792969 356.144531 628.382812 374.519531 C 620.695312 391.21875 619.300781 409.839844 618.453125 429.046875 C 617.992188 439.886719 617.703125 449.351562 617.570312 457.976562 C 617.558594 458.78125 616.898438 459.429688 616.09375 459.429688 Z M 616.09375 459.429688 " fill-opacity="1" fill-rule="nonzero"/><path fill="#9e7fd1" d="M 634.707031 697.300781 C 624.128906 641.136719 617.621094 583.855469 615.359375 527.042969 C 615.285156 525.136719 618.230469 524.90625 618.308594 526.925781 C 620.5625 583.59375 627.054688 640.734375 637.605469 696.753906 C 637.753906 697.554688 637.230469 698.328125 636.429688 698.476562 C 635.621094 698.628906 634.855469 698.09375 634.707031 697.300781 Z M 634.707031 697.300781 " fill-opacity="1" fill-rule="nonzero"/><path fill="#9e7fd1" d="M 592.003906 300.453125 C 591.636719 304.246094 589.140625 307.976562 585.464844 308.980469 C 581.789062 309.984375 577.304688 307.453125 576.964844 303.65625 C 576.804688 301.886719 577.476562 300.164062 577.878906 298.429688 C 579.605469 290.953125 576.164062 282.433594 568.25 278.945312 C 566.113281 278.003906 563.816406 277.847656 561.671875 277.132812 C 576.683594 273.410156 593.160156 288.648438 592.003906 300.453125 Z M 592.003906 300.453125 " fill-opacity="1" fill-rule="nonzero"/><path fill="#9e7fd1" d="M 712.558594 304.660156 C 712.558594 305.316406 712.492188 305.96875 712.367188 306.613281 C 712.238281 307.257812 712.046875 307.882812 711.796875 308.492188 C 711.542969 309.097656 711.234375 309.675781 710.871094 310.222656 C 710.503906 310.769531 710.089844 311.273438 709.625 311.738281 C 709.160156 312.203125 708.65625 312.621094 708.109375 312.984375 C 707.5625 313.351562 706.984375 313.660156 706.378906 313.910156 C 705.769531 314.160156 705.144531 314.351562 704.5 314.480469 C 703.855469 314.609375 703.203125 314.671875 702.546875 314.671875 C 701.890625 314.671875 701.238281 314.609375 700.59375 314.480469 C 699.949219 314.351562 699.324219 314.160156 698.714844 313.910156 C 698.109375 313.660156 697.53125 313.351562 696.984375 312.984375 C 696.4375 312.621094 695.933594 312.203125 695.46875 311.738281 C 695.003906 311.273438 694.585938 310.769531 694.222656 310.222656 C 693.855469 309.675781 693.546875 309.097656 693.296875 308.492188 C 693.046875 307.882812 692.855469 307.257812 692.726562 306.613281 C 692.597656 305.96875 692.535156 305.316406 692.535156 304.660156 C 692.535156 304.003906 692.597656 303.351562 692.726562 302.707031 C 692.855469 302.0625 693.046875 301.4375 693.296875 300.828125 C 693.546875 300.222656 693.855469 299.644531 694.222656 299.097656 C 694.585938 298.550781 695.003906 298.046875 695.46875 297.582031 C 695.933594 297.117188 696.4375 296.703125 696.984375 296.335938 C 697.53125 295.972656 698.109375 295.664062 698.714844 295.410156 C 699.324219 295.160156 699.949219 294.96875 700.59375 294.839844 C 701.238281 294.714844 701.890625 294.648438 702.546875 294.648438 C 703.203125 294.648438 703.855469 294.714844 704.5 294.839844 C 705.144531 294.96875 705.769531 295.160156 706.378906 295.410156 C 706.984375 295.664062 707.5625 295.972656 708.109375 296.335938 C 708.65625 296.703125 709.160156 297.117188 709.625 297.582031 C 710.089844 298.046875 710.503906 298.550781 710.871094 299.097656 C 711.234375 299.644531 711.542969 300.222656 711.796875 300.828125 C 712.046875 301.4375 712.238281 302.0625 712.367188 302.707031 C 712.492188 303.351562 712.558594 304.003906 712.558594 304.660156 Z M 712.558594 304.660156 " fill-opacity="1" fill-rule="nonzero"/><path fill="#9e7fd1" d="M 748.308594 349.621094 C 748.308594 350.320312 748.242188 351.011719 748.105469 351.695312 C 747.96875 352.382812 747.765625 353.046875 747.5 353.695312 C 747.230469 354.339844 746.902344 354.953125 746.515625 355.535156 C 746.125 356.117188 745.683594 356.652344 745.191406 357.148438 C 744.695312 357.640625 744.160156 358.082031 743.578125 358.472656 C 742.996094 358.859375 742.382812 359.1875 741.738281 359.457031 C 741.089844 359.722656 740.425781 359.925781 739.738281 360.0625 C 739.054688 360.199219 738.363281 360.265625 737.664062 360.265625 C 736.964844 360.265625 736.269531 360.199219 735.585938 360.0625 C 734.898438 359.925781 734.234375 359.722656 733.589844 359.457031 C 732.941406 359.1875 732.328125 358.859375 731.746094 358.472656 C 731.167969 358.082031 730.628906 357.640625 730.132812 357.148438 C 729.640625 356.652344 729.199219 356.117188 728.808594 355.535156 C 728.421875 354.953125 728.09375 354.339844 727.828125 353.695312 C 727.558594 353.046875 727.355469 352.382812 727.21875 351.695312 C 727.085938 351.011719 727.015625 350.320312 727.015625 349.621094 C 727.015625 348.921875 727.085938 348.226562 727.21875 347.542969 C 727.355469 346.855469 727.558594 346.191406 727.828125 345.546875 C 728.09375 344.898438 728.421875 344.285156 728.808594 343.703125 C 729.199219 343.125 729.640625 342.585938 730.132812 342.089844 C 730.628906 341.597656 731.167969 341.15625 731.746094 340.765625 C 732.328125 340.378906 732.941406 340.050781 733.589844 339.785156 C 734.234375 339.515625 734.898438 339.3125 735.585938 339.179688 C 736.269531 339.042969 736.964844 338.972656 737.664062 338.972656 C 738.363281 338.972656 739.054688 339.042969 739.738281 339.179688 C 740.425781 339.3125 741.089844 339.515625 741.738281 339.785156 C 742.382812 340.050781 742.996094 340.378906 743.578125 340.765625 C 744.160156 341.15625 744.695312 341.597656 745.191406 342.089844 C 745.683594 342.585938 746.125 343.125 746.515625 343.703125 C 746.902344 344.285156 747.230469 344.898438 747.5 345.546875 C 747.765625 346.191406 747.96875 346.855469 748.105469 347.542969 C 748.242188 348.226562 748.308594 348.921875 748.308594 349.621094 Z M 748.308594 349.621094 " fill-opacity="1" fill-rule="nonzero"/><path fill="#9e7fd1" d="M 737.664062 424.734375 C 737.664062 425.328125 737.605469 425.914062 737.488281 426.496094 C 737.375 427.078125 737.203125 427.644531 736.972656 428.191406 C 736.746094 428.742188 736.46875 429.261719 736.140625 429.753906 C 735.808594 430.25 735.433594 430.707031 735.015625 431.125 C 734.59375 431.546875 734.136719 431.917969 733.644531 432.25 C 733.152344 432.578125 732.628906 432.859375 732.082031 433.085938 C 731.535156 433.3125 730.96875 433.484375 730.386719 433.597656 C 729.804688 433.714844 729.214844 433.773438 728.625 433.773438 C 728.03125 433.773438 727.441406 433.714844 726.859375 433.597656 C 726.277344 433.484375 725.710938 433.3125 725.164062 433.085938 C 724.617188 432.859375 724.09375 432.578125 723.601562 432.25 C 723.109375 431.917969 722.652344 431.546875 722.230469 431.125 C 721.8125 430.707031 721.4375 430.25 721.105469 429.753906 C 720.777344 429.261719 720.5 428.742188 720.273438 428.191406 C 720.042969 427.644531 719.875 427.078125 719.757812 426.496094 C 719.640625 425.914062 719.582031 425.328125 719.585938 424.734375 C 719.582031 424.140625 719.640625 423.550781 719.757812 422.96875 C 719.875 422.386719 720.046875 421.824219 720.273438 421.273438 C 720.5 420.726562 720.777344 420.203125 721.105469 419.710938 C 721.4375 419.21875 721.8125 418.761719 722.230469 418.339844 C 722.652344 417.921875 723.109375 417.546875 723.601562 417.21875 C 724.09375 416.886719 724.617188 416.609375 725.164062 416.382812 C 725.710938 416.15625 726.277344 415.984375 726.859375 415.867188 C 727.441406 415.753906 728.03125 415.695312 728.625 415.695312 C 729.214844 415.695312 729.804688 415.753906 730.386719 415.867188 C 730.96875 415.984375 731.535156 416.15625 732.082031 416.382812 C 732.628906 416.609375 733.152344 416.886719 733.644531 417.21875 C 734.136719 417.546875 734.59375 417.921875 735.015625 418.339844 C 735.433594 418.761719 735.808594 419.21875 736.140625 419.710938 C 736.46875 420.203125 736.746094 420.726562 736.972656 421.273438 C 737.203125 421.824219 737.371094 422.386719 737.488281 422.96875 C 737.605469 423.550781 737.664062 424.140625 737.664062 424.734375 Z M 737.664062 424.734375 " fill-opacity="1" fill-rule="nonzero"/><path fill="#9e7fd1" d="M 743.550781 475.339844 C 743.550781 475.757812 743.511719 476.167969 743.429688 476.578125 C 743.347656 476.984375 743.226562 477.382812 743.066406 477.765625 C 742.910156 478.152344 742.714844 478.515625 742.480469 478.863281 C 742.25 479.207031 741.988281 479.527344 741.695312 479.824219 C 741.398438 480.117188 741.078125 480.378906 740.734375 480.613281 C 740.386719 480.84375 740.019531 481.039062 739.636719 481.199219 C 739.253906 481.355469 738.855469 481.476562 738.449219 481.558594 C 738.039062 481.640625 737.625 481.679688 737.210938 481.679688 C 736.792969 481.679688 736.382812 481.640625 735.972656 481.558594 C 735.566406 481.476562 735.167969 481.355469 734.785156 481.199219 C 734.398438 481.039062 734.035156 480.84375 733.6875 480.613281 C 733.34375 480.378906 733.023438 480.117188 732.726562 479.824219 C 732.433594 479.527344 732.171875 479.207031 731.9375 478.863281 C 731.707031 478.515625 731.511719 478.152344 731.351562 477.765625 C 731.195312 477.382812 731.074219 476.984375 730.992188 476.578125 C 730.910156 476.167969 730.871094 475.757812 730.871094 475.339844 C 730.871094 474.925781 730.910156 474.511719 730.992188 474.101562 C 731.074219 473.695312 731.195312 473.296875 731.351562 472.914062 C 731.511719 472.53125 731.707031 472.164062 731.9375 471.816406 C 732.171875 471.472656 732.433594 471.152344 732.726562 470.855469 C 733.023438 470.5625 733.34375 470.300781 733.6875 470.070312 C 734.035156 469.835938 734.398438 469.640625 734.785156 469.484375 C 735.167969 469.324219 735.566406 469.203125 735.972656 469.121094 C 736.382812 469.042969 736.792969 469 737.210938 469 C 737.625 469 738.039062 469.042969 738.449219 469.121094 C 738.855469 469.203125 739.253906 469.324219 739.636719 469.484375 C 740.019531 469.640625 740.386719 469.835938 740.734375 470.070312 C 741.078125 470.300781 741.398438 470.5625 741.695312 470.855469 C 741.988281 471.152344 742.25 471.472656 742.480469 471.816406 C 742.714844 472.164062 742.910156 472.53125 743.066406 472.914062 C 743.226562 473.296875 743.347656 473.695312 743.429688 474.101562 C 743.511719 474.511719 743.550781 474.925781 743.550781 475.339844 Z M 743.550781 475.339844 " fill-opacity="1" fill-rule="nonzero"/><path fill="#9e7fd1" d="M 648.355469 479.191406 C 648.355469 479.96875 648.28125 480.734375 648.128906 481.492188 C 647.976562 482.253906 647.753906 482.992188 647.457031 483.707031 C 647.160156 484.421875 646.796875 485.101562 646.367188 485.746094 C 645.9375 486.390625 645.449219 486.988281 644.902344 487.535156 C 644.351562 488.082031 643.757812 488.570312 643.113281 489.003906 C 642.46875 489.433594 641.789062 489.796875 641.074219 490.09375 C 640.355469 490.390625 639.621094 490.613281 638.859375 490.765625 C 638.097656 490.914062 637.332031 490.992188 636.558594 490.992188 C 635.78125 490.992188 635.015625 490.914062 634.253906 490.765625 C 633.496094 490.613281 632.757812 490.390625 632.042969 490.09375 C 631.328125 489.796875 630.648438 489.433594 630.003906 489.003906 C 629.359375 488.570312 628.761719 488.082031 628.214844 487.535156 C 627.667969 486.988281 627.175781 486.390625 626.746094 485.746094 C 626.316406 485.101562 625.953125 484.421875 625.65625 483.707031 C 625.359375 482.992188 625.136719 482.253906 624.984375 481.492188 C 624.835938 480.734375 624.757812 479.96875 624.757812 479.191406 C 624.757812 478.417969 624.835938 477.648438 624.984375 476.890625 C 625.136719 476.128906 625.359375 475.394531 625.65625 474.675781 C 625.953125 473.960938 626.316406 473.28125 626.746094 472.636719 C 627.175781 471.992188 627.667969 471.398438 628.214844 470.847656 C 628.761719 470.300781 629.359375 469.8125 630.003906 469.382812 C 630.648438 468.953125 631.328125 468.585938 632.042969 468.292969 C 632.757812 467.996094 633.496094 467.769531 634.253906 467.621094 C 635.015625 467.46875 635.78125 467.394531 636.558594 467.394531 C 637.332031 467.394531 638.097656 467.46875 638.859375 467.621094 C 639.621094 467.769531 640.355469 467.996094 641.074219 468.292969 C 641.789062 468.585938 642.46875 468.953125 643.113281 469.382812 C 643.757812 469.8125 644.351562 470.300781 644.902344 470.847656 C 645.449219 471.398438 645.9375 471.992188 646.367188 472.636719 C 646.796875 473.28125 647.160156 473.960938 647.457031 474.675781 C 647.753906 475.394531 647.976562 476.128906 648.128906 476.890625 C 648.28125 477.648438 648.355469 478.417969 648.355469 479.191406 Z M 648.355469 479.191406 " fill-opacity="1" fill-rule="nonzero"/><path fill="#9e7fd1" d="M 611.789062 507.0625 C 611.789062 507.410156 611.753906 507.753906 611.6875 508.09375 C 611.617188 508.4375 611.515625 508.765625 611.382812 509.089844 C 611.25 509.410156 611.089844 509.714844 610.894531 510.003906 C 610.703125 510.292969 610.480469 510.5625 610.234375 510.808594 C 609.992188 511.054688 609.722656 511.273438 609.433594 511.464844 C 609.144531 511.660156 608.839844 511.820312 608.519531 511.953125 C 608.195312 512.089844 607.867188 512.1875 607.523438 512.257812 C 607.183594 512.324219 606.839844 512.359375 606.492188 512.359375 C 606.144531 512.359375 605.800781 512.324219 605.457031 512.257812 C 605.117188 512.1875 604.785156 512.089844 604.464844 511.953125 C 604.144531 511.820312 603.839844 511.660156 603.550781 511.464844 C 603.261719 511.273438 602.992188 511.054688 602.746094 510.808594 C 602.5 510.5625 602.28125 510.292969 602.089844 510.003906 C 601.894531 509.714844 601.730469 509.410156 601.597656 509.089844 C 601.464844 508.765625 601.363281 508.4375 601.296875 508.09375 C 601.230469 507.753906 601.195312 507.410156 601.195312 507.0625 C 601.195312 506.714844 601.230469 506.371094 601.296875 506.027344 C 601.363281 505.6875 601.464844 505.355469 601.597656 505.035156 C 601.730469 504.714844 601.894531 504.410156 602.089844 504.121094 C 602.28125 503.832031 602.5 503.5625 602.746094 503.316406 C 602.992188 503.070312 603.261719 502.851562 603.550781 502.660156 C 603.839844 502.464844 604.144531 502.300781 604.464844 502.167969 C 604.785156 502.035156 605.117188 501.9375 605.457031 501.867188 C 605.800781 501.800781 606.144531 501.765625 606.492188 501.765625 C 606.839844 501.765625 607.183594 501.800781 607.523438 501.867188 C 607.867188 501.9375 608.195312 502.035156 608.519531 502.167969 C 608.839844 502.300781 609.144531 502.464844 609.433594 502.660156 C 609.722656 502.851562 609.992188 503.070312 610.234375 503.316406 C 610.480469 503.5625 610.703125 503.832031 610.894531 504.121094 C 611.089844 504.410156 611.25 504.714844 611.382812 505.035156 C 611.515625 505.355469 611.617188 505.6875 611.6875 506.027344 C 611.753906 506.371094 611.789062 506.714844 611.789062 507.0625 Z M 611.789062 507.0625 " fill-opacity="1" fill-rule="nonzero"/><path fill="#9e7fd1" d="M 788.332031 367.175781 C 788.332031 367.472656 788.304688 367.765625 788.246094 368.058594 C 788.1875 368.347656 788.101562 368.632812 787.988281 368.90625 C 787.875 369.179688 787.734375 369.441406 787.570312 369.6875 C 787.40625 369.933594 787.21875 370.164062 787.007812 370.375 C 786.796875 370.582031 786.570312 370.769531 786.320312 370.9375 C 786.074219 371.101562 785.8125 371.242188 785.539062 371.355469 C 785.265625 371.46875 784.980469 371.554688 784.691406 371.613281 C 784.398438 371.667969 784.105469 371.699219 783.808594 371.699219 C 783.511719 371.699219 783.21875 371.667969 782.925781 371.613281 C 782.632812 371.554688 782.351562 371.46875 782.078125 371.355469 C 781.800781 371.242188 781.542969 371.101562 781.292969 370.9375 C 781.046875 370.769531 780.820312 370.582031 780.609375 370.375 C 780.398438 370.164062 780.210938 369.933594 780.046875 369.6875 C 779.882812 369.441406 779.742188 369.179688 779.628906 368.90625 C 779.515625 368.632812 779.429688 368.347656 779.371094 368.058594 C 779.3125 367.765625 779.285156 367.472656 779.285156 367.175781 C 779.285156 366.878906 779.3125 366.582031 779.371094 366.292969 C 779.429688 366 779.515625 365.71875 779.628906 365.445312 C 779.742188 365.167969 779.882812 364.910156 780.046875 364.660156 C 780.210938 364.414062 780.398438 364.1875 780.609375 363.976562 C 780.820312 363.765625 781.046875 363.578125 781.292969 363.414062 C 781.542969 363.25 781.800781 363.109375 782.078125 362.996094 C 782.351562 362.882812 782.632812 362.796875 782.925781 362.738281 C 783.21875 362.679688 783.511719 362.652344 783.808594 362.652344 C 784.105469 362.652344 784.398438 362.679688 784.691406 362.738281 C 784.980469 362.796875 785.265625 362.882812 785.539062 362.996094 C 785.8125 363.109375 786.074219 363.25 786.320312 363.414062 C 786.570312 363.578125 786.796875 363.765625 787.007812 363.976562 C 787.21875 364.1875 787.40625 364.414062 787.570312 364.660156 C 787.734375 364.910156 787.875 365.167969 787.988281 365.445312 C 788.101562 365.71875 788.1875 366 788.246094 366.292969 C 788.304688 366.582031 788.332031 366.878906 788.332031 367.175781 Z M 788.332031 367.175781 " fill-opacity="1" fill-rule="nonzero"/><path fill="#9e7fd1" d="M 811.753906 428.40625 C 811.753906 429.066406 811.691406 429.71875 811.5625 430.367188 C 811.433594 431.011719 811.242188 431.640625 810.992188 432.25 C 810.738281 432.859375 810.429688 433.4375 810.0625 433.984375 C 809.695312 434.535156 809.28125 435.042969 808.816406 435.507812 C 808.347656 435.972656 807.839844 436.390625 807.292969 436.757812 C 806.746094 437.121094 806.167969 437.429688 805.558594 437.683594 C 804.949219 437.9375 804.320312 438.125 803.675781 438.253906 C 803.027344 438.382812 802.375 438.449219 801.714844 438.449219 C 801.054688 438.449219 800.402344 438.382812 799.757812 438.253906 C 799.109375 438.125 798.480469 437.9375 797.871094 437.683594 C 797.265625 437.429688 796.683594 437.121094 796.136719 436.757812 C 795.589844 436.390625 795.082031 435.972656 794.617188 435.507812 C 794.148438 435.042969 793.734375 434.535156 793.367188 433.984375 C 793 433.4375 792.691406 432.859375 792.4375 432.25 C 792.1875 431.640625 791.996094 431.011719 791.867188 430.367188 C 791.738281 429.71875 791.675781 429.066406 791.675781 428.40625 C 791.675781 427.75 791.738281 427.097656 791.867188 426.449219 C 791.996094 425.800781 792.1875 425.175781 792.4375 424.566406 C 792.691406 423.957031 793 423.378906 793.367188 422.828125 C 793.734375 422.28125 794.148438 421.773438 794.617188 421.308594 C 795.082031 420.84375 795.589844 420.425781 796.136719 420.058594 C 796.683594 419.695312 797.265625 419.382812 797.871094 419.132812 C 798.480469 418.878906 799.109375 418.6875 799.757812 418.5625 C 800.402344 418.433594 801.054688 418.367188 801.714844 418.367188 C 802.375 418.367188 803.027344 418.433594 803.675781 418.5625 C 804.320312 418.6875 804.949219 418.878906 805.558594 419.132812 C 806.167969 419.382812 806.746094 419.695312 807.292969 420.058594 C 807.839844 420.425781 808.347656 420.84375 808.816406 421.308594 C 809.28125 421.773438 809.695312 422.28125 810.0625 422.828125 C 810.429688 423.378906 810.738281 423.957031 810.992188 424.566406 C 811.242188 425.175781 811.433594 425.800781 811.5625 426.449219 C 811.691406 427.097656 811.753906 427.75 811.753906 428.40625 Z M 811.753906 428.40625 " fill-opacity="1" fill-rule="nonzero"/><path fill="#9e7fd1" d="M 788.332031 498.601562 C 788.332031 498.898438 788.304688 499.195312 788.246094 499.484375 C 788.1875 499.777344 788.101562 500.058594 787.988281 500.335938 C 787.875 500.609375 787.734375 500.871094 787.570312 501.117188 C 787.40625 501.363281 787.21875 501.59375 787.007812 501.800781 C 786.796875 502.011719 786.570312 502.199219 786.320312 502.363281 C 786.074219 502.53125 785.8125 502.667969 785.539062 502.78125 C 785.265625 502.898438 784.980469 502.980469 784.691406 503.039062 C 784.398438 503.097656 784.105469 503.128906 783.808594 503.128906 C 783.511719 503.128906 783.21875 503.097656 782.925781 503.039062 C 782.632812 502.980469 782.351562 502.898438 782.078125 502.78125 C 781.800781 502.667969 781.542969 502.53125 781.292969 502.363281 C 781.046875 502.199219 780.820312 502.011719 780.609375 501.800781 C 780.398438 501.59375 780.210938 501.363281 780.046875 501.117188 C 779.882812 500.871094 779.742188 500.609375 779.628906 500.335938 C 779.515625 500.058594 779.429688 499.777344 779.371094 499.484375 C 779.3125 499.195312 779.285156 498.898438 779.285156 498.601562 C 779.285156 498.304688 779.3125 498.011719 779.371094 497.722656 C 779.429688 497.429688 779.515625 497.148438 779.628906 496.871094 C 779.742188 496.597656 779.882812 496.335938 780.046875 496.089844 C 780.210938 495.84375 780.398438 495.613281 780.609375 495.40625 C 780.820312 495.195312 781.046875 495.007812 781.292969 494.84375 C 781.542969 494.675781 781.800781 494.539062 782.078125 494.421875 C 782.351562 494.308594 782.632812 494.222656 782.925781 494.167969 C 783.21875 494.109375 783.511719 494.078125 783.808594 494.078125 C 784.105469 494.078125 784.398438 494.109375 784.691406 494.167969 C 784.980469 494.222656 785.265625 494.308594 785.539062 494.421875 C 785.8125 494.539062 786.074219 494.675781 786.320312 494.84375 C 786.570312 495.007812 786.796875 495.195312 787.007812 495.40625 C 787.21875 495.613281 787.40625 495.84375 787.570312 496.089844 C 787.734375 496.335938 787.875 496.597656 787.988281 496.871094 C 788.101562 497.148438 788.1875 497.429688 788.246094 497.722656 C 788.304688 498.011719 788.332031 498.304688 788.332031 498.601562 Z M 788.332031 498.601562 " fill-opacity="1" fill-rule="nonzero"/><path fill="#210d2b" d="M 1007.335938 296.257812 C 1002.734375 271.890625 989.546875 255.371094 980.105469 233.15625 C 972.703125 215.722656 971.609375 196.339844 967.628906 177.78125 C 951.609375 103.144531 886.738281 44.882812 810.179688 40.101562 C 767.347656 37.449219 728.550781 53.613281 705.894531 90.519531 C 700.054688 100.019531 695.453125 110.285156 688.902344 119.34375 C 682.382812 128.398438 673.414062 136.363281 662.472656 138.578125 C 659.460938 139.195312 656.335938 139.371094 653.472656 140.464844 C 650.613281 141.527344 647.898438 143.828125 647.511719 146.867188 C 647.042969 150.464844 650.023438 153.800781 653.472656 154.917969 C 656.925781 156.011719 660.671875 155.390625 664.179688 154.535156 C 687.132812 148.960938 707.519531 133.503906 719.082031 112.941406 C 719.113281 118.308594 719.140625 123.828125 721 128.871094 C 722.859375 133.914062 726.929688 138.488281 732.238281 139.371094 C 737.550781 140.289062 743.597656 136.277344 743.570312 130.90625 C 743.511719 125.273438 737.519531 121.082031 737.226562 115.449219 C 736.929688 109.546875 742.949219 105.035156 743.65625 99.164062 C 743.894531 96.980469 742.890625 95.179688 743.183594 92.996094 C 744.003906 86.933594 747.425781 80.503906 751.210938 76.003906 C 753.863281 72.820312 756.902344 71.078125 760.382812 68.984375 C 767.90625 64.46875 776.785156 62.316406 785.519531 62.285156 C 799.503906 62.226562 813.042969 66.976562 825.875 72.496094 C 862.488281 88.21875 896.796875 111.523438 919.570312 144.210938 C 939.996094 173.464844 950.097656 210.945312 943.148438 245.691406 C 940.671875 211.371094 921.261719 177.042969 889.199219 165.128906 C 875.871094 160.179688 861.632812 158.277344 847.507812 156.625 C 826.101562 154.121094 802.875 152.207031 784.65625 165.183594 C 780.0625 168.453125 776.230469 172.753906 775.839844 178.546875 C 775.449219 184.386719 770.375 183.964844 766.957031 187.878906 C 765.34375 189.726562 764.824219 192.855469 766.640625 194.496094 C 768.210938 195.917969 770.707031 195.609375 772.550781 196.652344 C 774.09375 197.53125 775.007812 199.410156 774.742188 201.167969 C 774.261719 204.335938 768.667969 206.992188 766.261719 208.707031 C 759.84375 213.292969 753.421875 217.875 747 222.457031 C 745.335938 223.644531 743.464844 225.359375 743.964844 227.339844 C 744.21875 228.34375 745.074219 229.109375 746.035156 229.496094 C 748.921875 230.660156 757.914062 229.847656 764.972656 224.640625 C 766.957031 223.179688 768.488281 220.984375 770.261719 219.242188 C 778.832031 210.828125 786.707031 197.214844 802.320312 191.828125 C 808.546875 189.679688 820.195312 189.40625 820.324219 198.519531 C 820.386719 202.875 816.65625 206.429688 812.65625 208.15625 C 808.660156 209.882812 804.222656 210.363281 800.167969 211.949219 C 797.472656 213.003906 794.671875 215.019531 794.554688 217.910156 C 794.457031 220.296875 796.371094 222.421875 798.621094 223.230469 C 800.871094 224.042969 803.363281 223.785156 805.695312 223.269531 C 828.898438 218.140625 842.121094 190.386719 865.949219 187.152344 C 874.28125 186.023438 887.609375 188.550781 893.785156 194.902344 C 902.210938 203.5625 908.675781 215.441406 914.101562 226.132812 C 922.175781 242.03125 927.300781 257.671875 930.414062 274.007812 C 927.6875 276.417969 924.464844 278.003906 920.722656 278.203125 C 907.09375 278.972656 898.152344 260.945312 884.523438 261.269531 C 870.039062 261.625 857.324219 279.148438 842.425781 282.511719 C 828.324219 285.699219 812.484375 282.15625 801.863281 272.125 C 793.808594 264.515625 786.875 253.039062 775.8125 253.277344 C 768.054688 253.453125 761.621094 259.707031 753.921875 260.738281 C 746.578125 261.714844 739.351562 257.613281 734.363281 252.125 C 720.527344 236.816406 711.972656 217.226562 699.023438 201.117188 C 686.632812 185.71875 670.820312 172.855469 653.265625 164.152344 C 637.542969 156.367188 620.636719 152.207031 603.585938 148.785156 C 589.285156 145.933594 571.015625 148.445312 564.59375 163.425781 C 546.9375 166.746094 530.722656 177.542969 521.074219 192.738281 C 509.890625 210.363281 507.132812 233.617188 490.539062 247.316406 C 474.578125 260.414062 460.507812 249.175781 442.867188 251.300781 C 430.386719 252.804688 424.25 264.75 412.746094 269.175781 C 398.9375 274.488281 383.511719 276.140625 369.203125 271.742188 C 348.949219 265.4375 331.640625 247.679688 321.980469 227.253906 L 326.335938 234.832031 C 327.03125 224.859375 330.734375 215.101562 336.769531 207.136719 C 340.664062 201.992188 350.613281 195.238281 356.390625 201.34375 C 358.753906 203.839844 359.050781 207.660156 360.917969 210.546875 C 363.058594 213.851562 367.074219 215.5625 370.996094 215.871094 C 374.921875 216.183594 378.832031 215.292969 382.667969 214.40625 C 388.664062 213.023438 387.332031 208.667969 383.347656 208.703125 C 380.007812 208.734375 376.839844 211.21875 372.523438 202.632812 C 371.058594 199.722656 369.597656 196.816406 368.136719 193.90625 C 367.695312 193.027344 367.253906 191.957031 367.761719 191.113281 C 368.515625 189.851562 370.433594 190.371094 371.742188 191.039062 C 379.859375 195.195312 388.230469 199.542969 393.964844 206.640625 C 397.484375 210.992188 400.609375 217.492188 406.617188 219.316406 C 409.523438 220.199219 413.023438 219.605469 414.984375 217.28125 C 416.949219 214.957031 416.660156 210.867188 414.035156 209.328125 C 412.246094 208.277344 409.984375 208.574219 407.988281 208 C 404.605469 207.023438 403.242188 204.828125 392.246094 191.902344 C 391.277344 190.761719 390.304688 188.992188 391.363281 187.925781 C 392.335938 186.949219 393.984375 187.671875 395.136719 188.429688 C 398.011719 190.316406 400.882812 192.203125 403.757812 194.089844 C 405.84375 195.460938 408.550781 196.855469 410.671875 195.542969 C 412.554688 194.382812 412.761719 191.53125 411.617188 189.640625 C 409.234375 185.710938 403.828125 185.707031 400.214844 183.292969 C 398.058594 181.847656 396.550781 178.640625 398.289062 176.710938 C 400 174.8125 403.648438 175.488281 405.855469 175.621094 C 409.910156 175.863281 411.898438 172.09375 406.714844 170.046875 C 401.375 167.945312 395.789062 166.476562 390.105469 165.6875 C 379.742188 164.246094 373.132812 171.617188 365.050781 176.625 C 356.136719 182.144531 341.835938 183.457031 328.605469 193.769531 C 322.929688 198.191406 318.214844 204.089844 315.910156 210.851562 C 305.136719 171.265625 319.890625 131.855469 351.972656 108.308594 C 357.84375 103.972656 364.246094 100.785156 370.589844 97.273438 C 378.644531 92.792969 387.433594 90.960938 396.519531 90.371094 C 422.578125 88.785156 445.882812 103.9375 460.300781 125.359375 C 461.65625 127.394531 463.042969 129.578125 465.140625 130.875 C 467.234375 132.175781 470.300781 132.261719 471.894531 130.375 C 473.046875 128.988281 473.074219 126.925781 472.425781 125.242188 C 471.707031 123.289062 471.863281 123.578125 456.171875 105.476562 C 458.914062 104.828125 463.015625 105.121094 463.960938 102.054688 C 464.902344 98.957031 462.128906 95.503906 459.179688 95.003906 C 460.949219 93.085938 462.75 91.140625 463.839844 88.75 C 464.902344 86.359375 465.109375 83.4375 463.691406 81.226562 C 462.308594 79.015625 459.03125 77.980469 456.9375 79.546875 C 454.429688 81.375 453.8125 86.066406 450.742188 85.859375 C 449.0625 85.769531 447.941406 84.03125 447.617188 82.378906 C 447.320312 80.695312 447.527344 78.953125 447.113281 77.332031 C 443.601562 63.910156 406.84375 69.515625 397.523438 70.578125 C 369.203125 73.878906 342.738281 82.789062 322.089844 102.820312 C 301.644531 122.675781 294.566406 149.050781 293 176.367188 C 291.527344 202.683594 292.324219 235.25 305.304688 259.085938 C 310.140625 267.96875 319.375 273.042969 324.65625 282.277344 C 330.644531 292.71875 333.0625 305.34375 330.585938 317.175781 C 326.550781 336.640625 310.644531 353.289062 311.910156 373.699219 C 312.5 383.699219 318.550781 393.964844 328.167969 396.652344 C 339.789062 399.894531 353.183594 391.722656 363.804688 397.445312 C 372.210938 401.960938 374.453125 413.316406 372.359375 422.613281 C 370.265625 431.902344 364.953125 440.105469 361.621094 449.015625 C 351.765625 475.386719 361.886719 507.78125 384.957031 523.886719 C 408.027344 539.964844 441.953125 538.226562 463.28125 519.875 C 475.796875 509.089844 485.195312 494.363281 503.023438 499.003906 C 503.023438 501.523438 503.015625 500.691406 503.058594 504.75 C 497.015625 502.347656 492.476562 506.019531 496.394531 516.335938 C 496.183594 516.328125 495.976562 516.335938 495.765625 516.351562 C 489.5625 516.8125 485.941406 525.015625 492.929688 532.773438 C 489.558594 534.078125 487.125 538.25 487.632812 542.1875 C 488.09375 545.847656 490.164062 548.789062 492.695312 551.574219 C 491.003906 552.550781 489.949219 554.355469 489.808594 556.082031 C 489.546875 558.84375 491 561.269531 492.289062 563.0625 C 496.023438 568.300781 500.628906 571.710938 506.460938 574.453125 C 508.738281 602.839844 512.464844 636.199219 517.34375 664.148438 C 518 667.945312 531.769531 671.96875 537.964844 674.191406 C 541.171875 675.386719 544.070312 676.320312 546.847656 677.113281 C 546.210938 678.125 545.53125 679.023438 544.726562 679.703125 C 534.316406 688.480469 518.898438 692.503906 506.316406 699.382812 C 505.894531 699.414062 505.507812 699.625 505.25 699.984375 C 497.765625 704.226562 490.546875 709.765625 488.289062 718.042969 C 488.136719 718.261719 487.988281 718.492188 487.855469 718.769531 C 484.289062 726.152344 486.71875 735.445312 492.929688 740.542969 C 501.402344 747.570312 519.234375 747.511719 530.207031 746.894531 C 528.679688 753.453125 531.121094 760.808594 536.480469 765.269531 C 543.050781 770.722656 554.5 771.617188 562.707031 771.84375 C 577.007812 772.25 591.738281 769.769531 605.929688 767.46875 C 615.050781 765.980469 624.144531 764.226562 633.171875 762.15625 C 641.421875 760.273438 650.648438 758.941406 657.675781 753.898438 C 660.210938 752.074219 661.230469 751.121094 661.554688 748.046875 C 662.148438 742.617188 661.226562 737.070312 658.953125 732.121094 C 659.167969 730.335938 659.101562 728.199219 659.109375 728.496094 C 658.847656 718.5 657.335938 716.03125 657.058594 709.613281 C 674.003906 710.421875 692.621094 708.992188 707.527344 700.726562 C 745.257812 717.554688 780.679688 712.574219 809.164062 683.238281 C 867.324219 623.339844 826.351562 506.195312 821.335938 492.644531 C 831.234375 484.011719 838.957031 474.433594 844.273438 463.992188 C 844.445312 463.648438 844.46875 463.257812 844.355469 462.890625 C 844.554688 463.046875 844.734375 463.226562 844.964844 463.351562 C 846.46875 464.179688 848.386719 464.117188 850.007812 463.558594 C 855.289062 461.757812 859.507812 457.746094 863.34375 453.882812 C 869.683594 447.480469 874.640625 439.457031 882.429688 434.914062 C 894.171875 428.070312 908.863281 430.960938 922.460938 430.488281 C 958.039062 429.21875 989.546875 402.136719 1002.292969 368.890625 C 1011.113281 345.820312 1011.878906 320.359375 1007.335938 296.257812 Z M 773.886719 482.339844 C 766.539062 488.855469 756.777344 492.378906 747.792969 496.277344 C 723.476562 506.769531 697.464844 514.734375 670.957031 519.660156 C 626.414062 527.9375 596.003906 525.238281 587.039062 525.4375 C 583.171875 525.515625 578.78125 525.613281 576.214844 524.292969 C 572.378906 522.289062 570.003906 515.222656 569.105469 512.550781 C 563.464844 496.15625 564.492188 477.035156 571 461.816406 C 610.707031 465.195312 653.871094 452.882812 688.953125 432.550781 C 691.21875 431.277344 692.378906 430.566406 692.992188 429.089844 C 693.675781 428.863281 691.550781 429.894531 706.179688 421.914062 C 706.894531 421.519531 707.152344 420.621094 706.761719 419.910156 C 706.363281 419.191406 705.464844 418.9375 704.757812 419.328125 L 693.230469 425.664062 C 693.046875 424.804688 682.074219 392.1875 677.628906 338.589844 C 676.351562 323.183594 675.617188 306.726562 675.390625 288.285156 C 675.332031 279.960938 679.683594 270.023438 687.109375 265.894531 C 693.558594 262.34375 699.523438 260.675781 705.867188 260.652344 C 716.34375 260.511719 726.863281 265.207031 734.945312 273.230469 C 743.183594 281.402344 747.078125 292.210938 751.339844 303.058594 C 756.796875 316.804688 760.800781 331.425781 764 343.914062 C 773.539062 381.117188 778.914062 415.476562 780.921875 452.046875 C 781.636719 464.113281 782.820312 474.371094 773.886719 482.339844 Z M 506.089844 484.824219 C 506.042969 484.785156 505.75 484.546875 505.632812 484.453125 C 502.292969 481.503906 492.273438 472.113281 493.207031 467.730469 C 496.085938 471.710938 499.539062 475.191406 503.554688 478.039062 C 504.214844 478.507812 505.136719 478.355469 505.609375 477.6875 C 506.082031 477.023438 505.925781 476.105469 505.257812 475.632812 C 501.265625 472.800781 497.847656 469.316406 495.0625 465.289062 C 495.078125 465.191406 495.117188 465.109375 495.117188 465 C 495.117188 463.433594 493.703125 462.167969 492.699219 461.25 L 491.960938 460.574219 C 491.136719 459.777344 490.339844 459.007812 489.867188 458.09375 C 488.898438 456.332031 489.628906 455.085938 490.664062 455.085938 C 490.695312 455.085938 490.707031 455.101562 490.734375 455.101562 C 495.789062 462.773438 502.582031 468.613281 509.199219 473.773438 C 509.847656 474.273438 510.769531 474.160156 511.273438 473.519531 C 511.773438 472.875 511.660156 471.949219 511.015625 471.449219 C 494.824219 458.820312 493.925781 453.574219 492.46875 452.625 C 489.722656 450.570312 487.484375 446.269531 488.570312 442.546875 C 488.617188 442.375 488.648438 442.238281 488.691406 442.082031 C 494.382812 450.210938 500.941406 457.714844 508.324219 464.34375 C 508.929688 464.886719 509.863281 464.839844 510.40625 464.230469 C 510.953125 463.625 510.902344 462.695312 510.296875 462.148438 C 502.242188 454.917969 495.128906 446.667969 489.15625 437.632812 C 488.875 437.210938 488.414062 437.003906 487.945312 437 C 486.6875 435.027344 485.570312 433.382812 484.644531 430.039062 C 484.171875 428.359375 484.144531 427.089844 484.496094 426.117188 C 484.882812 425.203125 485.207031 424.9375 485.265625 424.9375 C 485.410156 424.875 486.0625 425.171875 487.625 426.707031 C 489.710938 428.734375 491.972656 430.617188 494.96875 433.109375 C 507.722656 443.671875 522.3125 452.765625 534.425781 458.519531 C 536.113281 459.335938 541.375 460.957031 542.027344 461.679688 C 542.332031 462.226562 542.9375 462.496094 543.527344 462.414062 C 544.535156 462.269531 544.96875 461.230469 544.667969 460.445312 C 544.644531 460.378906 544.652344 460.304688 544.621094 460.25 L 544.609375 460.25 C 540.480469 452.773438 536.578125 445.722656 536.226562 444.941406 C 534.5625 441.214844 536.65625 439.207031 539.230469 440.636719 C 540.242188 441.179688 541.164062 442.265625 541.996094 443.226562 C 558.171875 462.085938 559.742188 464.125 561.996094 466.121094 C 563.285156 467.117188 564.765625 467.953125 565.566406 468.273438 C 562.285156 479.207031 561.488281 491.785156 563.765625 503.792969 C 563.53125 503.832031 563.285156 503.820312 562.703125 503.820312 C 541.53125 504.394531 523.375 499.839844 506.089844 484.824219 Z M 685.460938 408.074219 C 689.554688 425.78125 690.695312 425.832031 690.445312 427.503906 C 690.125 428.640625 689.050781 429.109375 687.457031 430.007812 C 652.058594 450.503906 609 462.394531 570.210938 458.785156 C 569.546875 458.726562 568.988281 459.074219 568.730469 459.648438 C 567.941406 461.40625 566.988281 463.875 566.453125 465.441406 C 565.851562 465.21875 564.933594 464.601562 564.421875 464.226562 C 565.878906 432.222656 571.59375 384.882812 586.886719 356.582031 C 591.222656 348.585938 596.90625 341.269531 601.304688 336.875 C 617.511719 338.796875 636.21875 332.007812 648.363281 323.09375 C 655.164062 324.972656 661.484375 328.488281 667.078125 332.878906 C 670.109375 335.242188 672.621094 337.378906 674.738281 339.390625 C 676.945312 365.742188 680.683594 388.011719 685.460938 408.074219 Z M 540.640625 438.050781 C 539.0625 437.164062 536.84375 436.902344 534.980469 437.972656 C 534.976562 437.972656 534.972656 437.972656 534.972656 437.976562 C 533.578125 438.863281 532.785156 440.53125 532.726562 442.367188 C 532.714844 442.71875 532.683594 443.070312 532.730469 443.433594 C 532.917969 445.046875 533.800781 446.777344 534.589844 448.195312 C 534.757812 448.496094 539.957031 457.941406 539.636719 457.359375 C 536.183594 456.054688 537.820312 456.972656 532.546875 454.292969 C 524.777344 450.367188 515.136719 444.472656 509.09375 440.152344 C 511.726562 415.859375 516.175781 391.25 525.929688 369.222656 C 531.574219 356.492188 541.761719 339.230469 558.246094 329.289062 C 562.542969 326.667969 566.734375 324.902344 570.71875 324.035156 C 577.808594 329.265625 588.132812 334.492188 597.742188 336.324219 C 591.851562 342.636719 585.992188 351.046875 581.453125 360.765625 C 568.789062 387.597656 563.105469 431.804688 561.59375 461.523438 C 561.1875 461.070312 560.785156 460.621094 560.398438 460.175781 C 541.898438 438.472656 542.453125 439.015625 540.640625 438.050781 Z M 616.25 333.511719 C 600.359375 336.328125 586.628906 331.34375 573.460938 322.351562 C 563.410156 315.621094 553 304.859375 546.039062 292.207031 C 545.1875 287.421875 547.574219 282.074219 551.9375 279.113281 C 556.132812 276.273438 565.03125 279.050781 570.011719 281.929688 C 574.234375 284.371094 578.285156 289.488281 577.214844 294.953125 C 576.894531 296.558594 576.054688 298.40625 575.617188 300.40625 C 573.289062 295.472656 565.414062 292.410156 563.457031 295.289062 C 562.234375 297.078125 563.996094 300.402344 567.386719 302.710938 C 570.605469 304.898438 574.105469 305.363281 575.5 303.878906 C 576.625 310.03125 586.371094 311.980469 590.558594 307.960938 C 591.148438 307.398438 591.167969 306.464844 590.605469 305.875 C 590.039062 305.292969 589.105469 305.269531 588.519531 305.832031 C 585.953125 308.292969 579.144531 307.058594 578.402344 303.398438 C 578.097656 301.90625 578.644531 300.289062 579.222656 298.578125 C 579.554688 297.597656 579.898438 296.582031 580.105469 295.519531 C 581.460938 288.636719 576.585938 282.324219 571.488281 279.375 C 566.023438 276.21875 555.859375 272.886719 550.28125 276.671875 C 546.734375 279.078125 544.285156 282.820312 543.351562 286.796875 C 542.035156 283.898438 540.9375 280.992188 540.050781 278.082031 C 542.898438 275.628906 545.746094 273.179688 548.59375 270.730469 C 551.09375 268.574219 553.742188 266.183594 554.421875 262.953125 C 555.671875 256.988281 548.417969 244.542969 546.410156 232.445312 C 549.347656 234.191406 551.988281 237.480469 554.523438 239.839844 C 556.703125 241.871094 561.40625 248.746094 564.96875 246.566406 C 567.335938 245.117188 569.480469 242.933594 571.644531 241.191406 C 586.984375 228.84375 588.71875 227.816406 590.058594 225.089844 C 592.371094 220.382812 589.699219 215.441406 587.832031 211.132812 C 592.324219 214.066406 594.699219 221.421875 600.578125 221.808594 C 603.289062 221.984375 605.355469 220.742188 613.53125 216.988281 C 618.089844 214.898438 620.332031 213.019531 619.011719 204.1875 C 626.585938 214.492188 634.160156 224.796875 641.734375 235.101562 C 643.21875 230.546875 646.480469 226.019531 647.085938 221.226562 C 647.832031 215.335938 647.410156 206.746094 646.339844 201.597656 C 654.441406 190.429688 669.230469 192.214844 677.320312 201.515625 C 677.636719 201.882812 677.992188 202.210938 678.285156 202.597656 C 683.4375 209.417969 684.929688 219.457031 682.171875 228.804688 C 679.558594 237.671875 673.425781 245.589844 666.535156 251.636719 C 665.519531 252.53125 666.148438 254.222656 667.507812 254.222656 C 668.191406 254.222656 668.414062 254.015625 670.992188 251.519531 C 674.335938 267.675781 671.226562 284.511719 663.558594 298.839844 C 659.601562 306.253906 655.8125 312.839844 649.59375 318.324219 C 641.382812 325.316406 629.171875 331.183594 616.25 333.511719 Z M 673.511719 280.4375 C 673.441406 280.699219 673.347656 280.957031 673.285156 281.226562 C 673.351562 280.9375 673.425781 280.648438 673.488281 280.359375 C 673.496094 280.386719 673.503906 280.410156 673.511719 280.4375 Z M 651.148438 320.863281 C 657.8125 315.242188 662.164062 307.707031 666.160156 300.226562 C 669.328125 294.3125 671.652344 288.066406 673.183594 281.644531 C 672.6875 283.878906 672.425781 286.132812 672.441406 288.3125 C 672.652344 305.355469 673.296875 320.699219 674.398438 335.101562 C 667.179688 328.753906 660.238281 323.84375 651.148438 320.863281 Z M 498.332031 507.566406 C 498.773438 506.976562 499.75 506.855469 501.222656 507.207031 C 502.527344 507.523438 503.835938 508.445312 504.984375 509.269531 C 515.632812 516.972656 526.085938 526.328125 533.132812 537.480469 C 534.21875 539.195312 535.421875 541.351562 535.082031 543.347656 C 535.082031 543.355469 535.085938 543.363281 535.082031 543.371094 C 534.855469 544.574219 533.183594 545.96875 532.105469 545.429688 C 531.660156 545.117188 508.457031 524.960938 500.335938 517.925781 C 498.84375 515.234375 496.980469 509.390625 498.332031 507.566406 Z M 492.640625 526.980469 C 491.714844 524.734375 491.921875 522.285156 493.175781 520.730469 C 494.316406 519.28125 496.84375 518.71875 498.171875 519.976562 C 498.203125 520.007812 498.242188 520.019531 498.277344 520.042969 C 532.582031 549.785156 530.082031 547.65625 530.492188 547.90625 C 532.683594 549.613281 533.0625 554 529.90625 555.476562 C 529.886719 555.484375 529.867188 555.5 529.847656 555.507812 C 528.785156 555.984375 527.273438 556.113281 525.90625 555.558594 C 525.195312 555.269531 525.164062 555.164062 524.515625 554.726562 C 524.300781 554.320312 526.132812 555.851562 497.199219 532.855469 C 495.46875 531.285156 493.582031 529.359375 492.640625 526.980469 Z M 490.558594 541.8125 C 490.175781 538.8125 492.601562 534.941406 495.613281 535.367188 C 504.839844 542.683594 521.734375 556.160156 522.417969 556.609375 C 522.476562 556.71875 522.523438 556.828125 522.613281 556.921875 C 526.796875 561.476562 524.382812 566.675781 520.761719 566.222656 C 520.59375 566.050781 520.378906 565.917969 520.1875 565.769531 C 519.886719 565.539062 519.640625 565.222656 518.367188 564.8125 L 496.605469 551.40625 C 493.667969 548.40625 491.011719 545.410156 490.558594 541.8125 Z M 494.6875 561.347656 C 493.695312 559.964844 492.578125 558.148438 492.746094 556.339844 C 492.84375 555.183594 493.925781 553.800781 495.085938 553.9375 L 516.710938 567.261719 C 517.722656 568.476562 518.730469 568.683594 519.027344 568.875 C 519.75 570.597656 518.105469 573.480469 515.59375 573.941406 C 512.855469 574.441406 509.328125 572.449219 507.203125 571.546875 C 502.113281 569.222656 497.789062 565.695312 494.6875 561.347656 Z M 520.253906 663.644531 C 515.453125 636.152344 511.792969 603.523438 509.523438 575.808594 C 511.636719 576.640625 513.824219 577.167969 515.925781 576.851562 C 520.011719 576.230469 522.457031 572.296875 522.136719 569.175781 C 526.53125 568.523438 528.886719 563.457031 527.230469 558.871094 C 528.410156 558.953125 529.589844 558.710938 530.460938 558.402344 C 534.914062 556.871094 536.171875 551.964844 534.359375 548.160156 C 535.9375 547.550781 537.601562 545.890625 537.980469 543.933594 C 537.980469 543.925781 537.984375 543.921875 537.984375 543.914062 C 538.539062 540.828125 537.019531 538.117188 535.351562 535.5 C 532.308594 530.769531 528.589844 526.222656 524.691406 522.199219 C 519.152344 516.480469 510.828125 509.667969 506.011719 506.382812 C 505.949219 503.066406 505.933594 495.921875 506.074219 488.6875 C 512.445312 493.882812 519.851562 498.179688 526.503906 500.921875 C 537.746094 505.648438 549.238281 506.996094 561.363281 506.804688 C 563.628906 549.800781 567.160156 569.789062 572.472656 617.214844 C 574.679688 637.089844 578.003906 657.589844 582.695312 677.441406 C 570.1875 680.585938 551.285156 676.007812 538.980469 671.421875 C 538.589844 671.28125 521.523438 665.648438 520.253906 663.644531 Z M 592.546875 697.347656 C 591.601562 699.886719 590.335938 702.6875 588.265625 704.429688 C 578.089844 713.070312 562.363281 717.269531 549.863281 724.101562 C 549.445312 724.136719 549.066406 724.34375 548.808594 724.695312 C 544.90625 726.90625 540.691406 729.703125 537.59375 733 C 533.613281 733.417969 529.585938 733.730469 525.535156 733.945312 C 526.921875 721.070312 520.453125 707.929688 509.609375 700.980469 C 511.589844 699.960938 513.605469 699.007812 515.632812 698.09375 C 527.933594 713.789062 529.167969 715.832031 532.285156 717.574219 C 537.816406 720.671875 543.828125 717.484375 543.5 710.988281 C 543.394531 708.765625 542.542969 706.71875 541.730469 705.011719 C 539.261719 699.828125 535.75 695.085938 531.582031 691.109375 C 533.242188 690.320312 534.988281 689.433594 536.757812 688.480469 C 540.542969 693.890625 545.078125 698.714844 550.269531 702.816406 C 552.167969 704.316406 554.882812 706.148438 557.835938 706.148438 C 562.632812 706.148438 565.582031 701.375 565.035156 696.8125 C 564.585938 693.078125 562.257812 690.042969 560.285156 687.816406 C 556.664062 683.722656 553.445312 681.015625 549.410156 678.605469 C 549.546875 678.386719 549.703125 678.210938 549.832031 677.976562 C 559.457031 680.597656 573.628906 682.796875 583.386719 680.359375 C 584.5 685.046875 585.910156 690.421875 587.152344 694.859375 C 587.394531 695.738281 587.632812 695.746094 592.546875 697.347656 Z M 654.085938 709.484375 C 654.199219 712.132812 654.328125 713.46875 654.910156 716.734375 C 646.390625 714.199219 636.515625 717.015625 630.820312 723.90625 C 624.929688 731.027344 624.046875 740.40625 624.40625 749.394531 C 606.363281 754.578125 587.859375 757.683594 569.089844 758.652344 C 570.472656 745.78125 564.003906 732.644531 553.160156 725.699219 C 555.140625 724.679688 557.15625 723.722656 559.1875 722.8125 C 571.742188 738.828125 572.730469 740.554688 575.839844 742.292969 C 581.207031 745.296875 587.382812 742.367188 587.054688 735.707031 C 586.949219 733.484375 586.097656 731.4375 585.285156 729.730469 C 582.816406 724.546875 579.304688 719.804688 575.136719 715.828125 C 576.800781 715.042969 578.542969 714.160156 580.3125 713.207031 C 584.105469 718.617188 588.636719 723.441406 593.820312 727.535156 C 596.574219 729.710938 599.804688 731.53125 603.175781 730.632812 C 607.121094 729.574219 609.027344 725.175781 608.585938 721.535156 C 608.136719 717.796875 605.8125 714.761719 603.839844 712.535156 C 600.210938 708.441406 596.996094 705.734375 592.972656 703.328125 C 593.945312 701.761719 594.746094 699.929688 595.378906 698.230469 C 617.601562 704.964844 638.832031 708.492188 654.085938 709.484375 Z M 550.140625 727.335938 C 560.921875 733.417969 567.484375 746.011719 566.15625 758.34375 C 566.140625 758.5 566.167969 758.644531 566.199219 758.792969 C 562.90625 758.921875 559.613281 759.011719 556.308594 759.011719 C 552.074219 759.019531 547.507812 758.980469 543.320312 757.554688 C 531.308594 753.460938 528.945312 739.394531 550.140625 727.335938 Z M 633.09375 725.789062 C 638.347656 719.425781 647.699219 716.996094 655.40625 719.953125 C 656.285156 726.4375 656.140625 729.425781 656.15625 729.722656 C 656.105469 733.003906 655.476562 735.71875 652.566406 738.277344 C 649.804688 740.679688 646.148438 742.144531 642.632812 743.4375 C 637.574219 745.324219 632.460938 746.980469 627.320312 748.523438 C 627.066406 740.609375 627.878906 732.089844 633.09375 725.789062 Z M 572.238281 717.117188 C 576.539062 721 580.132812 725.773438 582.621094 730.996094 C 583.308594 732.441406 584.027344 734.148438 584.109375 735.851562 C 584.316406 740.109375 580.707031 741.636719 577.28125 739.71875 C 574.828125 738.347656 574.230469 737.21875 561.976562 721.585938 C 566.796875 719.5 565.980469 719.917969 572.238281 717.117188 Z M 590.167969 706.683594 C 590.539062 706.371094 590.828125 706.007812 591.152344 705.667969 C 595.097656 707.980469 598.078125 710.480469 601.632812 714.488281 C 603.320312 716.394531 605.304688 718.960938 605.65625 721.886719 C 605.941406 724.226562 604.777344 727.148438 602.410156 727.785156 C 600.613281 728.269531 598.46875 727.445312 595.648438 725.21875 C 590.773438 721.367188 586.5 716.832031 582.910156 711.761719 C 585.398438 710.292969 587.871094 708.632812 590.167969 706.683594 Z M 546.628906 681.960938 C 546.980469 681.664062 547.285156 681.292969 547.605469 680.953125 C 551.550781 683.269531 554.53125 685.769531 558.078125 689.769531 C 559.765625 691.675781 561.753906 694.242188 562.105469 697.167969 C 562.386719 699.507812 561.226562 702.429688 558.855469 703.066406 C 556.5 703.683594 553.875 701.90625 552.09375 700.5 C 547.214844 696.644531 542.941406 692.105469 539.351562 687.03125 C 541.839844 685.5625 544.320312 683.90625 546.628906 681.960938 Z M 528.6875 692.398438 C 532.988281 696.28125 536.578125 701.058594 539.066406 706.277344 C 539.757812 707.722656 540.472656 709.429688 540.558594 711.136719 C 540.765625 715.398438 537.148438 716.910156 533.726562 715 C 531.285156 713.636719 530.703125 712.535156 518.421875 696.867188 C 523.457031 694.691406 522.453125 695.1875 528.6875 692.398438 Z M 491.617188 717.242188 C 494.21875 710.625 500.441406 706.121094 506.589844 702.621094 C 517.371094 708.703125 523.929688 721.292969 522.601562 733.625 C 522.585938 733.769531 522.617188 733.902344 522.640625 734.035156 C 514.589844 734.363281 505.292969 734.726562 499.769531 732.828125 C 492.691406 730.46875 488.707031 724.472656 491.617188 717.242188 Z M 594.910156 695 C 592.445312 694.230469 590.695312 693.640625 589.785156 693.324219 C 582.847656 668.367188 578.214844 642.230469 575.40625 616.886719 C 572.355469 589.582031 564.839844 533.03125 564.316406 506.734375 C 564.339844 506.734375 564.367188 506.730469 564.390625 506.730469 C 564.851562 508.753906 565.605469 511.4375 566.316406 513.5 C 568.007812 518.554688 570.511719 524.644531 574.859375 526.910156 C 579.234375 529.164062 586.476562 528.191406 590.988281 528.371094 C 627.953125 529.921875 665.339844 525.40625 698.578125 516.445312 C 705.410156 602.246094 703.054688 572.589844 712.742188 693.804688 C 684.953125 716.007812 628.714844 705.445312 594.910156 695 Z M 807.046875 681.183594 C 773.921875 715.300781 736.769531 709.984375 710.714844 698.898438 C 712.296875 697.867188 713.796875 696.769531 715.214844 695.597656 C 715.585938 695.292969 715.785156 694.824219 715.746094 694.34375 C 706.730469 581.558594 707.753906 594.5625 701.472656 515.617188 C 717.496094 511.238281 733.378906 505.691406 748.703125 499.089844 C 748.707031 499.703125 747.574219 494.867188 771.1875 585.5625 C 771.359375 586.226562 771.957031 586.667969 772.613281 586.667969 C 773.578125 586.667969 774.285156 585.753906 774.039062 584.816406 L 758.820312 526.46875 C 779.929688 518.699219 801.617188 509.058594 818.957031 494.730469 C 825.214844 511.980469 862.742188 623.824219 807.046875 681.183594 Z M 819.359375 490.457031 C 819.050781 490.480469 818.75 490.566406 818.507812 490.773438 C 809.960938 498.242188 787.363281 512.34375 762.828125 521.777344 C 761.242188 522.398438 759.65625 522.996094 758.066406 523.59375 C 751.117188 497.355469 751.785156 498.648438 751.160156 498.050781 C 759.890625 494.355469 768.804688 490.792969 775.851562 484.546875 C 775.851562 484.546875 775.851562 484.542969 775.851562 484.542969 C 785.300781 476.113281 784.671875 465.550781 784.007812 454.367188 C 783.027344 444.789062 782.710938 405.003906 766.859375 343.183594 C 760.679688 319.046875 757.144531 309.710938 752.109375 296.964844 C 779.367188 335.621094 800.730469 378.363281 820.328125 419.121094 C 827.289062 433.589844 835.730469 448.238281 841.347656 463.226562 C 836.210938 473.121094 828.8125 482.222656 819.359375 490.457031 Z M 819.359375 490.457031 " fill-opacity="1" fill-rule="nonzero"/><path fill="#210d2b" d="M 594.269531 270.136719 C 591.851562 267.359375 585.671875 264.679688 583.8125 267.40625 C 582.601562 269.207031 584.347656 272.535156 587.757812 274.84375 C 588.886719 275.605469 590.042969 276.140625 591.140625 276.476562 C 596.53125 278.136719 598.324219 274.34375 594.296875 270.136719 C 594.296875 270.136719 594.269531 270.167969 594.269531 270.136719 Z M 594.269531 270.136719 " fill-opacity="1" fill-rule="nonzero"/><path fill="#210d2b" d="M 580.410156 238.773438 C 569.28125 242.515625 563.148438 254.527344 566.675781 265.746094 C 566.871094 266.375 567.453125 266.777344 568.082031 266.777344 C 569.082031 266.777344 569.785156 265.804688 569.488281 264.859375 C 566.449219 255.1875 571.726562 244.804688 581.351562 241.570312 C 582.125 241.308594 582.539062 240.472656 582.277344 239.703125 C 582.019531 238.929688 581.183594 238.515625 580.410156 238.773438 Z M 580.410156 238.773438 " fill-opacity="1" fill-rule="nonzero"/><path fill="#210d2b" d="M 653.117188 213.097656 C 654.976562 212.015625 657.125 211.511719 659.277344 211.480469 C 657.019531 215.242188 655.550781 219.597656 657.242188 223.734375 C 658.355469 226.46875 660.8125 228.402344 663.492188 228.664062 C 668.910156 229.207031 671.957031 222.769531 668.953125 222.214844 C 668.179688 222.066406 667.378906 222.597656 667.234375 223.398438 C 666.980469 224.769531 665.332031 225.859375 663.78125 225.730469 C 662.199219 225.574219 660.667969 224.324219 659.972656 222.621094 C 658.5 219.007812 660.414062 215.113281 662.519531 211.855469 C 662.789062 211.925781 663.070312 211.945312 663.335938 212.03125 C 666.683594 213.132812 669.515625 215.726562 670.910156 218.964844 C 671.234375 219.71875 672.105469 220.058594 672.851562 219.734375 C 673.597656 219.414062 673.941406 218.546875 673.621094 217.796875 C 669.960938 209.308594 659.628906 205.890625 651.632812 210.546875 C 650.929688 210.957031 650.691406 211.859375 651.097656 212.566406 C 651.515625 213.269531 652.414062 213.503906 653.117188 213.097656 Z M 653.117188 213.097656 " fill-opacity="1" fill-rule="nonzero"/><path fill="#210d2b" d="M 610.476562 293.179688 C 605.832031 292.988281 601.34375 296.265625 600.078125 300.757812 C 599.042969 304.4375 600.3125 308.574219 603.160156 310.824219 C 603.796875 311.324219 604.722656 311.222656 605.230469 310.578125 C 605.734375 309.9375 605.625 309.011719 604.988281 308.507812 C 603.046875 306.976562 602.199219 304.117188 602.917969 301.554688 C 603.734375 298.644531 606.699219 296.070312 610.421875 296.128906 C 611.210938 296.128906 611.863281 295.503906 611.894531 294.707031 C 611.925781 293.894531 611.289062 293.210938 610.476562 293.179688 Z M 610.476562 293.179688 " fill-opacity="1" fill-rule="nonzero"/><g fill="#000000" fill-opacity="1"><g transform="translate(415.614009, 417.374999)"><g><path d="M 5.671875 0 L 2.921875 0 L 2.921875 -25.828125 L 5.671875 -25.828125 Z M 5.671875 0 "/></g></g></g></svg>