<svg xmlns="http://www.w3.org/2000/svg" xmlns:xlink="http://www.w3.org/1999/xlink" width="1920" zoomAndPan="magnify" viewBox="0 0 1440 809.999993" height="1080" preserveAspectRatio="xMidYMid meet" version="1.0"><defs><g/></defs><path fill="#210b34" d="M 794.027344 650.234375 C 797.011719 643.125 799.785156 633.882812 795.3125 626.730469 C 792.25 621.835938 785.65625 618.941406 780.015625 620.53125 C 773.378906 622.40625 771.613281 629.9375 774.421875 635.640625 C 778.148438 643.21875 786.84375 644.644531 794.402344 645.492188 L 794.402344 639.777344 C 778.46875 641.230469 762.925781 625.992188 765.25 609.792969 C 765.761719 606.253906 760.804688 604.632812 759.738281 608.273438 C 758.667969 611.910156 757.613281 615.507812 756.554688 619.128906 C 756.128906 620.578125 757.066406 622.28125 758.550781 622.644531 C 766.714844 624.644531 773.710938 630.347656 776.929688 638.1875 L 782.15625 635.980469 C 775.734375 623.070312 763.695312 613.46875 749.710938 609.992188 L 750.972656 614.769531 L 769.640625 596.074219 L 764.859375 594.8125 C 767.789062 607.90625 781.066406 617.511719 794.445312 615.945312 C 797.09375 615.632812 798.546875 612.171875 795.886719 610.617188 C 785.65625 604.628906 779.84375 593.117188 780.835938 581.34375 L 779.996094 583.363281 C 782.78125 580.347656 787.117188 580.261719 790.671875 582.003906 C 795.125 584.191406 796.921875 588.90625 796.546875 593.683594 C 795.625 605.597656 783.976562 612.066406 774.363281 616.597656 L 778.5625 619.824219 C 786.21875 601.289062 775.664062 578.566406 757.117188 571.632812 C 755.707031 571.105469 753.925781 572.226562 753.597656 573.628906 C 750.398438 587.375 758.308594 601.804688 771.496094 606.675781 L 770.816406 601.449219 C 757.695312 609.484375 738.652344 600.355469 736.246094 585.316406 C 735.742188 582.152344 730.375 582.867188 730.628906 586.074219 L 732.796875 613.320312 L 736.414062 610.5625 C 717.445312 605.167969 703.273438 587.121094 702.625 567.386719 C 702.570312 565.714844 700.8125 563.90625 699.007812 564.628906 C 689.246094 568.550781 679.476562 572.46875 669.714844 576.386719 C 667.925781 577.105469 666.628906 579.632812 668.453125 581.164062 L 701.203125 608.632812 L 702.464844 603.851562 C 686.527344 609.207031 667.257812 600.75 661.015625 584.9375 L 660.28125 587.71875 L 677.246094 569.40625 C 679.121094 567.378906 677.300781 563.789062 674.460938 564.628906 L 647.675781 572.578125 C 643.464844 573.828125 639.269531 575.164062 635.03125 576.324219 C 632.847656 576.925781 627.292969 578.390625 627.179688 574.664062 C 627.078125 571.199219 631.316406 567.8125 633.574219 565.660156 C 636.394531 562.96875 639.402344 560.480469 642.597656 558.242188 C 648.941406 553.804688 655.859375 550.3125 663.191406 547.84375 L 660.410156 547.109375 C 668.074219 555.6875 664.164062 569.210938 656.382812 576.292969 C 646.71875 585.082031 632.949219 580.925781 625.835938 571.0625 C 618.089844 560.316406 618.859375 546.238281 628.761719 537.171875 C 638.117188 528.617188 652.960938 526.195312 664.328125 531.980469 C 678.605469 539.246094 686.082031 555.800781 684.71875 571.375 C 684.539062 573.410156 686.675781 574.394531 688.335938 574.132812 L 740.710938 565.8125 C 743.683594 565.339844 743.167969 561.078125 740.710938 560.300781 C 729.917969 556.878906 719.960938 549.792969 714.378906 539.789062 C 708.75 529.699219 709.125 517.902344 716 508.507812 C 722.3125 499.871094 733.527344 495.257812 743.535156 500.394531 C 753.046875 505.28125 758.507812 516.449219 759.128906 526.8125 C 760.074219 542.460938 752.195312 557.152344 745.132812 570.554688 C 744.324219 572.082031 744.949219 574.367188 746.839844 574.753906 C 759.171875 577.285156 772.757812 580.003906 784.820312 574.902344 C 793.703125 571.144531 801.421875 563.234375 802.195312 553.246094 C 803.027344 542.464844 795.222656 533.882812 787.46875 527.523438 C 778.6875 520.324219 769.390625 514.019531 762.082031 505.183594 C 755.164062 496.824219 750.550781 486.636719 751.078125 475.632812 C 751.535156 466.019531 756.214844 456.21875 765.347656 452.132812 C 773.890625 448.304688 784.070312 450.304688 791.800781 455.082031 C 800.964844 460.746094 806.128906 470.617188 807.335938 481.167969 C 810.605469 509.777344 789.691406 532.464844 771.488281 551.609375 L 775.980469 555.074219 C 783.203125 541.417969 796.054688 525.609375 813.527344 530.84375 C 819.980469 532.78125 825.511719 538.261719 824.464844 545.421875 C 823.597656 551.347656 818.441406 558.050781 811.808594 556.558594 L 813.515625 560.757812 L 828.761719 526.984375 C 829.816406 524.648438 827.464844 521.292969 824.851562 523.074219 C 811.105469 532.441406 800.785156 545.847656 795.238281 561.527344 C 794.527344 563.546875 796.765625 565.714844 798.757812 565.046875 C 815.503906 559.414062 832.707031 553.433594 846.550781 542.074219 C 858.445312 532.316406 866.0625 518.617188 866.375 503.058594 C 866.515625 496.144531 865.113281 489.089844 861.769531 482.996094 C 858.28125 476.636719 852.933594 472.46875 846.574219 469.226562 C 843.195312 467.503906 839.097656 465.742188 837.222656 462.226562 C 834.835938 457.746094 836.910156 452.21875 838.847656 447.964844 C 842.425781 440.109375 847.101562 432.648438 852.546875 425.957031 C 864.816406 410.875 881.007812 399.125 899.3125 392.496094 L 895.695312 389.738281 C 897.074219 423.832031 883.78125 457.714844 859.53125 481.722656 C 857.632812 483.597656 859.195312 486.371094 861.550781 486.601562 C 890.570312 489.488281 918.542969 467.8125 926.378906 440.335938 C 934.214844 412.867188 918.511719 385.25 893.855469 372.761719 C 880.300781 365.898438 864.519531 363.65625 849.847656 368.082031 C 846.316406 369.148438 847.777344 374.410156 851.367188 373.597656 C 875.585938 368.105469 898.109375 356.644531 916.914062 340.445312 L 912.132812 339.183594 C 918.832031 364.054688 909.875 391.632812 890.070312 408.023438 L 894.949219 410.046875 L 900.78125 349.695312 C 902.066406 336.367188 905.417969 315.105469 890.917969 307.289062 C 881.730469 302.335938 865.457031 305.382812 866.121094 318.351562 C 866.507812 325.9375 873.0625 331.542969 879.398438 334.6875 C 887.1875 338.5625 895.707031 340.574219 903.855469 343.511719 C 912.097656 346.484375 919.769531 350.578125 924.148438 358.476562 C 927.601562 364.707031 928.777344 372.894531 923.277344 378.308594 L 927.769531 378.886719 C 919.15625 362.054688 925.40625 342.539062 927.859375 325.015625 C 930.203125 308.296875 929.34375 289.78125 915.191406 278.324219 C 908.632812 273.015625 900.382812 270.382812 892.066406 272.585938 C 888.699219 273.476562 889.828125 277.8125 892.824219 278.203125 C 906.671875 279.996094 917.460938 265.1875 915.722656 252.34375 C 913.71875 237.53125 899.644531 227.6875 885.953125 224.722656 C 875.75 222.511719 865.261719 223.117188 854.925781 223.796875 C 852.253906 223.96875 850.835938 227.695312 853.484375 229.125 C 866.515625 236.164062 879.542969 243.207031 892.578125 250.246094 L 891.160156 247.777344 C 889.398438 263.976562 870.546875 273.347656 855.871094 268.953125 C 838.429688 263.734375 828.925781 245.175781 829.492188 227.898438 C 829.867188 216.480469 833.9375 205.519531 839.785156 195.8125 C 841.015625 193.773438 838.953125 190.773438 836.554688 191.613281 C 819.113281 197.714844 801.671875 203.820312 784.230469 209.925781 C 780.714844 211.152344 782.144531 216.039062 785.753906 215.441406 C 795.183594 213.875 800.082031 227.816406 795.753906 234.613281 C 789.707031 244.117188 775.429688 243.394531 766.859375 238.238281 C 755.527344 231.421875 749.394531 218.90625 743.222656 207.742188 C 739.925781 201.78125 736.457031 195.898438 732.089844 190.644531 C 730.585938 188.835938 728.207031 185.320312 725.738281 184.878906 C 722.761719 184.347656 718.621094 185.464844 715.660156 185.949219 C 700.265625 188.453125 685.542969 194.777344 673.039062 204.074219 L 676.503906 208.566406 C 683.6875 202.941406 695.410156 204.074219 701.277344 211.105469 C 707.257812 218.28125 706.058594 229.675781 699.390625 235.929688 L 703.4375 235.929688 C 696.785156 229.320312 697.808594 218.796875 697.484375 210.195312 C 697.132812 201.035156 695.613281 191.375 687.734375 185.5625 C 678.917969 179.058594 666.632812 179.851562 656.34375 181.039062 C 644.421875 182.417969 632.714844 185.335938 621.582031 189.835938 C 609.121094 194.875 597.585938 201.683594 587.117188 210.113281 C 584.570312 212.160156 587.855469 216.289062 590.582031 214.605469 C 595.832031 211.355469 602.105469 213.589844 606.164062 217.738281 C 610.65625 222.328125 611.527344 228.691406 608.859375 234.5 C 601.890625 249.65625 583.191406 250.507812 569.269531 246.425781 C 553.3125 241.746094 539.285156 231.640625 522.757812 228.703125 C 509.785156 226.398438 496.460938 228.335938 484.433594 233.605469 C 470.683594 239.628906 458.9375 250.203125 452.09375 263.617188 C 451.320312 265.128906 451.882812 267.457031 453.800781 267.816406 L 485.179688 273.695312 L 483.078125 270.9375 C 482.054688 285.460938 475.15625 299.238281 464.394531 309.007812 C 452.847656 319.484375 437.121094 324.179688 421.6875 322.761719 C 413.6875 322.027344 406.027344 319.460938 399.054688 315.511719 C 392.632812 311.875 386.652344 307.503906 380.167969 303.972656 C 368.617188 297.691406 354.398438 295.125 343.941406 304.953125 C 335.34375 313.027344 332.390625 326.484375 335.363281 337.695312 C 338.859375 350.855469 350.0625 360.703125 361.816406 366.628906 C 376.152344 373.851562 392.328125 374.992188 407.101562 380.902344 C 419.269531 385.765625 433.421875 398.46875 429.320312 413.160156 C 425.648438 426.316406 408.300781 428.996094 397.507812 423.484375 C 383.171875 416.164062 378.800781 397.910156 378.9375 383.136719 C 378.96875 380.148438 375.140625 379.445312 373.609375 381.695312 C 359.753906 402.011719 360.5 430.226562 373.246094 450.898438 C 376.316406 455.875 380.09375 460.472656 384.5 464.324219 C 390.042969 469.164062 396.488281 472.574219 402.96875 475.964844 C 409.898438 479.585938 417.027344 483.316406 422.109375 489.433594 C 426.535156 494.761719 429.550781 502.144531 426.910156 508.96875 C 422.0625 521.488281 404.34375 523.832031 393.042969 520.835938 C 386.675781 519.148438 380.238281 515.355469 377.4375 509.125 C 375.203125 504.140625 375.277344 497.742188 378.28125 493.09375 C 381.691406 487.820312 388.140625 486.664062 393.742188 488.839844 C 400.035156 491.289062 405.109375 496.839844 408.105469 502.761719 C 411.441406 509.359375 412.851562 516.839844 414.980469 523.878906 C 417.054688 530.75 419.757812 537.359375 424.308594 542.980469 C 432.148438 552.65625 443.742188 558.386719 454.164062 564.765625 C 463.851562 570.699219 473.769531 577.742188 475.636719 589.742188 L 479.835938 586.511719 L 460.492188 572.027344 L 461.519531 575.941406 C 471.136719 562.410156 481.265625 548.109375 496.238281 540.074219 C 509.671875 532.863281 527.195312 531.457031 538.636719 543.082031 C 543.527344 548.046875 546.769531 554.964844 545.964844 562.042969 C 545.15625 569.121094 541.085938 575.5 539.855469 582.542969 C 538.6875 589.203125 540.675781 596.023438 546.964844 599.375 C 553.203125 602.703125 560.800781 601.945312 567.554688 601.199219 C 586.960938 599.066406 605.734375 593.050781 622.792969 583.5625 C 624.785156 582.453125 624.492188 579.796875 622.792969 578.625 C 608.269531 568.613281 595.980469 554.53125 589.929688 537.800781 C 583.882812 521.066406 584.519531 503.332031 592.390625 487.917969 C 596.285156 480.28125 601.976562 473.238281 609.328125 468.703125 C 616.355469 464.363281 625.894531 461.648438 633.675781 465.695312 C 641.351562 469.683594 644.589844 478.5 645.96875 486.542969 C 647.347656 494.589844 647.015625 503.339844 645.277344 511.464844 C 641.316406 529.988281 630.226562 546.820312 614.222656 557.082031 C 611.976562 558.519531 612.679688 562.585938 615.664062 562.410156 C 635.804688 561.207031 656.035156 564.640625 674.5625 572.675781 L 673.539062 568.765625 L 666.949219 579.453125 C 665.867188 581.203125 667.242188 583.921875 669.417969 583.753906 C 685.222656 582.535156 702.539062 580.894531 714.375 569.089844 C 724.335938 559.15625 727.71875 543.195312 717.011719 532.460938 C 711.820312 527.257812 704.195312 524.550781 697.0625 527.050781 L 700.582031 530.570312 C 706.492188 507 719.652344 485.628906 737.898438 469.59375 C 742.4375 465.605469 747.28125 461.984375 752.394531 458.765625 C 757.9375 455.269531 764.070312 451.675781 770.726562 451.03125 C 782.503906 449.886719 789.421875 460.5 789.570312 471.210938 C 789.757812 485.402344 778.449219 496.753906 769.25 506.210938 C 767.347656 508.167969 769.234375 511.933594 772.035156 510.988281 C 798.828125 501.941406 819.28125 478.109375 823.15625 449.960938 C 825.191406 435.171875 822.878906 419.949219 816.507812 406.441406 C 810.710938 394.160156 800.402344 381.136719 785.957031 379.515625 C 779.460938 378.789062 772.597656 380.625 767.5625 384.84375 C 765.382812 386.667969 762.671875 389.671875 762.078125 392.585938 C 761.644531 394.695312 763.410156 397.304688 764.203125 399.210938 L 767.179688 406.363281 C 767.828125 407.921875 768.996094 408.621094 770.695312 408.359375 C 797.054688 404.292969 818.992188 382.578125 825.449219 357 C 832.109375 330.621094 820.179688 303.972656 798.519531 288.363281 C 786.558594 279.738281 771.851562 274.9375 757.070312 275.65625 C 753.949219 275.808594 753.066406 280.453125 756.3125 281.273438 C 773.523438 285.636719 788.335938 297.335938 796.902344 312.867188 C 805.785156 328.972656 806.53125 348.164062 800.105469 365.277344 C 796.457031 375 790.40625 383.683594 782.632812 390.546875 L 787.511719 392.566406 C 789.171875 357.917969 818.445312 333.140625 830.003906 302.003906 C 835.007812 288.527344 836.4375 273.425781 831.644531 259.65625 C 827.09375 246.585938 816.988281 236.382812 803.304688 233.195312 C 786.472656 229.277344 768.757812 235.226562 753.859375 242.847656 C 752.261719 243.664062 751.96875 246.144531 753.28125 247.339844 C 767.679688 260.460938 783.664062 271.824219 800.863281 280.984375 C 809.34375 285.503906 818.117188 289.488281 827.089844 292.929688 C 835.335938 296.09375 845.039062 299.441406 852.910156 293.53125 C 865.929688 283.75 863.355469 261.824219 858.914062 248.414062 C 853.480469 232.007812 842.03125 217.582031 826.714844 209.390625 C 808.671875 199.742188 786.410156 198.558594 767.539062 206.523438 C 764.910156 207.632812 764.761719 212.574219 768.296875 212.140625 C 784.589844 210.132812 803.875 207.464844 818.648438 216.519531 C 829.585938 223.21875 838.308594 238.1875 831.664062 250.671875 C 829.90625 253.972656 834.484375 256.515625 836.601562 253.554688 C 847.765625 237.9375 840.875 215.597656 827.25 203.839844 C 809.710938 188.703125 784.632812 188.367188 762.769531 189.652344 C 747.519531 190.542969 732.085938 192.070312 716.9375 189.304688 L 716.179688 194.921875 C 737.675781 197.523438 759.171875 200.125 780.667969 202.730469 L 778.199219 198.425781 C 769.792969 210.941406 752.308594 210.820312 739.40625 206.660156 C 722.847656 201.316406 710.039062 188.117188 694.980469 179.867188 C 679.976562 171.640625 663.226562 169.355469 646.511719 172.941406 C 630.601562 176.351562 614.730469 184.707031 603.203125 196.269531 C 601.078125 198.402344 601.941406 200.324219 602.457031 203.082031 L 604.050781 211.597656 L 607.445312 229.769531 C 609.671875 241.691406 611.902344 253.613281 614.128906 265.542969 L 619.355469 263.335938 C 600.71875 236.785156 577.191406 205.945312 540.992188 207.648438 C 532.121094 208.070312 523.46875 210.746094 516.277344 216.027344 C 514.828125 217.09375 514.273438 219.117188 515.699219 220.519531 C 521.535156 226.253906 529.183594 229.234375 536.796875 231.8125 C 544.007812 234.253906 552.070312 236.289062 557.957031 241.382812 C 572.523438 253.988281 559.695312 275.800781 543.015625 277.609375 C 533.097656 278.683594 523.046875 274.460938 515.542969 268.164062 C 508.035156 261.867188 503.417969 254.0625 497.996094 246.527344 C 492.808594 239.316406 486.992188 232.125 478.9375 227.992188 C 470.375 223.59375 460.449219 223.285156 451.300781 225.964844 C 427.820312 232.851562 415.730469 255.242188 405.523438 275.628906 C 404.945312 276.78125 405.039062 278.148438 405.972656 279.09375 C 418.621094 291.925781 437.972656 290.15625 452.722656 298.929688 C 470.613281 309.570312 467.269531 333.238281 456.71875 347.890625 C 449.703125 357.632812 439.929688 365.109375 430.53125 372.40625 L 435.023438 372.984375 C 420.765625 347.179688 411.265625 319 406.871094 289.847656 C 406.453125 287.078125 401.847656 287.160156 401.355469 289.847656 C 395.191406 323.601562 402.09375 359.222656 420.171875 388.378906 C 438.25 417.542969 467.304688 438.558594 500.308594 447.652344 C 518.972656 452.792969 538.507812 453.988281 557.644531 451.125 L 555.441406 445.898438 C 530.753906 461.5 497.035156 450.074219 481.863281 426.601562 C 464.367188 399.523438 468.617188 364.472656 483.957031 337.542969 C 492.003906 323.40625 502.761719 310.988281 514.734375 300.039062 C 526.382812 289.386719 541.511719 278.175781 558.160156 279.085938 C 572.449219 279.867188 582.21875 290.894531 587.125 303.46875 C 592.355469 316.867188 593.570312 331.433594 594.277344 345.667969 C 595.882812 378.082031 592.136719 414.359375 568.183594 438.628906 C 557.859375 449.089844 543.847656 456.945312 528.855469 457.144531 C 515.402344 457.324219 501.59375 451.207031 493.214844 440.566406 C 484.839844 429.925781 484.003906 414.949219 491.933594 403.242188 C 495.660156 397.742188 501.144531 393.070312 507.460938 390.867188 C 510.496094 389.808594 513.640625 389.304688 516.851562 389.480469 C 518.632812 389.574219 519.769531 389.542969 520.863281 390.945312 C 521.957031 392.347656 522.894531 393.890625 523.695312 395.480469 C 530.175781 408.34375 526.3125 424.765625 516.132812 434.5 C 504.707031 445.425781 488.433594 447.847656 473.402344 445.136719 C 465.578125 443.726562 457.300781 441.730469 449.425781 443.914062 C 442.550781 445.820312 437.378906 450.867188 434.714844 457.394531 C 428.792969 471.902344 436.574219 486.742188 447.15625 496.710938 C 468.5 516.816406 500.730469 523.640625 528.765625 515.898438 C 535.65625 513.996094 542.292969 511.167969 548.460938 507.546875 C 549.496094 506.941406 550.183594 505.503906 549.777344 504.320312 C 539.074219 473.148438 503.277344 453.890625 471.371094 462.382812 L 474.152344 467.160156 C 500.300781 444.199219 545.613281 433.28125 572.414062 461.269531 C 582.941406 472.265625 589.28125 487.800781 587.972656 503.105469 C 586.472656 520.617188 573.382812 533.761719 557.441406 539.71875 C 533.78125 548.558594 508.390625 542.601562 484.730469 536.9375 C 482.445312 536.390625 480.054688 538.964844 481.503906 541.136719 C 494.820312 561.148438 517.222656 573.914062 541.054688 576.195312 C 564.785156 578.46875 588.03125 568.914062 604.214844 551.585938 C 620.398438 534.261719 627.996094 510.8125 625.179688 487.164062 C 622.375 463.628906 611.539062 442.121094 601.390625 421.035156 C 589.984375 397.332031 578.152344 372.296875 579.832031 345.308594 L 577.730469 348.066406 C 605.839844 338.027344 637.386719 326.96875 666.652344 339.070312 C 678.105469 343.808594 688.3125 352.046875 693.621094 363.4375 C 700.042969 377.234375 698.300781 393.539062 692.914062 407.355469 C 686.609375 423.527344 675.136719 437.117188 663.972656 450.136719 L 667.4375 449.6875 C 652.660156 439.78125 643.757812 422.269531 643.570312 404.570312 C 643.378906 386.335938 653.269531 369.613281 668.515625 359.859375 C 677.101562 354.367188 686.984375 351.246094 697.195312 351.171875 L 695.175781 350.332031 C 710.453125 368.8125 714.933594 394.894531 707.175781 417.503906 L 712.402344 416.820312 C 708.925781 412.238281 706.519531 407.085938 705.363281 401.441406 C 704.789062 398.625 704.582031 395.75 704.683594 392.882812 C 704.730469 391.582031 704.835938 390.273438 705.03125 388.984375 C 705.304688 387.191406 705.398438 386.757812 706.710938 385.511719 C 713.53125 379.042969 724.03125 377.203125 732.875 379.984375 C 752.171875 386.050781 755.234375 414.898438 737.816406 425.054688 C 728.660156 430.394531 716.085938 429.890625 707.875 422.964844 L 705.855469 427.847656 C 718.671875 429.125 729.882812 437.554688 735.195312 449.183594 L 734.90625 446.976562 C 726.558594 472.875 699.015625 489.464844 672.398438 488.578125 C 664.742188 488.324219 657.167969 486.535156 650.265625 483.183594 L 649.582031 488.410156 L 657.355469 486.339844 L 655.148438 486.050781 C 663.191406 491.109375 662.699219 503.917969 656.117188 509.988281 C 647.628906 517.816406 633.527344 514.355469 626.332031 506.59375 C 617.769531 497.363281 616.648438 483.421875 619.371094 471.667969 C 622.414062 458.539062 629.261719 446.089844 636.488281 434.8125 C 649.378906 414.6875 671.152344 395.433594 696.949219 401.320312 C 707.78125 403.792969 716.230469 411.171875 720.828125 421.191406 C 725.332031 431.011719 726.085938 442.296875 725.460938 452.933594 C 723.738281 482.269531 708.175781 511.898438 719.652344 541.050781 C 720.410156 542.980469 722.792969 543.96875 724.429688 542.3125 C 749.003906 517.449219 774.167969 491.757812 789.945312 460.152344 C 803.390625 433.210938 808.476562 402.34375 800.195312 373 C 792.417969 345.453125 771.128906 320.445312 741.324219 317.238281 C 726.550781 315.648438 711.386719 320.820312 702.855469 333.445312 C 694.4375 345.902344 694.027344 362.886719 699.015625 376.722656 C 704.792969 392.742188 716.878906 405.472656 729.582031 416.359375 C 742.8125 427.691406 757.507812 438.386719 774.390625 443.453125 C 789.769531 448.070312 806.394531 446.550781 819.257812 436.425781 C 830.722656 427.402344 837.355469 413.273438 840.175781 399.214844 C 846.246094 368.90625 836.066406 336.480469 817.339844 312.460938 C 797.429688 286.925781 767.53125 271.578125 735.199219 270.050781 C 718.871094 269.277344 702.253906 271.949219 687.0625 278.011719 C 679.640625 280.972656 672.453125 284.636719 665.890625 289.207031 C 664.171875 290.40625 663.664062 291.300781 663.777344 293.40625 C 663.878906 295.269531 664.078125 297.121094 664.335938 298.96875 C 664.832031 302.523438 665.621094 306.03125 666.707031 309.449219 C 675.34375 336.675781 700.871094 358.011719 729.125 361.921875 C 736.15625 362.894531 743.167969 362.742188 750.15625 361.503906 C 751.453125 361.273438 752.15625 359.925781 752.253906 358.746094 C 754.332031 333.617188 742.480469 308.222656 722.6875 292.800781 C 702.757812 277.269531 675.9375 273.902344 652.308594 282.390625 C 639.332031 287.050781 627.609375 295.003906 618.996094 305.824219 C 617.800781 307.324219 617.929688 309.191406 619.574219 310.316406 L 624.957031 313.992188 C 626.214844 314.847656 627.726562 316.363281 629.226562 316.730469 C 631.757812 317.347656 635.328125 315.613281 637.542969 314.472656 C 642.414062 311.964844 646.355469 307.601562 648.789062 302.730469 C 654.121094 292.058594 652.707031 279.628906 644.632812 270.746094 C 636.386719 261.679688 623.097656 257.847656 611.199219 260.164062 C 598.234375 262.6875 587.3125 272.078125 580.800781 283.292969 C 572.023438 298.40625 571.277344 316.527344 573.640625 333.433594 C 573.761719 334.292969 574.78125 335.316406 575.640625 335.433594 C 588.785156 337.222656 602.324219 330.054688 607.652344 317.722656 C 612.863281 305.65625 608.460938 290.945312 598.285156 282.894531 C 596.269531 281.300781 593.394531 279.007812 590.75 278.835938 C 587.511719 278.617188 583.382812 280.125 580.296875 281.023438 C 574.011719 282.859375 567.9375 285.546875 562.320312 288.914062 C 551.015625 295.691406 541.390625 305.21875 534.34375 316.34375 C 526.394531 328.875 521.886719 343.503906 521.957031 358.375 C 521.972656 360.941406 525.035156 362.03125 526.839844 360.394531 C 534.9375 353.070312 534.949219 341.382812 530.414062 332.101562 C 525.378906 321.808594 515.09375 315.332031 503.5625 316.132812 C 490.039062 317.070312 478.328125 326.167969 471.324219 337.378906 C 463 350.6875 461.71875 367.191406 462.09375 382.5 C 462.1875 386.339844 462.390625 390.179688 462.617188 394.015625 C 462.703125 395.4375 462.480469 397.285156 463.199219 398.574219 C 463.917969 399.867188 465.609375 400.902344 466.792969 401.6875 C 470.972656 404.460938 476.246094 405.476562 481.191406 404.988281 C 491.585938 403.957031 501.789062 397.097656 504.886719 386.816406 C 508.570312 374.613281 501.09375 361.917969 490.742188 355.703125 C 479.457031 348.929688 465.910156 350.480469 455.867188 358.742188 C 444.832031 367.824219 439.933594 383.035156 443.480469 396.828125 C 447.25 411.503906 459.023438 423 472.921875 428.359375 C 474.066406 428.800781 475.578125 428.066406 476.148438 427.046875 C 486.464844 408.640625 497.65625 387.003906 488.644531 365.824219 C 485.15625 357.625 478.914062 350.503906 470.378906 347.441406 C 461.847656 344.378906 452.210938 346.3125 444.714844 351.335938 C 427.464844 362.910156 418.464844 385.90625 416.148438 405.78125 C 413.832031 425.65625 422.058594 449.25 442.929688 455.796875 C 461.59375 461.648438 481.164062 449.976562 492.367188 435.597656 C 505.089844 419.269531 511.503906 393.871094 498.046875 376.09375 C 492.339844 368.554688 483.664062 363.324219 474.035156 363.382812 C 463.03125 363.449219 453.183594 369.667969 445.105469 376.613281 C 428.988281 390.472656 416.246094 409.636719 412.75 430.859375 C 409.566406 450.207031 414.488281 470.9375 427.558594 485.816406 C 441.425781 501.601562 464.296875 507.878906 484.359375 501.707031 C 503.027344 495.964844 518.253906 479.382812 521.734375 460.054688 C 524.984375 441.96875 518.171875 423.292969 505.734375 410.074219 C 492.804688 396.332031 474.414062 389.777344 455.71875 392.277344 C 437.066406 394.765625 419.878906 405.324219 408.863281 420.519531 C 397.132812 436.699219 394.132812 457.773438 398.160156 477.082031 C 402.335938 497.085938 414.117188 514.667969 430.796875 526.390625 C 447.582031 538.1875 468.652344 543.804688 489.078125 542.859375 C 509.429688 541.917969 531.054688 534.566406 543.726562 517.804688 C 555.238281 502.582031 556.503906 479.039062 542.3125 465.0625 C 530.511719 453.433594 513.3125 450.8125 499.050781 443.449219 C 492.410156 440.015625 486.710938 435.46875 483.511719 428.5625 L 483.800781 430.765625 C 491.390625 399.191406 520.855469 374.621094 553.109375 371.828125 C 569.191406 370.4375 586.378906 374.59375 598.546875 385.628906 C 604.523438 391.054688 608.886719 398.007812 610.316406 406.015625 C 611.882812 414.761719 609.734375 423.675781 606.171875 431.675781 C 598.460938 448.976562 585.484375 463.308594 578.097656 480.796875 C 570.902344 497.839844 568.808594 517.257812 577.242188 534.261719 C 584.40625 548.699219 598.972656 558.859375 615.464844 557.175781 C 622.914062 556.417969 630.179688 553.539062 635.625 548.292969 C 638.667969 545.363281 640.554688 542.265625 641.574219 538.175781 C 642.738281 533.484375 643.363281 528.632812 643.480469 523.800781 C 644.503906 481.457031 611.847656 448.269531 602.332031 408.640625 C 599.953125 398.746094 599.03125 388.320312 601 378.265625 C 602.796875 369.078125 606.878906 360.625 612.539062 353.199219 C 623.472656 338.859375 639.363281 327.714844 654.828125 318.757812 C 663.355469 313.816406 672.941406 309.382812 682.984375 309.347656 C 691.410156 309.320312 699.183594 312.90625 704.550781 319.386719 C 714.734375 331.679688 715.167969 349.578125 712.023438 364.449219 C 707.996094 383.503906 698.886719 402.253906 699.777344 422.09375 C 700.417969 436.441406 706.210938 452.171875 718.820312 460.164062 C 732.945312 469.121094 750.175781 463.753906 760.910156 452.140625 C 774.4375 437.496094 775.890625 417.648438 773.328125 398.726562 C 770.589844 378.527344 763.683594 358.507812 765.851562 337.890625 C 766.765625 329.175781 769.519531 320.03125 775.402344 313.335938 C 780.375 307.675781 787.070312 303.523438 794.4375 301.84375 C 801.148438 300.3125 808.425781 301.257812 813.921875 305.621094 L 813.191406 302.835938 C 808.535156 335.066406 814.796875 368.390625 830.792969 396.773438 C 835.328125 404.820312 840.660156 412.378906 846.628906 419.421875 C 847.882812 420.898438 850.195312 420.269531 851.125 418.84375 C 870.605469 388.839844 884.511719 350.402344 866.859375 316.285156 C 859.804688 302.648438 847.660156 290.835938 832.53125 286.839844 C 818.875 283.230469 803.53125 286.675781 792.28125 295.082031 C 786.132812 299.675781 781.199219 305.675781 778.453125 312.882812 C 777.394531 315.65625 775.175781 321.421875 776.976562 324.121094 C 777.667969 325.152344 779.101562 325.839844 780.097656 326.574219 L 783.804688 329.328125 L 791.679688 335.171875 C 792.875 336.058594 794.949219 335.410156 795.59375 334.144531 C 805.566406 314.554688 799.046875 291.363281 784.972656 275.582031 C 768.402344 257 742.910156 252.066406 719.160156 256.386719 C 704.398438 259.074219 690.316406 265.136719 677.671875 273.117188 L 680.554688 278.054688 C 691.816406 269.867188 694.578125 253.648438 688.070312 241.566406 C 681.144531 228.710938 665.226562 225.992188 652.796875 232.167969 C 645.890625 235.597656 640.449219 241.769531 638.5625 249.304688 L 644.078125 250.824219 C 646.945312 232.757812 630.808594 217.625 613.667969 215.9375 C 594.332031 214.035156 577.21875 228.066406 566.648438 242.820312 C 565.675781 244.183594 566.542969 245.867188 567.675781 246.730469 C 573.414062 251.121094 582.4375 248.867188 585.667969 242.496094 C 586.433594 240.988281 585.933594 239.570312 584.640625 238.585938 C 569.257812 226.851562 548.574219 222.890625 529.828125 227.429688 C 511.082031 231.96875 496.03125 245.035156 487.945312 262.070312 C 483.398438 271.648438 481.097656 282.15625 481.585938 292.769531 C 481.734375 296.019531 486.167969 296.613281 487.203125 293.527344 C 491.90625 279.453125 480.441406 264.296875 466.285156 262.554688 C 450.28125 260.589844 436.03125 273.136719 432.058594 287.988281 C 429.460938 297.703125 430.546875 308.117188 433.882812 317.507812 C 434.457031 319.121094 436.453125 320.332031 438.082031 319.21875 L 446.699219 313.320312 C 448.335938 312.199219 448.484375 310.328125 447.277344 308.828125 L 443.640625 304.316406 C 442.519531 302.925781 441.390625 300.960938 440.007812 299.804688 C 437.957031 298.089844 433.941406 299.269531 431.535156 299.691406 C 426.21875 300.628906 421.0625 302.527344 416.324219 305.09375 C 406.457031 310.4375 398.164062 318.945312 393.074219 328.945312 C 382.527344 349.660156 387.890625 374.023438 404.667969 389.746094 C 413.921875 398.417969 425.875 403.855469 438.597656 404.371094 C 439.710938 404.414062 441.1875 403.460938 441.355469 402.269531 C 444.753906 377.933594 447.796875 350.601562 431.09375 330.152344 C 417.261719 313.226562 394.046875 311.886719 375.632812 321.835938 C 355.34375 332.796875 345.765625 354.742188 343.53125 376.828125 C 341.328125 398.570312 345 421.441406 353.203125 441.652344 C 360.894531 460.621094 373.023438 478.21875 390.335938 489.570312 C 408.597656 501.539062 431.160156 504.515625 452.160156 498.964844 C 473.691406 493.269531 492.070312 479.226562 503.609375 460.234375 C 515.457031 440.738281 520.164062 416.972656 517.207031 394.398438 C 514.339844 372.480469 504.261719 350.722656 486.746094 336.726562 C 469.929688 323.285156 446.292969 318.027344 425.675781 325.132812 C 420.648438 326.867188 415.914062 329.292969 411.609375 332.417969 C 409.347656 334.058594 410.074219 337.597656 413.050781 337.746094 C 449.257812 339.507812 484.332031 329.148438 520.050781 325.285156 C 548.3125 322.230469 579.328125 323.617188 604.324219 338.570312 C 629 353.332031 641.917969 380.390625 643.292969 408.53125 C 644.800781 439.367188 632.59375 468.492188 615.285156 493.445312 C 606.164062 506.597656 595.527344 518.417969 584.621094 530.09375 C 574.445312 540.984375 564.34375 553.695312 564.792969 569.441406 C 565.195312 583.632812 575.175781 593.546875 588.445312 596.96875 C 601.292969 600.277344 615.300781 598.539062 627.996094 595.339844 C 682.078125 581.703125 719.28125 532.671875 737.363281 482.441406 C 742.671875 467.691406 748.238281 451.367188 761.742188 442.035156 C 767.550781 438.019531 774.507812 435.644531 781.621094 436.558594 C 788.3125 437.410156 794.46875 440.945312 799.199219 445.652344 C 810.144531 456.546875 812.066406 472.382812 807.925781 486.78125 C 803.402344 502.492188 792.671875 515.167969 780.753906 525.941406 C 774.980469 531.164062 768.886719 536.015625 762.792969 540.863281 C 760.851562 542.40625 762.46875 545.871094 764.8125 545.742188 C 797.886719 543.921875 826.972656 523.320312 844.132812 495.636719 C 853.066406 481.226562 858.207031 465.382812 860.34375 448.625 C 861.4375 440.03125 862.835938 429.28125 871.828125 425.382812 C 875.023438 424 879.101562 423.664062 881.859375 426.160156 C 885.199219 429.183594 885.253906 434.429688 884.789062 438.566406 C 883.113281 453.46875 874.371094 466.320312 864.410156 477.039062 C 853.664062 488.601562 841.308594 498.511719 830.121094 509.621094 C 818.261719 521.40625 808.195312 534.589844 802.847656 550.617188 C 797.003906 568.144531 796.652344 587.640625 802.09375 605.3125 C 803.453125 609.714844 805.242188 613.933594 807.15625 618.117188 C 809.304688 622.808594 811.644531 627.695312 812.117188 632.910156 C 812.785156 640.324219 807.285156 650.457031 798.605469 646.285156 C 794.453125 644.289062 791.503906 640.1875 789.058594 636.4375 C 786.351562 632.273438 783.882812 627.953125 781.652344 623.511719 C 777.082031 614.386719 773.613281 604.726562 771.265625 594.796875 C 770.0625 589.707031 769.164062 584.554688 768.578125 579.359375 L 763.25 580.800781 C 774.625 601.382812 786 621.960938 797.378906 642.539062 C 798.984375 645.445312 803.320312 643.433594 802.605469 640.335938 L 788.410156 579.128906 L 782.894531 580.652344 C 789.6875 609.835938 799.660156 638.191406 812.542969 665.25 L 817.035156 661.78125 C 802.089844 646.3125 790.214844 628.03125 782.28125 608.023438 L 777.054688 610.230469 L 823.6875 678.644531 C 825.746094 681.660156 830.394531 679.027344 828.625 675.757812 C 811.488281 644.097656 793.898438 611.453125 788.414062 575.40625 C 784.074219 546.875 789.398438 516.597656 806.515625 492.933594 C 815.527344 480.472656 828.007812 470.660156 842.699219 465.894531 L 839.082031 463.136719 C 839.703125 472.53125 843.648438 481.234375 850.472656 487.753906 C 851.859375 489.082031 853.933594 488.722656 854.964844 487.175781 C 860.960938 478.136719 860.304688 466.546875 856.632812 456.730469 C 852.527344 445.761719 844.875 436.710938 839.40625 426.457031 C 830.328125 409.4375 830.550781 388.539062 838.75 371.203125 C 843.335938 361.5 850.226562 353 859.152344 346.980469 L 856.265625 346.980469 L 867.226562 352.160156 L 865.808594 349.691406 C 862.492188 374.894531 867.207031 400.71875 878.984375 423.226562 C 880.136719 425.425781 883.601562 424.855469 884.210938 422.542969 C 891.878906 393.5 888.925781 362.199219 876.351562 334.953125 C 864.429688 309.117188 843.429688 288.007812 818.070312 275.226562 C 803.828125 268.050781 788.449219 263.570312 772.585938 261.984375 L 774.609375 266.863281 C 788.15625 249.75 814.417969 243.859375 832.894531 256.578125 C 850.523438 268.71875 856.902344 294.574219 843.960938 312.289062 C 837.835938 320.671875 828.167969 326.554688 817.933594 328.214844 C 806.8125 330.019531 795.816406 325.894531 787.390625 318.695312 C 767.511719 301.710938 762.683594 274.988281 753.183594 251.941406 C 743.996094 229.65625 728.335938 210.730469 705.636719 201.410156 C 684.984375 192.925781 660.707031 195.203125 642.523438 208.457031 C 634.101562 214.597656 626.753906 223.03125 623.265625 232.988281 C 620.265625 241.550781 620.34375 253.28125 628.5625 258.96875 C 637.316406 265.027344 648.664062 259.050781 653.078125 250.507812 C 658.632812 239.753906 652.828125 227.601562 645.296875 219.492188 C 617.464844 189.542969 565.328125 191.703125 536.09375 218.164062 C 532.53125 221.390625 529.382812 224.996094 526.535156 228.859375 C 525.464844 230.308594 526.566406 232.703125 528.242188 233.058594 C 540.085938 235.578125 551.167969 226.164062 553.507812 214.78125 C 555.84375 203.398438 548.414062 191.792969 538.539062 185.855469 C 525.992188 178.308594 510.773438 179.347656 497.148438 183.042969 C 485.347656 186.242188 470.128906 190.835938 464.042969 202.554688 C 458.933594 212.390625 463.464844 227.355469 475.636719 228.484375 C 478.070312 228.710938 479.460938 225.175781 477.65625 223.605469 C 457.871094 206.355469 426.363281 206.105469 407.234375 224.542969 C 398.132812 233.316406 392.441406 245.324219 391.066406 257.851562 C 390.730469 260.933594 390.683594 264.042969 390.953125 267.128906 C 391.265625 270.699219 391.75 273.085938 394.320312 275.726562 C 398.277344 279.792969 403.746094 282.160156 409.34375 282.738281 C 414.238281 283.242188 423.09375 282.507812 425.058594 277.171875 C 427.449219 270.695312 428.371094 263.554688 427.980469 256.679688 C 427.59375 249.800781 425.921875 243.035156 423.027344 236.753906 C 421.957031 234.417969 420.199219 229.808594 417.847656 228.4375 C 415.496094 227.066406 410.695312 228.4375 408.308594 228.910156 C 384.25 233.714844 365.707031 258.808594 369.460938 283.246094 C 373.542969 309.820312 402.726562 328.648438 428.601562 322.378906 C 429.519531 322.15625 430.398438 321.316406 430.601562 320.378906 C 436.496094 293.070312 413.628906 264.890625 385.203125 267.875 C 372.007812 269.257812 359.492188 276.261719 352.105469 287.398438 C 344.433594 298.96875 342.632812 318.335938 357.609375 324.976562 C 363.367188 327.527344 370.269531 327.03125 374.863281 322.425781 C 379.457031 317.820312 380.332031 310.46875 379.207031 304.175781 C 377.753906 296.03125 372.363281 289.371094 369.265625 281.863281 C 366.171875 274.371094 366.28125 266.242188 368.722656 258.582031 C 373.949219 242.195312 388.503906 231.472656 402.929688 223.488281 C 417.351562 215.5 435.082031 208.070312 451.953125 212.121094 C 466.691406 215.660156 477.023438 227.96875 481.859375 241.863281 C 486.113281 254.089844 488.101562 271.644531 478.511719 282.03125 C 467.308594 294.167969 448.734375 286.164062 438.6875 276.730469 C 429.324219 267.941406 423.433594 256.074219 420.984375 243.539062 C 415.992188 217.988281 426.144531 190.273438 449.730469 177.726562 C 472.175781 165.785156 502.695312 168.371094 521.984375 185.308594 C 532.117188 194.207031 537.875 206.832031 547.382812 216.292969 C 556.992188 225.855469 570.75 229.773438 582.878906 222.246094 C 595.773438 214.238281 600.8125 198.664062 596.726562 184.324219 C 592.289062 168.738281 579.574219 157.375 565.128906 150.984375 C 557.585938 147.644531 549.667969 145.398438 541.617188 143.683594 L 542.878906 148.460938 C 560.980469 134.398438 590.996094 139.777344 603.433594 158.921875 C 611.75 171.722656 611.714844 188 619.261719 201.214844 C 625.546875 212.226562 637.484375 220.757812 650.53125 216.308594 C 661.792969 212.464844 670.035156 201.359375 671.175781 189.625 C 672.410156 176.945312 664.144531 165.34375 653.863281 158.792969 C 642.28125 151.414062 628.269531 149.957031 615.066406 153.125 C 600.117188 156.714844 587.148438 165.492188 575.492188 175.199219 C 568.785156 180.785156 562.050781 186.882812 553.882812 190.257812 C 546.613281 193.261719 537.5625 194.199219 530.667969 189.746094 C 520.332031 183.074219 521.15625 165.511719 531.09375 158.925781 L 527.625 158.480469 C 538.257812 167.910156 544.308594 182.375 542.53125 196.613281 C 540.792969 210.535156 530.664062 222.589844 517.433594 227.125 C 502.878906 232.121094 489.765625 225.730469 477.636719 217.925781 C 465.578125 210.171875 453.824219 202.152344 439.078125 201.113281 C 410.570312 199.113281 384.894531 219.585938 376.074219 245.867188 C 371.273438 260.183594 370.96875 275.78125 373.917969 290.511719 C 375.507812 298.441406 378.296875 305.914062 381.4375 313.347656 C 384.636719 320.914062 388.121094 328.589844 389.523438 336.746094 C 390.808594 344.214844 389.578125 351.644531 385.015625 357.792969 C 381.644531 362.332031 377.070312 365.933594 372.640625 369.382812 C 364.058594 376.070312 353.800781 383.238281 351.707031 394.726562 C 347.910156 415.542969 370.28125 427.738281 383.234375 439.597656 C 386.667969 442.742188 389.992188 446.125 392.464844 450.09375 C 393.609375 451.929688 394.582031 453.851562 395.230469 455.914062 C 395.5625 456.96875 395.839844 458.054688 396.011719 459.144531 C 396.292969 460.945312 396.375 460.851562 395.375 462.089844 C 388.082031 471.140625 374.304688 473.105469 363.925781 468.773438 C 351.542969 463.601562 346.078125 449.601562 347.539062 436.890625 C 349.15625 422.816406 359.339844 411.71875 372.40625 406.941406 C 386.28125 401.867188 401.300781 403.785156 414.09375 410.921875 C 428.085938 418.726562 437.699219 431.300781 444.921875 445.339844 C 452.148438 459.375 457.636719 475.058594 467.007812 488.246094 C 475.175781 499.738281 486.386719 510.117188 500.566406 513.136719 C 513.867188 515.96875 527.363281 511.667969 537.882812 503.386719 C 549.347656 494.359375 556.578125 481.25 558.640625 466.867188 C 560.910156 451 557.425781 434.9375 550.953125 420.4375 C 544.554688 406.089844 532.695312 393.507812 529.621094 377.8125 C 526.816406 363.484375 535.570312 350.792969 548.453125 345.101562 C 561.949219 339.132812 576.941406 342.839844 588.570312 351.164062 C 615.230469 370.242188 615.257812 407.070312 637.457031 429.621094 C 642.476562 434.71875 648.503906 438.875 655.320312 441.136719 C 656.738281 441.605469 658.703125 442.472656 660.210938 442.066406 C 661.609375 441.691406 663.03125 440.148438 664.109375 439.21875 C 666.640625 437.039062 668.90625 434.589844 670.960938 431.957031 C 679.464844 421.039062 683.542969 407.339844 684.535156 393.675781 C 687.023438 359.410156 668.691406 328.496094 659.957031 296.40625 C 655.359375 279.519531 652.953125 261.273438 658.035156 244.203125 C 661.894531 231.253906 670.929688 219.5 682.863281 213.035156 C 688.902344 209.761719 695.695312 208.046875 702.578125 208.464844 C 710.011719 208.921875 716.976562 212.003906 723.300781 215.75 C 735.960938 223.253906 746.851562 233.636719 761.160156 238.078125 C 773.351562 241.863281 788.253906 241.503906 796.9375 230.839844 C 805.710938 220.066406 803.613281 204.585938 797.617188 193.03125 C 783.320312 165.464844 749.554688 154.351562 720.539062 153 C 702.742188 152.167969 684.980469 154.351562 667.351562 156.523438 L 670.210938 159.382812 C 672.003906 145.515625 688.917969 138.6875 701.039062 142.839844 C 716.300781 148.0625 723.867188 165.007812 724.03125 180.113281 C 724.148438 190.804688 721.328125 201.242188 717.625 211.191406 L 723.242188 211.953125 C 725.035156 193.65625 736.011719 176.929688 751.890625 167.757812 L 749.007812 167.757812 C 761.199219 174.597656 769.371094 186.800781 771.296875 200.621094 C 771.664062 203.242188 775.332031 203.148438 776.523438 201.304688 L 803.046875 160.25 L 799.136719 161.273438 C 813.703125 170.507812 823.996094 185.320312 827.753906 202.132812 C 828.433594 205.179688 832.300781 204.492188 833.269531 202.132812 C 836.355469 194.605469 847.75 195.765625 852.949219 200.015625 C 861.347656 206.882812 863.285156 219.3125 865.832031 229.207031 L 875.914062 268.332031 C 879.1875 281.039062 883.769531 294.21875 883.621094 307.476562 C 883.492188 318.789062 878.257812 331.613281 866.605469 335.261719 L 868.808594 340.488281 C 882.488281 330.1875 889.070312 313.078125 887.859375 296.183594 C 886.609375 278.761719 877.328125 263.3125 862.25 254.375 C 846.667969 245.140625 826.875 243.261719 809.699219 248.832031 C 791.714844 254.660156 777.214844 268.691406 768.8125 285.40625 C 764.449219 294.085938 761.636719 303.414062 760.433594 313.054688 C 758.96875 324.816406 760.3125 336.679688 761.984375 348.339844 C 764.972656 369.132812 769.242188 390.714844 761.230469 410.964844 C 757.90625 419.375 752.203125 426.898438 744.238281 431.371094 C 735.148438 436.476562 724.125 437.070312 714.117188 434.738281 C 692.933594 429.792969 677.84375 412.328125 666.175781 395.054688 C 653.386719 376.121094 643.003906 355.558594 628.28125 337.972656 C 615.285156 322.445312 597.625 308.964844 577.316406 305.246094 C 572.386719 304.347656 567.402344 304.023438 562.402344 304.347656 C 560.769531 304.449219 559.667969 305.574219 559.542969 307.207031 C 557.632812 332.40625 561.648438 358.003906 571.050781 381.457031 C 575.703125 393.078125 581.570312 404.1875 588.707031 414.476562 C 592.261719 419.601562 596.132812 424.480469 600.195312 429.207031 C 604.5 434.214844 608.953125 439.15625 612.320312 444.871094 C 617.917969 454.371094 620.101562 470.007812 608.664062 476.363281 L 612.578125 477.386719 C 593.140625 450.300781 579.347656 419.421875 572.136719 386.867188 C 568.464844 370.289062 566.847656 353.5625 566.378906 336.613281 C 565.957031 321.398438 565.113281 304.324219 554.015625 292.660156 C 545.023438 283.207031 529.816406 278.222656 518.613281 286.941406 C 507.03125 295.953125 506.601562 312.429688 511.113281 325.183594 C 514.023438 333.394531 518.476562 340.972656 522.644531 348.585938 L 536.714844 374.277344 L 564.292969 424.632812 C 568.140625 431.664062 572.808594 438.65625 575.167969 446.378906 C 576.628906 451.167969 578.152344 458.664062 573.523438 462.292969 C 567.398438 467.097656 560.363281 460.503906 556.765625 455.765625 C 551.71875 449.117188 548.414062 440.84375 545.027344 433.273438 C 530.527344 400.855469 521.511719 365.902344 516.984375 330.726562 C 512.859375 298.660156 513.367188 262.078125 537.851562 237.75 C 547.726562 227.933594 560.847656 221.222656 574.984375 221.363281 C 589.234375 221.5 602.367188 228.5 612.484375 238.191406 C 636.9375 261.613281 641.328125 295.984375 645.308594 327.925781 C 649.019531 357.699219 653.671875 389.285156 673.359375 413.246094 C 677.742188 418.585938 682.855469 423.21875 688.535156 427.148438 C 689.894531 428.085938 691.597656 427.292969 692.445312 426.121094 C 708.03125 404.679688 711.84375 377.644531 711.605469 351.757812 C 711.347656 323.632812 706.203125 295.734375 707.402344 267.566406 C 708.082031 251.566406 710.972656 235.582031 717.996094 221.082031 L 713.503906 221.660156 C 727.945312 236.332031 728.917969 258.636719 726.195312 277.90625 C 722.839844 301.640625 714.761719 324.703125 706.605469 347.144531 C 690.867188 390.453125 672.867188 434.148438 674.347656 481.113281 C 675.101562 504.980469 681.101562 528.769531 694.632812 548.679688 L 695.660156 544.769531 C 687.527344 550.847656 676.511719 550.699219 667.6875 546.097656 C 658.25 541.171875 652.179688 531.601562 648.957031 521.71875 C 642.578125 502.167969 645.242188 480.128906 654.445312 461.917969 C 659.664062 451.601562 666.933594 442.535156 675.921875 435.261719 L 672.457031 435.710938 C 690.96875 445.453125 695.609375 471.066406 686.746094 488.917969 C 676.175781 510.214844 650.902344 520.148438 628.277344 520.398438 C 613.414062 520.5625 598.8125 517.277344 584.742188 512.722656 C 570.75 508.191406 557.402344 501.753906 543.308594 497.574219 C 531.164062 493.980469 518.089844 492.753906 506.128906 497.652344 C 495.875 501.84375 487.644531 510.285156 485.996094 521.53125 C 484.082031 534.585938 490.464844 547.910156 500.019531 556.582031 C 511 566.546875 525.242188 571.578125 539.023438 576.335938 L 538.339844 571.109375 C 523.785156 580.605469 505.386719 576.53125 491.878906 567.105469 C 475.824219 555.90625 468.417969 537 464.871094 518.414062 C 462.667969 506.878906 461.839844 495.140625 461.058594 483.441406 C 460.894531 481.042969 458.011719 479.578125 456.179688 481.421875 C 440.761719 496.90625 438.292969 523.070312 450.820312 541.050781 L 453.289062 536.746094 C 444.734375 537.339844 438.804688 531.386719 434.796875 524.441406 C 430.054688 516.214844 427.996094 507 425.910156 497.835938 C 420.335938 473.355469 415.265625 448.679688 412.617188 423.6875 C 410.027344 399.1875 409.699219 374.238281 413.757812 349.878906 C 417.1875 329.3125 423.554688 308.066406 437.222656 291.855469 C 449.753906 276.984375 468.855469 267.597656 488.578125 270.269531 C 497.929688 271.535156 506.363281 275.851562 512.8125 282.734375 C 519.261719 289.621094 523.832031 298.339844 529.175781 306.226562 C 534.5 314.082031 540.847656 321.511719 549.585938 325.644531 C 558.195312 329.71875 567.984375 330.820312 577.300781 328.867188 C 596.070312 324.925781 609.363281 307.527344 609.785156 288.582031 C 610.210938 269.148438 596.273438 253.796875 580.710938 244.097656 C 562.902344 232.996094 541.972656 228.621094 523.675781 218.503906 C 518.988281 215.90625 514.535156 212.941406 510.460938 209.453125 L 511.195312 212.234375 C 519.300781 182.824219 555.378906 171.664062 582.136719 180.191406 C 616.648438 191.183594 637.40625 224.476562 651.601562 255.617188 C 659.886719 273.789062 666.855469 292.554688 675.820312 310.417969 C 683.746094 326.203125 694.152344 342.242188 710.511719 350.269531 C 725.144531 357.453125 741.683594 357.019531 754.84375 347.039062 C 765.816406 338.710938 773.238281 326.785156 783.765625 317.996094 C 788.71875 313.863281 794.726562 310.601562 801.273438 310.164062 C 809.546875 309.613281 817.527344 313.246094 823.496094 318.820312 C 837.429688 331.84375 838.238281 352.730469 835.277344 370.359375 C 829.648438 403.886719 810.941406 433.011719 793.136719 461.269531 C 783.96875 475.820312 774.796875 490.414062 767.144531 505.839844 C 763.410156 513.371094 760.039062 521.097656 757.230469 529.023438 C 754.007812 538.109375 751.5625 547.519531 747.554688 556.3125 C 743.839844 564.472656 738.753906 572.054688 731.179688 577.089844 C 724.738281 581.375 715.945312 584.148438 708.453125 580.910156 C 696.785156 575.871094 691.566406 555.910156 706.863281 551.917969 C 713.972656 550.0625 721.800781 552.445312 728.792969 553.792969 C 736.15625 555.210938 743.953125 556.433594 751.292969 554.210938 C 765.339844 549.964844 772.496094 535.636719 776.164062 522.484375 C 778.464844 514.230469 779.542969 505.691406 780.640625 497.214844 C 782.042969 486.40625 783.097656 475.550781 783.804688 464.675781 C 785.195312 443.308594 785.246094 421.851562 783.953125 400.476562 C 783.320312 389.980469 782.351562 379.503906 781.078125 369.066406 C 780.640625 365.457031 774.914062 365.414062 775.359375 369.066406 C 780.78125 413.59375 780.46875 458.855469 774.09375 503.273438 C 772.03125 517.636719 769.042969 536.03125 756.488281 545.292969 C 742.886719 555.332031 726.0625 545.136719 711.140625 545.613281 C 704.1875 545.835938 697.136719 548.835938 693.644531 555.164062 C 690.417969 561.011719 691.128906 568.042969 693.875 573.914062 C 696.625 579.785156 702.253906 585.242188 708.859375 587.085938 C 716.867188 589.328125 725.578125 587.171875 732.554688 582.980469 C 749.480469 572.824219 755.113281 553.484375 760.929688 535.878906 C 766.597656 518.714844 774.714844 502.6875 783.898438 487.15625 C 801.699219 457.03125 823.144531 428.46875 834.757812 395.132812 C 840.660156 378.1875 844.457031 359.300781 841.269531 341.414062 C 838.238281 324.402344 826.371094 307.90625 808.433594 304.863281 C 793.292969 302.292969 781.242188 311.425781 771.535156 321.914062 C 762.117188 332.09375 752.996094 345.277344 738.742188 348.761719 C 719.757812 353.40625 701.949219 340.4375 691.492188 325.769531 C 679.777344 309.347656 672.488281 289.871094 664.683594 271.414062 C 650.351562 237.523438 633.542969 201.496094 600.410156 182.152344 C 586.421875 173.984375 570.472656 169.917969 554.324219 172.148438 C 539.765625 174.15625 525.324219 180.878906 515.640625 192.144531 C 510.988281 197.550781 507.585938 203.824219 505.6875 210.707031 C 505.433594 211.628906 505.667969 212.839844 506.421875 213.488281 C 523.03125 227.730469 544.308594 232.972656 563.882812 241.6875 C 580.882812 249.257812 599.332031 261.515625 603.402344 280.996094 C 607.472656 300.480469 593.90625 320.207031 574.5 323.59375 C 564.835938 325.28125 554.398438 323 546.496094 317.148438 C 538.589844 311.296875 533.59375 302.660156 528.472656 294.566406 C 523.386719 286.527344 517.992188 278.546875 510.246094 272.828125 C 502.777344 267.3125 493.550781 264.589844 484.335938 264.183594 C 464.71875 263.316406 446.054688 272.71875 433.472656 287.453125 C 420.046875 303.171875 412.953125 323.328125 409.128906 343.386719 C 404.472656 367.808594 404.089844 392.824219 406.300781 417.535156 C 408.527344 442.515625 413.238281 467.199219 418.664062 491.65625 C 420.886719 501.671875 422.785156 511.867188 426.882812 521.328125 C 430.0625 528.671875 434.796875 536.371094 442.136719 540.167969 C 445.601562 541.957031 449.398438 542.730469 453.285156 542.460938 C 455.265625 542.324219 457.089844 540.070312 455.753906 538.160156 C 444.667969 522.253906 446.496094 499.246094 460.214844 485.460938 L 455.335938 483.441406 C 456.8125 505.535156 458.5 528.566406 468.792969 548.609375 C 477.4375 565.441406 493.425781 578.773438 512.457031 581.710938 C 522.472656 583.253906 532.660156 581.632812 541.21875 576.046875 C 543.34375 574.664062 542.886719 571.636719 540.539062 570.820312 C 528.03125 566.5 514.902344 562.035156 504.777344 553.179688 C 496.117188 545.609375 489.589844 533.597656 491.703125 521.796875 C 493.816406 510.003906 504.441406 502.984375 515.527344 500.789062 C 528.992188 498.121094 542.671875 502.933594 555.074219 507.753906 C 581.40625 517.992188 609.117188 529.050781 637.96875 525.460938 C 660.023438 522.714844 683.308594 511.0625 692.625 489.769531 C 701.511719 469.445312 696.023438 441.660156 675.339844 430.773438 C 674.109375 430.125 672.914062 430.382812 671.875 431.21875 C 654.058594 445.644531 642.859375 467.191406 640.300781 489.878906 C 637.882812 511.304688 643.472656 538.824219 663.667969 550.425781 C 674.261719 556.507812 688.46875 557.238281 698.539062 549.714844 C 699.710938 548.839844 700.511719 547.195312 699.566406 545.800781 C 674.625 509.105469 676.847656 461.476562 687.695312 420.308594 C 693.992188 396.410156 703.109375 373.378906 711.5625 350.195312 C 719.835938 327.515625 728.007812 304.277344 731.578125 280.304688 C 734.796875 258.710938 733.757812 234.09375 717.542969 217.621094 C 716.328125 216.390625 713.859375 216.53125 713.050781 218.199219 C 687.78125 270.351562 713.15625 328.566406 703.675781 383.125 C 701.171875 397.550781 696.148438 411.339844 687.5 423.234375 L 691.410156 422.210938 C 665.90625 404.570312 657.242188 372.117188 653.015625 343.085938 C 648.203125 310.011719 647.230469 273.808594 626.652344 245.804688 C 618.238281 234.351562 607.257812 224.652344 593.933594 219.386719 C 580.699219 214.152344 566.082031 214.589844 553.085938 220.300781 C 540.09375 226.011719 529.464844 236.5 522.191406 248.535156 C 513.582031 262.789062 510.058594 279.535156 509.367188 296.023438 C 508.613281 313.917969 511.035156 331.886719 514.09375 349.480469 C 517.179688 367.257812 521.417969 384.84375 526.976562 402.011719 C 532.484375 419.035156 539.277344 435.695312 547.503906 451.59375 C 550.835938 458.039062 555.546875 464.875 562.300781 468.074219 C 568.054688 470.800781 575.019531 469.832031 579.117188 464.695312 C 582.882812 459.96875 582.699219 453.445312 581.460938 447.839844 C 579.871094 440.636719 576.105469 434.316406 572.601562 427.917969 L 544.179688 376.023438 L 530.109375 350.328125 C 525.679688 342.234375 520.710938 334.195312 517.339844 325.582031 C 514.515625 318.378906 512.941406 310.574219 514.96875 302.960938 C 516.738281 296.308594 521.183594 290.238281 528.132812 288.519531 C 534.632812 286.917969 541.496094 289.613281 546.589844 293.617188 C 552.816406 298.511719 556.367188 305.390625 558.257812 312.972656 C 560.355469 321.363281 560.472656 330.082031 560.707031 338.679688 C 560.945312 347.277344 561.460938 355.828125 562.507812 364.355469 C 566.621094 397.820312 577.421875 430.378906 594.269531 459.597656 C 598.375 466.714844 602.84375 473.609375 607.632812 480.285156 C 608.546875 481.5625 610.089844 482.121094 611.542969 481.3125 C 621.101562 476.003906 623.949219 464.316406 622.089844 454.160156 C 619.757812 441.40625 609.648438 431.734375 601.6875 422.1875 C 584.839844 401.980469 573.355469 377.441406 568.046875 351.707031 C 565.03125 337.078125 564.121094 322.101562 565.25 307.214844 L 562.390625 310.074219 C 583.105469 308.742188 602.101562 319.46875 616.488281 333.613281 C 632.132812 349 642.675781 368.621094 654.191406 387.066406 C 665.132812 404.59375 677.46875 422.589844 695.609375 433.34375 C 712.015625 443.070312 734.601562 445.730469 750.757812 433.980469 C 765.34375 423.371094 770.898438 404.945312 771.578125 387.625 C 772.476562 364.714844 764.585938 342.425781 765.605469 319.492188 C 766.441406 300.585938 774.410156 281.847656 788.042969 268.621094 C 801.335938 255.722656 819.558594 249.488281 837.96875 251.976562 C 855.035156 254.28125 871.265625 264.25 878.289062 280.390625 C 884.734375 295.203125 883.449219 313.570312 874.207031 326.929688 C 871.9375 330.210938 869.101562 333.160156 865.914062 335.558594 C 863.527344 337.355469 864.761719 341.835938 868.121094 340.78125 C 879.269531 337.292969 886.527344 326.738281 888.570312 315.554688 C 891.320312 300.507812 886.160156 285.210938 882.445312 270.785156 L 870.757812 225.421875 C 867.886719 214.285156 864.960938 200.601562 854.40625 194.054688 C 845.519531 188.539062 832.007812 190.230469 827.746094 200.613281 L 833.261719 200.613281 C 829.1875 182.367188 817.792969 166.332031 802.019531 156.339844 C 800.671875 155.484375 798.921875 156.101562 798.109375 157.363281 L 771.582031 198.421875 L 776.808594 199.105469 C 775.535156 189.953125 771.597656 181.417969 765.730469 174.308594 C 762.8125 170.773438 759.371094 167.683594 755.589844 165.097656 C 753.988281 164.003906 751.761719 162.058594 749.691406 162.535156 C 747.816406 162.972656 745.765625 164.777344 744.214844 165.871094 C 729.097656 176.574219 719.332031 193.550781 717.523438 211.957031 C 717.1875 215.378906 722.09375 215.527344 723.140625 212.71875 C 730.183594 193.789062 733.738281 171.398438 722.230469 153.410156 C 713.035156 139.042969 695.777344 131.257812 679.675781 139.03125 C 671.5 142.976562 665.65625 150.332031 664.492188 159.382812 C 664.3125 160.792969 665.957031 162.414062 667.351562 162.242188 C 704.714844 157.640625 748.910156 152.726562 779.578125 179.714844 C 790.90625 189.683594 802.246094 207.425781 795.183594 222.949219 C 787.96875 238.792969 767.476562 235.683594 754.75 229.398438 C 739.15625 221.691406 726.9375 207.699219 709.472656 203.742188 C 693.617188 200.148438 677.875 206.738281 666.871094 218.183594 C 638.40625 247.796875 651.027344 291.234375 663.488281 325.066406 C 670.304688 343.574219 677.8125 362.570312 678.910156 382.480469 C 679.789062 398.457031 676.511719 415.746094 666.402344 428.5625 C 663.96875 431.644531 661.136719 434.460938 658.003906 436.832031 L 660.210938 436.542969 C 637.402344 431.167969 628.160156 406.601562 620.191406 387.308594 C 615.808594 376.695312 611.039062 366.214844 603.574219 357.375 C 596.8125 349.359375 588.125 342.871094 578.253906 339.226562 C 560.023438 332.496094 537.921875 338.554688 527.773438 355.78125 C 515.574219 376.492188 531.621094 396.765625 541.542969 414.4375 C 552.53125 434 558.792969 459.851562 548.601562 481.070312 C 540.023438 498.933594 519.726562 512.710938 499.527344 506.972656 C 478.066406 500.875 466.738281 478.679688 458.152344 459.984375 C 453.199219 449.203125 448.425781 438.210938 441.539062 428.484375 C 435.328125 419.710938 427.453125 412.097656 418.15625 406.648438 C 400.507812 396.304688 377.84375 395.03125 360.414062 406.636719 C 344.242188 417.398438 336.988281 438.320312 344.640625 456.523438 C 351.667969 473.246094 371.121094 481 387.921875 474.253906 C 391.882812 472.664062 395.5625 470.324219 398.480469 467.191406 C 399.648438 465.933594 401.386719 464.214844 401.851562 462.527344 C 402.316406 460.835938 401.714844 458.445312 401.375 456.789062 C 400.011719 450.160156 395.976562 444.421875 391.40625 439.574219 C 381.808594 429.40625 368.144531 422.429688 360.515625 410.488281 C 357.011719 405 355.855469 398.546875 358.308594 392.367188 C 361.242188 384.972656 368.328125 379.882812 374.398438 375.183594 C 380.875 370.171875 387.695312 365.03125 391.832031 357.785156 C 397.484375 347.878906 396.121094 336.417969 392.613281 326.035156 C 388.859375 314.933594 383.222656 304.597656 380.378906 293.171875 C 377.640625 282.152344 376.863281 270.480469 378.675781 259.246094 C 382.050781 238.320312 394.433594 220.175781 414.007812 211.414062 C 422.789062 207.484375 432.839844 205.714844 442.394531 207.175781 C 452.738281 208.757812 461.601562 214.285156 470.210938 219.898438 C 478.761719 225.472656 487.527344 231.40625 497.636719 233.714844 C 507.347656 235.933594 517.394531 234.269531 526.082031 229.464844 C 544.179688 219.445312 552.167969 198.5625 546.792969 178.828125 C 544.238281 169.445312 538.941406 160.867188 531.671875 154.417969 C 530.757812 153.613281 529.296875 153.246094 528.203125 153.972656 C 518.953125 160.105469 515.429688 172.449219 518.863281 182.859375 C 523.144531 195.835938 536.652344 200.3125 549.214844 197.660156 C 564.597656 194.40625 575.332031 181.792969 587.527344 172.925781 C 599.726562 164.058594 614.402344 156.710938 629.933594 157.171875 C 642.5 157.542969 655.75 164.011719 662.132812 175.140625 C 668.515625 186.269531 665 200.570312 654.351562 207.988281 C 649.285156 211.519531 643.066406 212.925781 637.175781 210.671875 C 630.835938 208.242188 626.402344 202.613281 623.347656 196.773438 C 616.375 183.445312 616.371094 167.328125 607.542969 154.8125 C 592.398438 133.34375 559.5625 128.292969 538.824219 144.40625 C 537.132812 145.71875 538.136719 148.765625 540.085938 149.183594 C 556.035156 152.578125 572.722656 158.210938 583.429688 171.234375 C 593.089844 182.984375 596.542969 200.6875 585.457031 212.71875 C 580.679688 217.902344 573.820312 221.382812 566.640625 220.507812 C 560.261719 219.730469 554.953125 215.929688 550.609375 211.410156 C 541.410156 201.847656 535.617188 189.457031 525.445312 180.757812 C 506.195312 164.292969 477.453125 160.273438 454.023438 169.496094 C 442.078125 174.199219 431.777344 182.175781 424.726562 192.960938 C 417.671875 203.742188 414.34375 216.191406 414.042969 228.757812 C 413.433594 254.289062 426.78125 282.425781 451.945312 291.605469 C 458.773438 294.097656 466.640625 294.851562 473.519531 292.15625 C 479.851562 289.675781 484.71875 284.710938 487.476562 278.53125 C 493.125 265.886719 491.4375 250.515625 486.472656 237.929688 C 481.378906 225.023438 472.191406 213.628906 459.066406 208.382812 C 443.445312 202.136719 426.128906 206.332031 411.351562 212.871094 C 396.546875 219.421875 381.433594 228.429688 371.441406 241.433594 C 361.445312 254.4375 358.015625 270.308594 364.417969 284.984375 C 367.558594 292.183594 373.003906 298.890625 373.863281 306.902344 C 374.515625 313.023438 372.171875 320.734375 364.847656 320.84375 C 357.523438 320.957031 352.386719 314.414062 351.898438 307.554688 C 351.371094 300.144531 354.667969 292.636719 359.441406 287.097656 C 368.078125 277.066406 382.265625 271.515625 395.417969 273.84375 C 408.867188 276.222656 419.640625 286.679688 423.878906 299.480469 C 425.953125 305.742188 426.476562 312.386719 425.078125 318.851562 L 427.078125 316.855469 C 409.414062 321.132812 390.210938 311.988281 380.667969 296.863281 C 370.320312 280.464844 374.441406 259.953125 387.785156 246.546875 C 395.398438 238.898438 405.527344 233.960938 416.402344 233.753906 L 413.933594 232.335938 C 422.753906 245.324219 424.703125 261.816406 419.214844 276.515625 L 420.527344 274.804688 C 413.667969 278.730469 402.433594 277.753906 397.578125 270.816406 C 396.433594 269.179688 396.578125 266.527344 396.515625 264.585938 C 396.441406 262.183594 396.539062 259.769531 396.835938 257.382812 C 397.414062 252.746094 398.722656 248.109375 400.628906 243.84375 C 408.449219 226.351562 425.503906 215.542969 444.691406 216.34375 C 455.246094 216.78125 465.625 220.675781 473.605469 227.636719 L 475.628906 222.757812 C 467.480469 222 466.050781 210.40625 469.394531 204.671875 C 474.59375 195.753906 486.214844 192.253906 495.476562 189.460938 C 506.621094 186.101562 519.070312 183.941406 530.292969 188.167969 C 538.898438 191.410156 547.144531 198.820312 548.214844 208.40625 C 549.28125 217.992188 540.230469 229.769531 529.753906 227.539062 L 531.464844 231.738281 C 554.414062 200.59375 604.191406 193.914062 634.722656 217.582031 C 642.765625 223.816406 653.125 235.449219 648.632812 246.542969 C 646.882812 250.863281 642.832031 254.792969 638.132812 255.605469 C 633.496094 256.40625 629.507812 253.40625 628.027344 249.121094 C 624.753906 239.644531 630.308594 228.972656 636.300781 221.890625 C 643.160156 213.789062 652.433594 207.910156 662.539062 204.75 C 684.257812 197.957031 707.277344 204.757812 724.132812 219.472656 C 733.046875 227.257812 739.925781 236.804688 745 247.472656 C 750.734375 259.523438 754.339844 272.441406 759.117188 284.878906 C 766.828125 304.941406 779.546875 326.597656 801.644531 332.851562 C 821.304688 338.414062 843.449219 327.5 852.382812 309.390625 C 861.574219 290.765625 854.992188 267.242188 839.242188 254.265625 C 823.496094 241.292969 799.25 241.054688 781.957031 252.421875 C 777.625 255.269531 773.769531 258.746094 770.554688 262.808594 C 768.960938 264.820312 769.996094 267.433594 772.574219 267.6875 C 799.175781 270.34375 824.660156 282.121094 844.21875 300.300781 C 864.730469 319.375 877.789062 345.277344 881.601562 372.984375 C 883.804688 388.996094 882.808594 405.386719 878.6875 421.007812 L 883.914062 420.324219 C 872.578125 398.660156 868.328125 373.898438 871.519531 349.675781 C 871.636719 348.777344 870.90625 347.585938 870.101562 347.207031 C 866.78125 345.636719 863.476562 344.035156 860.140625 342.5 C 857.019531 341.0625 855.535156 342.429688 853 344.363281 C 848.996094 347.421875 845.382812 350.929688 842.238281 354.867188 C 835.761719 362.96875 831.15625 372.480469 828.769531 382.574219 C 826.386719 392.660156 826.183594 403.273438 828.449219 413.398438 C 831.125 425.351562 837.953125 435.136719 844.332031 445.363281 C 851.34375 456.609375 858.292969 471.796875 850.015625 484.273438 L 854.507812 483.695312 C 848.808594 478.246094 845.316406 471.007812 844.792969 463.121094 C 844.679688 461.359375 843.050781 459.757812 841.175781 460.363281 C 813.101562 469.464844 794.277344 494.535156 786.09375 522.058594 C 776.28125 555.058594 782.820312 589.480469 795.339844 620.820312 C 803.316406 640.78125 813.460938 659.753906 823.675781 678.628906 L 828.613281 675.746094 L 781.980469 607.332031 C 780.285156 604.84375 775.484375 606.332031 776.753906 609.535156 C 785.0625 630.492188 797.308594 649.601562 812.984375 665.816406 C 815.351562 668.269531 818.8125 665.167969 817.476562 662.351562 C 804.804688 635.742188 795.082031 607.820312 788.402344 579.121094 C 787.566406 575.535156 782.054688 577.054688 782.886719 580.640625 L 797.082031 641.847656 L 802.308594 639.640625 C 790.929688 619.0625 779.558594 598.480469 768.179688 577.902344 C 766.882812 575.5625 762.523438 576.449219 762.851562 579.34375 C 765.257812 600.652344 772.394531 621.3125 784.113281 639.308594 C 788.703125 646.363281 795.773438 654.554688 805.207031 652.699219 C 813.328125 651.101562 817.902344 642.261719 817.902344 634.554688 C 817.902344 624.1875 811.351562 615.109375 808.175781 605.570312 C 805.03125 596.132812 803.660156 586.199219 803.996094 576.261719 C 804.648438 557.070312 811.894531 539.050781 824.195312 524.390625 C 844.609375 500.054688 876.503906 482.746094 887.550781 451.511719 C 890.203125 444.015625 892.40625 434.441406 889.125 426.828125 C 885.675781 418.824219 876.78125 416.910156 869.273438 420.269531 C 860.378906 424.25 856.90625 433.421875 855.460938 442.464844 C 853.996094 451.675781 852.964844 460.683594 850.039062 469.59375 C 839.277344 502.367188 811.808594 530.867188 777.535156 538.3125 C 773.335938 539.226562 769.09375 539.773438 764.808594 540.007812 L 766.832031 544.886719 C 790.875 525.761719 819.628906 500.800781 815.347656 466.511719 C 813.636719 452.796875 805.167969 439.898438 792.480469 433.941406 C 779.441406 427.8125 765.398438 431.109375 754.71875 440.269531 C 742.25 450.960938 736.882812 466.929688 731.484375 481.894531 C 726.5625 495.523438 720.480469 508.613281 712.855469 520.953125 C 698.34375 544.441406 678.652344 565.359375 654.3125 578.753906 C 642.34375 585.339844 629.308594 589.933594 615.78125 591.953125 C 603.460938 593.789062 587.847656 594.222656 577.835938 585.484375 C 564.925781 574.210938 571.25 555.648438 580.042969 544.058594 C 584.890625 537.667969 590.695312 532.058594 596.105469 526.160156 C 601.691406 520.074219 607.0625 513.792969 612.132812 507.273438 C 631.007812 483 646.132812 454.636719 648.734375 423.535156 C 651.058594 395.753906 643.308594 365.988281 623.144531 345.957031 C 602.089844 325.035156 571.558594 318.277344 542.765625 318.277344 C 508.035156 318.277344 474.382812 328.402344 439.941406 331.402344 C 430.992188 332.179688 422.011719 332.449219 413.039062 332.011719 L 414.480469 337.339844 C 431.015625 325.332031 453.683594 325.003906 471.738281 333.863281 C 489.792969 342.722656 502.941406 361.394531 508.617188 381.027344 C 520.238281 421.199219 503.984375 468.996094 465.351562 487.957031 C 447.222656 496.859375 425.65625 498.761719 406.640625 491.542969 C 388.929688 484.820312 375.125 470.714844 365.777344 454.550781 C 356.109375 437.835938 350.644531 418.65625 349.109375 399.457031 C 347.429688 378.371094 349.964844 354.257812 364.578125 337.753906 C 376.535156 324.253906 397.867188 315.941406 415.007812 324.40625 C 435.769531 334.65625 439.597656 360.507812 438.09375 381.179688 C 437.617188 387.726562 436.726562 394.230469 435.820312 400.730469 L 438.578125 398.628906 C 419.820312 397.871094 402.652344 384.519531 396.035156 367.121094 C 389.1875 349.121094 395.433594 329.566406 409.449219 316.886719 C 417.292969 309.792969 427.359375 305.222656 437.964844 304.664062 L 435.945312 303.824219 L 443.210938 312.847656 L 443.789062 308.355469 L 435.175781 314.25 L 439.375 315.960938 C 433.527344 299.511719 435.835938 278.15625 453.542969 270.167969 C 460.679688 266.945312 469.167969 267.261719 475.304688 272.441406 C 480.957031 277.21875 484.074219 284.769531 481.664062 291.980469 L 487.28125 292.738281 C 486.488281 275.546875 493.527344 258.582031 505.96875 246.722656 C 518.769531 234.519531 536.84375 229.3125 554.261719 231.917969 C 564.273438 233.414062 573.6875 237.359375 581.730469 243.496094 L 580.703125 239.585938 C 578.75 243.4375 573.90625 244.351562 570.535156 241.769531 L 571.5625 245.683594 C 580.628906 233.023438 594.761719 221.242188 611.164062 221.492188 C 625.121094 221.707031 640.9375 234.148438 638.535156 249.28125 C 637.972656 252.828125 643.136719 254.449219 644.050781 250.804688 C 647.402344 237.425781 665.273438 229.902344 677.007812 237.605469 C 688.589844 245.214844 688.765625 265.015625 677.648438 273.097656 C 674.734375 275.214844 677.359375 280.035156 680.53125 278.035156 C 700.636719 265.351562 725.554688 257.046875 749.4375 261.851562 C 769.621094 265.914062 786.5625 280.378906 792.664062 300.261719 C 795.808594 310.511719 795.546875 321.585938 790.632812 331.238281 L 794.542969 330.214844 C 789.910156 326.773438 785.277344 323.335938 780.644531 319.894531 L 782.0625 322.363281 C 784.324219 297.421875 815.882812 284.964844 836.945312 294.441406 C 863.359375 306.320312 872.84375 338.4375 868.066406 365.101562 C 864.769531 383.480469 856.253906 400.398438 846.164062 415.933594 L 850.65625 415.355469 C 837.5 399.835938 827.9375 381.4375 822.511719 361.839844 C 819.84375 352.207031 818.15625 342.316406 817.5625 332.335938 C 817.257812 327.304688 817.222656 322.253906 817.460938 317.21875 C 817.574219 314.859375 817.746094 312.5 817.976562 310.148438 C 818.195312 307.941406 819.378906 304.53125 818.539062 302.472656 C 817.347656 299.554688 811.8125 297.554688 809.050781 296.675781 C 805.410156 295.519531 801.445312 295.179688 797.648438 295.550781 C 789.550781 296.347656 781.996094 299.828125 775.757812 304.988281 C 760.261719 317.804688 758.339844 339.652344 760.488281 358.328125 C 763.089844 380.945312 772.175781 403.976562 767.527344 426.914062 C 764.125 443.695312 748.449219 462.867188 729.371094 458.4375 C 713.054688 454.652344 705.792969 436.035156 705.429688 420.90625 C 704.910156 399.144531 716.21875 378.972656 718.941406 357.636719 C 720.9375 341.972656 717.730469 323.226562 705.539062 312.140625 C 689.664062 297.714844 667.917969 304.4375 651.472656 314.050781 C 634.808594 323.792969 617.878906 335.933594 606.5 351.742188 C 593.875 369.285156 591.882812 390.542969 597.039062 411.148438 C 602.527344 433.066406 614.386719 452.371094 623.980469 472.59375 C 633.339844 492.34375 641.59375 515.117188 635.910156 537.128906 C 633.773438 545.394531 624.457031 550.074219 616.597656 551.28125 C 608.210938 552.566406 599.675781 550.304688 593.015625 545.066406 C 576.871094 532.363281 574.679688 509.84375 580.269531 491.367188 C 586.441406 470.945312 601.300781 455.222656 610.3125 436.210938 C 614.347656 427.699219 617.191406 418.351562 616.386719 408.835938 C 615.65625 400.152344 612.167969 392.207031 606.511719 385.609375 C 595.113281 372.316406 576.828125 365.878906 559.660156 365.816406 C 542.492188 365.75 524.699219 371.890625 510.5625 382.191406 C 496.425781 392.496094 485.398438 406.667969 479.941406 423.253906 C 479.320312 425.144531 478.496094 427.234375 478.265625 429.222656 C 478.03125 431.207031 479.164062 432.832031 480.121094 434.417969 C 481.925781 437.398438 484.269531 440.082031 486.9375 442.324219 C 492.574219 447.050781 499.300781 450.074219 506.082031 452.769531 C 519.644531 458.15625 536.625 462.496094 543.769531 476.613281 C 552.691406 494.25 542.71875 515.070312 527.492188 525.316406 C 511.265625 536.238281 490.03125 539.128906 470.96875 536.199219 C 452.125 533.300781 434.085938 524.585938 421.171875 510.398438 C 408.261719 496.210938 401.679688 477.574219 402.140625 458.871094 C 402.597656 440.339844 410.75 423.1875 425.171875 411.492188 C 438.542969 400.652344 456.851562 394.949219 473.933594 398.351562 C 490.78125 401.707031 504.71875 413.875 511.933594 429.261719 C 519.535156 445.472656 518.101562 464.132812 507.382812 478.597656 C 495.578125 494.519531 475.144531 501.644531 455.972656 496.734375 C 437.164062 491.917969 424.050781 476.359375 419.382812 457.917969 C 414.550781 438.847656 419.445312 419.113281 429.832031 402.746094 C 435.261719 394.1875 442.117188 386.527344 449.867188 380.003906 C 457.433594 373.636719 467.441406 367.585938 477.757812 369.355469 C 486.738281 370.894531 494 378.0625 497.390625 386.292969 C 501.519531 396.3125 499.945312 407.714844 496.089844 417.550781 C 489.65625 433.972656 474.246094 449.878906 455.839844 451.433594 C 435.777344 453.128906 422.539062 434.929688 421.496094 416.449219 C 420.84375 404.933594 423.808594 393.449219 428.007812 382.808594 C 431.363281 374.308594 436.359375 366.128906 443.074219 359.871094 C 449.175781 354.175781 457.363281 350.246094 465.847656 352.074219 C 474.335938 353.902344 480.355469 360.644531 483.539062 368.347656 C 491.5 387.613281 480.488281 407.550781 471.191406 424.132812 L 474.421875 422.816406 C 462.671875 418.285156 452.632812 408.359375 449.195312 396.09375 C 445.933594 384.453125 449.722656 371.910156 458.679688 363.804688 C 467.90625 355.453125 481.160156 354.847656 490.894531 362.730469 C 499.394531 369.609375 503.699219 382.339844 495.941406 391.417969 C 489.253906 399.246094 475.769531 402.753906 467.671875 395.078125 L 468.511719 397.097656 C 467.171875 375.5 465.589844 350.0625 481.734375 333.148438 C 488.378906 326.1875 497.496094 321.175781 507.34375 321.808594 C 515.230469 322.3125 521.601562 327.492188 525.152344 334.355469 C 528.863281 341.515625 529.097656 350.601562 522.773438 356.320312 L 527.65625 358.339844 C 527.480469 322.453125 556.070312 289.609375 591.488281 284.414062 L 589.28125 284.125 C 599.695312 288.6875 606.304688 300.703125 603.5625 311.960938 C 600.804688 323.289062 588.671875 331.453125 577.132812 329.878906 L 579.132812 331.878906 C 575.9375 309.058594 580.28125 281.847656 602.171875 269.535156 C 611.105469 264.507812 621.886719 263.664062 631.273438 268.027344 C 639.921875 272.046875 646.613281 280.117188 646.308594 289.988281 C 646 299.859375 639.277344 309.527344 629.203125 311.179688 L 631.40625 311.46875 L 622.4375 305.34375 L 623.015625 309.835938 C 637.421875 291.738281 660.65625 282.085938 683.640625 283.636719 C 707.234375 285.222656 727.652344 299.957031 738.578125 320.640625 C 744.757812 332.328125 747.601562 345.53125 746.511719 358.714844 L 748.609375 355.957031 C 719.007812 361.203125 688.578125 342.796875 675.625 316.429688 C 671.90625 308.867188 669.769531 300.585938 669.417969 292.164062 L 668.003906 294.632812 C 689.492188 279.738281 716.070312 273.464844 742.003906 276.265625 C 767.742188 279.039062 791.382812 291.433594 808.53125 310.765625 C 824.988281 329.316406 835.226562 353.644531 836.089844 378.492188 C 836.859375 400.6875 828.921875 428.144531 806.492188 437.371094 C 779.785156 448.355469 751.292969 427.710938 732.140625 411.015625 C 713.289062 394.589844 694.515625 370.53125 703.855469 344.027344 C 707.878906 332.613281 717.664062 324.957031 729.527344 323.09375 C 741.609375 321.191406 754.390625 324.789062 764.527344 331.378906 C 783.492188 343.710938 794.011719 365.050781 797.339844 386.933594 C 805.574219 441.101562 770.109375 486.675781 734.863281 523.40625 C 730.074219 528.390625 725.222656 533.320312 720.363281 538.238281 L 725.140625 539.5 C 713.445312 509.777344 730.773438 478.878906 731.320312 448.746094 C 731.539062 436.695312 729.6875 423.949219 723.207031 413.5625 C 716.351562 402.570312 704.925781 395.9375 692.085938 394.796875 C 662.007812 392.125 640.074219 416.1875 626.617188 440.105469 C 619.195312 453.289062 612.097656 467.925781 612.289062 483.410156 C 612.453125 496.402344 618.050781 510.382812 630.117188 516.609375 C 642.105469 522.796875 659.082031 520.636719 664.875 507.117188 C 667.277344 501.503906 667.476562 494.917969 665.050781 489.269531 C 663.878906 486.539062 662.105469 484.144531 659.753906 482.3125 C 658.488281 481.324219 657.476562 480.625 655.8125 480.808594 C 653.253906 481.082031 650.53125 482.214844 648.042969 482.875 C 645.792969 483.476562 645.097656 487.003906 647.359375 488.101562 C 665.757812 497.042969 687.320312 495.777344 705.566406 487.070312 C 714.695312 482.714844 723.054688 476.375 729.449219 468.519531 C 732.5625 464.691406 735.28125 460.566406 737.386719 456.101562 C 738.4375 453.886719 739.492188 451.558594 740.167969 449.191406 C 740.929688 446.527344 739.097656 443.980469 737.710938 441.753906 C 730.785156 430.609375 718.820312 423.402344 705.828125 422.105469 C 703.421875 421.863281 701.972656 425.441406 703.808594 426.984375 C 712.816406 434.582031 725.632812 436.355469 736.539062 431.964844 C 747.707031 427.460938 754.601562 416.996094 755.035156 405.039062 C 755.453125 393.433594 749.605469 381.585938 738.988281 376.3125 C 728.367188 371.039062 715.34375 372.011719 705.894531 378.785156 C 703.082031 380.796875 700.300781 382.996094 699.648438 386.515625 C 698.996094 390.035156 698.746094 393.859375 699.050781 397.539062 C 699.71875 405.5625 702.570312 413.261719 707.4375 419.683594 C 708.925781 421.648438 711.8125 421.476562 712.660156 419 C 717.835938 403.921875 717.910156 387.265625 713.1875 372.0625 C 710.835938 364.488281 707.328125 357.222656 702.691406 350.78125 C 701.644531 349.324219 700.554688 347.445312 699.191406 346.265625 C 697.746094 345.015625 695.574219 345.421875 693.804688 345.535156 C 690.210938 345.769531 686.617188 346.332031 683.128906 347.230469 C 668.835938 350.910156 656.09375 360.003906 647.71875 372.113281 C 639.339844 384.226562 636.300781 399.355469 638.679688 413.972656 C 641.339844 430.339844 650.738281 445.359375 664.523438 454.601562 C 665.503906 455.257812 667.207031 455.0625 667.988281 454.152344 C 688.15625 430.636719 711.027344 400.6875 701.25 367.625 C 692.917969 339.445312 661.898438 326.875 634.683594 328.074219 C 614.425781 328.96875 595.101562 335.769531 576.1875 342.523438 C 574.921875 342.976562 574.171875 343.941406 574.085938 345.28125 C 571.1875 391.761719 604.808594 429.378906 616.453125 472.324219 C 619.347656 483 620.75 494.03125 619.714844 505.082031 C 618.652344 516.410156 614.601562 527.328125 608.445312 536.867188 C 596.230469 555.789062 575.519531 569.234375 552.824219 570.65625 C 527.046875 572.269531 500.785156 559.808594 486.414062 538.226562 L 483.1875 542.425781 C 506.125 547.917969 530.53125 553.609375 553.847656 546.886719 C 571.882812 541.683594 588.328125 528.917969 592.628906 509.925781 C 596.382812 493.34375 591.0625 475.632812 580.839844 462.367188 C 569.316406 447.410156 551.890625 439.492188 533.148438 438.890625 C 510.015625 438.144531 487.273438 447.996094 470.085938 463.09375 C 467.871094 465.035156 470.234375 468.574219 472.871094 467.871094 C 501.648438 460.210938 534.546875 477.589844 544.242188 505.8125 L 545.558594 502.585938 C 518.347656 518.574219 481.929688 516.410156 456.746094 497.363281 C 444.753906 488.289062 432.074219 471.617188 441.566406 456.40625 C 446.445312 448.582031 455.554688 447.972656 463.875 449.214844 C 472.195312 450.457031 480.71875 452.589844 489.460938 451.792969 C 504.695312 450.414062 520.089844 442.730469 527.582031 428.894531 C 534.566406 416 534.429688 398.894531 525.121094 387.15625 C 523.917969 385.640625 523.019531 384.660156 521.085938 384.28125 C 519.3125 383.929688 517.492188 383.71875 515.675781 383.703125 C 512.257812 383.671875 508.773438 384.289062 505.558594 385.453125 C 498.914062 387.855469 493.167969 392.269531 488.824219 397.8125 C 479.648438 409.519531 477.722656 424.945312 484.835938 438.167969 C 491.609375 450.765625 504.96875 459.347656 518.859375 461.9375 C 534.167969 464.785156 549.78125 460.113281 562.277344 451.125 C 591.070312 430.402344 600.035156 394.054688 600.300781 360.316406 C 600.425781 344.109375 599.660156 327.191406 595.628906 311.421875 C 592.304688 298.40625 585.96875 284.929688 573.878906 277.964844 C 558.835938 269.300781 541.324219 274.171875 527.511719 282.851562 C 512.875 292.042969 500.121094 305.101562 489.628906 318.742188 C 469.351562 345.09375 458.160156 379.59375 468.804688 412.257812 C 473.660156 427.171875 483.023438 440.464844 496.394531 448.867188 C 508.796875 456.660156 523.929688 460.203125 538.460938 458.113281 C 545.515625 457.101562 552.28125 454.617188 558.304688 450.8125 C 561.199219 448.984375 559.203125 445.121094 556.097656 445.585938 C 523.84375 450.414062 490.148438 442.449219 463.003906 424.519531 C 435.585938 406.417969 416.414062 377.976562 408.628906 346.167969 C 404.25 328.269531 403.53125 309.488281 406.84375 291.34375 L 401.328125 291.34375 C 405.789062 320.96875 415.574219 349.628906 430.054688 375.847656 C 431.039062 377.625 433.152344 377.507812 434.550781 376.425781 C 451.238281 363.46875 469.300781 348.445312 471.085938 325.824219 C 471.835938 316.300781 469.230469 306.355469 462.496094 299.363281 C 456.109375 292.738281 447.117188 289.753906 438.464844 287.410156 C 428.492188 284.707031 417.53125 282.671875 409.992188 275.023438 L 410.4375 278.492188 C 419.898438 259.589844 430.910156 237.878906 452.796875 231.457031 C 462.476562 228.617188 472.675781 229.722656 480.832031 235.917969 C 488.398438 241.664062 493.441406 250.078125 498.886719 257.695312 C 504.492188 265.53125 510.703125 272.777344 519.183594 277.613281 C 527.886719 282.566406 538.292969 284.929688 548.148438 282.433594 C 564.246094 278.359375 576.328125 257.957031 566.6875 242.808594 C 556.203125 226.335938 532.859375 229.363281 519.71875 216.453125 L 519.140625 220.945312 C 534.714844 209.507812 556.128906 212.03125 572.144531 221.253906 C 590.25 231.679688 602.644531 249.460938 614.394531 266.203125 C 616.273438 268.882812 620.226562 267.242188 619.621094 263.996094 C 615.519531 242.042969 611.414062 220.089844 607.3125 198.132812 L 606.578125 200.914062 C 625.351562 182.867188 653.4375 171.667969 679.296875 179.328125 C 693.003906 183.386719 704.300781 192.671875 715.945312 200.570312 C 726.46875 207.703125 737.429688 213.460938 750.269531 214.675781 C 762.800781 215.859375 775.832031 212.136719 783.113281 201.296875 C 784.453125 199.300781 782.605469 197.234375 780.644531 196.996094 C 759.148438 194.390625 737.652344 191.789062 716.15625 189.1875 C 712.980469 188.804688 712.234375 194.226562 715.398438 194.804688 C 738.949219 199.101562 762.578125 193.53125 786.230469 195.140625 C 805.53125 196.453125 826.566406 203.710938 834.042969 223.265625 C 837.527344 232.378906 837.453125 242.523438 831.640625 250.65625 L 836.578125 253.539062 C 844.214844 239.195312 836.332031 222.355469 824.164062 213.363281 C 808.34375 201.667969 786.550781 204.152344 768.273438 206.402344 L 769.03125 212.019531 C 784.222656 205.609375 801.390625 205.324219 816.824219 211.132812 C 831.890625 216.804688 843.871094 228.609375 850.671875 243.097656 C 854 250.195312 856.027344 258.011719 856.476562 265.839844 C 856.867188 272.660156 856.363281 280.367188 852.222656 286.109375 C 846.675781 293.804688 837.425781 290.730469 829.988281 287.933594 C 821.765625 284.84375 813.742188 281.242188 805.941406 277.199219 C 788.324219 268.0625 771.96875 256.644531 757.300781 243.28125 L 756.722656 247.773438 C 769.484375 241.242188 784.617188 235.851562 799.15625 238.179688 C 812.640625 240.339844 822.625 249.835938 826.617188 262.71875 C 835.972656 292.902344 814.628906 319.886719 799.726562 344.023438 C 790.585938 358.839844 782.617188 374.863281 781.769531 392.554688 C 781.640625 395.1875 784.902344 396.117188 786.648438 394.578125 C 801.53125 381.441406 810.132812 361.765625 810.101562 341.941406 C 810.070312 322.300781 801.003906 303.535156 786.207031 290.71875 C 778.011719 283.617188 768.324219 278.417969 757.800781 275.75 L 757.042969 281.367188 C 781.550781 280.171875 804.953125 295.28125 815.792969 317.003906 C 826.941406 339.355469 821.03125 365.886719 804.335938 383.789062 C 794.980469 393.824219 782.757812 400.738281 769.148438 402.839844 L 772.667969 404.839844 C 771.25 401.433594 769.871094 398.011719 768.414062 394.625 C 767.78125 393.148438 768.054688 392.84375 769.027344 391.515625 C 769.820312 390.429688 770.8125 389.464844 771.878906 388.65625 C 775.984375 385.550781 781.648438 384.421875 786.671875 385.363281 C 798.902344 387.65625 807.148438 399.632812 811.945312 410.191406 C 822.632812 433.742188 819.308594 462.308594 803.105469 482.503906 C 794.644531 493.046875 783.300781 501.136719 770.484375 505.464844 L 773.265625 510.242188 C 782.824219 500.414062 793.464844 489.25 795.066406 474.957031 C 796.277344 464.140625 791.652344 451.476562 781.109375 446.921875 C 767.710938 441.128906 752.890625 450.917969 742.441406 458.617188 C 731.535156 466.648438 722.03125 476.378906 714.195312 487.421875 C 705.304688 499.953125 698.773438 514.132812 695.039062 529.039062 C 694.539062 531.023438 696.421875 533.304688 698.554688 532.554688 C 705.308594 530.1875 712.167969 534.132812 715.675781 539.980469 C 719.503906 546.363281 718.242188 553.894531 714.402344 559.960938 C 704.882812 575.019531 685.476562 576.777344 669.386719 578.019531 L 671.855469 582.324219 L 678.445312 571.636719 C 679.1875 570.433594 678.816406 568.332031 677.417969 567.722656 C 657.949219 559.28125 636.839844 555.410156 615.636719 556.675781 L 617.078125 562.003906 C 632.96875 551.8125 644.546875 535.707031 649.628906 517.554688 C 652.160156 508.515625 653.105469 498.9375 652.089844 489.597656 C 651.070312 480.257812 648.46875 470.808594 641.589844 464.371094 C 626.164062 449.925781 603.589844 462.292969 592.945312 476.257812 C 581.332031 491.5 577.703125 512.070312 581.847656 530.621094 C 586.746094 552.539062 601.667969 570.996094 619.878906 583.546875 L 619.878906 578.613281 C 604.367188 587.242188 587.246094 593.003906 569.617188 595.222656 C 563.1875 596.035156 553.125 597.996094 547.808594 593.035156 C 542.214844 587.808594 546.660156 578.867188 548.773438 573.035156 C 551.242188 566.222656 552.777344 559.464844 550.65625 552.328125 C 548.640625 545.546875 544.167969 539.71875 538.550781 535.5 C 525.933594 526.019531 509.050781 527.464844 495.472656 534.027344 C 478.492188 542.238281 467.171875 558.089844 456.542969 573.042969 C 455.578125 574.402344 456.425781 576.097656 457.570312 576.953125 L 476.914062 591.4375 C 479.160156 593.121094 481.449219 590.347656 481.113281 588.210938 C 477.300781 563.757812 447.160156 557.730469 431.742188 542.671875 C 420.097656 531.300781 420.011719 514.621094 413.367188 500.609375 C 407.828125 488.925781 393.238281 477.203125 379.953125 484.011719 C 368.367188 489.949219 367.617188 506.644531 375.035156 516.074219 C 383.996094 527.472656 401.453125 530.140625 414.6875 525.863281 C 421.007812 523.820312 427.039062 520.070312 430.566406 514.300781 C 434.421875 508.003906 434.289062 500.382812 431.410156 493.746094 C 424.394531 477.566406 406.695312 472.945312 393.214844 463.882812 C 371.191406 449.082031 363.148438 417.332031 373.632812 393.289062 C 374.96875 390.230469 376.628906 387.328125 378.507812 384.570312 L 373.179688 383.128906 C 373.042969 397.347656 376.628906 412.816406 387.191406 423.003906 C 396.199219 431.691406 410 434.414062 421.5625 429.410156 C 434.058594 424 438.519531 410.140625 433.394531 397.859375 C 427.042969 382.625 412.039062 375.65625 396.984375 371.671875 C 381.515625 367.570312 365.402344 364.78125 352.871094 354.003906 C 342.335938 344.941406 336.726562 331.453125 341.980469 317.972656 C 344.105469 312.519531 348.125 307.53125 353.652344 305.292969 C 360.527344 302.511719 368.046875 304.347656 374.457031 307.464844 C 381.492188 310.890625 387.824219 315.5625 394.550781 319.527344 C 401.546875 323.648438 409.066406 326.65625 417.113281 327.90625 C 432.761719 330.339844 449.320312 327.082031 462.34375 317.882812 C 474.449219 309.335938 483.347656 296.449219 487.011719 282.085938 C 487.941406 278.429688 488.492188 274.683594 488.753906 270.925781 C 488.835938 269.769531 487.816406 268.386719 486.65625 268.167969 L 455.277344 262.292969 L 456.988281 266.492188 C 463.597656 253.53125 475.019531 243.457031 488.492188 238.027344 C 502.597656 232.34375 517.683594 232.070312 531.992188 237.140625 C 549.203125 243.242188 565.113281 254.578125 584.042969 254.449219 C 598.460938 254.347656 614.203125 245.234375 615.96875 229.757812 C 617.585938 215.570312 600.878906 201.464844 587.65625 209.652344 L 591.121094 214.144531 C 608.78125 199.921875 630.226562 190.59375 652.644531 187.230469 C 662.246094 185.792969 674.730469 184.042969 683.421875 189.53125 C 691.441406 194.597656 691.609375 204.851562 691.820312 213.3125 C 692.058594 222.699219 692.25 232.902344 699.355469 239.960938 C 700.476562 241.074219 702.269531 241.023438 703.402344 239.960938 C 712.371094 231.546875 713.367188 216.417969 705.285156 207.054688 C 697.082031 197.546875 682.015625 197.003906 672.425781 204.515625 C 669.894531 206.492188 673.28125 210.945312 675.890625 209.007812 C 690.289062 198.304688 707.414062 191.804688 725.328125 190.539062 L 723.308594 189.699219 C 740.007812 205.378906 743.871094 231.84375 764.746094 243.632812 C 772.652344 248.101562 782.757812 249.121094 791.167969 245.457031 C 799.578125 241.792969 804.339844 233.992188 802.796875 225.039062 C 801.246094 216.046875 793.738281 208.335938 784.203125 209.914062 L 785.722656 215.429688 C 803.164062 209.328125 820.609375 203.222656 838.050781 197.117188 L 834.820312 192.917969 C 823.542969 211.628906 818.769531 236.21875 830.871094 255.75 C 841.160156 272.351562 861.488281 281.234375 879.691406 271.847656 C 889.003906 267.042969 895.714844 258.265625 896.855469 247.769531 C 896.957031 246.824219 896.246094 245.738281 895.4375 245.300781 C 882.40625 238.261719 869.378906 231.21875 856.347656 224.175781 L 854.902344 229.503906 C 871.960938 228.382812 892.289062 227.273438 904.59375 241.53125 C 909.457031 247.164062 911.753906 254.835938 908.855469 261.9375 C 906.191406 268.464844 900.054688 273.414062 892.800781 272.472656 L 893.558594 278.089844 C 902.71875 275.667969 911.574219 281.070312 916.859375 288.34375 C 923.261719 297.152344 923.855469 308.328125 922.863281 318.820312 C 920.878906 339.746094 912.511719 361.660156 922.804688 381.765625 C 923.65625 383.429688 926.046875 383.578125 927.296875 382.34375 C 936.699219 373.09375 932.628906 358.503906 924.839844 349.644531 C 914.320312 337.6875 896.8125 336.625 883.15625 330.171875 C 878.023438 327.746094 869.308594 322.027344 872.296875 315.109375 C 874.175781 310.761719 880.238281 310.054688 884.296875 310.902344 C 899.484375 314.082031 896.402344 335.628906 895.320312 346.808594 L 889.214844 410.035156 C 888.953125 412.753906 892.398438 413.464844 894.09375 412.054688 C 915.421875 394.40625 924.816406 364.339844 917.628906 337.652344 C 917.039062 335.457031 914.4375 335.027344 912.851562 336.394531 C 894.789062 351.953125 873.070312 362.800781 849.828125 368.074219 L 851.351562 373.589844 C 874.929688 366.476562 901.417969 378.316406 914.566406 398.574219 C 921.453125 409.1875 924.371094 421.96875 921.902344 434.460938 C 919.386719 447.199219 912.183594 458.621094 902.449219 467.105469 C 891.203125 476.910156 876.488281 482.363281 861.539062 480.875 L 863.5625 485.753906 C 888.832031 460.738281 902.839844 425.265625 901.402344 389.726562 C 901.332031 388.007812 899.609375 386.308594 897.785156 386.96875 C 881.648438 392.8125 866.96875 402.261719 855.003906 414.578125 C 849.152344 420.601562 843.941406 427.300781 839.570312 434.46875 C 835.199219 441.632812 829.730469 450.589844 830.527344 459.226562 C 831.367188 468.3125 839.226562 471.652344 846.269531 475.496094 C 852.347656 478.808594 856.726562 484.042969 858.890625 490.632812 C 863.402344 504.386719 859.230469 520.421875 849.738281 531.089844 C 836.164062 546.339844 816.027344 553.1875 797.234375 559.511719 L 800.75 563.027344 C 805.769531 548.828125 815.289062 536.472656 827.738281 527.992188 L 823.824219 524.082031 L 808.578125 557.851562 C 807.863281 559.4375 808.328125 561.613281 810.289062 562.054688 C 824.402344 565.230469 834.644531 547.40625 828.355469 535.582031 C 820.929688 521.617188 801.167969 521.722656 789.515625 529.648438 C 781.332031 535.214844 775.609375 543.539062 771.042969 552.167969 C 769.570312 554.957031 773.214844 558.074219 775.535156 555.636719 C 792.597656 537.691406 810.496094 518.140625 813.078125 492.363281 C 814.207031 481.074219 812.003906 468.914062 805.140625 459.667969 C 799.269531 451.753906 790.113281 446.292969 780.371094 444.832031 C 770.769531 443.394531 760.839844 446.042969 754.117188 453.289062 C 747.222656 460.71875 744.554688 471.375 745.507812 481.316406 C 746.589844 492.601562 752.167969 502.609375 759.578125 511.003906 C 767.421875 519.890625 777.359375 526.042969 786.128906 533.847656 C 790.609375 537.835938 794.976562 542.59375 796.230469 548.644531 C 797.484375 554.699219 794.804688 560.4375 790.46875 564.554688 C 779.117188 575.347656 762.175781 572.0625 748.371094 569.226562 L 750.082031 573.425781 C 757.507812 559.339844 765.535156 543.996094 764.898438 527.59375 C 764.429688 515.527344 758.574219 502.867188 748.074219 496.378906 C 736.898438 489.472656 723.175781 492.398438 714.328125 501.640625 C 705.386719 510.992188 702.269531 524.527344 706.742188 536.726562 C 711.996094 551.046875 724.941406 561.285156 739.203125 565.800781 L 739.203125 560.285156 L 686.828125 568.605469 L 690.445312 571.363281 C 691.882812 554.910156 684.191406 537.542969 670.046875 528.640625 C 656.710938 520.242188 638.964844 521.761719 626.703125 531.453125 C 614.113281 541.398438 611.316406 558.429688 619.667969 572.066406 C 627.332031 584.585938 643.824219 591.828125 657.011719 583.003906 C 669.675781 574.53125 675.277344 555.160156 664.460938 543.054688 C 663.820312 542.335938 662.589844 542.011719 661.675781 542.320312 C 652.65625 545.359375 644.199219 549.765625 636.640625 555.558594 C 632.917969 558.410156 629.324219 561.519531 626.179688 565.003906 C 623.464844 568.019531 620.765625 571.992188 621.601562 576.261719 C 623.578125 586.347656 636.175781 581.945312 642.507812 580.066406 L 675.988281 570.132812 L 673.207031 565.355469 L 656.246094 583.667969 C 655.601562 584.359375 655.136719 585.503906 655.511719 586.449219 C 662.847656 605.035156 684.871094 615.78125 703.996094 609.359375 C 705.863281 608.734375 707.011719 606.054688 705.257812 604.582031 L 672.507812 577.117188 L 671.246094 581.894531 C 681.007812 577.972656 690.777344 574.050781 700.539062 570.136719 L 696.917969 567.378906 C 697.652344 589.652344 713.449219 609.964844 734.902344 616.070312 C 736.578125 616.546875 738.671875 615.179688 738.523438 613.3125 L 736.355469 586.066406 L 730.738281 586.824219 C 733.730469 605.507812 757.699219 616.179688 773.707031 606.378906 C 775.925781 605.019531 775.289062 601.988281 773.023438 601.152344 C 762.832031 597.382812 756.667969 585.671875 759.121094 575.140625 L 755.601562 577.136719 C 771.492188 583.082031 779.441406 602.84375 773.054688 618.296875 C 772 620.851562 775.285156 622.453125 777.253906 621.523438 C 785.230469 617.765625 793.394531 613.203125 798.289062 605.582031 C 802.585938 598.890625 804.109375 589.355469 799.539062 582.390625 C 795.859375 576.777344 788.171875 573.722656 781.671875 575.707031 C 778.535156 576.664062 775.300781 578.710938 775.046875 582.1875 C 774.746094 586.261719 775.292969 590.476562 776.460938 594.378906 C 779.117188 603.234375 785.023438 610.871094 793.003906 615.542969 L 794.445312 610.214844 C 783.453125 611.5 772.804688 604.132812 770.375 593.28125 C 769.898438 591.152344 767.0625 590.550781 765.597656 592.019531 L 746.933594 610.710938 C 745.441406 612.207031 746.089844 614.964844 748.195312 615.492188 C 760.855469 618.640625 771.414062 627.183594 777.222656 638.855469 C 778.640625 641.707031 783.6875 639.671875 782.449219 636.648438 C 778.464844 626.945312 770.332031 619.628906 760.074219 617.113281 L 762.074219 620.632812 C 763.136719 617.011719 764.195312 613.394531 765.257812 609.773438 L 759.742188 608.253906 C 756.933594 627.816406 774.367188 647.300781 794.410156 645.472656 C 798.109375 645.136719 798.058594 640.164062 794.410156 639.753906 C 789.484375 639.199219 783.222656 638.597656 780.160156 634.136719 C 777.867188 630.796875 778.4375 625.851562 783.183594 625.792969 C 786.949219 625.75 790.324219 628.339844 791.378906 631.898438 C 793.039062 637.496094 790.671875 643.558594 788.519531 648.6875 C 787.097656 652.078125 792.628906 653.554688 794.035156 650.207031 Z M 794.027344 650.234375 " fill-opacity="1" fill-rule="nonzero"/><g fill="#000000" fill-opacity="1"><g transform="translate(415.614009, 417.374999)"><g><path d="M 5.671875 0 L 2.921875 0 L 2.921875 -25.828125 L 5.671875 -25.828125 Z M 5.671875 0 "/></g></g></g></svg>